#N canvas 894 159 824 982 10;
#X declare -path abs;
#X obj 93 170 noise~;
#X obj 93 947 dac~;
#X obj 93 556 *~ 1;
#X msg 210 261 freq \$1;
#X floatatom 210 234 5 0 0 0 - - -, f 5;
#X obj 93 297 e_reslop blah 2000 3;
#X msg 269 261 q \$1;
#X floatatom 269 233 5 0 0 0 - - -, f 5;
#X obj 210 172 line;
#X msg 210 142 500 \, 5000 5000;
#X obj 269 200 line;
#X msg 269 174 4 \, 8 5000;
#X obj 269 112 bng 15 250 50 0 empty empty empty 17 7 0 10 -262144
-1 -1;
#X obj 93 392 e_alias;
#X msg 142 362 alias \$1;
#X floatatom 151 339 5 0 0 0 - - -, f 5;
#X obj 314 357 line;
#X msg 323 332 1 \, 0 5000;
#X obj 302 387 pow 2;
#X obj 301 419 * 62;
#X obj 299 448 + 1.01;
#X obj 371 169 hsl 128 15 0 1 0 0 empty empty empty -2 -8 0 10 -262144
-1 -1 1587 1;
#X obj 368 191 s sweep;
#X obj 153 7 r sweep;
#X obj 153 30 * 4500;
#X obj 153 53 + 500;
#X obj 197 29 * 4;
#X obj 197 53 + 4;
#X obj 93 669 e_tremolo2;
#X obj 412 12 declare -path abs;
#X obj 130 699 e_tremolo2;
#X obj 235 28 swap 1;
#X obj 235 52 -;
#X msg 296 648 freq \$1;
#X floatatom 262 619 5 0 0 0 - - -, f 5;
#X obj 349 552 r sweep;
#X obj 358 630 + 1.3;
#X obj 342 606 * 60;
#X obj 347 577 pow 2;
#X msg 413 595 phase 0;
#X obj 415 566 loadbang;
#X msg 483 679 phase 0.125;
#N canvas 0 22 599 352 unused 0;
#X obj 79 103 delwrite~ da-noise-del-l 300;
#X obj 79 123 delread~ da-noise-del-l 300;
#X obj 310 105 delwrite~ da-noise-del-r 200;
#X obj 310 125 delread~ da-noise-del-r 200;
#X obj 32 114 *~ 0.5;
#X obj 263 116 *~ 0.5;
#X obj 50 185 bp~ 400 10;
#X obj 181 174 bp~ 400 10;
#X obj 39 234 *~ 0.4;
#X obj 99 234 *~ 0.4;
#X connect 1 0 4 0;
#X connect 3 0 5 0;
#X connect 4 0 0 0;
#X connect 4 0 2 0;
#X connect 4 0 6 0;
#X connect 5 0 2 0;
#X connect 5 0 0 0;
#X connect 5 0 7 0;
#X restore 651 49 pd unused;
#X obj 498 255 osc~;
#X obj 498 295 clip~ -1 1;
#X obj 498 275 *~ 5;
#X obj 498 348 lop~ 400;
#X obj 498 368 lop~ 400;
#X obj 498 388 lop~ 400;
#X obj 93 507 Comb_Filter;
#X msg 526 574 depth \$1;
#X floatatom 570 560 5 0 0 0 - - -, f 5;
#X obj 526 482 c_lfo depth 0.08 50 sine;
#X obj 526 506 * 0.3;
#X obj 526 536 + 0.2;
#X obj 135 457 loadbang;
#X obj 93 764 e_platereverb;
#N canvas 0 22 450 300 preset 0;
#X obj 32 58 loadbang;
#X obj 31 171 outlet;
#X msg 30 89 predelay 216.535 \, bandwidth 22050 \, damping 22050 \,
decay 0.677165 \, input_diffusion1 0.850394 \, input_diffusion2 0.92126
\, decay_diffusion1 0.80315 \, decay_diffusion2 0.818898 \, excursion
0.01 \, dry 0.63;
#X connect 0 0 2 0;
#X connect 2 0 1 0;
#X restore 169 736 pd preset;
#X msg 253 738 dry \$1;
#X floatatom 259 713 5 0 0 0 - - -, f 5;
#X obj 93 626 e_platereverb;
#N canvas 0 22 450 300 preset 0;
#X obj 32 58 loadbang;
#X obj 31 171 outlet;
#X msg 30 89 predelay 216.535 \, bandwidth 22050 \, damping 22050 \,
decay 0.677165 \, input_diffusion1 0.850394 \, input_diffusion2 0.92126
\, decay_diffusion1 0.80315 \, decay_diffusion2 0.818898 \, excursion
0.01 \;;
#X connect 0 0 2 0;
#X connect 2 0 1 0;
#X restore 183 569 pd preset;
#X floatatom 511 230 5 0 0 0 - - -, f 5;
#X obj 498 324 *~ 0.4;
#X obj 501 183 hsl 128 15 0 1 0 0 empty empty empty -2 -8 0 10 -262144
-1 -1 8636 1;
#X obj 498 207 * 1000;
#X obj 93 583 *~ 0.2;
#X obj 590 281 osc~;
#X obj 590 321 clip~ -1 1;
#X obj 590 301 *~ 5;
#X obj 546 215 * 1.5;
#X obj 666 295 osc~;
#X obj 666 335 clip~ -1 1;
#X obj 666 315 *~ 5;
#X obj 589 215 * 2;
#X obj 485 648 loadbang;
#X floatatom 192 453 5 0 0 0 - - -, f 5;
#X msg 135 481 24;
#X obj 225 802 f;
#X floatatom 225 781 5 0 0 0 - - -, f 5;
#X obj 93 829 lop~ 13000;
#X obj 93 849 lop~ 13000;
#X obj 93 869 lop~ 13000;
#X obj 168 828 lop~ 13000;
#X obj 168 848 lop~ 13000;
#X obj 168 868 lop~ 13000;
#X obj 412 69 OSCroute /1;
#X obj 416 114 unpack f f;
#X floatatom 416 139 5 0 0 0 - - -, f 5;
#X obj 353 108 print;
#X obj 93 909 *~ 0.4;
#X obj 168 908 *~ 0.4;
#X obj 268 864 vsl 15 40 0 1 0 0 empty empty empty 0 -9 0 10 -261234
-1 -1 0 1;
#X obj 412 89 OSCroute /xy1 /fader1;
#X obj 412 49 r OSCdispatch;
#X obj 562 71 / 20;
#X obj 562 93 pack f 100;
#X obj 562 115 line;
#X obj 562 49 r \$1-angle2;
#X obj 662 137 pack f 100;
#X obj 662 159 line;
#X obj 662 93 r \$1-rotations;
#X obj 662 115 / 40;
#X connect 0 0 5 0;
#X connect 2 0 66 0;
#X connect 3 0 5 1;
#X connect 4 0 3 0;
#X connect 5 0 13 0;
#X connect 6 0 5 1;
#X connect 7 0 6 0;
#X connect 8 0 4 0;
#X connect 9 0 8 0;
#X connect 10 0 7 0;
#X connect 11 0 10 0;
#X connect 12 0 9 0;
#X connect 12 0 11 0;
#X connect 12 0 17 0;
#X connect 13 0 49 0;
#X connect 13 0 49 1;
#X connect 14 0 13 1;
#X connect 15 0 14 0;
#X connect 16 0 18 0;
#X connect 17 0 16 0;
#X connect 18 0 19 0;
#X connect 19 0 20 0;
#X connect 20 0 15 0;
#X connect 21 0 22 0;
#X connect 23 0 24 0;
#X connect 23 0 26 0;
#X connect 23 0 31 0;
#X connect 24 0 25 0;
#X connect 25 0 4 0;
#X connect 26 0 27 0;
#X connect 27 0 7 0;
#X connect 28 0 56 0;
#X connect 30 0 56 1;
#X connect 31 0 32 0;
#X connect 31 1 32 1;
#X connect 32 0 18 0;
#X connect 33 0 30 1;
#X connect 33 0 28 1;
#X connect 34 0 33 0;
#X connect 35 0 38 0;
#X connect 36 0 33 0;
#X connect 37 0 36 0;
#X connect 38 0 37 0;
#X connect 39 0 28 1;
#X connect 40 0 39 0;
#X connect 41 0 30 1;
#X connect 43 0 45 0;
#X connect 44 0 63 0;
#X connect 45 0 44 0;
#X connect 46 0 47 0;
#X connect 47 0 48 0;
#X connect 48 0 13 0;
#X connect 49 0 2 0;
#X connect 49 1 2 0;
#X connect 50 0 28 1;
#X connect 50 0 30 1;
#X connect 52 0 53 0;
#X connect 53 0 54 0;
#X connect 54 0 50 0;
#X connect 54 0 51 0;
#X connect 55 0 77 0;
#X connect 56 0 80 0;
#X connect 56 1 83 0;
#X connect 57 0 56 2;
#X connect 58 0 56 2;
#X connect 59 0 58 0;
#X connect 60 0 28 0;
#X connect 60 1 30 0;
#X connect 61 0 60 2;
#X connect 63 0 46 0;
#X connect 64 0 65 0;
#X connect 65 0 62 0;
#X connect 65 0 43 0;
#X connect 65 0 70 0;
#X connect 65 0 74 0;
#X connect 66 0 60 0;
#X connect 66 0 60 1;
#X connect 67 0 69 0;
#X connect 68 0 63 0;
#X connect 69 0 68 0;
#X connect 70 0 67 0;
#X connect 71 0 73 0;
#X connect 72 0 63 0;
#X connect 73 0 72 0;
#X connect 74 0 71 0;
#X connect 75 0 41 0;
#X connect 76 0 49 2;
#X connect 77 0 49 2;
#X connect 78 0 80 1;
#X connect 78 0 81 1;
#X connect 78 0 82 1;
#X connect 78 0 83 1;
#X connect 78 0 84 1;
#X connect 78 0 85 1;
#X connect 79 0 78 0;
#X connect 80 0 81 0;
#X connect 81 0 82 0;
#X connect 82 0 90 0;
#X connect 83 0 84 0;
#X connect 84 0 85 0;
#X connect 85 0 91 0;
#X connect 86 0 93 0;
#X connect 87 0 88 0;
#X connect 87 0 21 0;
#X connect 87 1 64 0;
#X connect 90 0 1 0;
#X connect 91 0 1 1;
#X connect 92 0 91 1;
#X connect 92 0 90 1;
#X connect 93 0 87 0;
#X connect 93 1 92 0;
#X connect 94 0 86 0;
#X connect 95 0 96 0;
#X connect 96 0 97 0;
#X connect 97 0 64 0;
#X connect 98 0 95 0;
#X connect 99 0 100 0;
#X connect 100 0 21 0;
#X connect 101 0 102 0;
#X connect 102 0 99 0;
