#N canvas 838 111 892 939 10;
#X obj 414 30 inlet params;
#X obj 239 28 inlet~ AUDIO-IN-R;
#X obj 31 28 inlet~ AUDIO-IN-R;
#X obj 445 874 outlet params;
#X obj 414 80 u_dispatch \$0 SWITCH;
#X obj 414 100 u_dispatch \$0 FADE;
#X obj 414 120 u_dispatch \$0 BPM;
#X obj 414 60 u_dispatch \$0 INIT;
#N canvas 0 22 380 195 u_dispatch 0;
#X obj 35 60 inlet;
#X obj 185 49 r \$0-ACCEL;
#X obj 185 71 unpack f f;
#X obj 35 82 u_dispatch \$0 ACCEL;
#X obj 35 104 outlet;
#X obj 185 120 s \$0-ACCEL-x;
#X obj 242 98 s \$0-ACCEL-y;
#X connect 0 0 3 0;
#X connect 1 0 2 0;
#X connect 2 0 5 0;
#X connect 2 1 6 0;
#X connect 3 0 4 0;
#X restore 414 140 pd u_dispatch \$0 ACCEL-x \, ACCEL-y;
#X obj 241 874 outlet~ AUDIO-OUT-R;
#X obj 31 874 outlet~ AUDIO-OUT-L;
#X obj 414 162 u_dispatch \$0 Level;
#X obj 414 184 u_dispatch \$0 Resonance;
#X obj 445 757 r \$0-INIT;
#X obj 445 799 symbol \$1;
#X obj 256 574 delread~ \$0-delayR 10;
#X obj 256 614 *~ 0;
#X msg 258 418 0.001 \$1;
#X obj 258 438 pow;
#X obj 258 398 / 1000;
#X obj 46 351 t f f;
#X obj 241 644 +~;
#X obj 250 677 delwrite~ \$0-delayR 100;
#X obj 258 457 t f f f;
#X msg 297 498 1 \$1;
#X obj 297 518 -;
#X obj 241 756 *~;
#X obj 297 712 lop~ 20;
#X obj 46 614 *~ 0;
#X obj 31 644 +~;
#X obj 31 756 *~;
#X obj 40 677 delwrite~ \$0-delayL 100;
#X obj 46 574 delread~ \$0-delayL 10;
#X obj 46 486 t f f;
#X obj 297 538 + 0.52;
#X msg 445 836 MODULE NAME \$1 \, MODULE ORDER \$1 14 \, fadeOutTime
200 \, MODULE ACCEL-PARAM \$1 x More_Glitch Less_Glitch;
#X obj 372 31 inlet;
#X floatatom 75 427 5 0 0 0 - - -;
#X floatatom 176 285 5 0 0 0 - - -;
#X connect 0 0 7 0;
#X connect 1 0 21 0;
#X connect 2 0 29 0;
#X connect 4 0 5 0;
#X connect 5 0 6 0;
#X connect 6 0 8 0;
#X connect 7 0 4 0;
#X connect 8 0 11 0;
#X connect 11 0 12 0;
#X connect 13 0 14 0;
#X connect 14 0 35 0;
#X connect 15 0 16 0;
#X connect 16 0 21 1;
#X connect 17 0 18 0;
#X connect 18 0 23 0;
#X connect 19 0 17 0;
#X connect 20 0 33 0;
#X connect 20 1 19 0;
#X connect 21 0 22 0;
#X connect 21 0 26 0;
#X connect 23 0 28 1;
#X connect 23 1 16 1;
#X connect 23 2 24 0;
#X connect 24 0 25 0;
#X connect 25 0 34 0;
#X connect 26 0 9 0;
#X connect 27 0 26 1;
#X connect 27 0 30 1;
#X connect 28 0 29 1;
#X connect 29 0 30 0;
#X connect 29 0 31 0;
#X connect 30 0 10 0;
#X connect 32 0 28 0;
#X connect 33 0 32 0;
#X connect 33 1 15 0;
#X connect 34 0 27 0;
#X connect 35 0 3 0;
#X connect 36 0 20 0;
#X connect 38 0 20 0;
