#N canvas 616 162 488 372 10;
#X obj 27 82 / 180;
#X obj 27 111 * 3.14159;
#X floatatom 37 135 5 0 0 0 - - -, f 5;
#X obj 27 154 sin;
#X obj 27 222 *;
#X obj 85 184 t b f;
#X text 27 26 Angle In Degrees;
#X text 74 136 Angle in Radians;
#X text 172 162 Length of String (unit of your choice);
#X text 137 238 Displacement (same unit as length of string);
#N canvas 0 22 1150 295 test-gui 0;
#X obj 49 86 hsl 1024 60 -30000 30000 0 0 empty empty empty -2 -8 0
10 -262144 -1 -1 51964 1;
#X text 556 68 0;
#X text 287 68 -15000;
#X text 27 68 -30000;
#X text 413 68 -7500;
#X text 157 68 -22500;
#X text 927 68 22500;
#X text 801 68 15000;
#X text 1057 68 30000;
#X text 107 68 |;
#X text 237 68 |;
#X text 367 68 |;
#X text 493 68 |;
#X text 671 68 7500;
#X text 636 68 |;
#X text 751 68 |;
#X text 881 68 |;
#X text 1007 68 |;
#X obj 49 136 hsl 1024 60 -180 180 0 0 empty empty empty -2 -8 0 10
-262144 -1 -1 52304 1;
#X text 556 198 0;
#X text 107 198 |;
#X text 237 198 |;
#X text 367 198 |;
#X text 493 198 |;
#X text 636 198 |;
#X text 751 198 |;
#X text 881 198 |;
#X text 1007 198 |;
#X text 27 198 -180;
#X text 287 198 -90;
#X text 157 198 -135;
#X text 413 198 -45;
#X text 671 198 45;
#X text 801 198 90;
#X text 927 198 135;
#X text 1057 198 180;
#X obj 15 36 inlet displacement;
#X obj 46 225 inlet angle;
#X connect 36 0 0 0;
#X connect 37 0 18 0;
#X restore 110 260 pd test-gui;
#X obj 85 160 r \$1-distance;
#X obj 27 51 r \$1-\$2;
#X obj 27 283 s \$1-displacement-\$2;
#X connect 0 0 1 0;
#X connect 1 0 2 0;
#X connect 1 0 3 0;
#X connect 3 0 4 0;
#X connect 4 0 10 0;
#X connect 4 0 13 0;
#X connect 5 0 4 0;
#X connect 5 1 4 1;
#X connect 11 0 5 0;
#X connect 12 0 0 0;
#X connect 12 0 10 1;
