#N canvas 106 298 624 455 10;
#N canvas 147 91 284 335 sendyStuff 0;
#X obj 50 89 list trim;
#X obj 50 40 inlet;
#X obj 69 113 inlet;
#X obj 69 160 list trim;
#X obj 81 232 list trim;
#X obj 81 185 inlet;
#X obj 50 261 s fakeHarpSend-\$1;
#X obj 81 209 list prepend /elevation;
#X obj 69 137 list prepend /azimuth;
#X obj 50 66 list prepend /distance;
#X connect 0 0 6 0;
#X connect 1 0 9 0;
#X connect 2 0 8 0;
#X connect 3 0 6 0;
#X connect 4 0 6 0;
#X connect 5 0 7 0;
#X connect 7 0 4 0;
#X connect 8 0 3 0;
#X connect 9 0 0 0;
#X restore 170 348 pd sendyStuff;
#X text 200 165 Rotations;
#X text 201 196 Angle 1;
#X text 254 197 Angle 2;
#X obj 170 6 r \$2-touchOSC;
#X obj 203 181 hsl 160 15 0 40000 0 0 empty empty empty -2 -8 0 10
-232576 -1 -1 3200 1;
#X floatatom 258 167 9 0 0 0 - - -, f 9;
#X floatatom 203 232 5 0 0 0 - - -, f 5;
#X floatatom 292 253 5 0 0 0 - - -, f 5;
#X obj 437 97 swap 1;
#X obj 437 119 -;
#X obj 170 27 spigot 1;
#X obj 437 55 r real-player-on;
#X obj 437 77 == \$1;
#X obj 170 93 * 40000;
#X obj 170 48 OSCroute /fader\$1 /xy\$1;
#X obj 237 73 unpack f f;
#X obj 206 212 hsl 50 15 -180 180 0 0 empty empty empty -2 -8 0 10
-204800 -1 -1 2450 1;
#X obj 271 214 vsl 15 50 -180 180 0 0 empty empty empty 0 -9 0 10 -204800
-1 -1 2650 1;
#X obj 188 323 * 100;
#X obj 229 323 * 100;
#X obj 237 95 - 0.5;
#X obj 294 94 - 0.5;
#X obj 294 124 * -360;
#X obj 237 125 * -360;
#X floatatom 437 141 5 0 0 0 - - -, f 5;
#X obj 513 94 loadbang;
#X msg 513 116 0;
#X obj 305 219 bng 15 250 50 0 empty empty Pluck 17 7 0 10 -262144
-1 -1;
#X obj 307 304 s \$2-\$1-pluck;
#X obj 431 303 t f f;
#X obj 431 347 -;
#X obj 431 369 * -1;
#X obj 431 325 pipe 250;
#X obj 431 391 s \$2-\$1-velocity;
#X obj 426 221 r distance-hack-\$1;
#X connect 4 0 11 0;
#X connect 5 0 6 0;
#X connect 5 0 0 0;
#X connect 5 0 30 0;
#X connect 9 0 10 0;
#X connect 9 1 10 1;
#X connect 10 0 11 1;
#X connect 10 0 25 0;
#X connect 11 0 15 0;
#X connect 12 0 13 0;
#X connect 13 0 9 0;
#X connect 14 0 5 0;
#X connect 15 0 14 0;
#X connect 15 1 16 0;
#X connect 16 0 21 0;
#X connect 16 1 22 0;
#X connect 17 0 7 0;
#X connect 17 0 20 0;
#X connect 18 0 8 0;
#X connect 18 0 19 0;
#X connect 19 0 0 1;
#X connect 20 0 0 2;
#X connect 21 0 24 0;
#X connect 22 0 23 0;
#X connect 23 0 17 0;
#X connect 24 0 18 0;
#X connect 26 0 27 0;
#X connect 27 0 18 0;
#X connect 27 0 17 0;
#X connect 28 0 29 0;
#X connect 30 0 33 0;
#X connect 30 1 31 1;
#X connect 31 0 32 0;
#X connect 32 0 34 0;
#X connect 33 0 31 0;
#X connect 35 0 30 0;
#X coords 0 -1 1 1 165 121 1 200 150;
