#N canvas 0 22 901 583 10;
#X obj 29 42 vsl 15 400 0 70 0 0 empty empty empty 0 -9 0 10 -232576
-159808 -1 0 1;
#X obj 29 473 nbx 5 14 -1e+37 1e+37 0 0 empty empty empty 0 -8 0 10
-262144 -1 -1 0 256;
#N canvas 85 38 956 616 sendyStuff 0;
#X obj 28 145 list prepend send /outputs/rotations;
#X obj 28 168 list trim;
#X obj 266 442 sendOSC 9001;
#X msg 416 410 connect 127.0.0.1 9001;
#X obj 70 48 inlet;
#X obj 218 50 inlet;
#X obj 160 221 list trim;
#X obj 160 198 list prepend send /outputs/angle1;
#X obj 339 162 list trim;
#X obj 339 139 list prepend send /outputs/angle2;
#X obj 356 48 inlet;
#X obj 524 231 list trim;
#X obj 524 208 list prepend send /outputs/hall1;
#X obj 587 300 list trim;
#X obj 639 267 list prepend send /outputs/hall2;
#X obj 643 48 inlet;
#X obj 746 69 inlet;
#X connect 0 0 1 0;
#X connect 1 0 2 0;
#X connect 3 0 2 0;
#X connect 4 0 0 0;
#X connect 5 0 7 0;
#X connect 6 0 2 0;
#X connect 7 0 6 0;
#X connect 8 0 2 0;
#X connect 9 0 8 0;
#X connect 10 0 9 0;
#X connect 11 0 2 0;
#X connect 12 0 11 0;
#X connect 13 0 2 0;
#X connect 14 0 13 0;
#X connect 15 0 12 0;
#X connect 16 0 14 0;
#X restore 76 520 pd sendyStuff;
#X obj 113 137 vsl 15 128 3 15 0 0 empty empty empty 0 -9 0 10 -204800
-1 -1 0 1;
#X obj 113 286 nbx 5 14 -1e+37 1e+37 0 0 empty empty empty 0 -8 0 10
-262144 -1 -1 0 256;
#X obj 203 137 vsl 15 128 3 15 0 0 empty empty empty 0 -9 0 10 -204800
-1 -1 0 1;
#X obj 203 286 nbx 5 14 -1e+37 1e+37 0 0 empty empty empty 0 -8 0 10
-262144 -1 -1 0 256;
#X text 15 14 Rotations;
#X text 96 110 Angle 1;
#X text 188 108 Angle 2;
#X obj 280 313 tgl 50 0 empty empty empty 17 7 0 10 -204786 -1 -1 0
1;
#X obj 344 313 tgl 50 0 empty empty empty 17 7 0 10 -261682 -1 -1 0
1;
#X text 281 282 Hall 1;
#X text 345 282 Hall 2;
#X connect 0 0 1 0;
#X connect 1 0 2 0;
#X connect 3 0 4 0;
#X connect 4 0 2 1;
#X connect 5 0 6 0;
#X connect 6 0 2 2;
#X connect 10 0 2 3;
#X connect 11 0 2 4;
