#N canvas 322 273 624 455 10;
#N canvas 839 120 956 616 sendyStuff 0;
#X obj 28 168 list trim;
#X obj 70 48 inlet;
#X obj 218 50 inlet;
#X obj 160 221 list trim;
#X obj 339 162 list trim;
#X obj 356 48 inlet;
#X obj 524 231 list trim;
#X obj 587 300 list trim;
#X obj 643 48 inlet;
#X obj 746 69 inlet;
#X obj 524 208 list prepend send /\$1/outputs/hall1;
#X obj 639 267 list prepend send /\$1/outputs/hall2;
#X obj 266 442 s fakeHarpSend;
#X obj 28 145 list prepend send /\$1/distance;
#X obj 339 139 list prepend send /\$1/elevation;
#X obj 160 198 list prepend send /\$1/azimuth;
#X connect 0 0 12 0;
#X connect 1 0 13 0;
#X connect 2 0 15 0;
#X connect 3 0 12 0;
#X connect 4 0 12 0;
#X connect 5 0 14 0;
#X connect 6 0 12 0;
#X connect 7 0 12 0;
#X connect 8 0 10 0;
#X connect 9 0 11 0;
#X connect 10 0 6 0;
#X connect 11 0 7 0;
#X connect 13 0 0 0;
#X connect 14 0 4 0;
#X connect 15 0 3 0;
#X restore 170 348 pd sendyStuff;
#X text 200 165 Rotations;
#X text 201 196 Angle 1;
#X text 254 197 Angle 2;
#X obj 170 6 r \$2-touchOSC;
#X obj 203 181 hsl 160 15 0 40000 0 0 empty empty empty -2 -8 0 10
-232576 -1 -1 2400 1;
#X floatatom 258 167 9 0 0 0 - - -, f 9;
#X floatatom 203 232 5 0 0 0 - - -, f 5;
#X floatatom 292 253 5 0 0 0 - - -, f 5;
#X obj 437 97 swap 1;
#X obj 437 119 -;
#X obj 170 27 spigot 1;
#X obj 437 55 r real-player-on;
#X obj 437 77 == \$1;
#X obj 170 93 * 40000;
#X obj 170 48 OSCroute /fader\$1 /xy\$1;
#X obj 237 73 unpack f f;
#X obj 206 212 hsl 50 15 -180 180 0 0 empty empty empty -2 -8 0 10
-204800 -1 -1 2450 1;
#X obj 271 214 vsl 15 50 -180 180 0 0 empty empty empty 0 -9 0 10 -204800
-1 -1 2450 1;
#X obj 188 323 * 100;
#X obj 229 323 * 100;
#X obj 237 95 - 0.5;
#X obj 294 94 - 0.5;
#X obj 294 124 * -360;
#X obj 237 125 * -360;
#X floatatom 437 141 5 0 0 0 - - -, f 5;
#X obj 513 94 loadbang;
#X msg 513 116 0;
#X connect 4 0 11 0;
#X connect 5 0 6 0;
#X connect 5 0 0 0;
#X connect 9 0 10 0;
#X connect 9 1 10 1;
#X connect 10 0 11 1;
#X connect 10 0 25 0;
#X connect 11 0 15 0;
#X connect 12 0 13 0;
#X connect 13 0 9 0;
#X connect 14 0 5 0;
#X connect 15 0 14 0;
#X connect 15 1 16 0;
#X connect 16 0 21 0;
#X connect 16 1 22 0;
#X connect 17 0 7 0;
#X connect 17 0 20 0;
#X connect 18 0 8 0;
#X connect 18 0 19 0;
#X connect 19 0 0 1;
#X connect 20 0 0 2;
#X connect 21 0 24 0;
#X connect 22 0 23 0;
#X connect 23 0 17 0;
#X connect 24 0 18 0;
#X connect 26 0 27 0;
#X connect 27 0 18 0;
#X connect 27 0 17 0;
#X coords 0 -1 1 1 165 121 1 200 150;
