#N canvas 0 22 344 237 10;
#X obj 64 124 s forwardPlayerData;
#X obj 64 102 list trim;
#X obj 64 58 r \$1-\$3;
#X obj 64 79 list prepend send /\$2/\$3;
#X connect 1 0 0 0;
#X connect 2 0 3 0;
#X connect 3 0 1 0;
