#N canvas 518 61 801 804 10;
#X obj 70 578 s_playtable2;
#X obj 31 92 mod 32;
#X obj 31 71 spigot;
#X obj 70 526 pow 2;
#X obj 97 503 / 12;
#X msg 70 503 2;
#X obj 70 481 t b f;
#X floatatom 70 382 5 0 0 0 - - -, f 5;
#X obj 248 551 sig~;
#X obj 248 528 mtof;
#X obj 248 617 *~;
#X obj 301 594 vline~;
#X obj 248 573 s_osc hit-drone tri;
#X obj 248 506 t f b;
#X obj 248 484 + 62;
#X obj 248 461 + 4;
#X obj 31 137 int;
#X obj 31 159 change;
#X obj 31 253 f;
#X obj 57 253 + 1;
#X msg 124 155 number \$1;
#X obj 97 132 t f f;
#X obj 31 115 / 2;
#X obj 70 441 - 24;
#X obj 70 410 + 1;
#X msg 316 539 1 100 \, 0 200 100;
#X obj 71 760 hip~ 50;
#X obj 71 782 hip~ 50;
#X obj 70 316 moses 20;
#X msg 73 227 0;
#X obj 119 658 vline~;
#X obj 70 682 *~;
#X msg 160 587 bang;
#X obj 130 611 f 10;
#X msg 119 636 0 2 \, 1 10 \$1;
#X obj 70 709 *~ 2;
#X obj 31 181 rm_euclid 8 0 16;
#X obj 71 836 outlet~;
#X obj 499 601 delwrite~ \$0-hit-rhythm4 1000;
#X obj 499 623 e_noclickdel \$0-hit-rhythm4 200;
#X obj 210 169 sel 0;
#X obj 31 275 moses 0;
#X obj 46 228 f;
#X obj 61 205 - 1;
#X msg 31 297 bang;
#X obj 248 595 *~ 0.15;
#X msg 70 554 rh-hit-3 4 \$1;
#X obj 70 338 + 1;
#X obj 527 721 min 1;
#X obj 527 699 max 0;
#X obj 71 804 *~;
#X obj 527 743 lop~ 10;
#X obj 591 42 inlet;
#X obj 591 64 u_dispatch \$0 bass-note;
#X obj 122 384 r \$0-bass-note;
#X obj 591 86 u_dispatch \$0 arp-direction;
#X obj 591 108 u_dispatch \$0 arp-range;
#X obj 591 130 u_dispatch \$0 arp-on;
#X obj 591 152 u_dispatch \$0 arp-vol;
#X obj 591 196 u_dispatch \$0 arp-delay-fb;
#X obj 70 360 notes 4 0 0 4 7 11;
#X obj 486 546 r \$0-arp-delay-fb;
#X obj 486 569 min 1;
#X obj 592 574 r \$0-arp-delay-time;
#X obj 591 174 u_dispatch \$0 arp-delay-time;
#X obj 591 218 u_dispatch \$0 arp-notes;
#X obj 205 267 r \$0-arp-notes;
#X obj 205 289 list prepend notes;
#X obj 97 110 r \$0-arp-range;
#X obj 210 146 r \$0-arp-direction;
#X obj 64 46 r \$0-arp-on;
#X obj 31 22 r \$1-tick;
#X obj 527 677 r \$0-arp-vol;
#X obj 465 612 *~ 0;
#X connect 0 0 31 0;
#X connect 0 1 31 0;
#X connect 1 0 22 0;
#X connect 2 0 1 0;
#X connect 3 0 46 0;
#X connect 4 0 3 1;
#X connect 5 0 3 0;
#X connect 6 0 5 0;
#X connect 6 1 4 0;
#X connect 7 0 24 0;
#X connect 8 0 12 0;
#X connect 9 0 8 0;
#X connect 10 0 31 0;
#X connect 11 0 10 1;
#X connect 12 0 45 0;
#X connect 13 0 9 0;
#X connect 13 1 25 0;
#X connect 14 0 13 0;
#X connect 15 0 14 0;
#X connect 16 0 17 0;
#X connect 17 0 36 0;
#X connect 18 0 19 0;
#X connect 18 0 41 0;
#X connect 19 0 18 1;
#X connect 20 0 36 1;
#X connect 21 0 28 1;
#X connect 21 0 43 0;
#X connect 21 1 20 0;
#X connect 22 0 16 0;
#X connect 23 0 6 0;
#X connect 23 0 15 0;
#X connect 24 0 23 0;
#X connect 25 0 11 0;
#X connect 26 0 27 0;
#X connect 27 0 50 0;
#X connect 28 0 47 0;
#X connect 28 1 29 0;
#X connect 29 0 18 1;
#X connect 30 0 31 1;
#X connect 31 0 35 0;
#X connect 32 0 33 0;
#X connect 33 0 34 0;
#X connect 34 0 30 0;
#X connect 35 0 26 0;
#X connect 35 0 38 0;
#X connect 36 0 18 0;
#X connect 39 0 73 0;
#X connect 40 1 19 1;
#X connect 41 0 44 0;
#X connect 41 1 28 0;
#X connect 42 0 18 1;
#X connect 43 0 42 1;
#X connect 44 0 42 0;
#X connect 45 0 10 0;
#X connect 46 0 0 0;
#X connect 46 0 32 0;
#X connect 47 0 60 0;
#X connect 48 0 51 0;
#X connect 49 0 48 0;
#X connect 50 0 37 0;
#X connect 51 0 50 1;
#X connect 52 0 53 0;
#X connect 53 0 55 0;
#X connect 54 0 24 1;
#X connect 55 0 56 0;
#X connect 56 0 57 0;
#X connect 57 0 58 0;
#X connect 58 0 64 0;
#X connect 59 0 65 0;
#X connect 60 0 7 0;
#X connect 61 0 62 0;
#X connect 62 0 73 1;
#X connect 63 0 39 0;
#X connect 64 0 59 0;
#X connect 66 0 67 0;
#X connect 67 0 60 1;
#X connect 68 0 21 0;
#X connect 69 0 40 0;
#X connect 70 0 2 1;
#X connect 71 0 2 0;
#X connect 72 0 49 0;
#X connect 73 0 38 0;
#X connect 73 0 26 0;
