#N canvas 45 43 978 541 10;
#X obj 95 261 sig~;
#X obj 95 305 *~ 0.1;
#X obj 95 238 mtof;
#X obj 95 327 *~;
#X obj 148 304 vline~;
#X obj 245 261 sig~;
#X obj 245 283 osc~;
#X obj 245 305 *~ 0.1;
#X obj 245 238 mtof;
#X obj 245 327 *~;
#X obj 298 304 vline~;
#X obj 245 215 - 12;
#X obj 385 261 sig~;
#X obj 385 283 osc~;
#X obj 385 305 *~ 0.1;
#X obj 385 238 mtof;
#X obj 385 327 *~;
#X obj 438 304 vline~;
#X obj 515 261 sig~;
#X obj 515 283 osc~;
#X obj 515 305 *~ 0.1;
#X obj 515 238 mtof;
#X obj 515 327 *~;
#X obj 568 304 vline~;
#X obj 515 215 - 36;
#X obj 657 261 sig~;
#X obj 657 283 osc~;
#X obj 657 305 *~ 0.1;
#X obj 657 195 mtof;
#X obj 657 327 *~;
#X obj 730 304 vline~;
#X obj 95 407 clip~ -1 1;
#X obj 657 174 - 9;
#X obj 148 173 / 35;
#X obj 148 195 - 1;
#X obj 148 217 abs;
#X obj 148 239 swap 1;
#X obj 148 261 -;
#X obj 730 217 / 35;
#X obj 730 261 min 1;
#X obj 730 283 max 0;
#X obj 568 217 / 35;
#X obj 568 261 min 1;
#X obj 568 283 max 0;
#X obj 298 216 / 35;
#X obj 298 260 min 1;
#X obj 298 282 max 0;
#X obj 438 216 / 35;
#X obj 438 260 min 1;
#X obj 438 282 max 0;
#X obj 438 238 - 0.3;
#X obj 298 238 - 0.2;
#X obj 568 239 - 0.4;
#X obj 730 239 - 0.5;
#X obj 657 152 f;
#X obj 657 217 pack f 500;
#X obj 657 239 line;
#X obj 657 129 t b f;
#X obj 95 473 smad;
#X msg 302 449 wet \$1;
#X msg 172 449 amount \$1;
#X obj 385 215 - 17;
#X obj 95 380 *~ 1;
#X obj 95 54 inlet pitch;
#X obj 793 67 inlet;
#X obj 793 89 u_dispatch \$0 mix;
#X obj 793 111 u_dispatch \$0 interval;
#X obj 793 133 u_dispatch \$0 distortion-wet;
#X obj 793 155 u_dispatch \$0 distortion-amt;
#X obj 95 496 outlet~;
#X obj 172 424 r \$0-distortion-amt;
#X obj 302 424 r \$0-distortion-wet;
#X obj 95 76 f;
#X obj 95 283 s_osc \$0-hit-drone tri;
#X obj 657 107 r \$0-interval;
#X obj 148 122 r \$0-mix;
#X obj 453 387 vsl 15 40 0 1 0 0 empty empty empty 0 -9 0 10 -262144
-1 -1 1753 1;
#X obj 473 387 vsl 15 40 0 1 0 0 empty empty empty 0 -9 0 10 -262144
-1 -1 1363 1;
#X obj 493 387 vsl 15 40 0 1 0 0 empty empty empty 0 -9 0 10 -262144
-1 -1 973 1;
#X obj 513 387 vsl 15 40 0 1 0 0 empty empty empty 0 -9 0 10 -262144
-1 -1 583 1;
#X obj 433 387 vsl 15 40 0 1 0 0 empty empty empty 0 -9 0 10 -262144
-1 -1 2533 1;
#X obj 148 146 f;
#X connect 0 0 73 0;
#X connect 1 0 3 0;
#X connect 2 0 0 0;
#X connect 3 0 62 0;
#X connect 4 0 3 1;
#X connect 5 0 6 0;
#X connect 6 0 7 0;
#X connect 7 0 9 0;
#X connect 8 0 5 0;
#X connect 9 0 62 0;
#X connect 10 0 9 1;
#X connect 11 0 8 0;
#X connect 12 0 13 0;
#X connect 13 0 14 0;
#X connect 14 0 16 0;
#X connect 15 0 12 0;
#X connect 16 0 62 0;
#X connect 17 0 16 1;
#X connect 18 0 19 0;
#X connect 19 0 20 0;
#X connect 20 0 22 0;
#X connect 21 0 18 0;
#X connect 22 0 62 0;
#X connect 23 0 22 1;
#X connect 24 0 21 0;
#X connect 25 0 26 0;
#X connect 26 0 27 0;
#X connect 27 0 29 0;
#X connect 28 0 55 0;
#X connect 29 0 62 0;
#X connect 30 0 29 1;
#X connect 31 0 58 0;
#X connect 32 0 28 0;
#X connect 33 0 34 0;
#X connect 34 0 35 0;
#X connect 35 0 36 0;
#X connect 36 0 37 0;
#X connect 36 1 37 1;
#X connect 37 0 4 0;
#X connect 37 0 80 0;
#X connect 38 0 53 0;
#X connect 39 0 40 0;
#X connect 40 0 30 0;
#X connect 40 0 79 0;
#X connect 41 0 52 0;
#X connect 42 0 43 0;
#X connect 43 0 23 0;
#X connect 43 0 78 0;
#X connect 44 0 51 0;
#X connect 45 0 46 0;
#X connect 46 0 10 0;
#X connect 46 0 76 0;
#X connect 47 0 50 0;
#X connect 48 0 49 0;
#X connect 49 0 17 0;
#X connect 49 0 77 0;
#X connect 50 0 48 0;
#X connect 51 0 45 0;
#X connect 52 0 42 0;
#X connect 53 0 39 0;
#X connect 54 0 32 0;
#X connect 55 0 56 0;
#X connect 56 0 25 0;
#X connect 57 0 54 0;
#X connect 57 1 32 1;
#X connect 58 0 69 0;
#X connect 59 0 58 1;
#X connect 60 0 58 1;
#X connect 61 0 15 0;
#X connect 62 0 31 0;
#X connect 63 0 72 0;
#X connect 64 0 65 0;
#X connect 65 0 66 0;
#X connect 66 0 67 0;
#X connect 67 0 68 0;
#X connect 70 0 60 0;
#X connect 71 0 59 0;
#X connect 72 0 54 0;
#X connect 72 0 24 0;
#X connect 72 0 61 0;
#X connect 72 0 11 0;
#X connect 72 0 2 0;
#X connect 73 0 1 0;
#X connect 74 0 57 0;
#X connect 75 0 81 0;
#X connect 81 0 33 0;
#X connect 81 0 38 0;
#X connect 81 0 41 0;
#X connect 81 0 44 0;
#X connect 81 0 47 0;
