#N canvas 97 320 875 684 10;
#X obj 472 455 + 0.499;
#X obj 472 486 int;
#X obj 472 417 line;
#X floatatom 472 438 5 0 0 0 - - -, f 5;
#X obj 472 396 pack 0 20;
#X obj 472 375 fiddle~ 2048 1 20 3;
#X obj 344 336 s_playtable;
#X msg 157 483 clear \, start \, normalize;
#X obj 74 393 *~ 1;
#X obj 34 276 *~ 1;
#X obj 35 253 s_playtable2;
#X floatatom 41 212 5 0 0 0 - - -, f 5;
#X obj 35 191 / 100;
#X obj 74 460 t b b;
#X obj 74 482 del 500;
#X obj 472 561 moses 70;
#X obj 35 147 random 10;
#X obj 35 169 + 95;
#X obj 100 53 key;
#X floatatom 100 75 5 0 0 0 - - -, f 5;
#X obj 100 94 sel 167;
#X obj 74 437 debounce 5000;
#X obj 74 415 a_onset 128 10;
#X obj 344 200 spigot;
#X msg 35 229 rh-hit-3 4 \$1;
#X obj 34 507 u_record rh-hit-4 500;
#X obj 112 313 e_platereverb;
#N canvas 0 22 527 246 preset 0;
#X msg 59 51 dry 0.33 \, decay_diffusion2 0.84 \, decay_diffusion1
0.889 \, input_diffusion2 0.779 \, excursion 0.53761 \, input_diffusion1
0.685 \, decay 0.99 \, damping 4637 \, bandwidth 10000 \, predelay
10 \,;
#X obj 59 28 loadbang;
#X obj 59 112 outlet;
#X connect 0 0 2 0;
#X connect 1 0 0 0;
#X restore 187 292 pd preset;
#X obj 77 276 *~ 2;
#X obj 62 121 s play-hit;
#X obj 23 25 u_samplebank2 rh-hit-3 rh-hit-1.wav;
#X obj 344 244 f;
#X obj 370 244 + 1;
#X obj 344 266 moses 20;
#X msg 406 258 0;
#X msg 344 222 bang;
#X obj 344 288 sel 0;
#X obj 35 74 inlet hit;
#X obj 35 96 t b b;
#X obj 517 584 s \$1-detected-hit-note;
#X obj 344 178 r \$1-tick;
#X obj 658 62 inlet;
#X obj 658 84 u_dispatch \$0 repeat-hits-on;
#X obj 658 106 u_dispatch \$0 repeat-hits-speed;
#X obj 406 233 r \$0-repeat-hits-speed;
#X obj 410 156 r \$0-repeat-hits-on;
#X obj 77 351 throw~ \$1-LEFT;
#X obj 96 372 throw~ \$1-RIGHT;
#X obj 344 375 throw~ \$1-LEFT;
#X obj 363 396 throw~ \$1-RIGHT;
#X obj 614 341 int;
#X obj 472 538 +;
#X msg 614 386 0;
#X msg 629 406 5;
#X msg 645 428 8;
#X msg 661 452 9;
#X obj 614 363 sel 0 1 2 3;
#X msg 344 314 rh-hit-4;
#X obj 614 293 r \$1-4-displacement-angle1;
#X obj 614 315 m_scale -5000 5000 0 3;
#X obj 701 353 nbx 5 50 -1e+37 1e+37 0 0 empty empty empty 0 -8 0 30
-262144 -1 -1 0.439822 256;
#X obj 708 416 nbx 5 50 -1e+37 1e+37 0 0 empty empty empty 0 -8 0 30
-262144 -1 -1 1.50013 256;
#X connect 0 0 1 0;
#X connect 1 0 51 0;
#X connect 2 0 3 0;
#X connect 3 0 0 0;
#X connect 4 0 2 0;
#X connect 5 0 4 0;
#X connect 6 0 5 0;
#X connect 6 0 48 0;
#X connect 6 0 49 0;
#X connect 7 0 25 1;
#X connect 8 0 22 0;
#X connect 9 0 8 0;
#X connect 9 0 25 0;
#X connect 10 0 9 0;
#X connect 10 0 28 0;
#X connect 10 1 9 0;
#X connect 10 1 28 0;
#X connect 12 0 11 0;
#X connect 12 0 24 0;
#X connect 13 0 14 0;
#X connect 13 1 7 0;
#X connect 14 0 57 0;
#X connect 15 1 39 0;
#X connect 16 0 17 0;
#X connect 17 0 12 0;
#X connect 18 0 19 0;
#X connect 19 0 20 0;
#X connect 20 0 16 0;
#X connect 21 0 13 0;
#X connect 22 0 21 0;
#X connect 23 0 35 0;
#X connect 24 0 10 0;
#X connect 26 0 46 0;
#X connect 26 1 47 0;
#X connect 27 0 26 2;
#X connect 28 0 26 0;
#X connect 28 0 26 1;
#X connect 28 0 46 0;
#X connect 28 0 47 0;
#X connect 31 0 32 0;
#X connect 31 0 33 0;
#X connect 32 0 31 1;
#X connect 33 0 36 0;
#X connect 33 1 34 0;
#X connect 34 0 31 1;
#X connect 35 0 31 0;
#X connect 36 0 57 0;
#X connect 37 0 38 0;
#X connect 38 0 16 0;
#X connect 38 1 29 0;
#X connect 40 0 23 0;
#X connect 41 0 42 0;
#X connect 42 0 43 0;
#X connect 44 0 33 1;
#X connect 45 0 23 1;
#X connect 50 0 56 0;
#X connect 51 0 15 0;
#X connect 52 0 51 1;
#X connect 53 0 51 1;
#X connect 54 0 51 1;
#X connect 55 0 51 1;
#X connect 56 0 52 0;
#X connect 56 1 53 0;
#X connect 56 2 54 0;
#X connect 56 3 55 0;
#X connect 57 0 6 0;
#X connect 58 0 59 0;
#X connect 58 0 60 0;
#X connect 59 0 50 0;
#X connect 59 0 61 0;
