#N canvas 306 93 627 833 10;
#X obj 382 714 + 0.499;
#X obj 382 735 int;
#X obj 382 676 line;
#X floatatom 382 697 5 0 0 0 - - -, f 5;
#X obj 382 655 pack 0 20;
#X obj 382 634 fiddle~ 2048 1 20 3;
#X obj 314 605 s_playtable;
#X msg 157 713 clear \, start \, normalize;
#X obj 74 623 *~ 1;
#X obj 34 506 *~ 1;
#X obj 35 483 s_playtable2;
#X obj 74 690 t b b;
#X obj 74 712 del 500;
#X obj 382 756 moses 70;
#X obj 74 667 debounce 5000;
#X obj 74 645 a_onset 128 10;
#X obj 34 737 u_record rh-hit-4 500;
#X obj 142 554 e_platereverb;
#N canvas 0 22 527 246 preset 0;
#X obj 59 28 loadbang;
#X obj 59 112 outlet;
#X msg 59 51 dry 0.4 \, decay_diffusion2 0.84 \, decay_diffusion1 0.889
\, input_diffusion2 0.779 \, excursion 0.53761 \, input_diffusion1
0.685 \, decay 0.94 \, damping 4637 \, bandwidth 10000 \, predelay
10 \,;
#X connect 0 0 2 0;
#X connect 2 0 1 0;
#X restore 217 533 pd preset;
#X obj 77 506 *~ 2;
#X obj 62 411 s play-hit;
#X obj 23 25 u_samplebank2 rh-hit-3 rh-hit-1.wav;
#X obj 65 180 f;
#X obj 91 180 + 1;
#X obj 65 202 moses 20;
#X msg 127 194 0;
#X msg 65 158 bang;
#X obj 65 224 sel 0;
#X obj 65 76 r \$1-tick;
#X obj 412 47 inlet;
#X obj 412 69 u_dispatch \$0 repeat-hits-on;
#X obj 412 91 u_dispatch \$0 repeat-hits-speed;
#X obj 127 169 r \$0-repeat-hits-speed;
#X obj 98 106 r \$0-repeat-hits-on;
#X msg 314 583 rh-hit-4;
#X obj 427 779 outlet;
#X obj 35 44 inlet hit-note;
#X obj 35 386 t f b;
#X obj 314 637 outlet~;
#X obj 119 590 outlet~;
#X obj 179 590 outlet~;
#X obj 65 246 f;
#X obj 91 246 + 1;
#X obj 65 268 mod 3;
#X obj 65 290 sel 0 1 2;
#X msg 65 312 0;
#X msg 99 312 -5;
#X msg 133 313 4;
#X msg 35 459 rh-hit-3 1 \$1;
#X obj 412 114 u_dispatch \$0 base-note;
#X obj 80 339 r \$0-base-note;
#X obj 65 361 +;
#X obj 65 128 spigot;
#N canvas 0 22 455 175 semitones2speedfactor 0;
#X obj 35 98 pow 2;
#X obj 62 75 / 12;
#X msg 35 75 2;
#X obj 35 53 t b f;
#X text 93 74 Convert intervals in semi-tones into a speed factor for
sample-playback;
#X obj 35 30 inlet;
#X obj 35 120 outlet;
#X connect 0 0 6 0;
#X connect 1 0 0 1;
#X connect 2 0 0 0;
#X connect 3 0 2 0;
#X connect 3 1 1 0;
#X connect 5 0 3 0;
#X restore 35 431 pd semitones2speedfactor;
#X text 162 308 Play the donger hit at different speeds to create different
notes. Values in semi-tones;
#X connect 0 0 1 0;
#X connect 1 0 13 0;
#X connect 2 0 3 0;
#X connect 3 0 0 0;
#X connect 4 0 2 0;
#X connect 5 0 4 0;
#X connect 6 0 5 0;
#X connect 6 0 38 0;
#X connect 7 0 16 1;
#X connect 8 0 15 0;
#X connect 9 0 8 0;
#X connect 9 0 16 0;
#X connect 10 0 9 0;
#X connect 10 0 19 0;
#X connect 10 1 9 0;
#X connect 10 1 19 0;
#X connect 11 0 12 0;
#X connect 11 1 7 0;
#X connect 12 0 34 0;
#X connect 13 1 35 0;
#X connect 14 0 11 0;
#X connect 15 0 14 0;
#X connect 17 0 39 0;
#X connect 17 1 40 0;
#X connect 18 0 17 2;
#X connect 19 0 17 0;
#X connect 19 0 17 1;
#X connect 19 0 39 0;
#X connect 19 0 40 0;
#X connect 22 0 23 0;
#X connect 22 0 24 0;
#X connect 23 0 22 1;
#X connect 24 0 27 0;
#X connect 24 1 25 0;
#X connect 25 0 22 1;
#X connect 26 0 22 0;
#X connect 27 0 41 0;
#X connect 28 0 52 0;
#X connect 29 0 30 0;
#X connect 30 0 31 0;
#X connect 31 0 49 0;
#X connect 32 0 24 1;
#X connect 33 0 52 1;
#X connect 34 0 6 0;
#X connect 36 0 37 0;
#X connect 37 0 53 0;
#X connect 37 1 20 0;
#X connect 41 0 42 0;
#X connect 41 0 43 0;
#X connect 42 0 41 1;
#X connect 43 0 44 0;
#X connect 44 0 45 0;
#X connect 44 1 46 0;
#X connect 44 2 47 0;
#X connect 45 0 51 0;
#X connect 46 0 51 0;
#X connect 47 0 51 0;
#X connect 48 0 10 0;
#X connect 50 0 51 1;
#X connect 51 0 37 0;
#X connect 52 0 26 0;
#X connect 53 0 48 0;
