#N canvas 216 42 1399 544 10;
#X obj 95 261 sig~;
#X obj 95 305 *~ 0.1;
#X obj 95 238 mtof;
#X obj 95 327 *~;
#X obj 148 304 vline~;
#X obj 285 261 sig~;
#X obj 285 283 osc~;
#X obj 285 305 *~ 0.1;
#X obj 285 238 mtof;
#X obj 285 327 *~;
#X obj 338 304 vline~;
#X obj 285 215 - 12;
#X obj 465 261 sig~;
#X obj 465 283 osc~;
#X obj 465 305 *~ 0.1;
#X obj 465 238 mtof;
#X obj 465 327 *~;
#X obj 518 304 vline~;
#X obj 635 261 sig~;
#X obj 635 283 osc~;
#X obj 635 305 *~ 0.1;
#X obj 635 238 mtof;
#X obj 635 327 *~;
#X obj 688 304 vline~;
#X obj 635 215 - 36;
#X obj 827 261 sig~;
#X obj 827 283 osc~;
#X obj 827 305 *~ 0.1;
#X obj 827 195 mtof;
#X obj 827 327 *~;
#X obj 900 304 vline~;
#X obj 95 407 clip~ -1 1;
#X obj 827 174 - 9;
#X obj 148 195 - 1;
#X obj 148 217 abs;
#X obj 148 239 swap 1;
#X obj 148 261 -;
#X obj 900 261 min 1;
#X obj 900 283 max 0;
#X obj 688 261 min 1;
#X obj 688 283 max 0;
#X obj 338 260 min 1;
#X obj 338 282 max 0;
#X obj 518 260 min 1;
#X obj 518 282 max 0;
#X obj 518 238 - 0.3;
#X obj 338 238 - 0.2;
#X obj 688 239 - 0.4;
#X obj 900 239 - 0.5;
#X obj 827 152 f;
#X obj 827 217 pack f 500;
#X obj 827 239 line;
#X obj 827 49 t b f;
#X obj 95 473 smad;
#X msg 302 449 wet \$1;
#X msg 172 449 amount \$1;
#X obj 465 215 - 17;
#X obj 95 24 inlet pitch;
#X obj 963 67 inlet;
#X obj 963 89 u_dispatch \$0 mix;
#X obj 963 111 u_dispatch \$0 interval;
#X obj 963 133 u_dispatch \$0 distortion-wet;
#X obj 963 155 u_dispatch \$0 distortion-amt;
#X obj 95 496 outlet~;
#X obj 172 424 r \$0-distortion-amt;
#X obj 302 424 r \$0-distortion-wet;
#X obj 95 116 f;
#X obj 95 283 s_osc \$0-hit-drone tri;
#X obj 827 27 r \$0-interval;
#X obj 228 61 r \$0-mix;
#X obj 493 387 vsl 15 40 0 1 0 0 empty empty empty 0 -9 0 10 -262144
-1 -1 0 1;
#X obj 513 387 vsl 15 40 0 1 0 0 empty empty empty 0 -9 0 10 -262144
-1 -1 0 1;
#X obj 533 387 vsl 15 40 0 1 0 0 empty empty empty 0 -9 0 10 -262144
-1 -1 0 1;
#X obj 553 387 vsl 15 40 0 1 0 0 empty empty empty 0 -9 0 10 -262144
-1 -1 0 1;
#X obj 473 387 vsl 15 40 0 1 0 0 empty empty empty 0 -9 0 10 -262144
-1 -1 0 1;
#X obj 228 85 f;
#X obj 95 46 change;
#X obj 95 68 pack f 800;
#X obj 95 90 line;
#X floatatom 179 27 5 0 0 0 - - -, f 5;
#X obj 338 216 / 0.5;
#X obj 518 216 / 0.5;
#X obj 688 217 / 0.5;
#X obj 148 173 / 0.5;
#X obj 900 217 / 0.5;
#X floatatom 882 169 5 0 0 0 - - -, f 5;
#X obj 857 70 int;
#X obj 857 114 pack f 1000;
#X obj 857 136 line;
#X obj 857 92 change;
#X obj 95 380 *~ 0.5;
#X connect 0 0 67 0;
#X connect 1 0 3 0;
#X connect 2 0 0 0;
#X connect 3 0 90 0;
#X connect 4 0 3 1;
#X connect 5 0 6 0;
#X connect 6 0 7 0;
#X connect 7 0 9 0;
#X connect 8 0 5 0;
#X connect 9 0 90 0;
#X connect 10 0 9 1;
#X connect 11 0 8 0;
#X connect 12 0 13 0;
#X connect 13 0 14 0;
#X connect 14 0 16 0;
#X connect 15 0 12 0;
#X connect 16 0 90 0;
#X connect 17 0 16 1;
#X connect 18 0 19 0;
#X connect 19 0 20 0;
#X connect 20 0 22 0;
#X connect 21 0 18 0;
#X connect 22 0 90 0;
#X connect 23 0 22 1;
#X connect 24 0 21 0;
#X connect 25 0 26 0;
#X connect 26 0 27 0;
#X connect 27 0 29 0;
#X connect 28 0 50 0;
#X connect 29 0 90 0;
#X connect 30 0 29 1;
#X connect 31 0 53 0;
#X connect 32 0 28 0;
#X connect 33 0 34 0;
#X connect 34 0 35 0;
#X connect 35 0 36 0;
#X connect 35 1 36 1;
#X connect 36 0 4 0;
#X connect 36 0 74 0;
#X connect 37 0 38 0;
#X connect 38 0 30 0;
#X connect 38 0 73 0;
#X connect 39 0 40 0;
#X connect 40 0 23 0;
#X connect 40 0 72 0;
#X connect 41 0 42 0;
#X connect 42 0 10 0;
#X connect 42 0 70 0;
#X connect 43 0 44 0;
#X connect 44 0 17 0;
#X connect 44 0 71 0;
#X connect 45 0 43 0;
#X connect 46 0 41 0;
#X connect 47 0 39 0;
#X connect 48 0 37 0;
#X connect 49 0 32 0;
#X connect 50 0 51 0;
#X connect 51 0 25 0;
#X connect 52 0 49 0;
#X connect 52 1 86 0;
#X connect 53 0 63 0;
#X connect 54 0 53 1;
#X connect 55 0 53 1;
#X connect 56 0 15 0;
#X connect 57 0 76 0;
#X connect 58 0 59 0;
#X connect 59 0 60 0;
#X connect 60 0 61 0;
#X connect 61 0 62 0;
#X connect 64 0 55 0;
#X connect 65 0 54 0;
#X connect 66 0 49 0;
#X connect 66 0 24 0;
#X connect 66 0 56 0;
#X connect 66 0 11 0;
#X connect 66 0 2 0;
#X connect 67 0 1 0;
#X connect 68 0 52 0;
#X connect 69 0 75 0;
#X connect 75 0 80 0;
#X connect 75 0 81 0;
#X connect 75 0 82 0;
#X connect 75 0 83 0;
#X connect 75 0 84 0;
#X connect 76 0 77 0;
#X connect 77 0 78 0;
#X connect 78 0 66 0;
#X connect 79 0 77 0;
#X connect 80 0 46 0;
#X connect 81 0 45 0;
#X connect 82 0 47 0;
#X connect 83 0 33 0;
#X connect 84 0 48 0;
#X connect 86 0 89 0;
#X connect 87 0 88 0;
#X connect 88 0 32 1;
#X connect 88 0 85 0;
#X connect 89 0 87 0;
#X connect 90 0 31 0;
