#N canvas 216 42 603 188 10;
#X obj 62 126 e_tremolo2;
#X obj 119 102 t a;
#X msg 119 78 depth 0;
#X obj 119 55 loadbang;
#X msg 190 62 depth \$1;
#X msg 327 62 shape \$1;
#X msg 260 62 freq \$1;
#X obj 62 148 outlet~;
#X obj 62 103 inlet~;
#X obj 430 26 inlet;
#X obj 430 48 u_dispatch \$0 shape;
#X obj 430 92 u_dispatch \$0 depth;
#X obj 430 70 u_dispatch \$0 freq;
#X obj 190 36 r \$0-depth;
#X obj 260 36 r \$0-freq;
#X obj 327 36 r \$0-shape;
#X connect 0 0 7 0;
#X connect 1 0 0 1;
#X connect 2 0 1 0;
#X connect 3 0 2 0;
#X connect 4 0 1 0;
#X connect 5 0 1 0;
#X connect 6 0 1 0;
#X connect 8 0 0 0;
#X connect 9 0 10 0;
#X connect 10 0 12 0;
#X connect 12 0 11 0;
#X connect 13 0 4 0;
#X connect 14 0 6 0;
#X connect 15 0 5 0;
