#N canvas 275 63 877 627 10;
#X obj 57 373 lop~ 10;
#X obj 42 283 sig~;
#X obj 42 217 mtof;
#X obj 42 399 *~;
#X obj 42 166 - 9;
#X obj 42 144 f;
#X obj 42 261 line;
#X obj 82 112 t b f;
#X obj 42 422 e_platereverb;
#X obj 84 535 crystallizer;
#X obj 84 512 *~ 0.3;
#X obj 284 308 loadbang;
#X obj 192 283 sig~;
#X obj 192 217 mtof;
#X obj 192 261 line;
#X obj 192 305 phasor~;
#X obj 192 165 + 12;
#X obj 42 188 +;
#X obj 192 187 +;
#X obj 295 193 noise~;
#X obj 295 237 *~;
#X msg 368 185 1 100 \, 0 100 100;
#X obj 368 207 vline~;
#X obj 295 215 lop~ 2000;
#X obj 295 259 *~ 0.4;
#X obj 192 239 pack f 500;
#X obj 42 239 pack f 500;
#X obj 629 70 inlet;
#X obj 629 114 u_dispatch \$0 noise-burst;
#X obj 629 136 u_dispatch \$0 interval;
#X obj 42 305 s_osc \$0-hit-drone2 tri;
#X obj 368 141 r \$0-noise-burst;
#X obj 368 163 sel 1;
#X obj 82 90 r \$0-interval;
#X obj 42 571 outlet~;
#X obj 109 571 outlet~;
#X obj 629 158 u_dispatch \$0 crystallizer-amt;
#X obj 629 180 u_dispatch \$0 crystallizer-interval;
#X obj 153 476 r \$0-crystallizer-interval;
#X msg 153 498 interval \$1;
#X obj 231 498 r \$0-crystallizer-speed;
#X msg 231 520 speed \$1;
#X obj 629 200 u_dispatch \$0 crystallizer-speed;
#X obj 117 451 r \$0-crystallizer-amt;
#X obj 629 92 u_dispatch \$0 base-note;
#X obj 42 61 r \$0-base-note;
#X obj 57 351 inlet;
#X msg 284 330 dry 0.4 \, decay_diffusion2 0.84 \, decay_diffusion1
0.889 \, input_diffusion2 0.779 \, excursion 0.53761 \, input_diffusion1
0.685 \, decay 0.99 \, damping 4637 \, bandwidth 10000 \, predelay
10 \,;
#X obj 42 327 *~ 0.25;
#X obj 192 327 *~ 0.2;
#X connect 0 0 3 1;
#X connect 1 0 30 0;
#X connect 2 0 26 0;
#X connect 3 0 8 0;
#X connect 3 0 8 1;
#X connect 4 0 16 0;
#X connect 4 0 17 0;
#X connect 5 0 4 0;
#X connect 6 0 1 0;
#X connect 7 0 5 0;
#X connect 7 1 4 1;
#X connect 8 0 10 0;
#X connect 8 0 34 0;
#X connect 8 1 10 0;
#X connect 8 1 35 0;
#X connect 9 0 34 0;
#X connect 9 1 35 0;
#X connect 10 0 9 0;
#X connect 11 0 47 0;
#X connect 12 0 15 0;
#X connect 13 0 25 0;
#X connect 14 0 12 0;
#X connect 15 0 49 0;
#X connect 16 0 18 0;
#X connect 17 0 2 0;
#X connect 18 0 13 0;
#X connect 19 0 23 0;
#X connect 20 0 24 0;
#X connect 21 0 22 0;
#X connect 22 0 20 1;
#X connect 23 0 20 0;
#X connect 24 0 3 0;
#X connect 25 0 14 0;
#X connect 26 0 6 0;
#X connect 27 0 44 0;
#X connect 28 0 29 0;
#X connect 30 0 48 0;
#X connect 31 0 32 0;
#X connect 32 0 21 0;
#X connect 33 0 7 0;
#X connect 36 0 37 0;
#X connect 37 0 42 0;
#X connect 38 0 39 0;
#X connect 39 0 9 1;
#X connect 40 0 41 0;
#X connect 41 0 9 1;
#X connect 43 0 10 1;
#X connect 44 0 28 0;
#X connect 45 0 5 0;
#X connect 46 0 0 0;
#X connect 47 0 8 2;
#X connect 48 0 3 0;
#X connect 49 0 48 0;
