#N canvas 1099 246 455 652 10;
#X obj 49 201 readsf~ 2;
#X obj 49 147 t b a;
#X msg 49 176 1;
#X obj 49 493 e_reslop;
#X obj 49 579 e_platereverb;
#X obj 109 493 e_reslop;
#X msg 154 447 freq \$1;
#X obj 154 469 t a;
#N canvas 0 22 425 193 preset 0;
#X obj 28 25 loadbang;
#X msg 28 60 dry 0.33 \, decay_diffusion2 0.84 \, decay_diffusion1
0.889 \, input_diffusion2 0.779 \, excursion 0.53761 \, input_diffusion1
0.685 \, decay 0.99 \, damping 4637 \, bandwidth 10000 \, predelay
10 \,;
#X obj 28 121 outlet;
#X connect 0 0 1 0;
#X connect 1 0 2 0;
#X restore 124 557 pd preset;
#X msg 192 537 dry \$1;
#X obj 154 425 + 2000;
#X obj 154 403 * 12000;
#X obj 49 11 inlet;
#X obj 49 609 throw~ \$1-history-l;
#X obj 86 629 throw~ \$1-history-r;
#X obj 154 381 c_lfo \$0-hist-lop-freq \$2 50 sine;
#X obj 192 471 c_lfo \$0-hist-rev-dry \$3 50 sine;
#X obj 49 68 random \$5;
#X msg 76 176 open ../audio/roundhouse-history/\$2.wav \$1;
#X obj 115 68 loadbang;
#X obj 115 90 symbol \$4;
#X obj 49 120 pack f s;
#X obj 49 90 * 44100;
#X obj 49 373 *~;
#X obj 79 373 *~;
#X obj 116 350 vline~;
#X obj 49 33 t b b;
#X obj 116 304 f 3500;
#X obj 149 202 r \$1-history-interval;
#X obj 149 282 + 2000;
#X obj 182 227 r \$1-history-overlap;
#X msg 116 327 1 3500 \, 0 3500 \$1;
#X obj 182 249 t b f;
#X obj 192 493 / 2;
#X obj 192 515 + 0.5;
#X connect 0 0 23 0;
#X connect 0 1 24 0;
#X connect 1 0 2 0;
#X connect 1 1 18 0;
#X connect 2 0 0 0;
#X connect 3 0 4 0;
#X connect 4 0 13 0;
#X connect 4 1 14 0;
#X connect 5 0 4 1;
#X connect 6 0 7 0;
#X connect 7 0 5 1;
#X connect 7 0 3 1;
#X connect 8 0 4 2;
#X connect 9 0 4 2;
#X connect 10 0 6 0;
#X connect 11 0 10 0;
#X connect 12 0 26 0;
#X connect 15 0 11 0;
#X connect 16 0 33 0;
#X connect 17 0 22 0;
#X connect 18 0 0 0;
#X connect 19 0 20 0;
#X connect 20 0 21 1;
#X connect 21 0 1 0;
#X connect 22 0 21 0;
#X connect 23 0 3 0;
#X connect 24 0 5 0;
#X connect 25 0 24 1;
#X connect 25 0 23 1;
#X connect 26 0 17 0;
#X connect 26 1 27 0;
#X connect 27 0 31 0;
#X connect 28 0 29 0;
#X connect 29 0 27 1;
#X connect 30 0 32 0;
#X connect 31 0 25 0;
#X connect 32 0 29 0;
#X connect 32 1 29 1;
#X connect 33 0 34 0;
#X connect 34 0 9 0;
