#N canvas 234 91 911 695 10;
#X obj 79 130 noise~;
#X obj 79 609 dac~;
#X obj 79 295 bp~ 500 100;
#X obj 156 296 bp~ 500 100;
#X obj 110 213 mtof;
#X obj 203 180 unpack f f f;
#X obj 184 214 mtof;
#X obj 243 296 bp~ 500 100;
#X obj 271 209 mtof;
#X msg 203 106 62 69 74;
#X obj 511 43 hsl 128 15 0 1 0 0 empty empty empty -2 -8 0 10 -262144
-1 -1 0 1;
#X obj 508 223 f;
#X floatatom 309 400 5 0 0 0 - - -;
#X obj 79 325 bp~ 500 100;
#X obj 156 326 bp~ 500 100;
#X obj 243 326 bp~ 500 100;
#X obj 508 150 max 1;
#X obj 508 175 pack f 10;
#X obj 508 199 line;
#X obj 258 399 lop~ 10;
#X obj 243 422 *~;
#X obj 156 427 *~;
#X obj 79 426 *~;
#X obj 258 375 m_scale 22 200 2 16;
#X floatatom 556 146 5 0 0 0 - - -;
#X obj 508 99 * 62;
#X obj 508 73 pow 2;
#X obj 508 125 + 5;
#X obj 186 550 delwrite~ noise-del 1000;
#X msg 185 468 0 600;
#X obj 618 192 == 0;
#X obj 618 215 change;
#X obj 618 239 sel 0;
#X obj 186 570 delread~ noise-del 250;
#X msg 142 468 1 1000;
#X floatatom 96 239 5 0 0 0 - - -;
#X floatatom 173 238 5 0 0 0 - - -;
#X floatatom 239 248 5 0 0 0 - - -;
#X floatatom 319 231 5 0 0 0 - - -;
#X obj 203 82 loadbang;
#X obj 312 150 c_lfo top-note 0.05 50 sine;
#X obj 116 553 *~ 0.9;
#X obj 116 573 hip~ 800;
#X obj 142 495 line~;
#X obj 79 515 *~;
#X msg 516 14 1;
#X msg 215 130 69 73 76;
#X msg 225 151 57 61 64;
#X obj 365 227 - 10;
#N canvas 359 108 614 753 crystals 0;
#X obj 244 647 delwrite~ b1 5000;
#X obj 50 455 vd~ b1;
#X obj 49 310 phasor~;
#X obj 50 350 *~ -1;
#X obj 50 372 +~ 1;
#X obj 139 405 sig~ 1;
#X obj 157 386 cos~;
#X obj 139 427 -~;
#X obj 139 447 *~ 0.5;
#X obj 50 477 *~;
#X obj 68 414 samphold~;
#X obj 50 434 *~;
#X obj 139 296 / 44.1;
#X obj 244 503 vd~ b1;
#X obj 244 396 *~ -1;
#X obj 244 419 +~ 1;
#X obj 336 445 sig~ 1;
#X obj 354 425 cos~;
#X obj 336 466 -~;
#X obj 336 487 *~ 0.5;
#X obj 244 533 *~;
#X obj 262 460 samphold~;
#X obj 244 481 *~;
#X obj 244 349 +~ 0.5;
#X obj 244 371 wrap~;
#X msg 49 172 2;
#X obj 49 200 pow;
#X obj 49 140 t b f;
#X obj 81 172 / 12;
#X obj 49 221 - 1;
#X obj 49 289 *;
#X obj 82 201 t b f;
#X obj 82 244 /;
#X obj 59 266 t b f;
#X obj 68 395 sig~;
#X obj 262 441 sig~;
#X obj 139 160 line;
#X msg 139 139 \$1 1500;
#X obj 50 650 e_pan;
#X obj 244 613 *~ 0.85;
#X obj 139 118 + 350;
#X obj 82 223 samplerate~;
#X obj 444 428 inlet~;
#X obj 108 698 outlet~;
#X obj 50 698 outlet~;
#X obj 142 71 hsl 128 15 0 4 0 0 empty empty empty -2 -8 0 10 -262144
-1 -1 6350 1;
#X obj 139 97 * 29650;
#X obj 298 569 hsl 128 15 0 1 0 0 empty empty empty -2 -8 0 10 -262144
-1 -1 6350 1;
#X obj 295 589 * 0.99;
#X obj 82 513 metro 15;
#X obj 82 534 random 100;
#X obj 82 555 / 100;
#X obj 82 495 tgl 15 0 empty empty empty 17 7 0 10 -262144 -1 -1 1
1;
#X floatatom 135 497 5 0 0 0 - - -;
#X obj 96 651 e_reverb rev1;
#X obj 139 29 loadbang;
#X msg 139 50 2;
#X obj 50 608 hip~ 5;
#X obj 295 526 loadbang;
#X msg 295 547 0.5;
#X obj 82 475 loadbang;
#X obj 50 587 lop~ 5000;
#X msg 218 703 amp 90 \, hall 90 \, freq 3000 \, damp 50;
#X obj 218 681 loadbang;
#X obj 50 566 *~ 1.5;
#N canvas 84 22 563 720 rev-chrystals 0;
#X msg 129 305 0;
#X obj 62 381 -~ 1;
#X msg 290 243 0;
#X obj 38 235 hip~ 200;
#X obj 38 257 tabwrite~ \$0-confusion;
#X obj 62 407 tabread4~ \$0-confusion;
#X obj 223 407 tabread4~ \$0-confusion;
#X obj 38 89 inlet~;
#X obj 62 678 outlet~;
#X obj 223 287 +~ 0.5;
#X obj 223 308 wrap~;
#X obj 267 455 sig~ 1;
#X obj 285 435 cos~;
#X obj 267 476 -~;
#X obj 267 497 *~ 0.5;
#X obj 218 626 *~;
#X obj 128 464 sig~ 1;
#X obj 146 444 cos~;
#X obj 128 485 -~;
#X obj 128 506 *~ 0.5;
#X obj 62 634 *~;
#X obj 223 266 phasor~ -1;
#X obj 62 333 phasor~ -1;
#X obj 223 329 +~ 1;
#X obj 62 355 *~ 44100;
#X obj 223 350 *~ 44100;
#X obj 129 197 metro 2000;
#X obj 129 283 del 1000;
#X obj 38 13 table \$0-confusion 88203;
#X obj 129 169 loadbang;
#X connect 0 0 22 1;
#X connect 1 0 5 0;
#X connect 2 0 21 1;
#X connect 3 0 4 0;
#X connect 5 0 20 0;
#X connect 6 0 15 0;
#X connect 7 0 3 0;
#X connect 9 0 10 0;
#X connect 10 0 23 0;
#X connect 11 0 13 0;
#X connect 12 0 13 1;
#X connect 13 0 14 0;
#X connect 14 0 15 1;
#X connect 15 0 8 0;
#X connect 16 0 18 0;
#X connect 17 0 18 1;
#X connect 18 0 19 0;
#X connect 19 0 20 1;
#X connect 20 0 8 0;
#X connect 21 0 9 0;
#X connect 21 0 12 0;
#X connect 22 0 17 0;
#X connect 22 0 24 0;
#X connect 23 0 25 0;
#X connect 24 0 1 0;
#X connect 25 0 6 0;
#X connect 26 0 4 0;
#X connect 26 0 27 0;
#X connect 26 0 2 0;
#X connect 27 0 0 0;
#X connect 29 0 26 0;
#X restore 444 491 pd rev-chrystals;
#X obj 444 453 *~ 0.5;
#X msg 49 114 12;
#X connect 1 0 9 0;
#X connect 2 0 3 0;
#X connect 2 0 6 0;
#X connect 2 0 10 1;
#X connect 2 0 23 0;
#X connect 3 0 4 0;
#X connect 4 0 11 0;
#X connect 5 0 7 0;
#X connect 6 0 7 1;
#X connect 7 0 8 0;
#X connect 8 0 9 1;
#X connect 9 0 39 0;
#X connect 9 0 64 0;
#X connect 10 0 11 1;
#X connect 11 0 1 0;
#X connect 12 0 34 0;
#X connect 12 0 35 0;
#X connect 13 0 20 0;
#X connect 14 0 15 0;
#X connect 15 0 22 0;
#X connect 16 0 18 0;
#X connect 17 0 18 1;
#X connect 18 0 19 0;
#X connect 19 0 20 1;
#X connect 20 0 39 0;
#X connect 20 0 64 0;
#X connect 21 0 22 1;
#X connect 22 0 13 0;
#X connect 23 0 24 0;
#X connect 24 0 14 0;
#X connect 24 0 21 1;
#X connect 24 0 17 0;
#X connect 25 0 26 0;
#X connect 26 0 29 0;
#X connect 27 0 25 0;
#X connect 27 1 28 0;
#X connect 28 0 26 1;
#X connect 29 0 30 0;
#X connect 30 0 2 0;
#X connect 31 0 41 0;
#X connect 31 1 32 1;
#X connect 32 0 33 0;
#X connect 33 0 30 0;
#X connect 33 1 30 1;
#X connect 34 0 10 0;
#X connect 35 0 21 0;
#X connect 36 0 12 0;
#X connect 36 0 31 0;
#X connect 37 0 36 0;
#X connect 38 0 44 0;
#X connect 38 1 43 0;
#X connect 39 0 0 0;
#X connect 40 0 37 0;
#X connect 41 0 32 0;
#X connect 42 0 66 0;
#X connect 45 0 46 0;
#X connect 46 0 40 0;
#X connect 47 0 48 0;
#X connect 48 0 39 1;
#X connect 49 0 50 0;
#X connect 50 0 51 0;
#X connect 51 0 38 1;
#X connect 52 0 49 0;
#X connect 53 0 49 1;
#X connect 54 0 44 0;
#X connect 54 1 43 0;
#X connect 55 0 56 0;
#X connect 55 0 67 0;
#X connect 56 0 45 0;
#X connect 57 0 38 0;
#X connect 57 0 54 0;
#X connect 58 0 59 0;
#X connect 59 0 47 0;
#X connect 60 0 52 0;
#X connect 61 0 57 0;
#X connect 62 0 54 1;
#X connect 63 0 62 0;
#X connect 64 0 61 0;
#X connect 65 0 0 0;
#X connect 66 0 65 0;
#X connect 66 0 0 0;
#X connect 67 0 27 0;
#X restore 690 563 pd crystals;
#X obj 714 619 dac~;
#X obj 713 98 OSCroute /2;
#X obj 713 118 OSCroute /fader2;
#X obj 409 463 metro 1000;
#X obj 483 472 + 400;
#X msg 409 518 1 400 \, 0 100 400;
#X obj 393 569 *~;
#X obj 415 542 vline~;
#X obj 412 416 tgl 15 0 empty empty empty 17 7 0 10 -262144 -1 -1 1
1;
#X obj 424 495 bng 15 250 50 0 empty empty empty 17 7 0 10 -262144
-1 -1;
#X obj 483 445 random 1200;
#X obj 414 384 loadbang;
#X obj 312 177 * 10;
#X obj 312 206 + 577.3;
#X obj 713 78 r OSCdispatch;
#X connect 0 0 2 0;
#X connect 0 0 3 0;
#X connect 0 0 7 0;
#X connect 2 0 13 0;
#X connect 3 0 14 0;
#X connect 4 0 2 1;
#X connect 4 0 13 1;
#X connect 4 0 35 0;
#X connect 5 0 4 0;
#X connect 5 1 6 0;
#X connect 5 2 8 0;
#X connect 6 0 3 1;
#X connect 6 0 14 1;
#X connect 6 0 36 0;
#X connect 7 0 15 0;
#X connect 8 0 7 1;
#X connect 8 0 15 1;
#X connect 8 0 37 0;
#X connect 8 0 48 0;
#X connect 9 0 5 0;
#X connect 10 0 26 0;
#X connect 10 0 30 0;
#X connect 11 0 7 2;
#X connect 11 0 3 2;
#X connect 11 0 2 2;
#X connect 11 0 15 2;
#X connect 11 0 14 2;
#X connect 11 0 13 2;
#X connect 13 0 22 0;
#X connect 14 0 21 0;
#X connect 15 0 20 0;
#X connect 16 0 17 0;
#X connect 17 0 18 0;
#X connect 18 0 11 0;
#X connect 19 0 20 1;
#X connect 19 0 21 1;
#X connect 19 0 22 1;
#X connect 20 0 44 0;
#X connect 21 0 44 0;
#X connect 22 0 44 0;
#X connect 23 0 12 0;
#X connect 23 0 19 0;
#X connect 25 0 27 0;
#X connect 26 0 25 0;
#X connect 27 0 16 0;
#X connect 27 0 23 0;
#X connect 29 0 43 0;
#X connect 30 0 31 0;
#X connect 31 0 32 0;
#X connect 32 0 34 0;
#X connect 32 1 29 0;
#X connect 33 0 41 0;
#X connect 34 0 43 0;
#X connect 39 0 9 0;
#X connect 40 0 62 0;
#X connect 41 0 42 0;
#X connect 42 0 28 0;
#X connect 42 0 1 0;
#X connect 42 0 1 1;
#X connect 43 0 44 1;
#X connect 44 0 1 0;
#X connect 44 0 1 1;
#X connect 44 0 28 0;
#X connect 44 0 56 0;
#X connect 45 0 10 0;
#X connect 46 0 5 0;
#X connect 47 0 5 0;
#X connect 48 0 63 1;
#X connect 49 0 50 0;
#X connect 49 1 50 1;
#X connect 51 0 52 0;
#X connect 52 0 10 0;
#X connect 53 0 55 0;
#X connect 53 0 59 0;
#X connect 53 0 60 0;
#X connect 54 0 53 1;
#X connect 55 0 57 0;
#X connect 57 0 56 1;
#X connect 58 0 53 0;
#X connect 60 0 54 0;
#X connect 61 0 58 0;
#X connect 62 0 63 0;
#X connect 63 0 7 1;
#X connect 63 0 15 1;
#X connect 63 0 38 0;
#X connect 64 0 51 0;
