#N canvas 144 22 708 522 10;
#X obj 24 13 inlet accelerometer;
#X obj 24 34 t f f;
#X obj 121 169 * 12;
#X obj 103 433 +;
#X text 71 83 Make the accelerometer data wrap around the number of
notes in the scale.;
#X text 167 148 Make numbers above or below the first octave of the
scale change the octave accordingly.;
#X obj 24 203 sel 0 1 2 3 4 5 6 7 8 9 10;
#X text 4 497 YL@RM;
#X obj 103 412 f;
#X obj 103 484 outlet midi-note-solo;
#X text 149 459 Base note (aka key);
#X obj 554 50 u_dispatch \$0 intervals;
#X obj 554 72 u_dispatch \$0 note-count;
#X obj 554 94 u_dispatch \$0 base-note;
#X obj 554 28 inlet;
#X obj 137 434 r \$0-base-note;
#X obj 57 60 r \$0-note-count;
#X obj 67 235 r \$0-intervals;
#X obj 67 300 unpack f f f f f f f f f f f f;
#X obj 67 260 t a b;
#X msg 94 280 0 0 0 0 0 0 0 0 0 0 0 0;
#X obj 24 85 mod \$2;
#X obj 121 148 div \$2;
#X obj 103 459 + \$3;
#X obj 24 335 \$4;
#X obj 40 355 \$5;
#X obj 56 335 \$6;
#X obj 72 355 \$7;
#X obj 89 335 \$8;
#X obj 105 355 \$9;
#X obj 121 335 \$10;
#X obj 137 355 \$11;
#X obj 154 335 \$12;
#X obj 171 355 \$13;
#X obj 186 335 \$14;
#X obj 204 355 \$15;
#X text 199 27 Arg 2: number of notes in scale;
#X text 199 47 Arg 3: base note (aka key);
#X text 199 67 Args 4-15: notes;
#X text 199 7 Arg 1: name for state saving;
#X obj 555 137 u_loader notes-\$1 \$0;
#X obj 300 300 vradio 12 1 0 13 empty empty empty 0 -8 0 10 -262144
-1 -1 0;
#X obj 312 300 vradio 12 1 0 13 empty empty empty 0 -8 0 10 -262144
-1 -1 1;
#X obj 324 300 vradio 12 1 0 13 empty empty empty 0 -8 0 10 -262144
-1 -1 2;
#X obj 336 300 vradio 12 1 0 13 empty empty empty 0 -8 0 10 -262144
-1 -1 5;
#X obj 348 300 vradio 12 1 0 13 empty empty empty 0 -8 0 10 -262144
-1 -1 2;
#X obj 360 300 vradio 12 1 0 13 empty empty empty 0 -8 0 10 -262144
-1 -1 5;
#X obj 372 300 vradio 12 1 0 13 empty empty empty 0 -8 0 10 -262144
-1 -1 2;
#X obj 384 300 vradio 12 1 0 13 empty empty empty 0 -8 0 10 -262144
-1 -1 0;
#X obj 396 300 vradio 12 1 0 13 empty empty empty 0 -8 0 10 -262144
-1 -1 10;
#X obj 408 300 vradio 12 1 0 13 empty empty empty 0 -8 0 10 -262144
-1 -1 2;
#X obj 420 300 vradio 12 1 0 13 empty empty empty 0 -8 0 10 -262144
-1 -1 9;
#X obj 432 300 vradio 12 1 0 13 empty empty empty 0 -8 0 10 -262144
-1 -1 0;
#N canvas 0 22 549 566 makeScaleList 0;
#X obj 92 54 inlet;
#X obj 43 309 bng 15 250 50 0 empty empty empty 17 7 0 10 -262144 -1
-1;
#X obj 128 54 inlet;
#X obj 164 54 inlet;
#X obj 201 54 inlet;
#X obj 239 54 inlet;
#X obj 275 53 inlet;
#X obj 312 53 inlet;
#X obj 349 53 inlet;
#X obj 158 507 outlet;
#X obj 158 477 list prepend intervals;
#X obj 158 455 pack 0 0 0 0 0 0 0 0 0 0 0 0;
#X obj 389 54 inlet;
#X obj 425 53 inlet;
#X obj 462 53 inlet;
#X obj 499 53 inlet;
#X connect 0 0 11 0;
#X connect 1 0 11 0;
#X connect 2 0 1 0;
#X connect 2 0 11 1;
#X connect 3 0 1 0;
#X connect 3 0 11 2;
#X connect 4 0 1 0;
#X connect 4 0 11 3;
#X connect 5 0 1 0;
#X connect 5 0 11 4;
#X connect 6 0 1 0;
#X connect 6 0 11 5;
#X connect 7 0 1 0;
#X connect 7 0 11 6;
#X connect 8 0 1 0;
#X connect 8 0 11 7;
#X connect 10 0 9 0;
#X connect 11 0 10 0;
#X connect 12 0 11 8;
#X connect 12 0 1 0;
#X connect 13 0 11 9;
#X connect 13 0 1 0;
#X connect 14 0 11 10;
#X connect 14 0 1 0;
#X connect 15 0 11 11;
#X connect 15 0 1 0;
#X restore 300 497 pd makeScaleList;
#X obj 300 194 unpack f f f f f f f f f f f f;
#X msg 300 216 set \$1;
#X msg 310 236 set \$1;
#X msg 320 256 set \$1;
#X msg 330 276 set \$1;
#X msg 360 216 set \$1;
#X msg 370 236 set \$1;
#X msg 380 256 set \$1;
#X msg 390 276 set \$1;
#X msg 420 216 set \$1;
#X msg 430 236 set \$1;
#X msg 440 256 set \$1;
#X msg 450 276 set \$1;
#X connect 0 0 1 0;
#X connect 1 0 21 0;
#X connect 1 1 22 0;
#X connect 2 0 3 1;
#X connect 3 0 23 0;
#X connect 6 0 24 0;
#X connect 6 1 25 0;
#X connect 6 2 26 0;
#X connect 6 3 27 0;
#X connect 6 4 28 0;
#X connect 6 5 29 0;
#X connect 6 6 30 0;
#X connect 6 7 31 0;
#X connect 6 8 32 0;
#X connect 6 9 33 0;
#X connect 6 10 34 0;
#X connect 6 11 35 0;
#X connect 8 0 3 0;
#X connect 11 0 12 0;
#X connect 12 0 13 0;
#X connect 14 0 11 0;
#X connect 15 0 23 1;
#X connect 16 0 21 1;
#X connect 16 0 22 1;
#X connect 17 0 54 0;
#X connect 17 0 19 0;
#X connect 18 0 24 1;
#X connect 18 1 25 1;
#X connect 18 2 26 1;
#X connect 18 3 27 1;
#X connect 18 4 28 1;
#X connect 18 5 29 1;
#X connect 18 6 30 1;
#X connect 18 7 31 1;
#X connect 18 8 32 1;
#X connect 18 9 33 1;
#X connect 18 10 34 1;
#X connect 18 11 35 1;
#X connect 19 0 18 0;
#X connect 19 1 20 0;
#X connect 20 0 18 0;
#X connect 21 0 6 0;
#X connect 22 0 2 0;
#X connect 23 0 9 0;
#X connect 24 0 8 0;
#X connect 25 0 8 0;
#X connect 26 0 8 0;
#X connect 27 0 8 0;
#X connect 28 0 8 0;
#X connect 29 0 8 0;
#X connect 30 0 8 0;
#X connect 31 0 8 0;
#X connect 32 0 8 0;
#X connect 33 0 8 0;
#X connect 34 0 8 0;
#X connect 35 0 8 0;
#X connect 41 0 53 0;
#X connect 42 0 53 1;
#X connect 43 0 53 2;
#X connect 44 0 53 3;
#X connect 45 0 53 4;
#X connect 46 0 53 5;
#X connect 47 0 53 6;
#X connect 48 0 53 7;
#X connect 49 0 53 8;
#X connect 50 0 53 9;
#X connect 51 0 53 10;
#X connect 52 0 53 11;
#X connect 54 0 55 0;
#X connect 54 1 56 0;
#X connect 54 2 57 0;
#X connect 54 3 58 0;
#X connect 54 4 59 0;
#X connect 54 5 60 0;
#X connect 54 6 61 0;
#X connect 54 7 62 0;
#X connect 54 8 63 0;
#X connect 54 9 64 0;
#X connect 54 10 65 0;
#X connect 54 11 66 0;
#X connect 55 0 41 0;
#X connect 56 0 42 0;
#X connect 57 0 43 0;
#X connect 58 0 44 0;
#X connect 59 0 45 0;
#X connect 60 0 46 0;
#X connect 61 0 47 0;
#X connect 62 0 48 0;
#X connect 63 0 49 0;
#X connect 64 0 50 0;
#X connect 65 0 51 0;
#X connect 66 0 52 0;
#X coords 0 -1 1 1 96 157 2 300 300;
