#N canvas 144 22 708 522 10;
#X obj 24 13 inlet accelerometer;
#X obj 24 34 t f f;
#X obj 121 169 * 12;
#X obj 103 433 +;
#X text 71 83 Make the accelerometer data wrap around the number of
notes in the scale.;
#X text 167 148 Make numbers above or below the first octave of the
scale change the octave accordingly.;
#X obj 24 85 mod \$1;
#X obj 121 148 div \$1;
#X text 239 204 Notes of scale. Passed as arguments.;
#X text 199 7 Arg 1: number of notes in scale;
#X obj 24 203 sel 0 1 2 3 4 5 6 7 8 9 10;
#X text 4 497 YL@RM;
#X text 199 47 Args 3-14: notes;
#X obj 24 335 \$3;
#X obj 40 355 \$4;
#X obj 56 335 \$5;
#X obj 72 355 \$6;
#X obj 89 335 \$7;
#X obj 105 355 \$8;
#X obj 121 335 \$9;
#X obj 137 355 \$10;
#X obj 154 335 \$11;
#X obj 171 355 \$12;
#X obj 186 335 \$13;
#X obj 204 355 \$14;
#X obj 103 412 f;
#X obj 103 459 + \$2;
#X obj 103 484 outlet midi-note-solo;
#X text 149 459 Base note (aka key);
#X text 199 27 Arg 2: base note (aka key);
#X obj 554 50 u_dispatch \$0 intervals;
#X obj 554 72 u_dispatch \$0 note-count;
#X obj 554 94 u_dispatch \$0 base-note;
#X obj 554 28 inlet;
#X obj 137 434 r \$0-base-note;
#X obj 57 60 r \$0-note-count;
#X obj 67 238 r \$0-intervals;
#X obj 67 300 unpack f f f f f f f f f f f f;
#X obj 67 260 t a b;
#X msg 94 280 0 0 0 0 0 0 0 0 0 0 0 0;
#X connect 0 0 1 0;
#X connect 1 0 6 0;
#X connect 1 1 7 0;
#X connect 2 0 3 1;
#X connect 3 0 26 0;
#X connect 6 0 10 0;
#X connect 7 0 2 0;
#X connect 10 0 13 0;
#X connect 10 1 14 0;
#X connect 10 2 15 0;
#X connect 10 3 16 0;
#X connect 10 4 17 0;
#X connect 10 5 18 0;
#X connect 10 6 19 0;
#X connect 10 7 20 0;
#X connect 10 8 21 0;
#X connect 10 9 22 0;
#X connect 10 10 23 0;
#X connect 10 11 24 0;
#X connect 13 0 25 0;
#X connect 14 0 25 0;
#X connect 15 0 25 0;
#X connect 16 0 25 0;
#X connect 17 0 25 0;
#X connect 18 0 25 0;
#X connect 19 0 25 0;
#X connect 20 0 25 0;
#X connect 21 0 25 0;
#X connect 22 0 25 0;
#X connect 23 0 25 0;
#X connect 24 0 25 0;
#X connect 25 0 3 0;
#X connect 26 0 27 0;
#X connect 30 0 31 0;
#X connect 31 0 32 0;
#X connect 33 0 30 0;
#X connect 34 0 26 1;
#X connect 35 0 7 1;
#X connect 35 0 6 1;
#X connect 36 0 38 0;
#X connect 37 0 13 1;
#X connect 37 1 14 1;
#X connect 37 2 15 1;
#X connect 37 3 16 1;
#X connect 37 4 17 1;
#X connect 37 5 18 1;
#X connect 37 6 19 1;
#X connect 37 7 20 1;
#X connect 37 8 21 1;
#X connect 37 9 22 1;
#X connect 37 10 23 1;
#X connect 37 11 24 1;
#X connect 38 0 37 0;
#X connect 38 1 39 0;
#X connect 39 0 37 0;
