#N canvas 57 361 1027 654 10;
#X obj 431 88 < 0;
#X obj 431 110 change;
#X obj 431 132 sel 1;
#X obj 431 176 f;
#X obj 531 110 change;
#X obj 531 132 sel 1;
#X obj 531 88 > 0;
#X obj 481 110 change;
#X obj 481 132 sel 1;
#X obj 481 88 == 0;
#X msg 481 154 0;
#X obj 670 167 int;
#X obj 691 79 t b f;
#X obj 691 123 /;
#X obj 691 43 hradio 30 1 0 10 empty empty empty 0 -8 0 10 -262144
-1 -1 9;
#X text 690 23 Section divisions;
#X obj 42 -44 r \$1-player-osc;
#X obj 670 1 r \$1-\$2-rotations;
#X obj 670 259 s \$1-\$2-section;
#X obj 200 450 cnv 15 326 121 empty empty empty 20 12 0 14 -228856
-66577 0;
#X text 304 540 30;
#X text 200 540 -30;
#X text 252 540 0;
#X obj 436 546 nbx 2 25 -1e+37 1e+37 0 0 empty empty empty 0 -8 0 20
-262144 -1 -1 0 256;
#X obj 332 546 nbx 2 25 -1e+37 1e+37 0 0 empty empty empty 0 -8 0 20
-232576 -1 -1 0 256;
#X obj 394 546 bng 25 250 50 0 empty empty empty 17 7 0 10 -232576
-1 -1;
#X obj 332 371 r \$1-\$2-section;
#X obj 227 501 section-display \$1-\$2 1;
#X obj 204 483 hsl 280 15 0 40000 0 0 empty empty empty -2 -8 0 10
-232576 -1 -1 0 1;
#X floatatom 321 466 8 0 0 0 - - -, f 8;
#X obj 204 556 hsl 115 15 -70000 70000 0 0 empty empty empty -2 -8
0 10 -262130 -1 -1 5700 1;
#X obj 423 466 hsl 60 15 -180 180 0 0 empty empty empty -2 -8 0 10
-204800 -1 -1 2815 1;
#X obj 420 335 r \$1-\$2-angle1;
#X obj 206 457 nbx 2 20 -1e+37 1e+37 0 0 empty empty empty 0 -8 0 20
-99865 -262144 -262144 0 256;
#X obj 206 381 loadbang;
#X obj 206 403 \$2;
#X text 419 450 -angle1;
#X text 329 531 -section;
#X text 200 527 -velocity;
#X obj 431 198 s \$1-\$2-dir;
#X text 434 531 -dir;
#X obj 436 413 r \$1-\$2-dir;
#X obj 394 392 r \$1-\$2-bound;
#X text 387 531 -bound;
#X obj 670 189 change;
#X obj 223 278 max 0;
#X obj 223 254 * 1;
#X floatatom 204 355 5 0 0 0 - - -, f 5;
#X obj 481 41 int;
#X obj 507 41 int;
#X obj 481 63 +;
#X obj 42 -22 OSCroute /\$2;
#X obj 42 61 / 100;
#X obj 102 124 / 100;
#X obj 163 211 s \$1-\$2-angularRate;
#X obj 163 191 / 100;
#X obj 489 484 vsl 15 60 -180 180 0 0 empty empty empty 0 -9 0 10 -204800
-1 -1 2706 1;
#X obj 489 355 r \$1-\$2-angle2;
#X obj 42 104 s \$1-\$2-angle2;
#X obj 102 167 s \$1-\$2-angle1;
#X obj 42 83 * -1;
#X obj 102 146 * -1;
#X msg 691 101 40000;
#X obj 253 501 section-display \$1-\$2 2;
#X obj 279 501 section-display \$1-\$2 3;
#X obj 305 501 section-display \$1-\$2 4;
#X obj 331 501 section-display \$1-\$2 5;
#X obj 357 501 section-display \$1-\$2 6;
#X obj 383 501 section-display \$1-\$2 7;
#X obj 409 501 section-display \$1-\$2 8;
#X obj 435 501 section-display \$1-\$2 9;
#X obj 461 501 section-display \$1-\$2 10;
#X obj 201 501 section-display \$1-\$2 0;
#X obj 42 20 OSCroute /azimuth /elevation /angularRate /distance /velocity
;
#X obj 201 329 r \$1-\$2-velocity;
#X obj 284 100 s \$1-\$2-velocity;
#X obj 284 55 moses -69000;
#X obj 284 78 moses 69000;
#X obj 431 -14 r \$1-\$2-velocity;
#X obj 481 19 t f f;
#X msg 431 154 -1;
#X msg 531 154 1;
#X obj 670 145 / 4444.44;
#X msg 695 213 bang;
#X obj 695 235 s \$1-\$2-bound;
#X obj 238 233 r distance-multiplier;
#X obj 223 305 s \$1-\$2-distance;
#X obj 201 431 r \$1-\$2-distance;
#X text 257 465 -distance;
#X obj 321 430 int;
#X obj 509 484 vsl 15 60 -3000 3000 0 0 empty empty empty 0 -9 0 10
-204800 -1 -1 2953 1;
#X floatatom 203 177 5 0 0 0 - - -, f 5;
#X obj 256 164 change;
#X obj 256 186 print;
#X obj 509 375 r \$1-\$2-angularRate;
#X connect 0 0 1 0;
#X connect 1 0 2 0;
#X connect 2 0 80 0;
#X connect 3 0 39 0;
#X connect 4 0 5 0;
#X connect 5 0 81 0;
#X connect 6 0 4 0;
#X connect 7 0 8 0;
#X connect 8 0 10 0;
#X connect 9 0 7 0;
#X connect 10 0 3 0;
#X connect 11 0 44 0;
#X connect 12 0 62 0;
#X connect 12 1 13 1;
#X connect 13 0 82 1;
#X connect 14 0 12 0;
#X connect 16 0 51 0;
#X connect 17 0 82 0;
#X connect 26 0 24 0;
#X connect 32 0 31 0;
#X connect 34 0 35 0;
#X connect 35 0 33 0;
#X connect 41 0 23 0;
#X connect 42 0 25 0;
#X connect 44 0 18 0;
#X connect 44 0 83 0;
#X connect 45 0 86 0;
#X connect 46 0 45 0;
#X connect 48 0 50 0;
#X connect 49 0 50 1;
#X connect 50 0 9 0;
#X connect 51 0 73 0;
#X connect 52 0 60 0;
#X connect 53 0 61 0;
#X connect 55 0 54 0;
#X connect 55 0 91 0;
#X connect 55 0 92 0;
#X connect 57 0 56 0;
#X connect 60 0 58 0;
#X connect 61 0 59 0;
#X connect 62 0 13 0;
#X connect 73 0 52 0;
#X connect 73 1 53 0;
#X connect 73 2 55 0;
#X connect 73 3 46 0;
#X connect 73 4 76 0;
#X connect 74 0 30 0;
#X connect 74 0 47 0;
#X connect 76 1 77 0;
#X connect 77 0 75 0;
#X connect 78 0 0 0;
#X connect 78 0 79 0;
#X connect 78 0 6 0;
#X connect 79 0 48 0;
#X connect 79 1 49 0;
#X connect 80 0 3 0;
#X connect 81 0 3 0;
#X connect 82 0 11 0;
#X connect 83 0 84 0;
#X connect 85 0 46 1;
#X connect 87 0 28 0;
#X connect 87 0 89 0;
#X connect 89 0 29 0;
#X connect 94 0 90 0;
#X coords 0 -1 1 1 326 121 1 200 450;
