#N canvas 735 107 1036 798 10;
#X obj 431 88 < 0;
#X obj 431 110 change;
#X obj 431 132 sel 1;
#X obj 431 176 f;
#X obj 531 110 change;
#X obj 531 132 sel 1;
#X obj 531 88 > 0;
#X obj 481 110 change;
#X obj 481 132 sel 1;
#X obj 481 88 == 0;
#X msg 481 154 0;
#X obj 670 167 int;
#X obj 691 79 t b f;
#X obj 691 123 /;
#X obj 691 43 hradio 30 1 0 10 empty empty empty 0 -8 0 10 -262144
-1 -1 0;
#X text 690 23 Section divisions;
#X obj 670 259 s \$1-\$2-section;
#X obj 200 470 cnv 15 346 121 empty empty empty 20 12 0 14 -228856
-66577 0;
#X text 304 558 30;
#X text 200 558 -30;
#X text 252 558 0;
#X obj 428 564 nbx 2 25 -1e+37 1e+37 0 0 empty empty empty 0 -8 0 20
-262144 -1 -1 0 256;
#X obj 332 564 nbx 2 25 -1e+37 1e+37 0 0 empty empty empty 0 -8 0 20
-232576 -1 -1 0 256;
#X obj 394 564 bng 25 250 50 0 empty empty empty 17 7 0 10 -232576
-1 -1;
#X obj 332 371 r \$1-\$2-section;
#X obj 227 519 section-display \$1-\$2 1;
#X obj 204 501 hsl 280 15 0 40000 0 0 empty empty empty -2 -8 0 10
-232576 -1 -1 0 1;
#X floatatom 321 484 8 0 0 0 - - -, f 8;
#X obj 204 574 hsl 115 15 -70000 70000 0 0 empty empty empty -2 -8
0 10 -262130 -1 -1 0 1;
#X obj 423 465 hsl 60 15 -180 180 0 0 empty empty empty -2 -8 0 10
-204800 -1 -1 0 1;
#X text 419 449 -angle1;
#X text 329 549 -section;
#X text 200 545 -velocity;
#X obj 431 198 s \$1-\$2-dir;
#X text 434 549 -dir;
#X obj 428 413 r \$1-\$2-dir;
#X obj 394 392 r \$1-\$2-bound;
#X text 387 549 -bound;
#X obj 670 189 change;
#X obj 223 278 max 0;
#X obj 223 254 * 1;
#X floatatom 204 355 5 0 0 0 - - -, f 5;
#X obj 481 41 int;
#X obj 507 41 int;
#X obj 481 63 +;
#X obj 42 61 / 100;
#X obj 102 124 / 100;
#X obj 163 211 s \$1-\$2-angularRate;
#X obj 163 191 / 100;
#X obj 489 467 vsl 15 60 -180 180 0 0 empty empty empty 0 -9 0 10 -204800
-1 -1 0 1;
#X obj 42 83 * -1;
#X obj 102 146 * -1;
#X msg 691 101 40000;
#X obj 253 519 section-display \$1-\$2 2;
#X obj 279 519 section-display \$1-\$2 3;
#X obj 305 519 section-display \$1-\$2 4;
#X obj 331 519 section-display \$1-\$2 5;
#X obj 357 519 section-display \$1-\$2 6;
#X obj 383 519 section-display \$1-\$2 7;
#X obj 409 519 section-display \$1-\$2 8;
#X obj 435 519 section-display \$1-\$2 9;
#X obj 461 519 section-display \$1-\$2 10;
#X obj 201 519 section-display \$1-\$2 0;
#X obj 201 329 r \$1-\$2-velocity;
#X obj 284 100 s \$1-\$2-velocity;
#X obj 284 55 moses -69000;
#X obj 284 78 moses 69000;
#X obj 431 -14 r \$1-\$2-velocity;
#X obj 481 19 t f f;
#X msg 431 154 -1;
#X msg 531 154 1;
#X obj 670 145 / 4444.44;
#X msg 695 213 bang;
#X obj 695 235 s \$1-\$2-bound;
#X obj 238 233 r distance-multiplier;
#X obj 223 305 s \$1-\$2-distance;
#X obj 201 431 r \$1-\$2-distance;
#X text 257 483 -distance;
#X obj 321 430 int;
#X obj 529 467 vsl 15 60 -3000 3000 0 0 empty empty empty 0 -9 0 10
-204800 -1 -1 0 1;
#X obj 529 375 r \$1-\$2-angularRate;
#X obj 670 1 r \$1-\$2-distance;
#X obj 42 104 s \$1-\$2-angle2;
#X obj 102 167 s \$1-\$2-angle1;
#X obj 420 285 r \$1-\$2-angle1;
#X obj 489 305 r \$1-\$2-angle2;
#X obj 684 319 displacement \$1-\$2 angle1;
#X obj 684 340 displacement \$1-\$2 angle2;
#X obj 423 483 hsl 60 15 -180 180 0 0 empty empty empty -2 -8 0 10
-204800 -1 -1 0 1;
#X text 499 435 -angle1;
#X obj 440 325 r \$1-\$2-displacement-angle1;
#X obj 509 345 r \$1-\$2-displacement-angle2;
#X obj 509 467 vsl 15 60 -180 180 0 0 empty empty empty 0 -9 0 10 -204800
-1 -1 0 1;
#X obj 81 262 change;
#X obj 81 284 sel 1;
#X obj 81 306 debounce 1000;
#X obj 81 328 s \$1-\$2-pluck;
#N canvas 848 37 369 365 forwardPlayerData 0;
#X obj 53 40 forwardData \$1-\$2 \$2 angle1;
#X obj 53 60 forwardData \$1-\$2 \$2 angle2;
#X obj 53 80 forwardData \$1-\$2 \$2 pluck;
#X obj 53 100 forwardData \$1-\$2 \$2 distance;
#X obj 53 120 forwardData \$1-\$2 \$2 velocity;
#X obj 53 140 forwardData \$1-\$2 \$2 angularRate;
#X obj 53 160 forwardData \$1-\$2 \$2 dir;
#X obj 53 180 forwardData \$1-\$2 \$2 displacement-angle1;
#X obj 53 200 forwardData \$1-\$2 \$2 displacement-angle2;
#X obj 53 220 forwardData \$1-\$2 \$2 section;
#X obj 52 240 forwardData \$1-\$2 \$2 bound;
#X restore 670 366 pd forwardPlayerData;
#X floatatom 83 81 5 0 0 0 - - -, f 5;
#X obj 482 572 bng 15 250 50 0 empty empty OFF 17 7 0 10 -261234 -1
-1;
#X obj 517 572 bng 15 250 50 0 empty empty ON 17 7 0 10 -204786 -1
-1;
#X msg 555 589 connect 192.168.1.\$1 9000;
#X obj 555 525 loadbang;
#X obj 555 547 \$2;
#X obj 482 657 sendOSC;
#X msg 517 634 send /inputs/mode/serial/1;
#X msg 482 614 send /inputs/mode/analogue/1;
#X obj 498 548 bng 15 250 50 0 empty empty SOLO 17 7 0 10 -262130 -1
-1;
#X obj 610 452 \$2;
#X obj 610 515 sel \$2;
#X msg 643 537 bang;
#X obj 610 473 s \$1-all-players-off;
#X obj 610 493 r \$1-all-players-off;
#X obj 610 407 r \$1-solo-player-\$2;
#X msg 610 429 bang;
#X obj 81 240 > 500;
#X obj 41 309 bng 15 250 50 0 empty empty empty 17 7 0 10 -262144 -1
-1;
#X obj 578 486 bng 15 250 50 0 empty empty empty 17 7 0 10 -262144
-1 -1;
#X obj 652 567 print;
#X msg 700 613 disconnect;
#X floatatom 267 276 5 0 0 0 - - -, f 5;
#X floatatom 613 133 5 0 0 0 - - -, f 5;
#X obj 728 537 r \$1-trigger-hammer;
#X msg 728 582 send /outputs/pulse/width/15 100;
#X obj 728 559 sel \$2;
#N canvas 70 157 309 586 OSC 0;
#X obj 33 44 unpackOSC;
#X floatatom 101 68 5 0 0 0 - - -, f 5;
#X obj 33 89 routeOSC /inputs;
#X obj 33 111 routeOSC /serial;
#X obj 33 133 routeOSC /1;
#X obj 33 66 pipelist;
#X obj 33 155 bytes2any 128 44;
#X obj 33 227 list prepend;
#X obj 33 249 list trim;
#X obj 33 177 t a b;
#X obj 60 197 f;
#X obj 86 197 + 1;
#X msg 125 177 0;
#X obj 33 271 route 0 1 2 3 4;
#X obj 33 23 udpreceive \$3;
#X obj 33 296 list prepend /distance;
#X obj 33 318 list trim;
#X obj 33 540 outlet;
#X obj 53 368 list trim;
#X obj 73 418 list trim;
#X obj 73 396 list prepend /elevation;
#X obj 93 468 list trim;
#X obj 113 518 list trim;
#X obj 53 346 list prepend /velocity;
#X obj 93 446 list prepend /azimuth;
#X obj 113 496 list prepend /angularRate;
#X obj 92 543 r fakeHarpSend-\$2;
#X connect 0 0 5 0;
#X connect 0 1 1 0;
#X connect 0 1 5 1;
#X connect 2 0 3 0;
#X connect 3 0 4 0;
#X connect 4 0 6 0;
#X connect 5 0 2 0;
#X connect 6 0 9 0;
#X connect 6 1 12 0;
#X connect 7 0 8 0;
#X connect 8 0 13 0;
#X connect 9 0 7 0;
#X connect 9 1 10 0;
#X connect 10 0 11 0;
#X connect 10 0 7 1;
#X connect 11 0 10 1;
#X connect 12 0 10 1;
#X connect 13 0 15 0;
#X connect 13 1 23 0;
#X connect 13 2 20 0;
#X connect 13 3 24 0;
#X connect 13 4 25 0;
#X connect 14 0 0 0;
#X connect 15 0 16 0;
#X connect 16 0 17 0;
#X connect 18 0 17 0;
#X connect 19 0 17 0;
#X connect 20 0 19 0;
#X connect 21 0 17 0;
#X connect 22 0 17 0;
#X connect 23 0 18 0;
#X connect 24 0 21 0;
#X connect 25 0 22 0;
#X connect 26 0 17 0;
#X restore 42 -2 pd OSC;
#X obj 42 20 route /azimuth /elevation /angularRate /distance /velocity
;
#X connect 0 0 1 0;
#X connect 1 0 2 0;
#X connect 2 0 69 0;
#X connect 3 0 33 0;
#X connect 4 0 5 0;
#X connect 5 0 70 0;
#X connect 6 0 4 0;
#X connect 7 0 8 0;
#X connect 8 0 10 0;
#X connect 9 0 7 0;
#X connect 10 0 3 0;
#X connect 11 0 38 0;
#X connect 12 0 52 0;
#X connect 12 1 13 1;
#X connect 13 0 71 1;
#X connect 14 0 12 0;
#X connect 24 0 22 0;
#X connect 35 0 21 0;
#X connect 36 0 23 0;
#X connect 38 0 16 0;
#X connect 38 0 72 0;
#X connect 39 0 75 0;
#X connect 39 0 120 0;
#X connect 40 0 39 0;
#X connect 42 0 44 0;
#X connect 43 0 44 1;
#X connect 44 0 9 0;
#X connect 45 0 50 0;
#X connect 46 0 51 0;
#X connect 48 0 47 0;
#X connect 48 0 115 0;
#X connect 50 0 82 0;
#X connect 51 0 83 0;
#X connect 52 0 13 0;
#X connect 63 0 28 0;
#X connect 63 0 41 0;
#X connect 65 1 66 0;
#X connect 66 0 64 0;
#X connect 67 0 0 0;
#X connect 67 0 68 0;
#X connect 67 0 6 0;
#X connect 68 0 42 0;
#X connect 68 1 43 0;
#X connect 69 0 3 0;
#X connect 70 0 3 0;
#X connect 71 0 11 0;
#X connect 72 0 73 0;
#X connect 74 0 40 1;
#X connect 76 0 26 0;
#X connect 76 0 78 0;
#X connect 78 0 27 0;
#X connect 80 0 79 0;
#X connect 81 0 71 0;
#X connect 81 0 121 0;
#X connect 84 0 29 0;
#X connect 85 0 49 0;
#X connect 90 0 88 0;
#X connect 91 0 92 0;
#X connect 93 0 94 0;
#X connect 94 0 95 0;
#X connect 94 0 116 0;
#X connect 95 0 96 0;
#X connect 98 0 82 0;
#X connect 99 0 106 0;
#X connect 100 0 105 0;
#X connect 101 0 104 0;
#X connect 101 0 118 0;
#X connect 102 0 103 0;
#X connect 103 0 101 0;
#X connect 105 0 104 0;
#X connect 106 0 104 0;
#X connect 107 0 108 0;
#X connect 108 0 111 0;
#X connect 109 1 110 0;
#X connect 110 0 99 0;
#X connect 112 0 109 0;
#X connect 113 0 114 0;
#X connect 114 0 108 0;
#X connect 115 0 93 0;
#X connect 117 0 103 0;
#X connect 119 0 104 0;
#X connect 122 0 124 0;
#X connect 123 0 104 0;
#X connect 124 0 123 0;
#X connect 125 0 126 0;
#X connect 126 0 45 0;
#X connect 126 1 46 0;
#X connect 126 2 48 0;
#X connect 126 3 40 0;
#X connect 126 4 65 0;
#X coords 0 -1 1 1 346 141 1 200 450;
