#N canvas 460 137 1044 677 10;
#X obj 42 58 OSCroute /outputs;
#X obj 42 80 OSCroute /angle1 /angle2 /hall1 /hall2 /rotations /id
;
#X floatatom 188 147 5 0 0 0 - - -, f 5;
#X floatatom 234 167 5 0 0 0 - - -, f 5;
#X floatatom 286 187 5 0 0 0 - - -, f 5;
#X floatatom 360 207 5 0 0 0 - - -, f 5;
#X floatatom 371 227 5 0 0 0 - - -, f 5;
#X obj 201 222 t f f;
#X obj 201 266 -;
#X obj 201 288 * -1;
#X obj 73 469 vsl 15 60 0 30 0 0 empty empty empty 0 -9 0 10 -261682
-1 -1 0 1;
#X obj 73 529 vsl 15 60 -30 0 0 0 empty empty empty 0 -9 0 10 -262130
-1 -1 5900 1;
#X text 92 461 30;
#X text 92 583 -30;
#X text 92 522 0;
#X text 58 442 Velocity;
#X obj 148 469 vsl 15 120 0 70 0 0 empty empty empty 0 -9 0 10 -204786
-1 -1 9295 1;
#X text 129 442 Rotations;
#X obj 203 487 bng 15 250 50 0 empty empty empty 17 7 0 10 -262144
-1 -1;
#X obj 201 244 pipe 250;
#X text 203 442 Quick movements;
#X obj 203 537 bng 15 250 50 0 empty empty empty 17 7 0 10 -262144
-1 -1;
#X obj 313 467 nbx 3 30 -1e+37 1e+37 0 0 empty empty empty 0 -8 0 20
-262144 -1 -1 0 256;
#X obj 431 128 < 0;
#X obj 431 150 change;
#X obj 431 172 sel 1;
#X msg 431 194 -1;
#X obj 431 216 f;
#X obj 531 150 change;
#X obj 531 172 sel 1;
#X obj 531 128 > 0;
#X msg 531 194 1;
#X obj 481 150 change;
#X obj 481 172 sel 1;
#X obj 481 128 == 0;
#X msg 481 194 0;
#X text 311 442 Direction;
#X obj 610 227 int;
#X obj 402 521 section-display \$0 0;
#X obj 610 205 / 10;
#X obj 631 139 t b f;
#X msg 631 161 70;
#X obj 631 183 /;
#X obj 631 103 hradio 30 1 0 10 empty empty empty 0 -8 0 10 -262144
-1 -1 0;
#X obj 637 333 change;
#X obj 610 311 sel 0;
#X obj 402 466 nbx 3 30 -1e+37 1e+37 0 0 empty empty empty 0 -8 0 20
-232576 -1 -1 5 256;
#X text 401 446 Section;
#X obj 486 466 bng 45 250 50 0 empty empty empty 17 7 0 10 -262144
-1 -1;
#X text 484 444 Section boundary;
#X text 630 83 Section divisions;
#X obj 42 16 r \$1-player-osc;
#X obj 42 125 s \$1-\$2-angle1;
#X obj 94 145 s \$1-\$2-angle2;
#X obj 147 165 s \$1-\$2-hall1;
#X obj 199 185 s \$1-\$2-hall2;
#X obj 252 205 s \$1-\$2-rotations;
#X obj 304 225 s \$1-\$2-id;
#X obj 431 238 s \$1-\$2-direction;
#X obj 431 106 r \$1-\$2-velocity;
#X obj 610 61 r \$1-\$2-rotations;
#X obj 610 249 s \$1-\$2-section;
#X obj 610 289 r \$1-\$2-section;
#X obj 637 355 s \$1-\$2-section-boundary;
#X obj 201 310 s \$1-\$2-velocity;
#X obj 73 415 r \$1-\$2-velocity;
#X obj 148 384 r \$1-\$2-rotations;
#X obj 203 467 yank-out \$1-\$2 1 4;
#X obj 203 517 yank-in \$1-\$2 1 4;
#X obj 313 406 r \$1-\$2-direction;
#X obj 402 425 r \$1-\$2-section;
#X obj 507 421 r \$1-\$2-section-boundary;
#X obj 448 521 section-display \$1-\$2 1;
#X obj 494 521 section-display \$1-\$2 2;
#X obj 540 521 section-display \$1-\$2 3;
#X obj 586 521 section-display \$1-\$2 4;
#X obj 632 521 section-display \$1-\$2 5;
#X obj 678 521 section-display \$1-\$2 6;
#X obj 724 521 section-display \$1-\$2 7;
#X obj 770 521 section-display \$1-\$2 8;
#X obj 816 521 section-display \$1-\$2 9;
#X obj 862 521 section-display \$1-\$2 10;
#X obj 42 37 OSCroute /\$2;
#X floatatom 58 106 5 0 0 0 - - -, f 5;
#X connect 0 0 1 0;
#X connect 1 0 52 0;
#X connect 1 0 83 0;
#X connect 1 1 2 0;
#X connect 1 1 53 0;
#X connect 1 2 3 0;
#X connect 1 2 54 0;
#X connect 1 3 4 0;
#X connect 1 3 55 0;
#X connect 1 4 5 0;
#X connect 1 4 7 0;
#X connect 1 4 56 0;
#X connect 1 5 6 0;
#X connect 1 5 57 0;
#X connect 7 0 19 0;
#X connect 7 1 8 1;
#X connect 8 0 9 0;
#X connect 9 0 64 0;
#X connect 19 0 8 0;
#X connect 23 0 24 0;
#X connect 24 0 25 0;
#X connect 25 0 26 0;
#X connect 26 0 27 0;
#X connect 27 0 58 0;
#X connect 28 0 29 0;
#X connect 29 0 31 0;
#X connect 30 0 28 0;
#X connect 31 0 27 0;
#X connect 32 0 33 0;
#X connect 33 0 35 0;
#X connect 34 0 32 0;
#X connect 35 0 27 0;
#X connect 37 0 61 0;
#X connect 39 0 37 0;
#X connect 40 0 41 0;
#X connect 40 1 42 1;
#X connect 41 0 42 0;
#X connect 42 0 39 1;
#X connect 43 0 40 0;
#X connect 44 0 63 0;
#X connect 45 1 44 0;
#X connect 51 0 82 0;
#X connect 59 0 23 0;
#X connect 59 0 30 0;
#X connect 59 0 34 0;
#X connect 60 0 39 0;
#X connect 62 0 45 0;
#X connect 65 0 10 0;
#X connect 65 0 11 0;
#X connect 66 0 16 0;
#X connect 67 0 18 0;
#X connect 68 0 21 0;
#X connect 69 0 22 0;
#X connect 70 0 46 0;
#X connect 71 0 48 0;
#X connect 82 0 0 0;
