#N canvas 0 22 1107 150 10;
#X obj 30 41 r \$1-distance;
#X obj 120 83 outlet;
#X obj 120 41 r \$1-angle1;
#X obj 200 41 r \$1-angle2;
#X obj 280 63 outlet;
#X obj 390 63 outlet;
#X obj 480 63 outlet;
#X obj 280 41 r \$1-angularRate;
#X obj 390 41 r \$1-velocity;
#X obj 480 41 r \$1-dir;
#X obj 540 63 outlet;
#X obj 540 41 r \$1-section;
#X obj 620 41 r \$1-displacement-angle1;
#X obj 770 41 r \$1-displacement-angle2;
#X obj 120 63 pack f f;
#X obj 620 63 pack f f;
#X obj 620 85 outlet;
#X obj 920 63 outlet;
#X obj 920 41 r \$1-pluck;
#X obj 30 63 outlet;
#X connect 0 0 19 0;
#X connect 2 0 14 0;
#X connect 3 0 14 1;
#X connect 7 0 4 0;
#X connect 8 0 5 0;
#X connect 9 0 6 0;
#X connect 11 0 10 0;
#X connect 12 0 15 0;
#X connect 13 0 15 1;
#X connect 14 0 1 0;
#X connect 15 0 16 0;
#X connect 18 0 17 0;
