#N canvas 570 132 1078 788 10;
#X obj 42 -2 OSCroute /outputs;
#X obj 42 20 OSCroute /angle1 /angle2 /hall1 /hall2 /rotations /id
;
#X floatatom 188 87 5 0 0 0 - - -, f 5;
#X floatatom 234 107 5 0 0 0 - - -, f 5;
#X floatatom 286 127 5 0 0 0 - - -, f 5;
#X floatatom 360 207 5 0 0 0 - - -, f 5;
#X floatatom 371 227 5 0 0 0 - - -, f 5;
#X obj 582 381 t f f;
#X obj 582 425 -;
#X obj 582 447 * -1;
#X obj 431 88 < 0;
#X obj 431 110 change;
#X obj 431 132 sel 1;
#X obj 431 176 f;
#X obj 531 110 change;
#X obj 531 132 sel 1;
#X obj 531 88 > 0;
#X obj 481 110 change;
#X obj 481 132 sel 1;
#X obj 481 88 == 0;
#X msg 481 154 0;
#X obj 670 167 int;
#X obj 670 145 / 10;
#X obj 691 79 t b f;
#X msg 691 101 70;
#X obj 691 123 /;
#X obj 691 43 hradio 30 1 0 10 empty empty empty 0 -8 0 10 -262144
-1 -1 0;
#X obj 637 303 change;
#X obj 610 281 sel 0;
#X text 690 23 Section divisions;
#X obj 42 -44 r \$1-player-osc;
#X obj 42 65 s \$1-\$2-angle1;
#X obj 94 85 s \$1-\$2-angle2;
#X obj 147 105 s \$1-\$2-hall1;
#X obj 199 125 s \$1-\$2-hall2;
#X obj 252 205 s \$1-\$2-rotations;
#X obj 304 225 s \$1-\$2-id;
#X obj 670 1 r \$1-\$2-rotations;
#X obj 670 219 s \$1-\$2-section;
#X obj 610 259 r \$1-\$2-section;
#X obj 42 -23 OSCroute /\$2;
#X floatatom 58 46 5 0 0 0 - - -, f 5;
#X obj 200 450 cnv 15 286 121 empty empty empty 20 12 0 14 -228856
-66577 0;
#X text 304 540 30;
#X text 200 540 -30;
#X text 252 540 0;
#X obj 436 546 nbx 2 25 -1e+37 1e+37 0 0 empty empty empty 0 -8 0 20
-262144 -1 -1 1 256;
#X obj 201 501 section-display \$0 0;
#X obj 332 546 nbx 2 25 -1e+37 1e+37 0 0 empty empty empty 0 -8 0 20
-232576 -1 -1 5 256;
#X obj 394 546 bng 25 250 50 0 empty empty empty 17 7 0 10 -232576
-1 -1;
#X obj 201 431 r \$1-\$2-rotations;
#X obj 332 371 r \$1-\$2-section;
#X obj 227 501 section-display \$1-\$2 1;
#X obj 253 501 section-display \$1-\$2 2;
#X obj 279 501 section-display \$1-\$2 3;
#X obj 305 501 section-display \$1-\$2 4;
#X obj 331 501 section-display \$1-\$2 5;
#X obj 357 501 section-display \$1-\$2 6;
#X obj 383 501 section-display \$1-\$2 7;
#X obj 409 501 section-display \$1-\$2 8;
#X obj 435 501 section-display \$1-\$2 9;
#X obj 461 501 section-display \$1-\$2 10;
#X obj 204 483 hsl 280 15 0 70 0 0 empty empty empty -2 -8 0 10 -232576
-1 -1 20693 1;
#X floatatom 361 466 5 0 0 0 - - -, f 5;
#X obj 258 556 hsl 50 15 0 30 0 0 empty empty empty -2 -8 0 10 -261682
-1 -1 0 1;
#X obj 204 556 hsl 50 15 -30 0 0 0 empty empty empty -2 -8 0 10 -262130
-1 -1 4900 1;
#X obj 423 466 hsl 60 15 0 15 0 0 empty empty empty -2 -8 0 10 -204800
-1 -1 1360 1;
#X obj 420 335 r \$1-\$2-angle1;
#X obj 206 457 nbx 2 20 -1e+37 1e+37 0 0 empty empty empty 0 -8 0 20
-99865 -262144 -262144 0 256;
#X obj 206 381 loadbang;
#X obj 206 403 \$2;
#X text 294 465 -rotations;
#X text 419 450 -angle1;
#X text 329 531 -section;
#X text 200 527 -velocity;
#X obj 431 198 s \$1-\$2-dir;
#X text 434 531 -dir;
#X obj 436 413 r \$1-\$2-dir;
#X obj 394 392 r \$1-\$2-bound;
#X text 387 531 -bound;
#X obj 637 325 s \$1-\$2-bound;
#X obj 670 189 change;
#X obj 609 403 pipe 125;
#X obj 582 469 pack f 125;
#X obj 582 491 line;
#X obj 252 178 max 0;
#X obj 252 154 * 1;
#X obj 276 78 r rotations-multiplier;
#X obj 582 359 r \$1-\$2-rotations;
#X obj 582 513 s \$1-\$2-velocity-out;
#X obj 201 309 r \$1-\$2-velocity-in;
#X obj 255 336 r \$1-\$2-velocity-out;
#X obj 712 381 t f f;
#X obj 712 425 -;
#X obj 712 447 * -1;
#X obj 739 403 pipe 125;
#X obj 712 469 pack f 125;
#X obj 712 491 line;
#X obj 712 513 s \$1-\$2-velocity-in;
#X floatatom 265 362 5 0 0 0 - - -, f 5;
#X floatatom 204 335 5 0 0 0 - - -, f 5;
#X obj 431 -4 r \$1-\$2-velocity-in;
#X obj 531 14 r \$1-\$2-velocity-out;
#X msg 431 154 1;
#X msg 531 154 -1;
#X obj 481 41 int;
#X obj 507 41 int;
#X obj 481 63 +;
#X connect 0 0 1 0;
#X connect 1 0 41 0;
#X connect 1 0 31 0;
#X connect 1 1 2 0;
#X connect 1 1 32 0;
#X connect 1 2 3 0;
#X connect 1 2 33 0;
#X connect 1 3 4 0;
#X connect 1 3 34 0;
#X connect 1 4 5 0;
#X connect 1 4 86 0;
#X connect 1 5 6 0;
#X connect 1 5 36 0;
#X connect 7 0 8 0;
#X connect 7 1 82 0;
#X connect 8 0 9 0;
#X connect 9 0 83 0;
#X connect 10 0 11 0;
#X connect 11 0 12 0;
#X connect 12 0 103 0;
#X connect 13 0 75 0;
#X connect 14 0 15 0;
#X connect 15 0 104 0;
#X connect 16 0 14 0;
#X connect 17 0 18 0;
#X connect 18 0 20 0;
#X connect 19 0 17 0;
#X connect 20 0 13 0;
#X connect 21 0 81 0;
#X connect 22 0 21 0;
#X connect 23 0 24 0;
#X connect 23 1 25 1;
#X connect 24 0 25 0;
#X connect 25 0 22 1;
#X connect 26 0 23 0;
#X connect 27 0 80 0;
#X connect 28 1 27 0;
#X connect 30 0 40 0;
#X connect 37 0 22 0;
#X connect 39 0 28 0;
#X connect 40 0 0 0;
#X connect 50 0 62 0;
#X connect 51 0 48 0;
#X connect 62 0 63 0;
#X connect 67 0 66 0;
#X connect 69 0 70 0;
#X connect 70 0 68 0;
#X connect 77 0 46 0;
#X connect 78 0 49 0;
#X connect 81 0 38 0;
#X connect 82 0 8 1;
#X connect 83 0 84 0;
#X connect 84 0 89 0;
#X connect 85 0 35 0;
#X connect 86 0 85 0;
#X connect 87 0 86 1;
#X connect 88 0 7 0;
#X connect 88 0 92 0;
#X connect 90 0 65 0;
#X connect 90 0 100 0;
#X connect 91 0 64 0;
#X connect 91 0 99 0;
#X connect 92 0 93 0;
#X connect 92 1 95 0;
#X connect 93 0 94 0;
#X connect 94 0 96 0;
#X connect 95 0 93 1;
#X connect 96 0 97 0;
#X connect 97 0 98 0;
#X connect 101 0 10 0;
#X connect 101 0 105 0;
#X connect 102 0 16 0;
#X connect 102 0 106 0;
#X connect 103 0 13 0;
#X connect 104 0 13 0;
#X connect 105 0 107 0;
#X connect 106 0 107 1;
#X connect 107 0 19 0;
#X coords 0 -1 1 1 286 121 1 200 450;
