#N canvas 790 384 163 196 10;
#X obj 33 66 change;
#X obj 33 88 sel 1;
#X obj 33 110 debounce 1000;
#X obj 33 22 inlet;
#X obj 33 132 outlet;
#X obj 33 44 > \$1;
#X obj 97 36 loadbang;
#X obj 97 58 \$2;
#X obj 97 80 sel 0;
#X connect 0 0 1 0;
#X connect 1 0 2 0;
#X connect 2 0 4 0;
#X connect 3 0 5 0;
#X connect 5 0 0 0;
#X connect 6 0 7 0;
#X connect 7 0 8 0;
#X connect 8 1 2 1;
