#N canvas 934 262 329 348 10;
#X obj 20 162 tgl 15 0 empty empty empty 17 7 0 10 -262144 -1 -1 1
1;
#X obj 20 64 loadbang;
#X obj 20 86 \$2;
#X obj 20 108 tabread \$1-presets;
#X obj 83 41 r \$1-preset-saved;
#X obj 83 63 sel \$2;
#X msg 83 85 1;
#X obj 139 84 sel \$2;
#X obj 139 62 r \$1-preset-cleared;
#X msg 139 106 0;
#X obj 20 150 bng 15 250 50 0 empty empty empty 17 7 0 10 -261682 -1
-1;
#X obj 20 174 bng 15 250 50 0 empty empty empty 17 7 0 10 -204786 -1
-1;
#X obj 59 200 \$2;
#X obj 59 172 s \$1-save-preset;
#X obj 59 151 \$2;
#X obj 59 222 s \$1-load-preset;
#X obj 23 193 bng 9 250 50 0 empty empty empty 17 7 0 10 -258113 -1
-1;
#X obj 59 250 \$2;
#X obj 59 272 s \$1-clear-preset;
#X connect 1 0 2 0;
#X connect 2 0 3 0;
#X connect 3 0 0 0;
#X connect 4 0 5 0;
#X connect 5 0 6 0;
#X connect 6 0 0 0;
#X connect 7 0 9 0;
#X connect 8 0 7 0;
#X connect 9 0 0 0;
#X connect 10 0 14 0;
#X connect 11 0 12 0;
#X connect 12 0 15 0;
#X connect 14 0 13 0;
#X connect 16 0 17 0;
#X connect 17 0 18 0;
#X coords 0 -1 1 1 15 54 2 20 150;
