#N canvas 0 22 450 300 10;
#N canvas 463 219 723 436 reverb 0;
#N canvas 0 22 473 173 preset 0;
#X obj 58 18 loadbang;
#X obj 54 115 outlet;
#X msg 54 54 decay_diffusion2 0.84 \, decay_diffusion1 0.889 \, input_diffusion2
0.779 \, input_diffusion1 0.685 \, bandwidth 10000 \, predelay 10;
#X connect 0 0 2 0;
#X connect 2 0 1 0;
#X restore 240 239 pd preset;
#X obj 39 325 *~;
#X obj 106 325 *~;
#X obj 121 301 line~;
#X obj 121 254 loadbang;
#X msg 121 278 1;
#X obj 370 108 g_hsl dry 0 1;
#X msg 204 204 dry \$1;
#X msg 219 150 decay \$1;
#X msg 243 96 damping \$1;
#X obj 370 138 g_hsl decay 0 1;
#X obj 370 167 g_hsl damping 0 20000;
#X obj 370 196 g_hsl size 0 1;
#X msg 266 47 excursion \$1;
#X obj 39 200 inlet~;
#X obj 106 200 inlet~;
#X obj 39 355 outlet~;
#X obj 106 355 outlet~;
#X obj 39 230 e_platereverb \$0-platereverb;
#X obj 370 276 u_dispatch \$0 dry;
#X obj 370 298 u_dispatch \$0 decay;
#X obj 370 320 u_dispatch \$0 damping;
#X obj 204 175 r \$0-dry;
#X obj 219 121 r \$0-decay;
#X obj 243 71 r \$0-damping;
#X obj 266 26 r \$0-size;
#X obj 370 39 r RJ_SCENE_LOAD;
#X obj 370 342 u_dispatch \$0 size;
#X obj 370 61 route \$0-reverb;
#X obj 370 18 u_loader \$0-reverb \$0;
#X obj 370 226 g_hsl gain 0.5 4;
#X obj 370 362 u_dispatch \$0 gain;
#X obj 155 278 r \$0-gain;
#X connect 0 0 18 2;
#X connect 1 0 16 0;
#X connect 2 0 17 0;
#X connect 3 0 2 1;
#X connect 3 0 1 1;
#X connect 4 0 5 0;
#X connect 5 0 3 0;
#X connect 6 0 10 0;
#X connect 7 0 18 2;
#X connect 8 0 18 2;
#X connect 9 0 18 2;
#X connect 10 0 11 0;
#X connect 11 0 12 0;
#X connect 12 0 30 0;
#X connect 13 0 18 2;
#X connect 14 0 18 0;
#X connect 15 0 18 1;
#X connect 18 0 1 0;
#X connect 18 1 2 0;
#X connect 19 0 20 0;
#X connect 20 0 21 0;
#X connect 21 0 27 0;
#X connect 22 0 7 0;
#X connect 23 0 8 0;
#X connect 24 0 9 0;
#X connect 25 0 13 0;
#X connect 26 0 28 0;
#X connect 27 0 31 0;
#X connect 28 0 6 0;
#X connect 30 0 19 0;
#X connect 32 0 3 0;
#X coords 0 -1 1 1 137 161 1 370 90;
#X restore 259 603 pd reverb;
