#N canvas 0 22 412 315 10;
#N canvas 463 219 723 436 reverb 0;
#N canvas 0 22 473 173 preset 0;
#X obj 58 18 loadbang;
#X obj 54 115 outlet;
#X msg 54 54 decay_diffusion2 0.84 \, decay_diffusion1 0.889 \, input_diffusion2
0.779 \, input_diffusion1 0.685 \, bandwidth 10000 \, predelay 10;
#X connect 0 0 2 0;
#X connect 2 0 1 0;
#X restore 240 239 pd preset;
#X obj 39 325 *~;
#X obj 106 325 *~;
#X obj 121 301 line~;
#X obj 121 254 loadbang;
#X msg 121 278 1;
#X obj 370 108 g_hsl dry 0 1;
#X msg 204 204 dry \$1;
#X msg 219 150 decay \$1;
#X msg 243 96 damping \$1;
#X obj 370 138 g_hsl decay 0 1;
#X obj 370 167 g_hsl damping 0 20000;
#X obj 370 196 g_hsl size 0 1;
#X msg 266 47 excursion \$1;
#X obj 39 200 inlet~;
#X obj 106 200 inlet~;
#X obj 39 355 outlet~;
#X obj 106 355 outlet~;
#X obj 39 230 e_platereverb \$0-platereverb;
#X obj 370 276 u_dispatch \$0 dry;
#X obj 370 298 u_dispatch \$0 decay;
#X obj 370 320 u_dispatch \$0 damping;
#X obj 204 175 r \$0-dry;
#X obj 219 121 r \$0-decay;
#X obj 243 71 r \$0-damping;
#X obj 266 26 r \$0-size;
#X obj 370 39 r RJ_SCENE_LOAD;
#X obj 370 342 u_dispatch \$0 size;
#X obj 370 61 route \$0-reverb;
#X obj 370 18 u_loader \$0-reverb \$0;
#X obj 370 226 g_hsl gain 0.5 4;
#X obj 370 362 u_dispatch \$0 gain;
#X obj 155 278 r \$0-gain;
#X connect 0 0 18 2;
#X connect 1 0 16 0;
#X connect 2 0 17 0;
#X connect 3 0 2 1;
#X connect 3 0 1 1;
#X connect 4 0 5 0;
#X connect 5 0 3 0;
#X connect 6 0 10 0;
#X connect 7 0 18 2;
#X connect 8 0 18 2;
#X connect 9 0 18 2;
#X connect 10 0 11 0;
#X connect 11 0 12 0;
#X connect 12 0 30 0;
#X connect 13 0 18 2;
#X connect 14 0 18 0;
#X connect 15 0 18 1;
#X connect 18 0 1 0;
#X connect 18 1 2 0;
#X connect 19 0 20 0;
#X connect 20 0 21 0;
#X connect 21 0 27 0;
#X connect 22 0 7 0;
#X connect 23 0 8 0;
#X connect 24 0 9 0;
#X connect 25 0 13 0;
#X connect 26 0 28 0;
#X connect 27 0 31 0;
#X connect 28 0 6 0;
#X connect 30 0 19 0;
#X connect 32 0 3 0;
#X coords 0 -1 1 1 137 161 1 370 90;
#X restore 29 71 pd reverb;
#N canvas 915 148 803 737 wind-up-down 0;
#X obj -68 680 *~;
#X obj -34 680 *~;
#X obj 95 520 line~;
#X obj 22 430 t b b;
#X obj 267 385 metro 764.331;
#X obj 342 142 line;
#X obj 301 330 sel 1;
#X msg 301 355 0;
#X msg 282 109 1;
#X obj 587 190 * 764.331;
#X obj 587 139 sel 0 1 2;
#X msg 587 165 0;
#X msg 620 166 7;
#X msg -23 237 0;
#X msg 7 237 1;
#X obj -68 263 spigot 1;
#X obj -68 285 * 764.331;
#X obj 587 115 random 2;
#X obj -68 710 dac~;
#X obj 186 57 bng 15 250 50 0 empty empty empty 17 7 0 10 -262144 -1
-1;
#X msg 342 122 0 \, 1 1528.66;
#X obj 342 330 * 500;
#X obj 342 352 + 50;
#X obj 342 237 pow 2;
#X obj 108 22 metro 2500;
#X obj 82 15 tgl 15 0 empty empty empty 17 7 0 10 -262144 -1 -1 0 1
;
#X obj 275 435 s gk-stutter-retrigger-bang;
#X obj 342 78 s gk-stutter-setting-change;
#X obj 119 620 e_platereverb;
#X obj 119 595 *~;
#X obj 134 573 line~;
#X obj 267 50 t b b b b b b b;
#X obj 388 51 s \$1-wind-up-down-settings;
#X obj 369 169 r \$1-wind-up-down-settings;
#X obj 369 191 random 3;
#X obj 369 213 + 1.5;
#X obj 439 280 r \$1-wind-up-down-settings;
#X obj 439 324 + 25;
#X obj 439 302 random 50;
#X obj 385 234 r \$1-wind-up-down-settings;
#X obj 385 278 + 250;
#X obj 385 256 random 250;
#X obj 75 143 r \$1-wind-up-down-settings;
#X obj 75 165 random 4;
#X obj 75 187 sel 0 1 2 3;
#X obj -50 360 pack f 50;
#X obj 75 321 line;
#X msg 75 209 50 \, 500 2500;
#X msg 90 233 500 \, 50 2500;
#X msg 106 259 50;
#X msg 122 283 500;
#X obj 244 484 r \$1-wind-up-down-settings;
#X obj 244 506 random 4;
#X obj 244 528 sel 0 1 2 3;
#X obj 244 662 line;
#X msg 244 550 50 \, 500 2500;
#X msg 259 574 500 \, 50 2500;
#X msg 275 600 50;
#X msg 291 624 500;
#X obj -68 338 \$0;
#X obj -20 311 bng 15 250 50 0 empty empty empty 17 7 0 10 -262144
-1 -1;
#X floatatom -23 335 5 0 0 0 - - -, f 5;
#X obj -68 307 bng 15 250 50 0 empty empty empty 17 7 0 10 -262144
-1 -1;
#X obj 577 59 inlet;
#X floatatom 561 26 5 0 0 0 - - -, f 5;
#X floatatom 323 171 5 0 0 0 - - -, f 5;
#X obj 493 352 vsl 15 128 0 1 0 0 empty empty empty 0 -9 0 10 -262144
-1 -1 0 1;
#X obj 513 352 vsl 15 128 0 1 0 0 empty empty empty 0 -9 0 10 -262144
-1 -1 0 1;
#X floatatom 144 528 5 0 0 0 - - -, f 5;
#X obj 143 318 r \$0-3-rotations;
#X obj 143 340 int;
#X obj 82 417 change;
#X obj -48 76 u_samplebank2 hit rh-hit-1.wav;
#N canvas 0 22 473 173 preset 0;
#X obj 58 18 loadbang;
#X obj 54 115 outlet;
#X msg 54 54 decay_diffusion2 0.84 \, decay_diffusion1 0.889 \, input_diffusion2
0.779 \, excursion 0.53761 \, input_diffusion1 0.685 \, decay 0.79
\, damping 4637 \, bandwidth 10000 \, predelay 10;
#X connect 0 0 2 0;
#X connect 2 0 1 0;
#X restore 176 586 pd preset;
#X obj 140 662 delwrite~ hit-del 1000;
#X obj 76 670 hip~ 1000;
#X obj 76 692 *~ 0.7;
#X obj 140 683 delread~ hit-del 200;
#X obj -17 103 r \$0-0-rotations;
#X obj -47 155 change;
#X obj -47 177 mod 2;
#X obj -47 199 sel 0;
#X obj -17 125 t f f;
#X obj 10 163 m_scale 0 70 2 8;
#X obj 10 185 int;
#X obj -68 545 e_pitchshift;
#X obj -68 567 *~ 1;
#X msg 0 524 pitch \$1;
#X obj -8 491 t b f;
#X obj 35 346 r \$0-3-section;
#X obj 35 368 change;
#X obj 143 414 notes-old 8 0 0 2 4 6 7 9 10;
#X floatatom 143 436 5 0 0 0 - - -, f 5;
#X obj 73 390 m_scale 0 70 -6 6;
#N canvas 0 22 757 776 effects 0;
#X obj 79 458 dac~;
#X obj 79 204 e_platereverb;
#X obj 154 111 - 3;
#X obj 154 133 / 12;
#N canvas 0 22 473 173 preset 0;
#X obj 58 18 loadbang;
#X obj 54 115 outlet;
#X msg 54 54 decay_diffusion2 0.84 \, decay_diffusion1 0.889 \, input_diffusion2
0.779 \, excursion 0.53761 \, input_diffusion1 0.685 \, decay 0.99
\, damping 4637 \, bandwidth 10000 \, predelay 10;
#X connect 0 0 2 0;
#X connect 2 0 1 0;
#X restore 140 174 pd preset;
#X msg 154 153 dry \$1;
#X obj 209 155 / 2;
#X obj 209 177 + 0.5;
#X obj 79 356 e_reslop \$1-4T-lop 20000;
#X obj 109 377 e_reslop \$1-4T-lop 20000;
#X msg 250 336 freq \$1;
#X obj 309 315 loadbang;
#X obj 250 130 - 3;
#X obj 250 152 / 12;
#X obj 250 257 * 19000;
#X obj 250 279 + 500;
#X obj 250 174 pow 3;
#X obj 79 426 *~;
#X obj 109 426 *~;
#X obj 124 402 line~;
#X obj 79 299 *~;
#X obj 109 299 *~;
#X obj 124 275 line~;
#X obj 305 216 * -1;
#X obj 305 260 * 2;
#X obj 305 238 + 1;
#X obj 305 282 + 1;
#X msg 309 336 q 3;
#X obj 124 228 loadbang;
#X msg 259 315 20000;
#X msg 124 252 1;
#X obj 79 33 catch~ 4T-grains-L-OUT;
#X obj 116 53 catch~ 4T-grains-R-OUT;
#X obj 154 89 r \$0-0-angle1;
#X obj 259 95 inlet;
#X obj 401 119 u_dispatch \$0 filter-freq;
#X obj 353 222 r \$0-filter-freq;
#X obj 353 244 max 0;
#X obj 353 266 min 20000;
#X connect 1 0 20 0;
#X connect 1 1 21 0;
#X connect 2 0 3 0;
#X connect 3 0 5 0;
#X connect 3 0 6 0;
#X connect 4 0 1 2;
#X connect 5 0 1 2;
#X connect 6 0 7 0;
#X connect 7 0 22 0;
#X connect 8 0 17 0;
#X connect 9 0 18 0;
#X connect 10 0 8 1;
#X connect 10 0 9 1;
#X connect 11 0 27 0;
#X connect 12 0 13 0;
#X connect 13 0 16 0;
#X connect 14 0 15 0;
#X connect 15 0 10 0;
#X connect 16 0 14 0;
#X connect 16 0 23 0;
#X connect 17 0 0 0;
#X connect 18 0 0 1;
#X connect 19 0 18 1;
#X connect 19 0 17 1;
#X connect 20 0 8 0;
#X connect 21 0 9 0;
#X connect 22 0 21 1;
#X connect 22 0 20 1;
#X connect 23 0 25 0;
#X connect 24 0 26 0;
#X connect 25 0 24 0;
#X connect 26 0 19 0;
#X connect 27 0 9 1;
#X connect 27 0 8 1;
#X connect 28 0 29 0;
#X connect 28 0 30 0;
#X connect 29 0 10 0;
#X connect 30 0 22 0;
#X connect 30 0 19 0;
#X connect 31 0 1 0;
#X connect 32 0 1 1;
#X connect 33 0 2 0;
#X connect 34 0 12 0;
#X connect 36 0 37 0;
#X connect 37 0 38 0;
#X connect 38 0 10 0;
#X restore 523 699 pd effects;
#N canvas 0 22 757 776 effects 0;
#X obj 79 458 dac~;
#X obj 79 204 e_platereverb;
#X obj 154 111 - 3;
#X obj 154 133 / 12;
#N canvas 0 22 473 173 preset 0;
#X obj 58 18 loadbang;
#X obj 54 115 outlet;
#X msg 54 54 decay_diffusion2 0.84 \, decay_diffusion1 0.889 \, input_diffusion2
0.779 \, excursion 0.53761 \, input_diffusion1 0.685 \, decay 0.99
\, damping 4637 \, bandwidth 10000 \, predelay 10;
#X connect 0 0 2 0;
#X connect 2 0 1 0;
#X restore 140 174 pd preset;
#X msg 154 153 dry \$1;
#X obj 209 155 / 2;
#X obj 209 177 + 0.5;
#X obj 79 356 e_reslop \$1-4T-lop 20000;
#X obj 109 377 e_reslop \$1-4T-lop 20000;
#X msg 250 336 freq \$1;
#X obj 309 315 loadbang;
#X obj 250 130 - 3;
#X obj 250 152 / 12;
#X obj 250 257 * 19000;
#X obj 250 279 + 500;
#X obj 250 174 pow 3;
#X obj 79 426 *~;
#X obj 109 426 *~;
#X obj 124 402 line~;
#X obj 79 299 *~;
#X obj 109 299 *~;
#X obj 124 275 line~;
#X obj 305 216 * -1;
#X obj 305 260 * 2;
#X obj 305 238 + 1;
#X obj 305 282 + 1;
#X msg 309 336 q 3;
#X obj 124 228 loadbang;
#X msg 259 315 20000;
#X msg 124 252 1;
#X obj 79 33 catch~ 4T-grains-L-OUT;
#X obj 116 53 catch~ 4T-grains-R-OUT;
#X obj 154 89 r \$0-0-angle1;
#X obj 259 95 inlet;
#X obj 401 119 u_dispatch \$0 filter-freq;
#X obj 353 222 r \$0-filter-freq;
#X obj 353 244 max 0;
#X obj 353 266 min 20000;
#X connect 1 0 20 0;
#X connect 1 1 21 0;
#X connect 2 0 3 0;
#X connect 3 0 5 0;
#X connect 3 0 6 0;
#X connect 4 0 1 2;
#X connect 5 0 1 2;
#X connect 6 0 7 0;
#X connect 7 0 22 0;
#X connect 8 0 17 0;
#X connect 9 0 18 0;
#X connect 10 0 8 1;
#X connect 10 0 9 1;
#X connect 11 0 27 0;
#X connect 12 0 13 0;
#X connect 13 0 16 0;
#X connect 14 0 15 0;
#X connect 15 0 10 0;
#X connect 16 0 14 0;
#X connect 16 0 23 0;
#X connect 17 0 0 0;
#X connect 18 0 0 1;
#X connect 19 0 18 1;
#X connect 19 0 17 1;
#X connect 20 0 8 0;
#X connect 21 0 9 0;
#X connect 22 0 21 1;
#X connect 22 0 20 1;
#X connect 23 0 25 0;
#X connect 24 0 26 0;
#X connect 25 0 24 0;
#X connect 26 0 19 0;
#X connect 27 0 9 1;
#X connect 27 0 8 1;
#X connect 28 0 29 0;
#X connect 28 0 30 0;
#X connect 29 0 10 0;
#X connect 30 0 22 0;
#X connect 30 0 19 0;
#X connect 31 0 1 0;
#X connect 32 0 1 1;
#X connect 33 0 2 0;
#X connect 34 0 12 0;
#X connect 36 0 37 0;
#X connect 37 0 38 0;
#X connect 38 0 10 0;
#X restore 523 699 pd effects;
#X msg 22 453 0 2 \, 1 10 2;
#X obj 122 450 del 10;
#X msg 122 473 0 1000;
#X obj -28 510 del 5;
#X obj -68 405 t a b;
#X obj -68 443 s_playtable2;
#X obj -68 465 *~ 1;
#X obj -8 471 hradio 15 1 0 8 empty empty empty 0 -8 0 10 -262144 -1
-1 0;
#X msg -68 385 hit 1 1 3;
#X connect 0 0 18 0;
#X connect 1 0 18 1;
#X connect 2 0 1 1;
#X connect 2 0 0 1;
#X connect 3 0 96 0;
#X connect 3 1 97 0;
#X connect 4 0 26 0;
#X connect 4 0 60 0;
#X connect 5 0 23 0;
#X connect 5 0 65 0;
#X connect 5 0 66 0;
#X connect 6 0 7 0;
#X connect 6 0 14 0;
#X connect 7 0 4 0;
#X connect 8 0 4 0;
#X connect 10 0 11 0;
#X connect 10 1 12 0;
#X connect 11 0 9 0;
#X connect 12 0 9 0;
#X connect 13 0 15 1;
#X connect 14 0 15 1;
#X connect 15 0 16 0;
#X connect 16 0 62 0;
#X connect 17 0 10 0;
#X connect 19 0 31 0;
#X connect 20 0 5 0;
#X connect 21 0 22 0;
#X connect 22 0 4 1;
#X connect 23 0 6 0;
#X connect 23 0 21 0;
#X connect 23 0 67 0;
#X connect 24 0 19 0;
#X connect 25 0 24 0;
#X connect 28 0 18 0;
#X connect 28 1 18 1;
#X connect 29 0 28 0;
#X connect 29 0 28 1;
#X connect 30 0 29 1;
#X connect 31 0 4 0;
#X connect 31 1 8 0;
#X connect 31 2 20 0;
#X connect 31 3 17 0;
#X connect 31 4 13 0;
#X connect 31 5 27 0;
#X connect 31 6 32 0;
#X connect 33 0 34 0;
#X connect 34 0 35 0;
#X connect 35 0 23 1;
#X connect 36 0 38 0;
#X connect 37 0 22 1;
#X connect 38 0 37 0;
#X connect 39 0 41 0;
#X connect 40 0 21 1;
#X connect 41 0 40 0;
#X connect 42 0 43 0;
#X connect 43 0 44 0;
#X connect 44 0 47 0;
#X connect 44 1 48 0;
#X connect 44 2 49 0;
#X connect 44 3 50 0;
#X connect 46 0 45 1;
#X connect 47 0 46 0;
#X connect 48 0 46 0;
#X connect 49 0 46 0;
#X connect 50 0 46 0;
#X connect 51 0 52 0;
#X connect 52 0 53 0;
#X connect 53 0 55 0;
#X connect 53 1 56 0;
#X connect 53 2 57 0;
#X connect 53 3 58 0;
#X connect 55 0 54 0;
#X connect 56 0 54 0;
#X connect 57 0 54 0;
#X connect 58 0 54 0;
#X connect 59 0 104 0;
#X connect 60 0 59 0;
#X connect 62 0 59 0;
#X connect 63 0 23 0;
#X connect 64 0 23 0;
#X connect 68 0 30 0;
#X connect 70 0 93 0;
#X connect 71 0 88 0;
#X connect 73 0 28 2;
#X connect 75 0 76 0;
#X connect 76 0 74 0;
#X connect 76 0 18 0;
#X connect 76 0 18 1;
#X connect 77 0 75 0;
#X connect 79 0 80 0;
#X connect 80 0 81 0;
#X connect 81 0 104 0;
#X connect 82 0 79 0;
#X connect 82 1 83 0;
#X connect 83 0 84 0;
#X connect 84 0 80 1;
#X connect 85 0 86 0;
#X connect 86 0 0 0;
#X connect 86 0 1 0;
#X connect 87 0 85 1;
#X connect 88 0 99 0;
#X connect 88 1 87 0;
#X connect 89 0 90 0;
#X connect 91 0 88 0;
#X connect 91 0 92 0;
#X connect 93 0 71 0;
#X connect 96 0 2 0;
#X connect 97 0 98 0;
#X connect 98 0 2 0;
#X connect 99 0 104 0;
#X connect 100 0 101 0;
#X connect 100 1 3 0;
#X connect 101 0 102 0;
#X connect 101 1 102 0;
#X connect 102 0 85 0;
#X connect 103 0 88 0;
#X connect 104 0 100 0;
#X restore 226 92 pd wind-up-down;
#N canvas 354 116 695 617 hit 0;
#X obj 36 93 r \$0-tick;
#X obj 36 137 int;
#X obj 36 159 change;
#X obj 36 207 f;
#X msg 129 160 number \$1;
#X obj 36 229 mod 8;
#X obj 36 585 dac~;
#X obj 36 115 / 2;
#X obj 144 448 delwrite~ hit-rhythm 1000;
#X obj 66 530 *~ 1;
#X obj 36 185 rm_euclid 8 0 32;
#X obj 66 508 *~ 0.6;
#X obj 149 221 vsl 15 128 0 0.98 0 0 empty empty empty 0 -9 0 10 -262144
-1 -1 0 1;
#X obj 165 221 vsl 15 128 0 1000 0 0 empty empty empty 0 -9 0 10 -262144
-1 -1 0 1;
#X floatatom 171 361 5 0 0 0 - - -, f 5;
#X obj 144 470 e_noclickdel hit-rhythm;
#X obj 216 207 f;
#X msg 309 160 number \$1;
#X msg 216 361 rh-hit-1 1 \$1;
#X obj 216 229 mod 8;
#X obj 216 185 rm_euclid 8 0 32;
#X obj 337 320 s_playtable2;
#X msg 337 275 0.1;
#X msg 337 298 rh-hit-1 5 \$1;
#X obj 242 207 + 1;
#X obj 62 207 + 1;
#X obj 36 329 pow 2;
#X obj 63 306 / 12;
#X msg 36 306 2;
#X obj 36 284 t b f;
#X obj 36 251 - 4;
#X obj 216 329 pow 2;
#X obj 243 306 / 12;
#X msg 216 306 2;
#X obj 216 284 t b f;
#X obj 216 251 - 4;
#X obj 129 72 * 23;
#X obj 129 116 int;
#X obj 129 138 change;
#X floatatom 229 165 5 0 0 0 - - -, f 5;
#X obj 340 50 * 23;
#X obj 340 94 int;
#X obj 340 116 change;
#X floatatom 347 141 5 0 0 0 - - -, f 5;
#X obj 129 50 c_lfo euclid-number1 0.001 50 sine;
#X obj 340 28 c_lfo euclid-number2 0.002 50 sine;
#X obj 340 72 + 8;
#X obj 129 94 + 8;
#X obj 362 469 u_record rh-hit-1 500;
#X obj 362 365 adc~;
#X obj 23 25 u_samplebank2 rh-hit-2 4T-Granulator-Audio.aif;
#X obj 216 383 s_playtable;
#X obj 485 423 a_onset 120 25;
#X obj 485 401 *~ 0.001;
#X msg 485 445 clear \, start \, normalize;
#X msg 36 361 rh-hit-2 1 \$1;
#X obj 36 384 s_playtable2;
#X connect 0 0 7 0;
#X connect 1 0 2 0;
#X connect 2 0 10 0;
#X connect 2 0 20 0;
#X connect 3 0 5 0;
#X connect 3 0 25 0;
#X connect 4 0 10 1;
#X connect 5 0 30 0;
#X connect 7 0 1 0;
#X connect 9 0 6 1;
#X connect 9 0 6 0;
#X connect 9 0 8 0;
#X connect 10 0 3 0;
#X connect 11 0 9 0;
#X connect 12 0 11 1;
#X connect 13 0 14 0;
#X connect 13 0 15 0;
#X connect 15 0 11 0;
#X connect 16 0 19 0;
#X connect 16 0 24 0;
#X connect 17 0 20 1;
#X connect 18 0 51 0;
#X connect 19 0 35 0;
#X connect 20 0 16 0;
#X connect 21 0 6 0;
#X connect 21 1 6 1;
#X connect 22 0 23 0;
#X connect 23 0 21 0;
#X connect 24 0 16 1;
#X connect 25 0 3 1;
#X connect 26 0 55 0;
#X connect 27 0 26 1;
#X connect 28 0 26 0;
#X connect 29 0 28 0;
#X connect 29 1 27 0;
#X connect 30 0 29 0;
#X connect 31 0 18 0;
#X connect 32 0 31 1;
#X connect 33 0 31 0;
#X connect 34 0 33 0;
#X connect 34 1 32 0;
#X connect 35 0 34 0;
#X connect 36 0 47 0;
#X connect 37 0 38 0;
#X connect 38 0 39 0;
#X connect 38 0 4 0;
#X connect 38 0 5 1;
#X connect 40 0 46 0;
#X connect 41 0 42 0;
#X connect 42 0 17 0;
#X connect 42 0 19 1;
#X connect 42 0 43 0;
#X connect 44 0 36 0;
#X connect 45 0 40 0;
#X connect 46 0 41 0;
#X connect 47 0 37 0;
#X connect 49 0 48 0;
#X connect 49 0 53 0;
#X connect 49 1 48 0;
#X connect 49 1 53 0;
#X connect 51 0 6 1;
#X connect 51 0 8 0;
#X connect 51 1 6 1;
#X connect 51 1 8 0;
#X connect 52 0 54 0;
#X connect 53 0 52 0;
#X connect 54 0 48 1;
#X connect 55 0 56 0;
#X connect 56 0 6 0;
#X connect 56 0 8 0;
#X connect 56 1 8 0;
#X connect 56 1 6 0;
#X restore 307 195 pd hit;
#N canvas 719 31 514 835 history 0;
#X obj 82 43 loadbang;
#X obj 82 65 tgl 15 0 empty empty empty 17 7 0 10 -262144 -1 -1 1 1
;
#X obj 76 310 catch~ \$0-history-l;
#X obj 107 330 catch~ \$0-history-r;
#X obj 76 796 dac~;
#X obj 82 87 metro 5000;
#X msg 342 84 5000;
#X obj 342 108 s \$0-history-interval;
#X obj 369 154 s \$0-history-overlap;
#X obj 139 65 r \$0-history-interval;
#X obj 82 153 sel 0 1 2 3 4 5;
#X obj 342 37 loadbang;
#X obj 342 59 t b b;
#X floatatom 92 131 5 0 0 0 - - -, f 5;
#X msg 369 131 4000;
#X obj 125 246 history-voice \$0 0.021 0.014 woodkid 240;
#X obj 82 109 c_urn 6;
#X msg 133 109 clear \, bang;
#X obj 122 630 line;
#X obj 82 186 history-voice \$0 0.02 0.01 bonobo 240;
#X obj 96 206 history-voice \$0 0.03 0.007 portico-quartet 480;
#X obj 111 226 history-voice \$0 0.022 0.013 the-doors 720;
#X obj 140 266 history-voice \$0 0.027 0.01 shpongle 420;
#X obj 154 286 history-voice \$0 0.024 0.043 jessie-j 720;
#X obj 76 726 *~;
#X obj 107 726 *~;
#X obj 122 698 lop~ 10;
#X obj 76 756 e_reslop;
#X obj 107 776 e_reslop;
#X obj 279 783 t a;
#X msg 249 715 freq \$1;
#X obj 171 684 vsl 15 40 0 1 0 0 empty empty empty 0 -9 0 10 -262144
-1 -1 0 1;
#X obj 122 356 r \$0-4-velocity;
#X obj 149 471 change;
#X obj 149 493 sel 1;
#X msg 262 539 0;
#X msg 149 569 0 6000;
#X obj 295 528 change;
#X obj 295 550 sel 1;
#X msg 295 572 1;
#X obj 295 506 == 0;
#X obj 122 378 max 0;
#X obj 122 425 t f f;
#X msg 279 761 q 2;
#X obj 295 594 tgl 15 0 empty empty empty 17 7 0 10 -262144 -1 -1 0
1;
#X obj 122 403 m_scale 0 50000 0 1 1;
#X obj 122 652 pow 2;
#X obj 249 687 m_scale 0 1 15000 20000;
#X obj 149 515 t b b b;
#X obj 149 449 > 0.8;
#N canvas 199 405 452 362 velocity 0;
#X obj 48 48 t f f;
#X obj 48 235 *~;
#X obj 48 162 sig~;
#X obj 48 184 osc~;
#X obj 189 131 noise~;
#X obj 189 175 *~ 0.04;
#X obj 282 101 abs;
#X obj 48 206 *~ 1;
#X obj 48 26 r \$0-4-velocity;
#X obj 48 77 max 0;
#X obj 48 102 m_scale 0 50000 12 100;
#X obj 282 144 min 1;
#X obj 189 153 lop~ 3000;
#X obj 282 122 m_scale 0 30000 0 1 1;
#X obj 48 289 outlet~;
#X obj 48 267 *~ 1;
#X obj 282 166 pack f 10;
#X obj 282 185 line~;
#X floatatom 350 97 5 0 0 0 - - -, f 5;
#X connect 0 0 9 0;
#X connect 0 1 6 0;
#X connect 1 0 15 0;
#X connect 2 0 3 0;
#X connect 3 0 7 0;
#X connect 4 0 12 0;
#X connect 5 0 1 0;
#X connect 6 0 13 0;
#X connect 7 0 1 0;
#X connect 8 0 0 0;
#X connect 9 0 10 0;
#X connect 10 0 2 0;
#X connect 11 0 16 0;
#X connect 12 0 5 0;
#X connect 13 0 11 0;
#X connect 13 0 18 0;
#X connect 15 0 14 0;
#X connect 16 0 17 0;
#X connect 17 0 1 1;
#X restore 221 618 pd velocity;
#N canvas 850 361 333 181 delay 0;
#X obj 82 81 delwrite~ \$0-velocity 1000;
#X obj 22 56 inlet~;
#X obj 22 141 outlet~;
#X obj 82 103 delread~ \$0-velocity 350;
#X obj 38 89 *~ 0.4;
#X connect 1 0 0 0;
#X connect 1 0 2 0;
#X connect 3 0 4 0;
#X connect 4 0 0 0;
#X connect 4 0 2 0;
#X restore 221 645 pd delay;
#X obj 122 605 spigot 1;
#X obj 122 676 * 3;
#X obj 279 739 loadbang;
#X obj 26 16 inlet;
#X obj 26 38 switch~;
#X connect 0 0 1 0;
#X connect 1 0 5 0;
#X connect 2 0 24 0;
#X connect 3 0 25 0;
#X connect 5 0 16 0;
#X connect 6 0 7 0;
#X connect 9 0 5 1;
#X connect 10 0 19 0;
#X connect 10 1 20 0;
#X connect 10 2 21 0;
#X connect 10 3 15 0;
#X connect 10 4 22 0;
#X connect 10 5 23 0;
#X connect 11 0 12 0;
#X connect 12 0 6 0;
#X connect 12 1 14 0;
#X connect 14 0 8 0;
#X connect 16 0 10 0;
#X connect 16 0 13 0;
#X connect 16 1 17 0;
#X connect 17 0 16 0;
#X connect 18 0 40 0;
#X connect 18 0 46 0;
#X connect 24 0 27 0;
#X connect 25 0 28 0;
#X connect 26 0 25 1;
#X connect 26 0 24 1;
#X connect 27 0 4 0;
#X connect 28 0 4 1;
#X connect 29 0 28 1;
#X connect 29 0 27 1;
#X connect 30 0 29 0;
#X connect 32 0 41 0;
#X connect 33 0 34 0;
#X connect 34 0 48 0;
#X connect 35 0 44 0;
#X connect 35 0 52 1;
#X connect 36 0 18 0;
#X connect 37 0 38 0;
#X connect 38 0 39 0;
#X connect 39 0 44 0;
#X connect 39 0 52 1;
#X connect 40 0 37 0;
#X connect 41 0 45 0;
#X connect 42 0 52 0;
#X connect 42 1 49 0;
#X connect 43 0 29 0;
#X connect 45 0 42 0;
#X connect 46 0 31 0;
#X connect 46 0 47 0;
#X connect 46 0 53 0;
#X connect 47 0 30 0;
#X connect 48 0 36 0;
#X connect 48 2 35 0;
#X connect 49 0 33 0;
#X connect 51 0 27 0;
#X connect 51 0 28 0;
#X connect 52 0 18 0;
#X connect 53 0 26 0;
#X connect 54 0 43 0;
#X connect 55 0 56 0;
#X restore 229 148 pd history;
#X obj 229 126 tgl 15 0 empty empty empty 17 7 0 10 -262144 -1 -1 0
1;
#X connect 4 0 3 0;
