#N canvas 299 155 634 350 10;
#X text 28 24 This is a vanilla version of z~ from Zexy lib;
#X text 28 11 Note:(Ragnar);
#X text 200 123 <-- delay in samples;
#N canvas 344 59 600 400 delay-writer 0;
#X obj 96 107 inlet~;
#X obj 96 180 outlet~;
#X obj 116 144 delwrite~ \$0-z \$1;
#X connect 0 0 1 0;
#X connect 0 0 2 0;
#X restore 61 199 pd delay-writer;
#N canvas 0 22 395 330 delay-reader 0;
#X obj 89 107 inlet~;
#X obj 89 267 outlet~;
#X obj 104 179 inlet~;
#X obj 89 237 +~;
#X obj 104 214 vd~ \$0-z;
#X text 88 138 Sum the signals for a flanger effect;
#X connect 2 0 4 0;
#X connect 3 0 1 0;
#X connect 4 0 3 1;
#X restore 61 227 pd delay-reader;
#X obj 163 149 / 44.1;
#X obj 163 173 pack 0 30;
#X obj 163 198 line~;
#X text 28 44 See example G05.execution.order.pd for an explanation
;
#X obj 163 100 loadbang;
#X obj 61 166 inlet~;
#X obj 163 124 f \$1;
#X text 398 106 Arguments:;
#X obj 61 268 outlet~;
#X text 398 126 1: Delay length (samples);
#X connect 3 0 4 0;
#X connect 4 0 13 0;
#X connect 5 0 6 0;
#X connect 6 0 7 0;
#X connect 7 0 4 1;
#X connect 9 0 11 0;
#X connect 10 0 3 0;
#X connect 11 0 5 0;
