#N canvas 0 22 217 251 10;
#X obj 60 137 change;
#X obj 60 159 sel 1;
#X obj 60 203 outlet;
#X obj 75 49 loadbang;
#X obj 75 71 \$2;
#X obj 60 115 >;
#X obj 60 27 r \$1-velocity-in;
#X connect 0 0 1 0;
#X connect 1 0 2 0;
#X connect 3 0 4 0;
#X connect 4 0 5 1;
#X connect 5 0 0 0;
#X connect 6 0 5 0;
