#N canvas 0 22 246 197 10;
#X obj 60 72 change;
#X obj 60 94 sel 1;
#X obj 60 138 outlet;
#X obj 60 50 < \$3;
#X obj 68 116 s \$1-yank-in-\$2;
#X obj 60 27 r \$1-velocity;
#X connect 0 0 1 0;
#X connect 1 0 2 0;
#X connect 1 0 4 0;
#X connect 3 0 0 0;
#X connect 5 0 3 0;
