#N canvas 268 30 199 196 10;
#X obj 60 97 change;
#X obj 60 119 sel 1;
#X obj 60 143 outlet;
#X obj 60 27 r \$1-velocity;
#X obj 60 75 > \$2;
#X obj 60 49 * -1;
#X connect 0 0 1 0;
#X connect 1 0 2 0;
#X connect 3 0 5 0;
#X connect 4 0 0 0;
#X connect 5 0 4 0;
