#N canvas 660 138 466 322 10;
#X obj 76 154 * \$1;
#X obj 76 176 mod \$3;
#X obj 76 198 < \$1;
#X obj 76 220 sel 1;
#X obj 76 242 outlet;
#X obj 76 132 + \$2;
#X obj 76 59 inlet;
#X obj 225 81 inlet;
#X obj 225 103 u_dispatch \$0 offset;
#X obj 225 125 u_dispatch \$0 number;
#X obj 225 147 u_dispatch \$0 length;
#X obj 127 105 r \$0-offset;
#X obj 127 128 r \$0-number;
#X obj 127 152 r \$0-length;
#X text 236 200 \$1 = number;
#X text 236 220 \$2 = offset;
#X text 236 240 \$3 = length;
#X obj 76 81 mod \$3;
#X connect 0 0 1 0;
#X connect 1 0 2 0;
#X connect 2 0 3 0;
#X connect 3 0 4 0;
#X connect 5 0 0 0;
#X connect 6 0 17 0;
#X connect 7 0 8 0;
#X connect 8 0 9 0;
#X connect 9 0 10 0;
#X connect 11 0 5 1;
#X connect 12 0 0 1;
#X connect 12 0 2 1;
#X connect 13 0 1 1;
#X connect 17 0 5 0;
