#N canvas 0 22 728 567 10;
#N canvas 301 283 412 324 reverb 0;
#X msg 231 122 dry \$1;
#X obj 48 220 *~;
#X obj 139 220 *~;
#X obj 207 196 line~;
#X obj 231 38 r \$0-0-angle1;
#X obj 231 70 m_scale 3 15 0 1;
#X text 244 197 Gain compensation;
#N canvas 0 22 473 173 preset-info 0;
#X obj 54 31 loadbang;
#X obj 54 115 outlet;
#X msg 54 54 decay_diffusion2 0.84 \, decay_diffusion1 0.889 \, input_diffusion2
0.779 \, excursion 0.53761 \, input_diffusion1 0.685 \, decay 0.99
\, damping 4637 \, bandwidth 10000 \, predelay 10;
#X connect 0 0 2 0;
#X connect 2 0 1 0;
#X restore 241 150 pd preset-info;
#X obj 48 250 outlet~;
#X obj 139 270 outlet~;
#X obj 48 120 inlet~;
#X obj 139 140 inlet~;
#X obj 241 93 m_scale 0 1 0.35 1;
#X obj 48 173 e_platereverb soundscape-reverb;
#X obj 201 14 loadbang;
#X msg 201 36 15;
#X floatatom 145 87 5 0 0 0 - - -, f 5;
#X connect 0 0 13 2;
#X connect 1 0 8 0;
#X connect 2 0 9 0;
#X connect 3 0 2 1;
#X connect 3 0 1 1;
#X connect 4 0 5 0;
#X connect 4 0 16 0;
#X connect 5 0 0 0;
#X connect 5 0 12 0;
#X connect 7 0 13 2;
#X connect 10 0 13 0;
#X connect 11 0 13 1;
#X connect 12 0 3 0;
#X connect 13 0 1 0;
#X connect 13 1 2 0;
#X connect 14 0 15 0;
#X restore 43 152 pd reverb;
#N canvas 535 331 443 388 lowpass-filter 0;
#X obj 47 120 e_reslop \$1-4T-lop 20000;
#X obj 84 141 e_reslop \$1-4T-lop 20000;
#X msg 225 100 freq \$1;
#X obj 284 79 loadbang;
#X msg 284 100 q 3;
#X obj 47 273 outlet~;
#X obj 84 293 outlet~;
#X obj 47 33 inlet~;
#X obj 84 53 inlet~;
#X obj 225 34 r \$0-1-angle1;
#X obj 225 60 m_scale 15 3 500 19000 3;
#X obj 84 253 *~;
#X obj 47 233 *~;
#X obj 99 206 line~;
#X text 136 207 Gain compensation;
#X obj 99 183 m_scale 500 19000 3 1;
#X obj 338 12 loadbang;
#X msg 338 34 3;
#X connect 0 0 12 0;
#X connect 1 0 11 0;
#X connect 2 0 0 1;
#X connect 2 0 1 1;
#X connect 3 0 4 0;
#X connect 4 0 1 1;
#X connect 4 0 0 1;
#X connect 7 0 0 0;
#X connect 8 0 1 0;
#X connect 9 0 10 0;
#X connect 10 0 2 0;
#X connect 10 0 15 0;
#X connect 11 0 6 0;
#X connect 12 0 5 0;
#X connect 13 0 11 1;
#X connect 13 0 12 1;
#X connect 15 0 13 0;
#X connect 16 0 17 0;
#X connect 17 0 10 0;
#X restore 43 194 pd lowpass-filter;
#N canvas 438 244 579 426 tremolo 0;
#X msg 164 283 freq \$1;
#X obj 47 373 outlet~;
#X obj 84 393 outlet~;
#X obj 47 33 inlet~;
#X obj 84 53 inlet~;
#X msg 377 124 shape \$1;
#X msg 254 309 depth \$1;
#X obj 141 77 sel 0;
#X obj 254 185 spigot;
#X obj 141 108 t b b;
#X msg 287 162 0;
#X obj 254 287 line;
#X msg 316 162 1;
#X msg 141 159 0;
#X obj 179 109 t f b b;
#X obj 141 53 m_scale 0 70 0 25;
#X msg 254 265 \$1 100;
#X obj 47 310 e_tremolo2 trem-left;
#X obj 84 331 e_tremolo2 trem-right;
#X obj 141 27 r \$0-1-rotations;
#X obj 254 27 r \$0-1-angle1;
#X obj 377 27 r \$0-1-angle2;
#X obj 468 6 loadbang;
#X msg 468 28 3;
#X obj 254 237 f 0.3;
#X obj 254 53 m_scale 16 5 1 0.3;
#X obj 377 53 m_scale 16 5 0.1 1;
#X floatatom 412 86 5 0 0 0 - - -, f 5;
#X connect 0 0 17 1;
#X connect 0 0 18 1;
#X connect 3 0 17 0;
#X connect 4 0 18 0;
#X connect 5 0 17 1;
#X connect 5 0 18 1;
#X connect 6 0 17 1;
#X connect 6 0 18 1;
#X connect 7 0 9 0;
#X connect 7 1 14 0;
#X connect 8 0 24 0;
#X connect 9 0 13 0;
#X connect 9 1 10 0;
#X connect 10 0 8 1;
#X connect 11 0 6 0;
#X connect 12 0 8 1;
#X connect 13 0 16 0;
#X connect 14 0 0 0;
#X connect 14 1 12 0;
#X connect 14 2 24 0;
#X connect 15 0 7 0;
#X connect 16 0 11 0;
#X connect 17 0 1 0;
#X connect 18 0 2 0;
#X connect 19 0 15 0;
#X connect 20 0 25 0;
#X connect 21 0 26 0;
#X connect 22 0 23 0;
#X connect 23 0 25 0;
#X connect 23 0 26 0;
#X connect 24 0 16 0;
#X connect 25 0 8 0;
#X connect 26 0 5 0;
#X restore 43 234 pd tremolo;
#X obj 43 288 throw~ \$0-LEFT;
#X obj 143 288 throw~ \$0-RIGHT;
#N canvas 469 113 613 441 granular 0;
#X obj 31 134 4T-Granulator \$0;
#X obj 394 58 r \$0-3-section;
#X obj 32 72 scaleSelecta;
#X obj 111 58 r \$0-0-section;
#X msg 111 80 sound-bed-interval \$1;
#X obj 526 58 loadbang;
#X text 37 369 ^ Sound-bed OUT LEFT;
#X text 216 369 ^ Sound-bed OUT RIGHT;
#X text 396 369 ^ Pokes OUT MONO;
#X obj 31 399 outlet~;
#X obj 84 399 outlet~;
#X obj 390 401 outlet~;
#X msg 265 81 poke-2-interval \$1;
#X msg 394 80 poke-3-interval \$1;
#X obj 265 58 r \$0-2-section;
#X msg 408 235 sound-bed-interval \$1;
#X msg 408 275 poke-2-interval \$1;
#X msg 408 255 poke-1-interval \$1;
#X msg 408 295 poke-3-interval \$1;
#X msg 408 315 gain \$1;
#X text 406 215 Granulator parameters;
#X msg 526 80 gain 0.7;
#X obj 32 110 spigot;
#X obj 65 26 inlet;
#X obj 104 26 r demos-on;
#X connect 0 0 9 0;
#X connect 0 1 10 0;
#X connect 0 2 11 0;
#X connect 1 0 13 0;
#X connect 2 0 22 0;
#X connect 3 0 4 0;
#X connect 4 0 22 0;
#X connect 5 0 21 0;
#X connect 12 0 22 0;
#X connect 13 0 22 0;
#X connect 14 0 12 0;
#X connect 21 0 22 0;
#X connect 22 0 0 0;
#X connect 23 0 22 1;
#X connect 24 0 22 1;
#X restore 43 77 pd granular;
#N canvas 1390 364 412 324 reverb 0;
#X obj 48 173 e_platereverb;
#N canvas 0 22 473 173 preset-info 0;
#X obj 58 18 loadbang;
#X obj 54 115 outlet;
#X msg 54 54 decay_diffusion2 0.84 \, decay_diffusion1 0.889 \, input_diffusion2
0.779 \, excursion 0.53761 \, input_diffusion1 0.685 \, decay 0.99
\, damping 4637 \, bandwidth 10000 \, predelay 10 \, dry 0.72;
#X connect 0 0 2 0;
#X connect 2 0 1 0;
#X restore 153 150 pd preset-info;
#X obj 48 250 outlet~;
#X obj 85 270 outlet~;
#X obj 48 120 inlet~;
#X obj 85 140 inlet~;
#X obj 85 220 *~ 1;
#X obj 48 220 *~ 1;
#X connect 0 0 7 0;
#X connect 0 1 6 0;
#X connect 1 0 0 2;
#X connect 4 0 0 0;
#X connect 5 0 0 1;
#X connect 6 0 3 0;
#X connect 7 0 2 0;
#X restore 170 193 pd reverb;
#X obj 170 167 *~ 0.25;
#N canvas 464 428 452 362 velocity 0;
#X obj 48 88 t f f;
#X obj 48 235 *~;
#X obj 48 162 sig~;
#X obj 48 184 osc~;
#X obj 48 110 abs;
#X obj 189 131 noise~;
#X obj 189 153 lop~ 1000;
#X obj 189 175 *~ 0.04;
#X obj 282 141 abs;
#X obj 282 185 lop~ 10;
#X obj 48 289 outlet~;
#X obj 48 140 m_scale -30 15 12 100;
#X obj 48 206 *~ 1;
#X obj 282 162 m_scale 0 15 0 1 1;
#X obj 48 267 *~ 2;
#X obj 48 26 r \$0-4-velocity-in;
#X obj 48 68 spigot;
#X obj 81 46 inlet;
#X obj 120 46 r demos-on;
#X connect 0 0 4 0;
#X connect 0 1 8 0;
#X connect 1 0 14 0;
#X connect 2 0 3 0;
#X connect 3 0 12 0;
#X connect 4 0 11 0;
#X connect 5 0 6 0;
#X connect 6 0 7 0;
#X connect 7 0 1 0;
#X connect 8 0 13 0;
#X connect 9 0 1 1;
#X connect 11 0 2 0;
#X connect 12 0 1 0;
#X connect 13 0 9 0;
#X connect 14 0 10 0;
#X connect 15 0 16 0;
#X connect 16 0 0 0;
#X connect 17 0 16 1;
#X connect 18 0 16 1;
#X restore 43 341 pd velocity;
#N canvas 850 361 333 181 delay 0;
#X obj 82 81 delwrite~ \$0-velocity 1000;
#X obj 82 103 delread~ \$0-velocity 350;
#X obj 22 56 inlet~;
#X obj 22 141 outlet~;
#X obj 143 25 r \$0-4-angle1;
#X obj 143 47 m_scale 3 15 100 1000;
#X obj 38 89 *~ 0.6;
#X connect 1 0 6 0;
#X connect 2 0 0 0;
#X connect 2 0 3 0;
#X connect 4 0 5 0;
#X connect 5 0 1 0;
#X connect 6 0 0 0;
#X connect 6 0 3 0;
#X restore 43 368 pd delay;
#X obj 43 400 throw~ \$0-LEFT;
#X obj 143 400 throw~ \$0-RIGHT;
#N canvas 0 22 333 181 delay 0;
#X obj 38 89 *~ 0.4;
#X obj 22 56 inlet~;
#X obj 22 141 outlet~;
#X obj 82 81 delwrite~ \$0-drums 1000;
#X obj 82 103 delread~ \$0-drums 100;
#X connect 0 0 2 0;
#X connect 0 0 3 0;
#X connect 1 0 2 0;
#X connect 1 0 3 0;
#X connect 4 0 0 0;
#X restore 43 479 pd delay;
#X obj 43 506 throw~ \$0-LEFT;
#X obj 143 506 throw~ \$0-RIGHT;
#N canvas 592 265 412 324 volume 0;
#X obj 48 220 *~;
#X obj 139 220 *~;
#X obj 48 250 outlet~;
#X obj 139 270 outlet~;
#X obj 48 120 inlet~;
#X obj 139 140 inlet~;
#X obj 199 137 r \$0-0-rotations;
#X obj 199 159 > 2;
#X obj 199 181 lop~ 1;
#X floatatom 231 160 5 0 0 0 - - -, f 5;
#X floatatom 245 178 5 0 0 0 - - -, f 5;
#X connect 0 0 2 0;
#X connect 1 0 3 0;
#X connect 4 0 0 0;
#X connect 5 0 1 0;
#X connect 6 0 7 0;
#X connect 6 0 9 0;
#X connect 7 0 8 0;
#X connect 7 0 10 0;
#X connect 8 0 1 1;
#X connect 8 0 0 1;
#X restore 43 112 pd volume;
#X text 41 21 DEMOS;
#N canvas 332 135 451 351 quick-movements 0;
#X obj 96 231 s_drumelectro;
#X obj 96 253 e_reslop drum-lop;
#X msg 209 227 q 2;
#X msg 195 207 freq 1800;
#X msg 96 203 hh;
#X msg 141 203 cp;
#X obj 195 183 loadbang;
#X obj 96 275 outlet~;
#X obj 141 124 yank-in \$0-5 2;
#X obj 136 144 bng 15 250 50 0 empty empty empty 17 7 0 10 -262144
-1 -1;
#X obj 106 104 bng 15 250 50 0 empty empty empty 17 7 0 10 -262144
-1 -1;
#X obj 96 84 yank-out \$0-5 1;
#X obj 297 90 vsl 15 128 0 127 0 0 empty empty empty 0 -9 0 10 -262144
-1 -1 0 1;
#X obj 96 175 spigot;
#X obj 211 50 inlet;
#X obj 250 50 r demos-on;
#X obj 141 175 spigot;
#X connect 0 0 1 0;
#X connect 1 0 7 0;
#X connect 2 0 1 1;
#X connect 3 0 1 1;
#X connect 4 0 0 0;
#X connect 5 0 0 0;
#X connect 6 0 3 0;
#X connect 6 0 2 0;
#X connect 8 0 9 0;
#X connect 8 0 16 0;
#X connect 11 0 10 0;
#X connect 11 0 13 0;
#X connect 13 0 4 0;
#X connect 14 0 13 1;
#X connect 14 0 16 1;
#X connect 15 0 13 1;
#X connect 15 0 16 1;
#X connect 16 0 5 0;
#X restore 43 449 pd quick-movements;
#X text 90 20 0 \, 1 \, 2 \, 3;
#X text 121 341 4;
#X text 160 449 5;
#X obj 43 321 tgl 15 0 empty empty empty 17 7 0 10 -262144 -1 -1 0
1;
#X obj 43 428 tgl 15 0 empty empty empty 17 7 0 10 -262144 -1 -1 0
1;
#X obj 43 54 tgl 15 0 empty empty empty 17 7 0 10 -262144 -1 -1 0 1
;
#X floatatom 294 142 5 0 0 0 - - -, f 5;
#X obj 388 141 bng 15 250 50 0 empty empty empty 17 7 0 10 -262144
-1 -1;
#X text 292 100 E.g.;
#X obj 294 119 r \$0-0-section;
#X obj 388 119 r \$0-1-bound;
#X floatatom 294 188 5 0 0 0 - - -, f 5;
#X obj 294 165 r \$0-2-dir;
#X obj 388 165 r \$0-3-velocity;
#X floatatom 388 188 5 0 0 0 - - -, f 5;
#X obj 294 78 r \$0-[player-number]-[parameter];
#X obj 294 279 bng 15 250 50 0 empty empty empty 17 7 0 10 -262144
-1 -1;
#X text 294 239 Quick movements;
#X obj 294 329 bng 15 250 50 0 empty empty empty 17 7 0 10 -262144
-1 -1;
#X obj 294 259 yank-out \$0-5 1;
#X obj 294 309 yank-in \$0-5 2;
#X text 293 30 USING THE PLAYER DATA;
#X text 292 55 Syntax;
#X obj 300 403 vradio 15 1 0 8 empty empty empty 0 -8 0 10 -262144
-1 -1 0;
#X text 318 402 0 - Granular soundbed note;
#X text 318 433 2 - Granular poke note high;
#X text 318 449 3 - Granular poke note low;
#X text 318 464 4 - Velocity;
#X text 318 480 5 - Quick movements;
#X text 318 495 6 - ???;
#X text 318 511 7 - ???;
#X text 298 382 PLAYER DEMOS;
#X text 318 418 1 - Granular soundbed tremolo;
#X connect 0 0 1 0;
#X connect 0 1 1 1;
#X connect 1 0 2 0;
#X connect 1 1 2 1;
#X connect 2 0 3 0;
#X connect 2 1 4 0;
#X connect 5 0 15 0;
#X connect 5 1 15 1;
#X connect 5 2 7 0;
#X connect 6 0 3 0;
#X connect 6 1 4 0;
#X connect 7 0 6 0;
#X connect 7 0 6 1;
#X connect 8 0 9 0;
#X connect 9 0 10 0;
#X connect 9 0 11 0;
#X connect 12 0 14 0;
#X connect 12 0 13 0;
#X connect 15 0 0 0;
#X connect 15 1 0 1;
#X connect 17 0 12 0;
#X connect 21 0 8 0;
#X connect 22 0 17 0;
#X connect 23 0 5 0;
#X connect 27 0 24 0;
#X connect 28 0 25 0;
#X connect 30 0 29 0;
#X connect 31 0 32 0;
#X connect 37 0 34 0;
#X connect 38 0 36 0;
