#N canvas 257 111 292 584 10;
#X declare -path abs;
#X declare -path audio;
#X declare -path libs/oscx;
#X declare -path rj;
#X declare -path abs/4T-Granulator;
#N canvas 0 22 710 646 io 0;
#X obj 58 36 catch~ \$0-LEFT;
#X obj 158 36 catch~ \$0-RIGHT;
#X obj 58 471 dac~;
#X obj 58 426 *~;
#X obj 158 426 *~;
#X obj 173 402 lop~ 10;
#X obj 173 382 tgl 15 0 empty empty empty 17 7 0 10 -262144 -1 -1 1
1;
#X obj 173 359 loadbang;
#X obj 158 316 e_repeater;
#X obj 58 316 e_repeater;
#X obj 215 246 loadbang;
#X msg 215 269 dry 1;
#X obj 215 291 t a;
#X obj 484 31 loadbang;
#X obj 484 53 metro 1000;
#X obj 484 75 t b b;
#X obj 514 141 * 100;
#X obj 514 121 + 1;
#X obj 514 99 random 9;
#X obj 484 161 random 3;
#X obj 327 221 + 1;
#X obj 327 243 * 100;
#X obj 190 132 r \$0-5-rotations;
#X msg 190 220 dry \$1;
#X obj 190 176 max 0;
#X obj 190 198 min 1;
#X obj 327 90 r \$0-5-angle1;
#X obj 327 134 int;
#X obj 327 156 change;
#X obj 327 112 m_scale 3 15 6 0;
#X obj 327 178 / 2;
#X obj 327 200 int;
#X obj 190 154 m_scale 60 70 1 0.188;
#X connect 0 0 9 0;
#X connect 1 0 8 0;
#X connect 3 0 2 0;
#X connect 4 0 2 1;
#X connect 5 0 4 1;
#X connect 5 0 3 1;
#X connect 6 0 5 0;
#X connect 7 0 6 0;
#X connect 8 0 4 0;
#X connect 9 0 3 0;
#X connect 10 0 11 0;
#X connect 11 0 12 0;
#X connect 12 0 8 1;
#X connect 12 0 9 1;
#X connect 13 0 14 0;
#X connect 14 0 15 0;
#X connect 15 0 19 0;
#X connect 15 1 18 0;
#X connect 16 0 14 1;
#X connect 17 0 16 0;
#X connect 18 0 17 0;
#X connect 20 0 21 0;
#X connect 21 0 12 0;
#X connect 22 0 32 0;
#X connect 23 0 12 0;
#X connect 24 0 25 0;
#X connect 25 0 23 0;
#X connect 26 0 29 0;
#X connect 27 0 28 0;
#X connect 28 0 30 0;
#X connect 29 0 27 0;
#X connect 30 0 31 0;
#X connect 31 0 20 0;
#X connect 32 0 24 0;
#X restore 18 49 pd io;
#N canvas 0 22 450 300 timebase 0;
#X obj 106 52 loadbang;
#X obj 106 75 tgl 15 0 empty empty empty 17 7 0 10 -262144 -1 -1 1
1;
#X obj 106 119 f;
#X obj 136 119 + 1;
#X obj 106 141 s \$0-tick;
#X obj 106 97 metro 50;
#X connect 0 0 1 0;
#X connect 1 0 5 0;
#X connect 2 0 3 0;
#X connect 2 0 4 0;
#X connect 3 0 2 1;
#X connect 5 0 2 0;
#X restore 18 69 pd timebase;
#N canvas 0 22 454 172 init 0;
#X obj 62 56 declare -path abs;
#X obj 62 96 declare -path audio;
#X obj 62 36 declare -path libs/oscx;
#X obj 62 116 declare -path rj;
#X obj 62 76 declare -path abs/4T-Granulator;
#X obj 317 53 loadbang;
#X msg 317 75 \; pd dsp 1 \;;
#X connect 5 0 6 0;
#X restore 18 29 pd init;
#N canvas 40 223 1029 606 presets 0;
#X obj 423 58 r RJ_SCENE;
#X obj 423 125 u_cocollect;
#X obj 423 147 list prepend;
#X obj 423 169 list trim;
#X msg 443 233;
#X msg 463 253;
#X msg 483 273;
#X msg 503 293;
#X msg 523 313;
#X msg 543 333;
#X msg 563 353;
#X msg 583 373;
#X msg 603 393;
#X obj 664 190 s RJ_SCENE_LOAD;
#X obj 500 124 r \$0-preset-index;
#X msg 486 103 clear;
#X obj 423 191 route 0 1 2 3 4 5 6 7 8 9;
#X obj 503 171 sel 0 1 2 3 4 5 6 7 8 9;
#X obj 58 280 s RJ_SCENE_SAVE;
#X msg 58 254 save;
#X obj 65 217 bng 32 250 50 0 empty empty empty 17 7 0 10 -4034 -1
-1;
#X obj 77 192 s \$0-preset-index;
#X obj 58 137 t b f f;
#X obj 97 167 s \$0-preset-saved;
#N canvas 0 22 450 278 (subpatch) 0;
#X array \$0-presets 9 float 3;
#A 0 1 0 0 0 0 0 0 0 0;
#X coords 0 1 9 0 100 70 1 0 0;
#X restore 59 331 graph;
#X obj 237 319 s \$0-preset-index;
#X obj 218 274 t b f f;
#X obj 257 297 s \$0-preset-cleared;
#X obj 503 149 r \$0-load-preset;
#X obj 58 114 r \$0-save-preset;
#X obj 218 251 r \$0-clear-preset;
#X floatatom 552 107 5 0 0 0 - - -, f 5;
#X obj 218 340 s \$0-clear;
#X obj 486 81 r \$0-clear;
#X obj 59 415 r \$0-preset-saved;
#X obj 109 435 r \$0-preset-cleared;
#X obj 59 511 tabwrite \$0-presets;
#X obj 59 467 t b f;
#X msg 59 489 1;
#X obj 109 467 t b f;
#X msg 109 489 0;
#X msg 423 220 e_reslop-drum-lop q 2 \, e_reslop-drum-lop freq 1800
\, notes-8 note-count 8 \, notes-8 intervals 1 4 6 7 8 8 11 11 \, 4T-poke-0
note-count 8 \, 4T-poke-0 intervals 0 2 3 6 8 9 11 12 \, 4T-poke-0
mono 1 \, 4T-poke-0 gain 0.57 \, 4T-poke-0 octave -4 \, 4T-poke-0 release
1500 \, 4T-poke-0 hold 50 \, 4T-poke-0 attack 700 \, notes-8 note-count
8 \, notes-8 intervals 1 4 6 7 8 8 11 11 \, 4T-poke-1 note-count 8
\, 4T-poke-1 intervals 1 4 6 7 8 8 11 11 \, 4T-poke-1 gain 0.5 \, 4T-poke-1
octave 2 \, 4T-poke-1 release 1000 \, 4T-poke-1 hold 0 \, 4T-poke-1
attack 100 \, notes-8 note-count 8 \, notes-8 intervals 1 4 6 7 8 8
11 11 \, 4T-poke-2 note-count 8 \, 4T-poke-2 intervals 1 4 6 7 8 8
11 11 \, 4T-poke-2 mono 1 \, 4T-poke-2 gain 0.64 \, 4T-poke-2 octave
-2 \, 4T-poke-2 release 500 \, 4T-poke-2 hold 100 \, 4T-poke-2 attack
250 \, notes-8 note-count 8 \, notes-8 intervals 1 4 6 7 8 8 11 11
\, 4T-Granulator poke-3-interval 0 \, 4T-Granulator poke-2-interval
0 \, 4T-Granulator poke-1-interval 4 \, 4T-Granulator gain 0.4 \, 4T-Granulator
sound-bed-interval 0 \, 4T-Granulator intervals 1 4 6 7 8 8 11 11 \,
e_tremolo-trem-right phase 0 \, e_tremolo-trem-right shape 0.5 \, e_tremolo-trem-right
depth 0 \, e_tremolo-trem-right freq 1.25 \, e_tremolo-trem-left phase
0 \, e_tremolo-trem-left shape 0.5 \, e_tremolo-trem-left depth 0 \,
e_tremolo-trem-left freq 1.25 \, e_platereverb-soundscape-reverb dry
0 \, e_platereverb-soundscape-reverb decay_diffusion2 0.84 \, e_platereverb-soundscape-reverb
decay_diffusion1 0.889 \, e_platereverb-soundscape-reverb input_diffusion2
0.779 \, e_platereverb-soundscape-reverb excursion 0.53761 \, e_platereverb-soundscape-reverb
input_diffusion1 0.685 \, e_platereverb-soundscape-reverb decay 0.99
\, e_platereverb-soundscape-reverb damping 4637 \, e_platereverb-soundscape-reverb
bandwidth 10000 \, e_platereverb-soundscape-reverb predelay 10 \,;
#X obj 665 54 loadbang;
#X obj 665 76 del 100;
#X connect 0 0 1 0;
#X connect 1 0 2 0;
#X connect 2 0 3 0;
#X connect 3 0 16 0;
#X connect 4 0 13 0;
#X connect 5 0 13 0;
#X connect 6 0 13 0;
#X connect 7 0 13 0;
#X connect 8 0 13 0;
#X connect 9 0 13 0;
#X connect 10 0 13 0;
#X connect 11 0 13 0;
#X connect 12 0 13 0;
#X connect 14 0 2 1;
#X connect 14 0 31 0;
#X connect 15 0 1 1;
#X connect 16 0 41 0;
#X connect 16 1 4 0;
#X connect 16 2 5 0;
#X connect 16 3 6 0;
#X connect 16 4 7 0;
#X connect 16 5 8 0;
#X connect 16 6 9 0;
#X connect 16 7 10 0;
#X connect 16 8 11 0;
#X connect 16 9 12 0;
#X connect 17 0 41 0;
#X connect 17 1 4 0;
#X connect 17 2 5 0;
#X connect 17 3 6 0;
#X connect 17 4 7 0;
#X connect 17 5 8 0;
#X connect 17 6 9 0;
#X connect 17 7 10 0;
#X connect 17 8 11 0;
#X connect 17 9 12 0;
#X connect 19 0 18 0;
#X connect 20 0 19 0;
#X connect 22 0 19 0;
#X connect 22 1 21 0;
#X connect 22 2 23 0;
#X connect 26 0 32 0;
#X connect 26 1 25 0;
#X connect 26 2 27 0;
#X connect 28 0 17 0;
#X connect 29 0 22 0;
#X connect 30 0 26 0;
#X connect 33 0 15 0;
#X connect 34 0 37 0;
#X connect 35 0 39 0;
#X connect 37 0 38 0;
#X connect 37 1 36 1;
#X connect 38 0 36 0;
#X connect 39 0 40 0;
#X connect 39 1 36 1;
#X connect 40 0 36 0;
#X connect 41 0 13 0;
#X connect 42 0 43 0;
#X connect 43 0 41 0;
#X restore 17 529 pd presets;
#X obj 17 472 preset-toggle \$0 0;
#X obj 62 472 preset-toggle \$0 3;
#X obj 32 472 preset-toggle \$0 1;
#X obj 47 472 preset-toggle \$0 2;
#X obj 77 472 preset-toggle \$0 4;
#X obj 92 472 preset-toggle \$0 5;
#X obj 107 472 preset-toggle \$0 6;
#X obj 122 472 preset-toggle \$0 7;
#X obj 137 472 preset-toggle \$0 8;
#X obj 152 472 preset-toggle \$0 9;
#X text 174 470 Save;
#X text 174 495 Recall;
#X text 174 511 Clear;
#N canvas 638 145 751 598 Players 1;
#X floatatom 278 546 5 0 0 0 - - -, f 5;
#X obj 278 565 s rotations-multiplier;
#X text 607 15 Player parameters;
#X text 606 45 -rotations (0 - ~70);
#X text 607 65 -angle1 (3 - 15);
#X text 607 85 -angle2 (3 - 15);
#X text 607 105 -velocity-out (0 - 30);
#X text 607 125 -velocity-in (0 - -30);
#X text 607 145 -section (0 - 7);
#X text 607 165 -boundary (bang);
#X text 607 185 -dir (-1 \, 0 \, 1);
#X text 607 205 -hall1 (bang);
#X text 607 225 -hall2 (bang);
#X obj 16 14 player-input \$0 0;
#X obj 309 14 player-input \$0 4;
#X obj 16 145 player-input \$0 1;
#X obj 310 145 player-input \$0 5;
#X obj 311 278 player-input \$0 6;
#X obj 16 278 player-input \$0 2;
#X obj 16 411 player-input \$0 3;
#X obj 311 411 player-input \$0 7;
#X obj 603 306;
#X connect 0 0 1 0;
#X restore 18 354 pd Players;
#N canvas 83 26 410 664 Fake-Players 0;
#X obj 92 546 r fakeHarpSend;
#X obj 99 566 loadbang;
#X obj 99 588 del 1000;
#X text 184 547 From FakePlayers sub-patch;
#X obj 92 632 sendOSC 9002;
#X msg 99 609 connect 127.0.0.1 9002;
#X obj 22 18 fakePlayer 0 \$0;
#X obj 202 18 fakePlayer 4 \$0;
#X obj 22 149 fakePlayer 1 \$0;
#X obj 22 281 fakePlayer 2 \$0;
#X obj 23 415 fakePlayer 3 \$0;
#X obj 203 415 fakePlayer 7 \$0;
#X obj 202 281 fakePlayer 6 \$0;
#X obj 202 149 fakePlayer 5 \$0;
#X connect 0 0 4 0;
#X connect 1 0 2 0;
#X connect 2 0 5 0;
#X connect 5 0 4 0;
#X restore 18 404 pd Fake-Players;
#N canvas 98 101 230 261 pitch-detect 0;
#X obj 41 128 + 0.499;
#X obj 41 149 int;
#X obj 41 90 line;
#X floatatom 41 111 5 0 0 0 - - -, f 5;
#X obj 41 69 pack 0 20;
#X obj 41 48 fiddle~ 2048 1 20 3;
#X obj 41 170 change;
#X floatatom 41 192 5 0 0 0 - - -, f 5;
#X connect 0 0 1 0;
#X connect 1 0 6 0;
#X connect 2 0 3 0;
#X connect 3 0 0 0;
#X connect 4 0 2 0;
#X connect 5 0 4 0;
#X connect 6 0 7 0;
#X restore 18 119 pd pitch-detect;
#X obj 18 140 overview;
#X text 87 355 Processing Player data;
#X text 115 404 For debug;
#X text 17 8 ADMIN;
#X text 17 99 TOOLS;
#X text 62 334 Receive Player data;
#X text 17 452 PRESET SAVING (experimental);
#X text 75 140 rjlib;
#N canvas 251 286 503 355 osc 0;
#X obj 43 219 s \$0-player-osc;
#X obj 43 24 dumpOSC 5000;
#X obj 43 46 OSCroute /1;
#X obj 43 68 s \$0-touchOSC;
#X obj 130 153 inlet;
#X msg 130 175 /\$1;
#X text 125 24 From TouchOSC iPad interface;
#X text 125 106 From debug_xosc Processing sketch;
#X obj 43 197 list prepend /0;
#X obj 52 129 dumpOSC 9002;
#X text 135 126 From FakePlayers sub-patch Processing sketch;
#X obj 205 222 s \$0-0-section;
#X msg 234 200 10;
#X obj 235 242 s \$0-0-rotations;
#X obj 205 176 sel 1;
#X msg 205 200 6;
#X obj 43 105 dumpOSC 9001;
#X obj 154 61 print;
#X connect 1 0 2 0;
#X connect 2 0 3 0;
#X connect 4 0 5 0;
#X connect 4 0 14 0;
#X connect 5 0 8 1;
#X connect 8 0 0 0;
#X connect 9 0 0 0;
#X connect 12 0 13 0;
#X connect 14 0 15 0;
#X connect 14 0 12 0;
#X connect 15 0 11 0;
#X connect 16 0 8 0;
#X restore 18 333 pd osc;
#N canvas 63 26 1658 950 hit-play 0;
#X obj 1043 239 - 78;
#X obj 85 373 hh_drone;
#X obj 85 500 e_scompress;
#X msg 148 478 threshold 25;
#X obj 148 454 loadbang;
#X msg 228 478 ratio 4;
#X obj 192 282 r \$0-0-angle1;
#X obj 192 304 m_scale 3 15 13 8;
#X msg 192 326 interval \$1;
#X obj 130 327 loadbang;
#X obj 315 285 r \$0-0-rotations;
#X msg 315 307 mix \$1;
#X obj 525 460 abs;
#X obj 525 481 m_scale 0 15 0 1 1;
#X obj 525 436 r \$0-2-velocity-in;
#X obj 749 459 yank-in \$0-2 20;
#X msg 749 481 noise-burst 1;
#X obj 847 459 int;
#X obj 847 415 r \$0-2-angle1;
#X obj 847 437 m_scale 3 15 1 -4;
#X msg 847 481 interval \$1;
#X obj 525 506 hh_velocity-synth;
#X msg 664 482 base-note \$1;
#X obj 525 600 *~ 1;
#X obj 1058 517 r play-hit;
#X obj 1058 561 vline~;
#X msg 1058 539 0.4 4 \, 1 3000 40;
#X obj 1043 584 *~;
#X obj 592 293 m_scale 3 15 13 8;
#X msg 592 315 interval \$1;
#X obj 490 316 loadbang;
#X msg 702 317 mix \$1;
#X obj 445 362 hh_drone;
#X obj 445 334 + 4;
#N canvas 0 22 633 309 noise-drums 0;
#X obj 67 130 noise~;
#X obj 67 204 *~;
#X obj 140 180 vline~;
#X msg 140 158 0 2 \, 1 5 10 \, 0 300 15;
#X obj 140 21 r \$0-tick;
#X obj 67 182 *~ 10;
#X obj 67 152 bp~ 200 1;
#X obj 287 128 noise~;
#X obj 287 202 *~;
#X obj 360 178 vline~;
#X msg 360 156 0 2 \, 1 5 10 \, 0 300 15;
#X obj 287 150 bp~ 500 2;
#X obj 287 180 *~ 10;
#X obj 140 63 mod 56;
#X obj 360 61 mod 56;
#X obj 140 85 sel 0 12 24 44 4;
#X obj 214 109 random 2;
#X obj 214 131 sel 0;
#X obj 439 109 random 2;
#X obj 439 131 sel 0;
#X obj 360 83 sel 8 16 32 52 36;
#X obj 516 32 inlet;
#X obj 516 56 * 8;
#X obj 67 226 throw~ \$0-LEFT;
#X obj 287 226 throw~ \$0-RIGHT;
#X connect 0 0 6 0;
#X connect 1 0 23 0;
#X connect 2 0 1 1;
#X connect 3 0 2 0;
#X connect 4 0 13 0;
#X connect 4 0 14 0;
#X connect 5 0 1 0;
#X connect 6 0 5 0;
#X connect 7 0 11 0;
#X connect 8 0 24 0;
#X connect 9 0 8 1;
#X connect 10 0 9 0;
#X connect 11 0 12 0;
#X connect 12 0 8 0;
#X connect 13 0 15 0;
#X connect 14 0 20 0;
#X connect 15 0 3 0;
#X connect 15 1 3 0;
#X connect 15 2 3 0;
#X connect 15 3 3 0;
#X connect 15 4 16 0;
#X connect 16 0 17 0;
#X connect 17 0 3 0;
#X connect 18 0 19 0;
#X connect 19 0 10 0;
#X connect 20 0 10 0;
#X connect 20 1 10 0;
#X connect 20 2 10 0;
#X connect 20 3 10 0;
#X connect 20 4 18 0;
#X connect 21 0 22 0;
#X connect 22 0 12 1;
#X connect 22 0 5 1;
#X restore 506 129 pd noise-drums;
#X obj 506 42 r \$0-1-rotations;
#X obj 506 64 m_scale 60 70 0 1;
#X obj 506 108 min 1;
#X obj 506 86 max 0;
#X floatatom 451 67 5 0 0 0 - - -, f 5;
#X obj 1043 606 *~ 0.5;
#X obj 85 605 *~ 1;
#X obj 1093 606 *~ 0.4;
#X obj 85 644 throw~ \$0-LEFT;
#X obj 104 665 throw~ \$0-RIGHT;
#X obj 179 642 throw~ \$0-PLATEREVERB-L;
#X obj 205 665 throw~ \$0-PLATEREVERB-R;
#X obj 85 262 r \$0-detected-hit-note;
#X obj 664 438 r \$0-detected-hit-note;
#X obj 445 286 r \$0-detected-hit-note;
#X obj 1043 217 r \$0-detected-hit-note;
#X obj 525 658 throw~ \$0-LEFT;
#X obj 545 678 throw~ \$0-RIGHT;
#X obj 618 658 throw~ \$0-PLATEREVERB-L;
#X obj 644 678 throw~ \$0-PLATEREVERB-R;
#X obj 116 438 catch~ \$0-drone-comp-sc;
#X obj 542 632 throw~ \$0-drone-comp-sc;
#X obj 117 395 catch~ \$0-drone-comp;
#X obj 1043 684 throw~ \$0-drone-comp;
#X obj 1093 641 throw~ \$0-LEFT;
#X obj 1112 662 throw~ \$0-RIGHT;
#X msg 490 338 distortion-amt 2.5 \, distortion-wet 0.5;
#X msg 130 349 distortion-amt 2.5 \, distortion-wet 0.5;
#X obj 112 30 bng 15 250 50 0 empty empty empty 17 7 0 10 -262144 -1
-1;
#X obj 105 9 yank-out \$0-1 10;
#X obj 104 190 hh_donger \$0;
#X obj 195 64 r \$0-1-section;
#X obj 195 86 sel 0 1 2 3 4 5 6 7;
#X obj 208 138 f;
#X msg 385 115 4;
#X msg 355 115 6;
#X msg 325 115 8;
#X msg 295 115 12;
#X msg 268 115 16;
#X msg 238 115 24;
#X msg 208 115 32;
#X msg 288 164 repeat-hits-speed \$1;
#X msg 174 164 repeat-hits-on \$1;
#X obj 174 143 != 0;
#X obj 592 271 r \$0-4-angle1;
#X obj 702 295 r \$0-4-rotations;
#X msg 1043 261 bass-note \$1;
#X msg 1074 380 arp-delay-time 200 \, arp-notes 0 4 7 11;
#X obj 1074 357 loadbang;
#X msg 1274 332 arp-range \$1;
#X obj 1274 287 r \$0-3-rotations;
#X obj 1274 309 m_scale 0 70 5 22;
#X obj 1386 287 r \$0-3-dir;
#X msg 1386 309 arp-direction \$1;
#X obj 1068 287 r \$0-3-section;
#X msg 1068 329 arp-on \$1;
#X obj 1068 308 != 0;
#X obj 1499 287 r \$0-3-angle1;
#X obj 1499 309 m_scale 3 15 0 0.98;
#X obj 1043 412 hh_arp \$0;
#X obj 1162 287 r \$0-3-rotations;
#X obj 1162 308 m_scale 10 20 0 1;
#X msg 1162 329 arp-vol \$1;
#X msg 1499 331 arp-delay-fb \$1;
#N canvas 0 22 592 276 tremolo 0;
#X obj 63 172 e_tremolo2;
#X obj 120 148 t a;
#X msg 120 124 depth 0;
#X obj 120 101 loadbang;
#X obj 191 42 r \$0-5-rotations;
#X obj 191 86 min 1;
#X obj 191 64 / 35;
#X msg 191 108 depth \$1;
#X obj 358 105 min 1;
#X obj 358 61 r \$0-5-angle1;
#X msg 358 127 shape \$1;
#X obj 358 83 m_scale 3 15 1 0.1;
#X obj 261 63 + 15;
#X obj 261 106 max 0;
#X msg 261 128 freq \$1;
#X obj 261 84 / 10;
#X obj 63 194 outlet~;
#X obj 63 149 inlet~;
#X connect 0 0 16 0;
#X connect 1 0 0 1;
#X connect 2 0 1 0;
#X connect 3 0 2 0;
#X connect 4 0 6 0;
#X connect 4 0 12 0;
#X connect 5 0 7 0;
#X connect 6 0 5 0;
#X connect 7 0 1 0;
#X connect 8 0 10 0;
#X connect 9 0 11 0;
#X connect 10 0 1 0;
#X connect 11 0 8 0;
#X connect 12 0 15 0;
#X connect 13 0 14 0;
#X connect 14 0 1 0;
#X connect 15 0 13 0;
#X connect 17 0 0 0;
#X restore 85 552 pd tremolo;
#N canvas 0 22 592 276 tremolo 0;
#X obj 63 172 e_tremolo2;
#X obj 120 148 t a;
#X msg 120 124 depth 0;
#X obj 120 101 loadbang;
#X obj 191 42 r \$0-5-rotations;
#X obj 191 86 min 1;
#X obj 191 64 / 35;
#X msg 191 108 depth \$1;
#X obj 358 105 min 1;
#X obj 358 61 r \$0-5-angle1;
#X msg 358 127 shape \$1;
#X obj 358 83 m_scale 3 15 1 0.1;
#X obj 261 63 + 15;
#X obj 261 106 max 0;
#X msg 261 128 freq \$1;
#X obj 261 84 / 10;
#X obj 63 194 outlet~;
#X obj 63 149 inlet~;
#X connect 0 0 16 0;
#X connect 1 0 0 1;
#X connect 2 0 1 0;
#X connect 3 0 2 0;
#X connect 4 0 6 0;
#X connect 4 0 12 0;
#X connect 5 0 7 0;
#X connect 6 0 5 0;
#X connect 7 0 1 0;
#X connect 8 0 10 0;
#X connect 9 0 11 0;
#X connect 10 0 1 0;
#X connect 11 0 8 0;
#X connect 12 0 15 0;
#X connect 13 0 14 0;
#X connect 14 0 1 0;
#X connect 15 0 13 0;
#X connect 17 0 0 0;
#X restore 1043 475 pd tremolo;
#N canvas 0 22 592 276 tremolo 0;
#X obj 63 172 e_tremolo2;
#X obj 120 148 t a;
#X obj 120 101 loadbang;
#X obj 271 42 r \$0-5-rotations;
#X obj 271 86 min 1;
#X obj 271 64 / 35;
#X msg 271 108 depth \$1;
#X obj 438 105 min 1;
#X obj 438 61 r \$0-5-angle1;
#X msg 438 127 shape \$1;
#X obj 438 83 m_scale 3 15 1 0.1;
#X obj 341 63 + 15;
#X obj 341 106 max 0;
#X msg 341 128 freq \$1;
#X obj 341 84 / 10;
#X obj 63 194 outlet~;
#X obj 63 149 inlet~;
#X msg 120 124 depth 0 \, phase 0.5;
#X connect 0 0 15 0;
#X connect 1 0 0 1;
#X connect 2 0 17 0;
#X connect 3 0 5 0;
#X connect 3 0 11 0;
#X connect 4 0 6 0;
#X connect 5 0 4 0;
#X connect 6 0 1 0;
#X connect 7 0 9 0;
#X connect 8 0 10 0;
#X connect 9 0 1 0;
#X connect 10 0 7 0;
#X connect 11 0 14 0;
#X connect 12 0 13 0;
#X connect 13 0 1 0;
#X connect 14 0 12 0;
#X connect 16 0 0 0;
#X connect 17 0 1 0;
#X restore 525 553 pd tremolo;
#X connect 0 0 81 0;
#X connect 1 0 2 0;
#X connect 1 0 2 1;
#X connect 2 0 99 0;
#X connect 3 0 2 2;
#X connect 4 0 5 0;
#X connect 4 0 3 0;
#X connect 5 0 2 2;
#X connect 6 0 7 0;
#X connect 7 0 8 0;
#X connect 8 0 1 1;
#X connect 9 0 62 0;
#X connect 10 0 11 0;
#X connect 11 0 1 1;
#X connect 12 0 13 0;
#X connect 13 0 21 0;
#X connect 14 0 12 0;
#X connect 15 0 16 0;
#X connect 16 0 21 1;
#X connect 17 0 20 0;
#X connect 18 0 19 0;
#X connect 19 0 17 0;
#X connect 20 0 21 1;
#X connect 21 0 101 0;
#X connect 22 0 21 1;
#X connect 23 0 51 0;
#X connect 23 0 52 0;
#X connect 23 0 53 0;
#X connect 23 0 54 0;
#X connect 23 0 56 0;
#X connect 24 0 26 0;
#X connect 25 0 27 1;
#X connect 26 0 25 0;
#X connect 27 0 40 0;
#X connect 27 0 42 0;
#X connect 28 0 29 0;
#X connect 29 0 32 1;
#X connect 30 0 61 0;
#X connect 31 0 32 1;
#X connect 32 0 2 0;
#X connect 33 0 32 0;
#X connect 35 0 36 0;
#X connect 35 0 39 0;
#X connect 36 0 38 0;
#X connect 37 0 34 0;
#X connect 38 0 37 0;
#X connect 40 0 58 0;
#X connect 41 0 43 0;
#X connect 41 0 44 0;
#X connect 41 0 45 0;
#X connect 41 0 46 0;
#X connect 42 0 59 0;
#X connect 42 0 60 0;
#X connect 47 0 1 0;
#X connect 48 0 22 0;
#X connect 49 0 33 0;
#X connect 50 0 0 0;
#X connect 55 0 2 1;
#X connect 57 0 2 0;
#X connect 61 0 32 1;
#X connect 62 0 1 1;
#X connect 64 0 63 0;
#X connect 64 0 65 0;
#X connect 66 0 67 0;
#X connect 66 0 78 0;
#X connect 67 1 75 0;
#X connect 67 2 74 0;
#X connect 67 3 73 0;
#X connect 67 4 72 0;
#X connect 67 5 71 0;
#X connect 67 6 70 0;
#X connect 67 7 69 0;
#X connect 68 0 76 0;
#X connect 69 0 68 0;
#X connect 70 0 68 0;
#X connect 71 0 68 0;
#X connect 72 0 68 0;
#X connect 73 0 68 0;
#X connect 74 0 68 0;
#X connect 75 0 68 0;
#X connect 76 0 65 1;
#X connect 77 0 65 1;
#X connect 78 0 77 0;
#X connect 79 0 28 0;
#X connect 81 0 94 0;
#X connect 82 0 94 0;
#X connect 83 0 82 0;
#X connect 84 0 94 0;
#X connect 85 0 86 0;
#X connect 86 0 84 0;
#X connect 87 0 88 0;
#X connect 88 0 94 0;
#X connect 89 0 91 0;
#X connect 90 0 94 0;
#X connect 91 0 90 0;
#X connect 92 0 93 0;
#X connect 93 0 98 0;
#X connect 94 0 100 0;
#X connect 95 0 96 0;
#X connect 96 0 97 0;
#X connect 97 0 94 0;
#X connect 98 0 94 0;
#X connect 99 0 41 0;
#X connect 100 0 27 0;
#X connect 101 0 23 0;
#X restore 139 189 pd hit-play;
#X obj 18 207 vradio 15 1 0 8 empty empty empty 0 -8 0 10 -262144 -1
-1 0;
#X obj 75 294 s fake-players-on;
#X obj 75 273 tgl 15 0 empty empty empty 17 7 0 10 -262144 -1 -1 1
1;
#N canvas 146 330 450 300 global-effects 0;
#X obj 88 125 e_platereverb;
#X obj 88 75 catch~ \$0-PLATEREVERB-L;
#X obj 125 100 catch~ \$0-PLATEREVERB-R;
#X obj 88 156 throw~ \$0-LEFT;
#X obj 125 180 throw~ \$0-RIGHT;
#X connect 0 0 3 0;
#X connect 0 1 4 0;
#X connect 1 0 0 0;
#X connect 2 0 0 1;
#X restore 108 30 pd global-effects;
#N canvas 617 107 637 940 history 0;
#X obj 49 34 loadbang;
#X obj 49 56 tgl 15 0 empty empty empty 17 7 0 10 -262144 -1 -1 1 1
;
#X obj 63 371 catch~ \$0-history-l;
#X obj 94 391 catch~ \$0-history-r;
#X obj 63 887 dac~;
#X obj 49 78 metro 5000;
#X msg 309 75 5000;
#X obj 309 99 s \$0-history-interval;
#X obj 336 145 s \$0-history-overlap;
#X obj 106 56 r \$0-history-interval;
#X obj 49 144 sel 0 1 2 3 4 5;
#X obj 309 28 loadbang;
#X obj 309 50 t b b;
#X floatatom 59 122 5 0 0 0 - - -, f 5;
#X msg 336 122 4000;
#X obj 92 267 history-voice \$0 0.021 0.014 woodkid 240;
#X obj 49 100 c_urn 6;
#X msg 100 100 clear \, bang;
#X obj 109 440 abs;
#X obj 94 857 *~;
#X obj 63 857 *~;
#X obj 179 831 lop~ 10;
#X obj 187 753 vsl 15 40 0 1 0 0 empty empty empty 0 -9 0 10 -262144
-1 -1 1849 1;
#X obj 179 556 -;
#X obj 179 678 pack f f;
#X obj 179 700 line;
#X obj 109 417 r \$0-4-velocity-in;
#X obj 179 623 change;
#X obj 206 534 pipe 5;
#X obj 179 806 * 5;
#X obj 49 177 history-voice \$0 0.02 0.01 bonobo 240;
#X obj 63 206 history-voice \$0 0.03 0.007 portico-quartet 480;
#X obj 78 237 history-voice \$0 0.022 0.013 the-doors 720;
#X obj 107 297 history-voice \$0 0.027 0.01 shpongle 420;
#X obj 121 327 history-voice \$0 0.024 0.043 jessie-j 720;
#X obj 109 464 m_scale 0 15 0 1 1;
#X obj 109 586 min 1;
#X obj 179 578 > 0;
#X obj 179 510 t f f;
#X obj 109 486 t f f;
#X obj 109 648 spigot;
#X obj 179 601 t f f f;
#X obj 179 722 pow 1;
#X obj 224 623 sel 0;
#X msg 224 647 10000;
#X connect 0 0 1 0;
#X connect 1 0 5 0;
#X connect 2 0 20 0;
#X connect 3 0 19 0;
#X connect 5 0 16 0;
#X connect 6 0 7 0;
#X connect 9 0 5 1;
#X connect 10 0 30 0;
#X connect 10 1 31 0;
#X connect 10 2 32 0;
#X connect 10 3 15 0;
#X connect 10 4 33 0;
#X connect 10 5 34 0;
#X connect 11 0 12 0;
#X connect 12 0 6 0;
#X connect 12 1 14 0;
#X connect 14 0 8 0;
#X connect 16 0 10 0;
#X connect 16 0 13 0;
#X connect 16 1 17 0;
#X connect 17 0 16 0;
#X connect 18 0 35 0;
#X connect 19 0 4 1;
#X connect 20 0 4 0;
#X connect 21 0 19 1;
#X connect 21 0 20 1;
#X connect 23 0 37 0;
#X connect 24 0 25 0;
#X connect 25 0 42 0;
#X connect 26 0 18 0;
#X connect 27 0 24 0;
#X connect 28 0 23 1;
#X connect 29 0 21 0;
#X connect 35 0 39 0;
#X connect 36 0 40 0;
#X connect 37 0 41 0;
#X connect 38 0 23 0;
#X connect 38 1 28 0;
#X connect 39 0 36 0;
#X connect 39 1 38 0;
#X connect 40 0 25 0;
#X connect 41 0 27 0;
#X connect 41 1 43 0;
#X connect 41 2 40 1;
#X connect 42 0 22 0;
#X connect 42 0 29 0;
#X connect 43 0 44 0;
#X connect 44 0 24 1;
#X restore 138 217 pd history;
#X connect 30 0 28 0;
#X connect 32 0 31 0;
