#N canvas 257 111 292 584 10;
#X declare -path abs;
#X declare -path audio;
#X declare -path libs/oscx;
#X declare -path rj;
#X declare -path abs/4T-Granulator;
#N canvas 0 22 297 242 io 0;
#X obj 58 191 dac~;
#X obj 58 146 *~;
#X obj 158 146 *~;
#X obj 173 122 lop~ 10;
#X obj 173 102 tgl 15 0 empty empty empty 17 7 0 10 -262144 -1 -1 1
1;
#X obj 173 79 loadbang;
#X obj 58 36 catch~ \$0-LEFT;
#X obj 158 36 catch~ \$0-RIGHT;
#X connect 1 0 0 0;
#X connect 2 0 0 1;
#X connect 3 0 2 1;
#X connect 3 0 1 1;
#X connect 4 0 3 0;
#X connect 5 0 4 0;
#X connect 6 0 1 0;
#X connect 7 0 2 0;
#X restore 18 49 pd io;
#N canvas 0 22 450 300 timebase 0;
#X obj 106 52 loadbang;
#X obj 106 75 tgl 15 0 empty empty empty 17 7 0 10 -262144 -1 -1 1
1;
#X obj 106 119 f;
#X obj 136 119 + 1;
#X obj 106 141 s \$0-tick;
#X obj 106 97 metro 50;
#X connect 0 0 1 0;
#X connect 1 0 5 0;
#X connect 2 0 3 0;
#X connect 2 0 4 0;
#X connect 3 0 2 1;
#X connect 5 0 2 0;
#X restore 18 69 pd timebase;
#N canvas 0 22 454 172 init 0;
#X obj 62 56 declare -path abs;
#X obj 62 96 declare -path audio;
#X obj 62 36 declare -path libs/oscx;
#X obj 62 116 declare -path rj;
#X obj 62 76 declare -path abs/4T-Granulator;
#X obj 317 53 loadbang;
#X msg 317 75 \; pd dsp 1 \;;
#X connect 5 0 6 0;
#X restore 18 29 pd init;
#N canvas 40 223 1029 606 presets 0;
#X obj 423 58 r RJ_SCENE;
#X obj 423 125 u_cocollect;
#X obj 423 147 list prepend;
#X obj 423 169 list trim;
#X msg 443 233;
#X msg 463 253;
#X msg 483 273;
#X msg 503 293;
#X msg 523 313;
#X msg 543 333;
#X msg 563 353;
#X msg 583 373;
#X msg 603 393;
#X obj 664 190 s RJ_SCENE_LOAD;
#X obj 500 124 r \$0-preset-index;
#X msg 486 103 clear;
#X obj 423 191 route 0 1 2 3 4 5 6 7 8 9;
#X obj 503 171 sel 0 1 2 3 4 5 6 7 8 9;
#X obj 58 280 s RJ_SCENE_SAVE;
#X msg 58 254 save;
#X obj 65 217 bng 32 250 50 0 empty empty empty 17 7 0 10 -4034 -1
-1;
#X obj 77 192 s \$0-preset-index;
#X obj 58 137 t b f f;
#X obj 97 167 s \$0-preset-saved;
#N canvas 0 22 450 278 (subpatch) 0;
#X array \$0-presets 9 float 3;
#A 0 1 0 0 0 0 0 0 0 0;
#X coords 0 1 9 0 100 70 1 0 0;
#X restore 59 331 graph;
#X obj 237 319 s \$0-preset-index;
#X obj 218 274 t b f f;
#X obj 257 297 s \$0-preset-cleared;
#X obj 503 149 r \$0-load-preset;
#X obj 58 114 r \$0-save-preset;
#X obj 218 251 r \$0-clear-preset;
#X floatatom 552 107 5 0 0 0 - - -, f 5;
#X obj 218 340 s \$0-clear;
#X obj 486 81 r \$0-clear;
#X obj 59 415 r \$0-preset-saved;
#X obj 109 435 r \$0-preset-cleared;
#X obj 59 511 tabwrite \$0-presets;
#X obj 59 467 t b f;
#X msg 59 489 1;
#X obj 109 467 t b f;
#X msg 109 489 0;
#X msg 423 220 e_reslop-drum-lop q 2 \, e_reslop-drum-lop freq 1800
\, notes-8 note-count 8 \, notes-8 intervals 1 4 6 7 8 8 11 11 \, 4T-poke-0
note-count 8 \, 4T-poke-0 intervals 0 2 3 6 8 9 11 12 \, 4T-poke-0
mono 1 \, 4T-poke-0 gain 0.57 \, 4T-poke-0 octave -4 \, 4T-poke-0 release
1500 \, 4T-poke-0 hold 50 \, 4T-poke-0 attack 700 \, notes-8 note-count
8 \, notes-8 intervals 1 4 6 7 8 8 11 11 \, 4T-poke-1 note-count 8
\, 4T-poke-1 intervals 1 4 6 7 8 8 11 11 \, 4T-poke-1 gain 0.5 \, 4T-poke-1
octave 2 \, 4T-poke-1 release 1000 \, 4T-poke-1 hold 0 \, 4T-poke-1
attack 100 \, notes-8 note-count 8 \, notes-8 intervals 1 4 6 7 8 8
11 11 \, 4T-poke-2 note-count 8 \, 4T-poke-2 intervals 1 4 6 7 8 8
11 11 \, 4T-poke-2 mono 1 \, 4T-poke-2 gain 0.64 \, 4T-poke-2 octave
-2 \, 4T-poke-2 release 500 \, 4T-poke-2 hold 100 \, 4T-poke-2 attack
250 \, notes-8 note-count 8 \, notes-8 intervals 1 4 6 7 8 8 11 11
\, 4T-Granulator poke-3-interval 0 \, 4T-Granulator poke-2-interval
0 \, 4T-Granulator poke-1-interval 4 \, 4T-Granulator gain 0.4 \, 4T-Granulator
sound-bed-interval 0 \, 4T-Granulator intervals 1 4 6 7 8 8 11 11 \,
e_tremolo-trem-right phase 0 \, e_tremolo-trem-right shape 0.5 \, e_tremolo-trem-right
depth 0 \, e_tremolo-trem-right freq 1.25 \, e_tremolo-trem-left phase
0 \, e_tremolo-trem-left shape 0.5 \, e_tremolo-trem-left depth 0 \,
e_tremolo-trem-left freq 1.25 \, e_platereverb-soundscape-reverb dry
0 \, e_platereverb-soundscape-reverb decay_diffusion2 0.84 \, e_platereverb-soundscape-reverb
decay_diffusion1 0.889 \, e_platereverb-soundscape-reverb input_diffusion2
0.779 \, e_platereverb-soundscape-reverb excursion 0.53761 \, e_platereverb-soundscape-reverb
input_diffusion1 0.685 \, e_platereverb-soundscape-reverb decay 0.99
\, e_platereverb-soundscape-reverb damping 4637 \, e_platereverb-soundscape-reverb
bandwidth 10000 \, e_platereverb-soundscape-reverb predelay 10 \,;
#X obj 665 54 loadbang;
#X obj 665 76 del 100;
#X connect 0 0 1 0;
#X connect 1 0 2 0;
#X connect 2 0 3 0;
#X connect 3 0 16 0;
#X connect 4 0 13 0;
#X connect 5 0 13 0;
#X connect 6 0 13 0;
#X connect 7 0 13 0;
#X connect 8 0 13 0;
#X connect 9 0 13 0;
#X connect 10 0 13 0;
#X connect 11 0 13 0;
#X connect 12 0 13 0;
#X connect 14 0 2 1;
#X connect 14 0 31 0;
#X connect 15 0 1 1;
#X connect 16 0 41 0;
#X connect 16 1 4 0;
#X connect 16 2 5 0;
#X connect 16 3 6 0;
#X connect 16 4 7 0;
#X connect 16 5 8 0;
#X connect 16 6 9 0;
#X connect 16 7 10 0;
#X connect 16 8 11 0;
#X connect 16 9 12 0;
#X connect 17 0 41 0;
#X connect 17 1 4 0;
#X connect 17 2 5 0;
#X connect 17 3 6 0;
#X connect 17 4 7 0;
#X connect 17 5 8 0;
#X connect 17 6 9 0;
#X connect 17 7 10 0;
#X connect 17 8 11 0;
#X connect 17 9 12 0;
#X connect 19 0 18 0;
#X connect 20 0 19 0;
#X connect 22 0 19 0;
#X connect 22 1 21 0;
#X connect 22 2 23 0;
#X connect 26 0 32 0;
#X connect 26 1 25 0;
#X connect 26 2 27 0;
#X connect 28 0 17 0;
#X connect 29 0 22 0;
#X connect 30 0 26 0;
#X connect 33 0 15 0;
#X connect 34 0 37 0;
#X connect 35 0 39 0;
#X connect 37 0 38 0;
#X connect 37 1 36 1;
#X connect 38 0 36 0;
#X connect 39 0 40 0;
#X connect 39 1 36 1;
#X connect 40 0 36 0;
#X connect 41 0 13 0;
#X connect 42 0 43 0;
#X connect 43 0 41 0;
#X restore 17 529 pd presets;
#X obj 17 472 preset-toggle \$0 0;
#X obj 62 472 preset-toggle \$0 3;
#X obj 32 472 preset-toggle \$0 1;
#X obj 47 472 preset-toggle \$0 2;
#X obj 77 472 preset-toggle \$0 4;
#X obj 92 472 preset-toggle \$0 5;
#X obj 107 472 preset-toggle \$0 6;
#X obj 122 472 preset-toggle \$0 7;
#X obj 137 472 preset-toggle \$0 8;
#X obj 152 472 preset-toggle \$0 9;
#X text 174 470 Save;
#X text 174 495 Recall;
#X text 174 511 Clear;
#N canvas 638 145 751 598 Players 1;
#X floatatom 278 546 5 0 0 0 - - -, f 5;
#X obj 278 565 s rotations-multiplier;
#X text 607 15 Player parameters;
#X text 606 45 -rotations (0 - ~70);
#X text 607 65 -angle1 (3 - 15);
#X text 607 85 -angle2 (3 - 15);
#X text 607 105 -velocity-out (0 - 30);
#X text 607 125 -velocity-in (0 - -30);
#X text 607 145 -section (0 - 7);
#X text 607 165 -boundary (bang);
#X text 607 185 -dir (-1 \, 0 \, 1);
#X text 607 205 -hall1 (bang);
#X text 607 225 -hall2 (bang);
#X obj 309 14 player-input \$0 4;
#X obj 16 145 player-input \$0 1;
#X obj 310 145 player-input \$0 5;
#X obj 311 278 player-input \$0 6;
#X obj 16 14 player-input \$0 0;
#X obj 16 278 player-input \$0 2;
#X obj 16 411 player-input \$0 3;
#X obj 311 411 player-input \$0 7;
#X connect 0 0 1 0;
#X restore 18 354 pd Players;
#N canvas 83 26 410 664 Fake-Players 0;
#X obj 92 546 r fakeHarpSend;
#X obj 99 566 loadbang;
#X obj 99 588 del 1000;
#X text 184 547 From FakePlayers sub-patch;
#X obj 92 632 sendOSC 9002;
#X msg 99 609 connect 127.0.0.1 9002;
#X obj 22 18 fakePlayer 0 \$0;
#X obj 202 18 fakePlayer 4 \$0;
#X obj 22 149 fakePlayer 1 \$0;
#X obj 22 281 fakePlayer 2 \$0;
#X obj 23 415 fakePlayer 3 \$0;
#X obj 203 415 fakePlayer 7 \$0;
#X obj 202 281 fakePlayer 6 \$0;
#X obj 202 149 fakePlayer 5 \$0;
#X connect 0 0 4 0;
#X connect 1 0 2 0;
#X connect 2 0 5 0;
#X connect 5 0 4 0;
#X restore 18 404 pd Fake-Players;
#N canvas 98 101 230 261 pitch-detect 0;
#X obj 41 128 + 0.499;
#X obj 41 149 int;
#X obj 41 90 line;
#X floatatom 41 111 5 0 0 0 - - -, f 5;
#X obj 41 69 pack 0 20;
#X obj 41 48 fiddle~ 2048 1 20 3;
#X obj 41 170 change;
#X floatatom 41 192 5 0 0 0 - - -, f 5;
#X connect 0 0 1 0;
#X connect 1 0 6 0;
#X connect 2 0 3 0;
#X connect 3 0 0 0;
#X connect 4 0 2 0;
#X connect 5 0 4 0;
#X connect 6 0 7 0;
#X restore 18 119 pd pitch-detect;
#X obj 18 140 overview;
#X text 87 355 Processing Player data;
#X text 115 404 For debug;
#X text 17 8 ADMIN;
#X text 17 99 TOOLS;
#X text 62 334 Receive Player data;
#X text 17 452 PRESET SAVING (experimental);
#X text 75 140 rjlib;
#N canvas 251 286 503 355 osc 0;
#X obj 43 219 s \$0-player-osc;
#X obj 43 24 dumpOSC 5000;
#X obj 43 46 OSCroute /1;
#X obj 43 68 s \$0-touchOSC;
#X obj 130 153 inlet;
#X msg 130 175 /\$1;
#X text 125 24 From TouchOSC iPad interface;
#X text 125 106 From debug_xosc Processing sketch;
#X obj 43 197 list prepend /0;
#X obj 52 129 dumpOSC 9002;
#X text 135 126 From FakePlayers sub-patch Processing sketch;
#X obj 205 222 s \$0-0-section;
#X msg 234 200 10;
#X obj 235 242 s \$0-0-rotations;
#X obj 205 176 sel 1;
#X msg 205 200 6;
#X obj 43 105 dumpOSC 9001;
#X obj 154 61 print;
#X connect 1 0 2 0;
#X connect 2 0 3 0;
#X connect 4 0 5 0;
#X connect 4 0 14 0;
#X connect 5 0 8 1;
#X connect 8 0 0 0;
#X connect 9 0 0 0;
#X connect 12 0 13 0;
#X connect 14 0 15 0;
#X connect 14 0 12 0;
#X connect 15 0 11 0;
#X connect 16 0 8 0;
#X restore 18 333 pd osc;
#N canvas 128 47 1436 856 hit-play 0;
#X obj 100 403 + 0.499;
#X obj 100 424 int;
#X obj 100 365 line;
#X floatatom 100 386 5 0 0 0 - - -, f 5;
#X obj 100 344 pack 0 20;
#X obj 100 323 fiddle~ 2048 1 20 3;
#X obj 28 283 s_playtable;
#X msg 426 367 clear \, start \, normalize;
#X obj 426 273 *~ 1;
#X obj 433 348 bng 15 250 50 0 empty empty empty 17 7 0 10 -262144
-1 -1;
#X obj 302 237 *~ 1;
#X obj 303 214 s_playtable2;
#X floatatom 309 173 5 0 0 0 - - -, f 5;
#X obj 168 274 dac~;
#X obj 303 152 / 100;
#X obj 28 305 dac~;
#X floatatom 70 483 5 0 0 0 - - -, f 5;
#X obj 172 538 sig~;
#X obj 172 582 *~ 0.1;
#X obj 172 515 mtof;
#X obj 377 344 t b b;
#X obj 343 366 del 500;
#X obj 172 604 *~;
#X obj 225 581 vline~;
#X obj 100 469 moses 70;
#X obj 100 446 f;
#X obj 303 108 random 10;
#X obj 303 130 + 95;
#X obj 372 538 sig~;
#X obj 372 560 osc~;
#X obj 372 582 *~ 0.1;
#X obj 372 515 mtof;
#X obj 372 604 *~;
#X obj 425 581 vline~;
#X obj 145 491 t b f f;
#X obj 372 492 - 12;
#X obj 582 538 sig~;
#X obj 582 560 osc~;
#X obj 582 582 *~ 0.1;
#X obj 582 515 mtof;
#X obj 582 604 *~;
#X obj 635 581 vline~;
#X obj 772 538 sig~;
#X obj 772 560 osc~;
#X obj 772 582 *~ 0.1;
#X obj 772 515 mtof;
#X obj 772 604 *~;
#X obj 825 581 vline~;
#X obj 772 492 - 36;
#X obj 582 657 *~ 1;
#X obj 582 791 dac~;
#X obj 627 759 e_platereverb;
#X obj 303 44 key;
#X floatatom 303 66 5 0 0 0 - - -, f 5;
#X obj 303 85 sel 167;
#X obj 972 578 sig~;
#X obj 972 600 osc~;
#X obj 972 622 *~ 0.1;
#X obj 972 512 mtof;
#X obj 972 644 *~;
#X obj 1025 621 vline~;
#X floatatom 649 659 5 0 0 0 - - -, f 5;
#X obj 582 684 clip~ -1 1;
#X obj 582 729 e_scompress;
#X floatatom 720 681 5 0 0 0 - - -, f 5;
#X floatatom 772 679 5 0 0 0 - - -, f 5;
#X obj 426 317 debounce 5000;
#X obj 972 491 - 9;
#X obj 362 81 bng 15 250 50 0 empty empty empty 17 7 0 10 -262144 -1
-1;
#X msg 667 706 threshold 25;
#X obj 831 668 loadbang;
#X obj 598 255 r \$0-0-rotations;
#X obj 598 292 / 35;
#X obj 598 314 - 1;
#X obj 598 336 abs;
#X obj 598 358 swap 1;
#X obj 598 380 -;
#X floatatom 598 402 5 0 0 0 - - -, f 5;
#X obj 996 289 / 35;
#X obj 996 333 min 1;
#X floatatom 1036 272 5 0 0 0 - - -, f 5;
#X obj 996 355 max 0;
#X floatatom 996 377 5 0 0 0 - - -, f 5;
#X obj 882 309 / 35;
#X obj 882 353 min 1;
#X floatatom 922 292 5 0 0 0 - - -, f 5;
#X obj 882 375 max 0;
#X floatatom 882 397 5 0 0 0 - - -, f 5;
#X obj 663 307 / 35;
#X obj 663 351 min 1;
#X floatatom 703 290 5 0 0 0 - - -, f 5;
#X obj 663 373 max 0;
#X floatatom 663 395 5 0 0 0 - - -, f 5;
#X obj 739 302 / 35;
#X obj 739 346 min 1;
#X floatatom 779 285 5 0 0 0 - - -, f 5;
#X obj 739 368 max 0;
#X floatatom 739 390 5 0 0 0 - - -, f 5;
#X obj 739 324 - 0.3;
#X obj 663 329 - 0.2;
#X obj 882 331 - 0.4;
#X obj 996 311 - 0.5;
#X obj 1061 362 r \$0-0-angle1;
#X obj 1061 406 int;
#X obj 972 469 f;
#X obj 972 534 pack f 500;
#X obj 972 556 line;
#X obj 1061 428 t b f;
#X floatatom 1101 417 5 0 0 0 - - -, f 5;
#X floatatom 1073 318 5 0 0 0 - - -, f 5;
#X obj 1061 384 m_scale 3 15 13 8;
#X obj 59 55 r \$0-1-section;
#X obj 28 165 r \$0-tick;
#X obj 28 239 sel 0;
#X obj 59 77 sel 0 1 2 3 4 5 6 7;
#X obj 72 129 f;
#X obj 362 60 yank-out \$0-1 10;
#X obj 673 730 smad;
#X floatatom 1138 666 5 0 0 0 - - -, f 5;
#X floatatom 1209 667 5 0 0 0 - - -, f 5;
#X obj 28 217 mod 32;
#X obj 172 560 s_osc hit-drone tri;
#X obj 347 653 r \$0-1-rotations;
#X obj 347 675 / 17.5;
#X obj 347 697 swap 4;
#X obj 347 719 -;
#X floatatom 510 727 5 0 0 0 - - -, f 5;
#N canvas 753 150 722 558 velocity 0;
#X obj 271 141 abs;
#X obj 271 185 lop~ 10;
#X obj 271 162 m_scale 0 15 0 1 1;
#X obj 271 117 r \$0-2-velocity-in;
#X obj 42 283 sig~;
#X obj 42 217 mtof;
#X obj 42 349 *~;
#X obj 42 166 - 9;
#X obj 82 90 int;
#X obj 42 144 f;
#X obj 42 239 pack f 500;
#X obj 42 261 line;
#X obj 82 112 t b f;
#X obj 82 46 r \$0-2-angle1;
#X obj 42 101 inlet;
#X obj 42 305 s_osc hit-drone2 tri;
#X obj 42 382 e_platereverb;
#X obj 42 481 dac~;
#X msg 284 330 dry 0.33 \, decay_diffusion2 0.84 \, decay_diffusion1
0.889 \, input_diffusion2 0.779 \, excursion 0.53761 \, input_diffusion1
0.685 \, decay 0.99 \, damping 4637 \, bandwidth 10000 \, predelay
10 \,;
#X obj 42 327 *~ 0.5;
#X obj 91 413 outlet~;
#X obj 189 440 crystallizer;
#X obj 194 412 *~ 0.3;
#X obj 284 308 loadbang;
#X obj 182 283 sig~;
#X obj 182 217 mtof;
#X obj 182 239 pack f 500;
#X obj 182 261 line;
#X obj 182 327 *~ 0.4;
#X obj 182 305 phasor~;
#X floatatom 156 107 5 0 0 0 - - -, f 5;
#X floatatom 157 90 5 0 0 0 - - -, f 5;
#X obj 82 68 m_scale 3 15 1 -4;
#X obj 182 165 + 12;
#X obj 42 188 +;
#X obj 182 187 +;
#X obj 491 105 yank-in \$0-2 20;
#X obj 422 174 noise~;
#X obj 422 218 *~;
#X msg 495 166 1 100 \, 0 100 100;
#X obj 495 188 vline~;
#X obj 422 196 lop~ 2000;
#X obj 510 133 bng 15 250 50 0 empty empty empty 17 7 0 10 -262144
-1 -1;
#X obj 422 240 *~ 0.4;
#X connect 0 0 2 0;
#X connect 1 0 6 1;
#X connect 2 0 1 0;
#X connect 3 0 0 0;
#X connect 4 0 15 0;
#X connect 5 0 10 0;
#X connect 6 0 16 0;
#X connect 6 0 22 0;
#X connect 7 0 33 0;
#X connect 7 0 34 0;
#X connect 8 0 12 0;
#X connect 8 0 30 0;
#X connect 9 0 7 0;
#X connect 10 0 11 0;
#X connect 11 0 4 0;
#X connect 12 0 9 0;
#X connect 12 1 7 1;
#X connect 13 0 32 0;
#X connect 14 0 9 0;
#X connect 15 0 19 0;
#X connect 16 0 17 0;
#X connect 16 0 20 0;
#X connect 16 1 17 1;
#X connect 16 1 20 0;
#X connect 18 0 16 2;
#X connect 19 0 6 0;
#X connect 21 0 17 0;
#X connect 21 1 17 1;
#X connect 22 0 21 0;
#X connect 23 0 18 0;
#X connect 24 0 29 0;
#X connect 25 0 26 0;
#X connect 26 0 27 0;
#X connect 27 0 24 0;
#X connect 28 0 19 0;
#X connect 29 0 28 0;
#X connect 32 0 8 0;
#X connect 32 0 31 0;
#X connect 33 0 35 0;
#X connect 34 0 5 0;
#X connect 35 0 25 0;
#X connect 36 0 39 0;
#X connect 36 0 42 0;
#X connect 37 0 41 0;
#X connect 38 0 43 0;
#X connect 39 0 40 0;
#X connect 40 0 38 1;
#X connect 41 0 38 0;
#X connect 43 0 6 0;
#X restore 1019 676 pd velocity;
#X obj 1019 698 *~ 2;
#X obj 1121 621 loadbang;
#X msg 146 425 80;
#X msg 1193 690 wet \$1;
#X msg 1122 689 amount \$1;
#X obj 582 492 - 17;
#X msg 732 763 dry \$1;
#X floatatom 727 739 5 0 0 0 - - -, f 5;
#X msg 763 703 ratio 4;
#X obj 426 295 a_onset 128 10;
#X obj 527 260 bng 15 250 50 0 empty empty empty 17 7 0 10 -262144
-1 -1;
#X msg 1121 643 2.52;
#X msg 1162 640 0.7;
#X msg 249 106 4;
#X msg 219 106 6;
#X msg 189 106 8;
#X msg 159 106 12;
#X msg 132 106 16;
#X msg 102 106 24;
#X msg 72 106 32;
#X obj 37 132 != 0;
#X obj 28 187 spigot;
#N canvas 671 98 949 824 hit-arp 0;
#X obj 207 511 s_playtable2;
#X obj 91 172 r \$0-tick;
#X obj 91 224 mod 32;
#X obj 100 139 != 0;
#X obj 91 194 spigot;
#X obj 122 62 r \$0-3-section;
#X obj 267 457 pow 2;
#X obj 294 434 / 12;
#X msg 267 434 2;
#X obj 267 412 t b f;
#X obj 214 777 dac~;
#X floatatom 267 310 5 0 0 0 - - -, f 5;
#X obj 385 484 sig~;
#X obj 385 461 mtof;
#X obj 385 550 *~;
#X obj 438 527 vline~;
#X obj 385 506 s_osc hit-drone tri;
#X obj 430 435 t f b;
#X obj 430 413 + 62;
#X obj 430 390 + 4;
#X obj 267 285 notes-old 4 0 0 4 7 10;
#X floatatom 122 84 5 0 0 0 - - -, f 5;
#X floatatom 91 246 5 0 0 0 - - -, f 5;
#X obj 267 172 int;
#X obj 267 194 change;
#X obj 267 216 rm_euclid 8 0 32;
#X obj 267 238 f;
#X obj 293 238 + 1;
#X msg 393 176 number \$1;
#X obj 367 142 t f f;
#X obj 267 150 / 2;
#X floatatom 370 107 5 0 0 0 - - -, f 5;
#X obj 267 369 - 24;
#X obj 267 338 + 1;
#X obj 319 312 inlet;
#X obj 577 646 *~ 1;
#X obj 577 624 *~ 0.6;
#X obj 660 337 vsl 15 128 0 0.98 0 0 empty empty empty 0 -9 0 10 -262144
-1 -1 12700 1;
#X obj 676 337 vsl 15 128 0 1000 0 0 empty empty empty 0 -9 0 10 -262144
-1 -1 2540 1;
#X floatatom 682 477 5 0 0 0 - - -, f 5;
#X obj 655 564 delwrite~ hit-rhythm4 1000;
#X obj 655 586 e_noclickdel hit-rhythm4;
#X obj 529 116 r \$0-3-angle1;
#X obj 529 138 m_scale 3 15 0 0.98;
#X floatatom 320 338 5 0 0 0 - - -, f 5;
#X msg 453 472 1 100 \, 0 200 100;
#X obj 337 57 r \$0-3-rotations;
#X obj 337 79 m_scale 0 70 5 22;
#X obj 208 693 hip~ 50;
#X obj 208 715 hip~ 50;
#X obj 267 260 moses 20;
#X msg 329 252 0;
#X obj 311 721 r play-hit;
#X obj 311 765 vline~;
#X obj 206 739 *~;
#X obj 256 591 vline~;
#X obj 207 615 *~;
#X msg 297 520 bang;
#X obj 267 544 f 10;
#X msg 256 569 0 2 \, 1 10 \$1;
#X obj 385 528 *~ 0.1;
#X obj 207 642 *~ 2;
#X msg 207 487 rh-hit-3 4 \$1;
#X msg 311 743 0.4 4 \, 1 3000 40;
#X connect 0 0 56 0;
#X connect 0 1 56 0;
#X connect 1 0 4 0;
#X connect 2 0 22 0;
#X connect 2 0 30 0;
#X connect 3 0 4 1;
#X connect 4 0 2 0;
#X connect 5 0 3 0;
#X connect 5 0 21 0;
#X connect 6 0 62 0;
#X connect 7 0 6 1;
#X connect 8 0 6 0;
#X connect 9 0 8 0;
#X connect 9 1 7 0;
#X connect 11 0 33 0;
#X connect 12 0 16 0;
#X connect 13 0 12 0;
#X connect 14 0 61 0;
#X connect 15 0 14 1;
#X connect 16 0 60 0;
#X connect 17 0 13 0;
#X connect 17 1 45 0;
#X connect 18 0 17 0;
#X connect 19 0 18 0;
#X connect 20 0 11 0;
#X connect 23 0 24 0;
#X connect 24 0 25 0;
#X connect 25 0 26 0;
#X connect 26 0 27 0;
#X connect 26 0 50 0;
#X connect 27 0 26 1;
#X connect 28 0 25 1;
#X connect 29 0 50 1;
#X connect 29 1 28 0;
#X connect 30 0 23 0;
#X connect 31 0 29 0;
#X connect 32 0 9 0;
#X connect 32 0 19 0;
#X connect 33 0 32 0;
#X connect 34 0 33 1;
#X connect 35 0 40 0;
#X connect 35 0 48 0;
#X connect 36 0 35 0;
#X connect 37 0 36 1;
#X connect 38 0 39 0;
#X connect 38 0 41 0;
#X connect 41 0 36 0;
#X connect 42 0 43 0;
#X connect 43 0 37 0;
#X connect 44 0 33 1;
#X connect 45 0 15 0;
#X connect 46 0 47 0;
#X connect 47 0 31 0;
#X connect 48 0 49 0;
#X connect 49 0 54 0;
#X connect 50 0 20 0;
#X connect 50 1 51 0;
#X connect 51 0 26 1;
#X connect 52 0 63 0;
#X connect 53 0 54 1;
#X connect 54 0 10 0;
#X connect 54 0 10 1;
#X connect 55 0 56 1;
#X connect 56 0 61 0;
#X connect 57 0 58 0;
#X connect 58 0 59 0;
#X connect 59 0 55 0;
#X connect 60 0 14 0;
#X connect 61 0 40 0;
#X connect 61 0 48 0;
#X connect 62 0 0 0;
#X connect 62 0 57 0;
#X connect 63 0 53 0;
#X restore 593 48 pd hit-arp;
#X obj 494 166 unused;
#X obj 559 20 - 78;
#X msg 303 190 rh-hit-3 4 \$1;
#X obj 303 391 u_record rh-hit-4 500;
#X msg 28 261 rh-hit-4;
#X obj 204 246 e_platereverb;
#N canvas 0 22 527 246 preset 0;
#X msg 59 51 dry 0.33 \, decay_diffusion2 0.84 \, decay_diffusion1
0.889 \, input_diffusion2 0.779 \, excursion 0.53761 \, input_diffusion1
0.685 \, decay 0.99 \, damping 4637 \, bandwidth 10000 \, predelay
10 \,;
#X obj 59 28 loadbang;
#X obj 59 112 outlet;
#X connect 0 0 2 0;
#X connect 1 0 0 0;
#X restore 211 185 pd preset;
#X obj 169 209 *~ 2;
#X obj 422 193 env~;
#X floatatom 422 215 5 0 0 0 - - -, f 5;
#X obj 382 237 bng 15 250 50 0 empty empty empty 17 7 0 10 -262144
-1 -1;
#X obj 238 293 throw~ note-hit-for-sc;
#X obj 387 94 s play-hit;
#X obj 23 25 u_samplebank2 rh-hit-3 rh-hit-1.wav;
#X connect 0 0 1 0;
#X connect 1 0 25 0;
#X connect 2 0 3 0;
#X connect 3 0 0 0;
#X connect 4 0 2 0;
#X connect 5 0 4 0;
#X connect 6 0 15 0;
#X connect 6 0 15 1;
#X connect 6 0 5 0;
#X connect 7 0 154 1;
#X connect 8 0 137 0;
#X connect 10 0 8 0;
#X connect 10 0 154 0;
#X connect 11 0 10 0;
#X connect 11 0 158 0;
#X connect 11 1 10 0;
#X connect 11 1 158 0;
#X connect 11 1 159 0;
#X connect 11 2 161 0;
#X connect 14 0 12 0;
#X connect 14 0 153 0;
#X connect 17 0 121 0;
#X connect 18 0 22 0;
#X connect 19 0 17 0;
#X connect 20 0 21 0;
#X connect 20 1 7 0;
#X connect 21 0 155 0;
#X connect 22 0 49 0;
#X connect 23 0 22 1;
#X connect 24 1 34 0;
#X connect 24 1 152 0;
#X connect 25 0 16 0;
#X connect 25 0 24 0;
#X connect 26 0 27 0;
#X connect 27 0 14 0;
#X connect 28 0 29 0;
#X connect 29 0 30 0;
#X connect 30 0 32 0;
#X connect 31 0 28 0;
#X connect 32 0 49 0;
#X connect 33 0 32 1;
#X connect 34 1 19 0;
#X connect 34 2 35 0;
#X connect 34 2 48 0;
#X connect 34 2 104 0;
#X connect 34 2 127 0;
#X connect 34 2 133 0;
#X connect 35 0 31 0;
#X connect 36 0 37 0;
#X connect 37 0 38 0;
#X connect 38 0 40 0;
#X connect 39 0 36 0;
#X connect 40 0 49 0;
#X connect 41 0 40 1;
#X connect 42 0 43 0;
#X connect 43 0 44 0;
#X connect 44 0 46 0;
#X connect 45 0 42 0;
#X connect 46 0 49 0;
#X connect 47 0 46 1;
#X connect 48 0 45 0;
#X connect 49 0 62 0;
#X connect 51 0 50 0;
#X connect 51 1 50 1;
#X connect 52 0 53 0;
#X connect 53 0 54 0;
#X connect 54 0 26 0;
#X connect 55 0 56 0;
#X connect 56 0 57 0;
#X connect 57 0 59 0;
#X connect 58 0 105 0;
#X connect 59 0 49 0;
#X connect 60 0 59 1;
#X connect 61 0 49 1;
#X connect 62 0 63 0;
#X connect 62 0 63 1;
#X connect 62 0 117 0;
#X connect 63 0 51 0;
#X connect 63 0 51 1;
#X connect 63 0 50 0;
#X connect 63 0 50 1;
#X connect 64 0 69 0;
#X connect 65 0 136 0;
#X connect 66 0 9 0;
#X connect 66 0 20 0;
#X connect 67 0 58 0;
#X connect 69 0 63 2;
#X connect 70 0 136 0;
#X connect 70 0 69 0;
#X connect 71 0 72 0;
#X connect 71 0 78 0;
#X connect 71 0 83 0;
#X connect 71 0 88 0;
#X connect 71 0 93 0;
#X connect 72 0 73 0;
#X connect 73 0 74 0;
#X connect 74 0 75 0;
#X connect 75 0 76 0;
#X connect 75 1 76 1;
#X connect 76 0 77 0;
#X connect 76 0 23 0;
#X connect 78 0 101 0;
#X connect 79 0 81 0;
#X connect 80 0 101 1;
#X connect 81 0 82 0;
#X connect 81 0 60 0;
#X connect 83 0 100 0;
#X connect 84 0 86 0;
#X connect 85 0 100 1;
#X connect 86 0 87 0;
#X connect 86 0 47 0;
#X connect 88 0 99 0;
#X connect 89 0 91 0;
#X connect 90 0 99 1;
#X connect 91 0 92 0;
#X connect 91 0 33 0;
#X connect 93 0 98 0;
#X connect 94 0 96 0;
#X connect 95 0 98 1;
#X connect 96 0 97 0;
#X connect 96 0 41 0;
#X connect 98 0 94 0;
#X connect 99 0 89 0;
#X connect 100 0 84 0;
#X connect 101 0 79 0;
#X connect 102 0 109 0;
#X connect 102 0 110 0;
#X connect 103 0 107 0;
#X connect 103 0 108 0;
#X connect 104 0 67 0;
#X connect 105 0 106 0;
#X connect 106 0 55 0;
#X connect 107 0 104 0;
#X connect 107 1 67 1;
#X connect 110 0 103 0;
#X connect 111 0 114 0;
#X connect 111 0 148 0;
#X connect 112 0 149 0;
#X connect 113 0 155 0;
#X connect 114 1 147 0;
#X connect 114 2 146 0;
#X connect 114 3 145 0;
#X connect 114 4 144 0;
#X connect 114 5 143 0;
#X connect 114 6 142 0;
#X connect 114 7 141 0;
#X connect 115 0 120 1;
#X connect 116 0 68 0;
#X connect 116 0 26 0;
#X connect 116 0 163 0;
#X connect 117 0 51 0;
#X connect 117 0 51 1;
#X connect 118 0 132 0;
#X connect 119 0 131 0;
#X connect 120 0 113 0;
#X connect 121 0 18 0;
#X connect 122 0 123 0;
#X connect 123 0 124 0;
#X connect 124 0 125 0;
#X connect 124 1 125 1;
#X connect 127 0 128 0;
#X connect 128 0 63 1;
#X connect 129 0 139 0;
#X connect 129 0 140 0;
#X connect 130 0 25 0;
#X connect 131 0 117 1;
#X connect 132 0 117 1;
#X connect 133 0 39 0;
#X connect 134 0 51 2;
#X connect 135 0 134 0;
#X connect 136 0 63 2;
#X connect 137 0 66 0;
#X connect 137 0 138 0;
#X connect 139 0 132 0;
#X connect 140 0 131 0;
#X connect 141 0 115 0;
#X connect 142 0 115 0;
#X connect 143 0 115 0;
#X connect 144 0 115 0;
#X connect 145 0 115 0;
#X connect 146 0 115 0;
#X connect 147 0 115 0;
#X connect 148 0 149 1;
#X connect 149 0 120 0;
#X connect 152 0 150 0;
#X connect 153 0 11 0;
#X connect 155 0 6 0;
#X connect 156 0 13 0;
#X connect 156 1 13 1;
#X connect 157 0 156 2;
#X connect 158 0 13 0;
#X connect 158 0 13 1;
#X connect 158 0 156 0;
#X connect 158 0 156 1;
#X connect 159 0 160 0;
#X restore 18 187 pd hit-play;
#X obj 18 207 vradio 15 1 0 8 empty empty empty 0 -8 0 10 -262144 -1
-1 3;
#X obj 75 294 s fake-players-on;
#X obj 75 273 tgl 15 0 empty empty empty 17 7 0 10 -262144 -1 -1 0
1;
#X connect 30 0 28 0;
#X connect 32 0 31 0;
