#N canvas 1014 226 423 385 10;
#X declare -path abs;
#X declare -path audio;
#X declare -path libs/oscx;
#X declare -path rj;
#X declare -path abs/4T-Granulator;
#X declare -path libs/mrpeach;
#X declare -path libs/moocow;
#X declare -path libs/pdstring;
#N canvas 0 22 710 646 io 0;
#X obj 58 36 catch~ \$0-LEFT;
#X obj 158 36 catch~ \$0-RIGHT;
#X obj 58 591 dac~;
#X obj 58 526 *~;
#X obj 158 526 *~;
#X obj 173 502 lop~ 10;
#X obj 173 482 tgl 15 0 empty empty empty 17 7 0 10 -262144 -1 -1 1
1;
#X obj 173 459 loadbang;
#X obj 158 316 e_repeater;
#X obj 58 316 e_repeater;
#X obj 215 246 loadbang;
#X msg 215 269 dry 1;
#X obj 215 291 t a;
#X obj 484 31 loadbang;
#X obj 484 53 metro 1000;
#X obj 484 75 t b b;
#X obj 514 141 * 100;
#X obj 514 121 + 1;
#X obj 514 99 random 9;
#X obj 484 161 random 3;
#X obj 367 221 + 1;
#X obj 367 243 * 100;
#X msg 190 220 dry \$1;
#X obj 190 176 max 0;
#X obj 190 198 min 1;
#X obj 367 134 int;
#X obj 367 156 change;
#X obj 367 178 / 2;
#X obj 367 200 int;
#X obj 190 154 m_scale 25000 30000 1 0.188;
#X obj 367 92 abs;
#X obj 367 112 m_scale 0 45 6 0;
#X obj 158 424 e_reslop;
#X obj 206 358 hsl 128 15 20 20000 0 0 empty empty empty -2 -8 0 10
-262144 -1 -1 12700 1;
#X obj 58 424 e_reslop;
#X floatatom 214 381 5 0 0 0 - - -, f 5;
#X obj 397 354 int;
#X obj 406 287 nbx 5 40 -1e+37 1e+37 0 0 empty empty empty 0 -8 0 40
-262144 -1 -1 0 256;
#X obj 397 376 min 20000;
#X obj 397 398 max 200;
#X obj 432 444 nbx 5 40 -1e+37 1e+37 0 0 empty empty empty 0 -8 0 40
-262144 -1 -1 0 256;
#X obj 397 420 pack f 100;
#X obj 397 442 line;
#X msg 203 399 freq \$1 \, q 5;
#X obj 397 332 m_scale -50 -19 20000 200;
#X msg 292 318 20000;
#X obj 292 288 loadbang;
#X floatatom 215 92 5 0 0 0 - - -, f 5;
#X obj 313 31 unpack f;
#X obj 618 150 change;
#X floatatom 618 270 5 0 0 0 - - -, f 5;
#X obj 618 194 line;
#X obj 618 246 int;
#X floatatom 662 243 5 0 0 0 - - -, f 5;
#X obj 618 216 + 0.5;
#X obj 618 172 pack f 1500;
#X obj 618 128 > 135;
#X msg 223 119 1;
#X obj 215 70 player-output \$0-10;
#X msg 361 522 dry \$1;
#X floatatom 356 492 5 0 0 0 - - -, f 5;
#X obj 455 509 line;
#X msg 497 520 0 10000;
#X floatatom 455 531 5 0 0 0 - - -, f 5;
#X msg 265 479;
#X connect 0 0 9 0;
#X connect 1 0 8 0;
#X connect 3 0 2 0;
#X connect 4 0 2 1;
#X connect 5 0 4 1;
#X connect 5 0 3 1;
#X connect 6 0 5 0;
#X connect 7 0 6 0;
#X connect 8 0 32 0;
#X connect 9 0 34 0;
#X connect 10 0 11 0;
#X connect 11 0 12 0;
#X connect 12 0 8 1;
#X connect 12 0 9 1;
#X connect 13 0 14 0;
#X connect 14 0 15 0;
#X connect 15 0 19 0;
#X connect 15 1 18 0;
#X connect 16 0 14 1;
#X connect 17 0 16 0;
#X connect 18 0 17 0;
#X connect 20 0 21 0;
#X connect 21 0 12 0;
#X connect 22 0 12 0;
#X connect 23 0 24 0;
#X connect 24 0 22 0;
#X connect 25 0 26 0;
#X connect 26 0 27 0;
#X connect 27 0 28 0;
#X connect 28 0 20 0;
#X connect 29 0 23 0;
#X connect 30 0 31 0;
#X connect 31 0 25 0;
#X connect 32 0 4 0;
#X connect 33 0 43 0;
#X connect 33 0 35 0;
#X connect 34 0 3 0;
#X connect 36 0 38 0;
#X connect 38 0 39 0;
#X connect 39 0 40 0;
#X connect 39 0 41 0;
#X connect 41 0 42 0;
#X connect 42 0 33 0;
#X connect 43 0 32 1;
#X connect 43 0 34 1;
#X connect 45 0 33 0;
#X connect 46 0 45 0;
#X connect 48 0 30 0;
#X connect 48 0 37 0;
#X connect 48 0 44 0;
#X connect 49 0 55 0;
#X connect 51 0 53 0;
#X connect 51 0 54 0;
#X connect 52 0 50 0;
#X connect 54 0 52 0;
#X connect 55 0 51 0;
#X connect 56 0 49 0;
#X connect 57 0 22 0;
#X connect 58 0 29 0;
#X connect 58 0 47 0;
#X connect 58 1 48 0;
#X connect 58 3 56 0;
#X connect 60 0 59 0;
#X connect 61 0 59 0;
#X connect 61 0 63 0;
#X connect 62 0 61 0;
#X restore 18 89 pd io;
#N canvas 0 22 450 300 timebase 0;
#X obj 106 52 loadbang;
#X obj 106 75 tgl 15 0 empty empty empty 17 7 0 10 -262144 -1 -1 1
1;
#X obj 106 119 f;
#X obj 136 119 + 1;
#X obj 106 141 s \$0-tick;
#X obj 106 97 metro 50;
#X connect 0 0 1 0;
#X connect 1 0 5 0;
#X connect 2 0 3 0;
#X connect 2 0 4 0;
#X connect 3 0 2 1;
#X connect 5 0 2 0;
#X restore 18 49 pd timebase;
#N canvas 0 22 454 172 init 0;
#X obj 62 86 declare -path abs;
#X obj 62 126 declare -path audio;
#X obj 62 66 declare -path libs/oscx;
#X obj 62 146 declare -path rj;
#X obj 62 106 declare -path abs/4T-Granulator;
#X obj 317 53 loadbang;
#X msg 317 75 \; pd dsp 1 \;;
#X obj 62 46 declare -path libs/mrpeach;
#X obj 62 26 declare -path libs/moocow;
#X obj 62 6 declare -path libs/pdstring;
#X connect 5 0 6 0;
#X restore 18 29 pd init;
#N canvas 86 136 612 821 Fake-Players 0;
#X obj 92 816 r fakeHarpSend;
#X obj 99 836 loadbang;
#X obj 99 858 del 1000;
#X text 184 817 From FakePlayers sub-patch;
#X obj 92 902 sendOSC 9002;
#X msg 99 879 connect 127.0.0.1 9002;
#X obj 22 18 fakePlayer 101 \$0;
#X obj 22 281 fakePlayer 103 \$0;
#X obj 213 680 fakePlayer 112 \$0;
#X obj 22 149 fakePlayer 102 \$0;
#X obj 23 415 fakePlayer 104 \$0;
#X obj 23 549 fakePlayer 105 \$0;
#X obj 23 680 fakePlayer 106 \$0;
#X obj 212 18 fakePlayer 107 \$0;
#X obj 212 149 fakePlayer 108 \$0;
#X obj 212 281 fakePlayer 109 \$0;
#X obj 213 415 fakePlayer 110 \$0;
#X obj 213 549 fakePlayer 111 \$0;
#X obj 409 79 hsl 160 15 0 40000 0 0 empty empty empty -2 -8 0 10 -232576
-1 -1 0 1;
#X msg 406 99 \; distance-hack-101 \$1 \; distance-hack-102 \$1 \;
distance-hack-103 \$1 \; distance-hack-104 \$1 \;;
#X connect 0 0 4 0;
#X connect 1 0 2 0;
#X connect 2 0 5 0;
#X connect 5 0 4 0;
#X connect 18 0 19 0;
#X restore 17 205 pd Fake-Players;
#X text 87 155 Processing Player data;
#X text 115 205 For debug;
#N canvas 146 330 450 300 global-effects 0;
#X obj 88 125 e_platereverb;
#X obj 88 75 catch~ \$0-PLATEREVERB-L;
#X obj 125 100 catch~ \$0-PLATEREVERB-R;
#X obj 88 156 throw~ \$0-LEFT;
#X obj 125 180 throw~ \$0-RIGHT;
#X connect 0 0 3 0;
#X connect 0 1 4 0;
#X connect 1 0 0 0;
#X connect 2 0 0 1;
#X restore 18 109 pd global-effects;
#N canvas 719 31 514 835 history 0;
#X obj 82 43 loadbang;
#X obj 82 65 tgl 15 0 empty empty empty 17 7 0 10 -262144 -1 -1 1 1
;
#X obj 76 310 catch~ \$0-history-l;
#X obj 107 330 catch~ \$0-history-r;
#X obj 76 796 dac~;
#X obj 82 87 metro 5000;
#X msg 342 84 5000;
#X obj 342 108 s \$0-history-interval;
#X obj 369 154 s \$0-history-overlap;
#X obj 139 65 r \$0-history-interval;
#X obj 82 153 sel 0 1 2 3 4 5;
#X obj 342 37 loadbang;
#X obj 342 59 t b b;
#X floatatom 92 131 5 0 0 0 - - -, f 5;
#X msg 369 131 4000;
#X obj 125 246 history-voice \$0 0.021 0.014 woodkid 240;
#X obj 82 109 c_urn 6;
#X msg 133 109 clear \, bang;
#X obj 122 630 line;
#X obj 82 186 history-voice \$0 0.02 0.01 bonobo 240;
#X obj 96 206 history-voice \$0 0.03 0.007 portico-quartet 480;
#X obj 111 226 history-voice \$0 0.022 0.013 the-doors 720;
#X obj 140 266 history-voice \$0 0.027 0.01 shpongle 420;
#X obj 154 286 history-voice \$0 0.024 0.043 jessie-j 720;
#X obj 76 726 *~;
#X obj 107 726 *~;
#X obj 122 698 lop~ 10;
#X obj 76 756 e_reslop;
#X obj 107 776 e_reslop;
#X obj 279 783 t a;
#X msg 249 715 freq \$1;
#X obj 171 684 vsl 15 40 0 1 0 0 empty empty empty 0 -9 0 10 -262144
-1 -1 0 1;
#X obj 122 356 r \$0-4-velocity;
#X obj 149 471 change;
#X obj 149 493 sel 1;
#X msg 262 539 0;
#X msg 149 569 0 6000;
#X obj 295 528 change;
#X obj 295 550 sel 1;
#X msg 295 572 1;
#X obj 295 506 == 0;
#X obj 122 378 max 0;
#X obj 122 425 t f f;
#X msg 279 761 q 2;
#X obj 295 594 tgl 15 0 empty empty empty 17 7 0 10 -262144 -1 -1 0
1;
#X obj 122 403 m_scale 0 50000 0 1 1;
#X obj 122 652 pow 2;
#X obj 249 687 m_scale 0 1 15000 20000;
#X obj 149 515 t b b b;
#X obj 149 449 > 0.8;
#N canvas 199 405 452 362 velocity 0;
#X obj 48 48 t f f;
#X obj 48 235 *~;
#X obj 48 162 sig~;
#X obj 48 184 osc~;
#X obj 189 131 noise~;
#X obj 189 175 *~ 0.04;
#X obj 282 101 abs;
#X obj 48 206 *~ 1;
#X obj 48 26 r \$0-4-velocity;
#X obj 48 77 max 0;
#X obj 48 102 m_scale 0 50000 12 100;
#X obj 282 144 min 1;
#X obj 189 153 lop~ 3000;
#X obj 282 122 m_scale 0 30000 0 1 1;
#X obj 48 289 outlet~;
#X obj 48 267 *~ 1;
#X obj 282 166 pack f 10;
#X obj 282 185 line~;
#X floatatom 350 97 5 0 0 0 - - -, f 5;
#X connect 0 0 9 0;
#X connect 0 1 6 0;
#X connect 1 0 15 0;
#X connect 2 0 3 0;
#X connect 3 0 7 0;
#X connect 4 0 12 0;
#X connect 5 0 1 0;
#X connect 6 0 13 0;
#X connect 7 0 1 0;
#X connect 8 0 0 0;
#X connect 9 0 10 0;
#X connect 10 0 2 0;
#X connect 11 0 16 0;
#X connect 12 0 5 0;
#X connect 13 0 11 0;
#X connect 13 0 18 0;
#X connect 15 0 14 0;
#X connect 16 0 17 0;
#X connect 17 0 1 1;
#X restore 221 618 pd velocity;
#N canvas 850 361 333 181 delay 0;
#X obj 82 81 delwrite~ \$0-velocity 1000;
#X obj 22 56 inlet~;
#X obj 22 141 outlet~;
#X obj 82 103 delread~ \$0-velocity 350;
#X obj 38 89 *~ 0.4;
#X connect 1 0 0 0;
#X connect 1 0 2 0;
#X connect 3 0 4 0;
#X connect 4 0 0 0;
#X connect 4 0 2 0;
#X restore 221 645 pd delay;
#X obj 122 605 spigot 1;
#X obj 122 676 * 3;
#X obj 279 739 loadbang;
#X obj 26 16 inlet;
#X obj 26 38 switch~;
#X connect 0 0 1 0;
#X connect 1 0 5 0;
#X connect 2 0 24 0;
#X connect 3 0 25 0;
#X connect 5 0 16 0;
#X connect 6 0 7 0;
#X connect 9 0 5 1;
#X connect 10 0 19 0;
#X connect 10 1 20 0;
#X connect 10 2 21 0;
#X connect 10 3 15 0;
#X connect 10 4 22 0;
#X connect 10 5 23 0;
#X connect 11 0 12 0;
#X connect 12 0 6 0;
#X connect 12 1 14 0;
#X connect 14 0 8 0;
#X connect 16 0 10 0;
#X connect 16 0 13 0;
#X connect 16 1 17 0;
#X connect 17 0 16 0;
#X connect 18 0 40 0;
#X connect 18 0 46 0;
#X connect 24 0 27 0;
#X connect 25 0 28 0;
#X connect 26 0 25 1;
#X connect 26 0 24 1;
#X connect 27 0 4 0;
#X connect 28 0 4 1;
#X connect 29 0 28 1;
#X connect 29 0 27 1;
#X connect 30 0 29 0;
#X connect 32 0 41 0;
#X connect 33 0 34 0;
#X connect 34 0 48 0;
#X connect 35 0 44 0;
#X connect 35 0 52 1;
#X connect 36 0 18 0;
#X connect 37 0 38 0;
#X connect 38 0 39 0;
#X connect 39 0 44 0;
#X connect 39 0 52 1;
#X connect 40 0 37 0;
#X connect 41 0 45 0;
#X connect 42 0 52 0;
#X connect 42 1 49 0;
#X connect 43 0 29 0;
#X connect 45 0 42 0;
#X connect 46 0 31 0;
#X connect 46 0 47 0;
#X connect 46 0 53 0;
#X connect 47 0 30 0;
#X connect 48 0 36 0;
#X connect 48 2 35 0;
#X connect 49 0 33 0;
#X connect 51 0 27 0;
#X connect 51 0 28 0;
#X connect 52 0 18 0;
#X connect 53 0 26 0;
#X connect 54 0 43 0;
#X connect 55 0 56 0;
#X restore 284 223 pd history;
#X obj 284 201 tgl 15 0 empty empty empty 17 7 0 10 -262144 -1 -1 0
1;
#X text 345 37 1;
#N canvas 556 114 964 897 Players 1;
#X obj 744 202 loadbang;
#X obj 744 224 del 1000;
#X obj 737 102 r forwardPlayerData;
#X obj 737 298 sendOSC 9006;
#X msg 812 217 disconnect;
#X obj 737 174 spigot;
#X obj 770 134 tgl 35 0 empty empty To_visualisations 37 17 0 10 -262144
-1 -1 0 1;
#X msg 754 255 connect 255.255.255.255 9003;
#X obj 742 508 sendOSC;
#X msg 754 484 connect 255.255.255.255 9000;
#X msg 750 411 send /inputs/mode/serial/1;
#X msg 742 388 send /inputs/mode/analogue/1;
#X obj 754 440 loadbang;
#X obj 754 462 del 1000;
#X obj 742 358 bng 15 250 50 0 empty empty ALL_OFF 17 7 0 10 -261234
-1 -1;
#X obj 812 358 bng 15 250 50 0 empty empty ALL_ON 17 7 0 10 -204786
-1 -1;
#X text 805 706 La Monte Young;
#X text 805 726 Overtone Analyser;
#X msg 744 275 connect 192.168.1.117 9003;
#X obj 811 182 print;
#X obj 13 598 aplayer-input \$0 105 8005;
#X obj 13 744 aplayer-input \$0 106 8006;
#X obj 364 14 aplayer-input \$0 107 8007;
#X obj 364 160 aplayer-input \$0 108 8008;
#X obj 364 306 aplayer-input \$0 109 8009;
#X obj 363 452 aplayer-input \$0 110 8010;
#X obj 364 598 aplayer-input \$0 111 8011;
#X obj 364 744 aplayer-input \$0 112 8012;
#X obj 13 13 player-input \$0 101 8001;
#X obj 13 160 player-input \$0 102 8002;
#X obj 13 306 player-input \$0 103 8003;
#X obj 13 452 player-input \$0 104 8004;
#X connect 0 0 1 0;
#X connect 1 0 18 0;
#X connect 2 0 5 0;
#X connect 4 0 3 0;
#X connect 5 0 3 0;
#X connect 6 0 5 1;
#X connect 7 0 3 0;
#X connect 9 0 8 0;
#X connect 10 0 8 0;
#X connect 11 0 8 0;
#X connect 12 0 13 0;
#X connect 13 0 9 0;
#X connect 14 0 11 0;
#X connect 15 0 10 0;
#X connect 18 0 3 0;
#X restore 18 154 pd Players;
#N canvas 321 61 701 761 donger 0;
#X obj 190 380 hh_donger \$0;
#X obj 423 287 f;
#X msg 600 264 4;
#X msg 570 264 6;
#X msg 540 264 8;
#X msg 510 264 12;
#X msg 483 264 16;
#X msg 453 264 24;
#X msg 423 264 32;
#X msg 423 313 repeat-hits-speed \$1;
#X msg 469 180 repeat-hits-on \$1;
#X obj 423 240 sel 1 2 3 4 5 6 7;
#X obj 205 197 sel 0 1 2 3;
#X msg 205 219 -5;
#X msg 233 219 0;
#X obj 212 264 nbx 2 40 -1e+37 1e+37 0 0 empty empty empty 0 -8 0 40
-262144 -1 -1 -5 256;
#X obj 205 241 f;
#X obj 190 353 f;
#X obj 218 85 nbx 5 40 -1e+37 1e+37 0 0 empty empty empty 0 -8 0 40
-262144 -1 -1 -14.6939 256;
#X obj 205 177 int;
#X obj 190 656 throw~ \$0-LEFT;
#X obj 255 677 throw~ \$0-RIGHT;
#X obj 209 705 throw~ \$0-PLATEREVERB-L;
#X obj 275 725 throw~ \$0-PLATEREVERB-R;
#X obj 148 62 unpack f f;
#X obj 542 77 bng 15 250 50 0 empty empty empty 17 7 0 10 -262144 -1
-1;
#X obj 205 156 hysteresis 0.5;
#X obj 205 311 pipe 1000;
#X msg 265 219 4;
#X obj 205 135 m_scale -20 20 0 2;
#X obj 469 140 tgl 35 0 empty empty empty 17 7 0 10 -262144 -1 -1 1
1;
#X msg 259 357 base-note \$1;
#X obj 436 335 nbx 5 40 -1e+37 1e+37 0 0 empty empty empty 0 -8 0 40
-262144 -1 -1 32 256;
#X obj 190 612 *~ 0.5;
#X obj 255 617 *~ 0.5;
#X msg 542 97 108;
#X obj 542 119 s \$0-trigger-hammer;
#X obj 29 18 inlet;
#X obj 29 40 switch~;
#X obj 132 29 player-output \$0-101;
#X floatatom 267 417 5 0 0 0 - - -, f 5;
#N canvas 376 325 331 357 delay 0;
#X obj 47 235 delwrite~ \$0-donger-del 1000;
#X obj 47 257 delread~ \$0-donger-del 125;
#X obj 190 121 * 0.3;
#X obj 190 143 pack f 1000;
#X obj 190 165 line;
#X obj 90 110 sel 6 7;
#X obj 90 156 pack f 1000;
#X obj 90 178 line;
#X obj 90 87 change;
#X obj 90 56 f;
#X msg 90 132 250;
#X msg 121 130 125;
#X obj 47 279 *~ 0;
#X obj 190 99 > 5;
#X obj 90 33 inlet;
#X obj 47 211 inlet~;
#X obj 47 301 outlet~;
#X connect 1 0 12 0;
#X connect 2 0 3 0;
#X connect 3 0 4 0;
#X connect 4 0 12 1;
#X connect 5 0 10 0;
#X connect 5 1 11 0;
#X connect 6 0 7 0;
#X connect 7 0 1 0;
#X connect 8 0 5 0;
#X connect 9 0 8 0;
#X connect 9 0 13 0;
#X connect 10 0 6 0;
#X connect 11 0 6 0;
#X connect 12 0 16 0;
#X connect 13 0 2 0;
#X connect 14 0 9 0;
#X connect 15 0 0 0;
#X restore 286 479 pd delay;
#X connect 0 0 33 0;
#X connect 0 0 41 0;
#X connect 0 1 34 0;
#X connect 0 1 41 0;
#X connect 0 2 33 0;
#X connect 0 2 34 0;
#X connect 0 2 41 0;
#X connect 0 3 40 0;
#X connect 1 0 9 0;
#X connect 1 0 32 0;
#X connect 2 0 1 0;
#X connect 3 0 1 0;
#X connect 4 0 1 0;
#X connect 5 0 1 0;
#X connect 6 0 1 0;
#X connect 7 0 1 0;
#X connect 8 0 1 0;
#X connect 9 0 0 1;
#X connect 10 0 0 1;
#X connect 11 0 8 0;
#X connect 11 1 7 0;
#X connect 11 2 6 0;
#X connect 11 3 5 0;
#X connect 11 4 4 0;
#X connect 11 5 3 0;
#X connect 11 6 2 0;
#X connect 12 0 13 0;
#X connect 12 1 14 0;
#X connect 12 2 28 0;
#X connect 13 0 16 0;
#X connect 14 0 16 0;
#X connect 16 0 15 0;
#X connect 16 0 27 0;
#X connect 17 0 0 0;
#X connect 19 0 12 0;
#X connect 24 1 18 0;
#X connect 24 1 29 0;
#X connect 26 0 19 0;
#X connect 27 0 17 1;
#X connect 28 0 16 0;
#X connect 29 0 26 0;
#X connect 30 0 10 0;
#X connect 31 0 0 1;
#X connect 33 0 20 0;
#X connect 33 0 22 0;
#X connect 34 0 21 0;
#X connect 34 0 23 0;
#X connect 35 0 36 0;
#X connect 37 0 38 0;
#X connect 37 0 30 0;
#X connect 39 1 24 0;
#X connect 39 5 11 0;
#X connect 39 5 41 1;
#X connect 39 7 25 0;
#X connect 39 7 30 0;
#X connect 41 0 33 0;
#X connect 41 0 34 0;
#X restore 284 36 pd donger;
#X obj 284 16 tgl 15 0 empty empty empty 17 7 0 10 -262144 -1 -1 1
1;
#N canvas 347 54 962 931 arp 0;
#X obj 149 181 - 78;
#X obj 164 689 r play-hit;
#X obj 164 733 vline~;
#X msg 164 711 0.4 4 \, 1 3000 40;
#X obj 149 756 *~;
#X obj 149 159 r \$0-detected-hit-note;
#X obj 149 886 throw~ \$0-drone-comp;
#X obj 199 843 throw~ \$0-LEFT;
#X obj 218 864 throw~ \$0-RIGHT;
#X msg 149 203 bass-note \$1;
#X msg 159 257 arp-delay-time 200 \, arp-notes 0 4 7 11;
#X obj 159 234 loadbang;
#X msg 440 134 arp-range \$1;
#X msg 579 134 arp-direction \$1;
#X msg 227 132 arp-on \$1;
#X msg 298 131 arp-vol \$1;
#X msg 705 263 arp-delay-fb \$1;
#X obj 298 102 min 1;
#X obj 298 72 max 0;
#X obj 440 74 max 5;
#X obj 440 104 min 22;
#X obj 705 173 min 0.98;
#X obj 705 195 max 0;
#X obj 705 81 abs;
#X obj 227 111 > 1000;
#X obj 440 51 m_scale 0 30000 5 22;
#X obj 149 284 hh_arp \$0;
#X obj 298 50 m_scale 0 5000 0 1;
#X obj 552 111 sel 0;
#X obj 149 541 hh_tremolo;
#X obj 206 493 min 1;
#X obj 268 493 max 0;
#X obj 206 471 / 15000;
#X msg 206 515 depth \$1;
#X obj 268 471 m_scale 0 30000 1.5 8.5;
#X msg 268 515 freq \$1;
#X obj 422 493 min 1;
#X msg 422 515 shape \$1;
#X obj 422 451 abs;
#X obj 422 471 m_scale 0 90 0.1 1;
#X floatatom 490 530 5 0 0 0 - - -, f 5;
#X msg 467 496 0;
#X obj 223 305 list prepend arp-notes;
#N canvas 0 22 462 303 tonality 0;
#X obj 58 134 int;
#X obj 58 156 sel 0 1 2 3;
#X obj 58 250 outlet;
#X obj 58 83 r \$0-3-angle1;
#X obj 208 98 nbx 5 40 -1e+37 1e+37 0 0 empty empty empty 0 -8 0 40
-262144 -1 -1 0 256;
#X obj 208 140 nbx 5 40 -1e+37 1e+37 0 0 empty empty empty 0 -8 0 40
-262144 -1 -1 0 256;
#X msg 58 185 0 4 7 11;
#X msg 67 208 0 3 7 10;
#X msg 77 228 0 3 6 10;
#X obj 58 108 m_scale -45 -10 0 3;
#X connect 0 0 1 0;
#X connect 0 0 5 0;
#X connect 1 0 6 0;
#X connect 1 1 6 0;
#X connect 1 2 7 0;
#X connect 1 3 8 0;
#X connect 3 0 4 0;
#X connect 6 0 2 0;
#X connect 7 0 2 0;
#X connect 8 0 2 0;
#X connect 9 0 0 0;
#X restore 223 283 pd tonality;
#X obj 712 105 nbx 5 40 -1e+37 1e+37 0 0 empty empty empty 0 -8 0 40
-262144 -1 -1 0 256;
#X obj 713 217 nbx 5 40 -1e+37 1e+37 0 0 empty empty empty 0 -8 0 40
-262144 -1 -1 0 256;
#X obj 199 809 e_pan;
#X obj 255 750 loadbang;
#X obj 648 58 unpack f f;
#X obj 422 429 unpack f;
#X obj 231 689 loadbang;
#X obj 28 18 inlet;
#X obj 28 40 switch~;
#X msg 266 560 0;
#X obj 149 778 *~ 1;
#X msg 255 772 0.5;
#X obj 206 447 player-output \$0-10;
#X obj 295 348 loadbang;
#X msg 295 370 0;
#X obj 149 390 e_master 10 500;
#X obj 705 151 m_scale 0 20 0 0.5;
#X obj 298 16 player-output \$0-102;
#X floatatom 243 364 5 0 0 0 - - -, f 5;
#X obj 330 672 c_lfo arp-pan 0.04 50 sine;
#X obj 333 794 hsl 128 15 0 1 0 0 empty empty empty -2 -8 0 10 -262144
-1 -1 6350 1;
#X obj 330 695 * 0;
#X obj 330 771 + 0.5;
#X obj 373 725 -;
#X obj 373 747 / 2;
#X obj 373 703 swap 1;
#X obj 345 573 f;
#X obj 149 655 e_scompress;
#X obj 212 609 loadbang;
#X obj 180 583 r~ \$0-drone-comp-sc;
#X msg 292 633 ratio 8;
#X msg 212 633 threshold \$1;
#X obj 180 604 *~ 2;
#X obj 199 778 *~ 0.7;
#X connect 0 0 9 0;
#X connect 1 0 3 0;
#X connect 2 0 4 1;
#X connect 3 0 2 0;
#X connect 4 0 54 0;
#X connect 4 0 77 0;
#X connect 5 0 0 0;
#X connect 9 0 26 0;
#X connect 10 0 26 0;
#X connect 11 0 10 0;
#X connect 12 0 26 0;
#X connect 13 0 26 0;
#X connect 14 0 26 0;
#X connect 15 0 26 0;
#X connect 16 0 26 0;
#X connect 17 0 15 0;
#X connect 18 0 17 0;
#X connect 19 0 20 0;
#X connect 20 0 12 0;
#X connect 21 0 22 0;
#X connect 22 0 16 0;
#X connect 22 0 45 0;
#X connect 22 0 70 0;
#X connect 23 0 44 0;
#X connect 23 0 60 0;
#X connect 24 0 14 0;
#X connect 25 0 19 0;
#X connect 26 0 59 0;
#X connect 27 0 18 0;
#X connect 28 1 13 0;
#X connect 29 0 71 0;
#X connect 30 0 33 0;
#X connect 31 0 35 0;
#X connect 32 0 30 0;
#X connect 33 0 29 1;
#X connect 34 0 31 0;
#X connect 35 0 29 1;
#X connect 36 0 40 0;
#X connect 37 0 29 1;
#X connect 38 0 39 0;
#X connect 39 0 36 0;
#X connect 41 0 37 0;
#X connect 42 0 26 0;
#X connect 43 0 42 0;
#X connect 46 0 7 0;
#X connect 46 1 8 0;
#X connect 47 0 55 0;
#X connect 48 1 23 0;
#X connect 49 0 38 0;
#X connect 50 0 3 0;
#X connect 51 0 52 0;
#X connect 53 0 33 0;
#X connect 54 0 6 0;
#X connect 55 0 46 1;
#X connect 56 0 32 0;
#X connect 56 0 34 0;
#X connect 56 1 49 0;
#X connect 57 0 58 0;
#X connect 58 0 59 2;
#X connect 59 0 29 0;
#X connect 60 0 21 0;
#X connect 61 0 27 0;
#X connect 61 0 25 0;
#X connect 61 0 24 0;
#X connect 61 1 48 0;
#X connect 61 4 28 0;
#X connect 62 0 59 2;
#X connect 63 0 65 0;
#X connect 65 0 66 0;
#X connect 66 0 46 1;
#X connect 66 0 64 0;
#X connect 67 0 68 0;
#X connect 68 0 66 1;
#X connect 69 0 67 0;
#X connect 69 1 67 1;
#X connect 70 0 69 0;
#X connect 70 0 65 1;
#X connect 71 0 4 0;
#X connect 72 0 74 0;
#X connect 72 0 75 0;
#X connect 73 0 76 0;
#X connect 74 0 71 2;
#X connect 75 0 71 2;
#X connect 76 0 71 1;
#X connect 77 0 46 0;
#X restore 284 83 pd arp;
#X obj 284 63 tgl 15 0 empty empty empty 17 7 0 10 -262144 -1 -1 1
1;
#N canvas 273 87 932 856 velocity 0;
#X obj 72 283 abs;
#X msg 293 346 noise-burst 1;
#X msg 171 231 interval \$1;
#X obj 72 389 hh_velocity-synth;
#X msg 208 347 base-note \$1;
#X obj 208 303 r \$0-detected-hit-note;
#X obj 72 791 throw~ \$0-LEFT;
#X obj 99 811 throw~ \$0-RIGHT;
#X obj 165 791 throw~ \$0-PLATEREVERB-L;
#X obj 198 811 throw~ \$0-PLATEREVERB-R;
#X obj 168 767 throw~ \$0-drone-comp-sc;
#X obj 363 85 m_speedlimit 10;
#X obj 72 326 min 1;
#X obj 72 348 max 0;
#X obj 72 650 hh_tremolo;
#X obj 191 604 max 0;
#X msg 129 626 depth \$1;
#X obj 191 582 m_scale 0 30000 1.5 8.5;
#X msg 191 626 freq \$1;
#X obj 345 604 min 1;
#X msg 345 626 shape \$1;
#X obj 345 562 abs;
#X obj 345 582 m_scale 0 90 0.1 1;
#X floatatom 401 610 5 0 0 0 - - -, f 5;
#X obj 385 39 nbx 5 40 -1e+37 1e+37 0 0 empty empty empty 0 -8 0 40
-262144 -1 -1 0 256;
#X obj 204 185 nbx 2 40 -1e+37 1e+37 0 0 empty empty empty 0 -8 0 40
-262144 -1 -1 4 256;
#X obj 306 63 unpack f f;
#X floatatom 79 371 5 0 0 0 - - -, f 5;
#X obj 171 136 sel 0 1 2 3;
#X msg 171 161 -5;
#X msg 199 161 0;
#X obj 171 183 f;
#X obj 388 146 int;
#X obj 388 125 hysteresis 0.5;
#X msg 231 161 4;
#X obj 363 105 m_scale -20 20 0 2;
#X obj 72 743 e_pan;
#X obj 99 699 loadbang;
#X msg 99 721 0.3;
#X obj 199 517 unpack f f;
#X obj 171 88 m_scale 0 30000 0 3;
#X msg 261 161 7;
#X obj 171 113 int;
#X obj 171 209 - 12;
#X obj 293 324 yank-in \$0-103 30000;
#X floatatom 252 615 5 0 0 0 - - -, f 5;
#X obj 129 582 max 0;
#X obj 129 604 min 0.8;
#X obj 203 549 m_scale -10 10 12 2;
#X obj 521 231 bng 45 250 50 0 empty empty empty 17 7 0 10 -262144
-1 -1;
#X obj 521 283 tgl 45 0 empty empty empty 17 7 0 10 -262144 -1 -1 0
1;
#X obj 72 304 m_scale 0 40000 0 1 1;
#X obj 28 18 inlet;
#X obj 28 40 switch~;
#N canvas 0 22 443 453 pluck-noise 0;
#X obj 95 191 osc~ 880;
#X obj 95 285 *~;
#X obj 161 207 vline~;
#X obj 95 117 mtof;
#X obj 95 169 sig~;
#X obj 95 70 sel 0 1;
#X obj 95 139 t f b;
#X msg 95 92 90;
#X msg 125 92 94;
#X obj 95 307 e_reverb;
#X obj 95 329 e_chorus;
#X floatatom 170 278 5 0 0 0 - - -, f 5;
#X msg 161 177 1 1000 \, 0 2000 1000;
#X msg 156 259 dry 0.8;
#X obj 173 228 loadbang;
#X msg 158 308 freq 17;
#X msg 181 332 mod 1;
#X obj 95 44 inlet;
#X obj 95 351 outlet~;
#X obj 95 263 *~ 0.15;
#X connect 0 0 19 0;
#X connect 1 0 9 0;
#X connect 2 0 1 1;
#X connect 3 0 6 0;
#X connect 4 0 0 0;
#X connect 5 0 7 0;
#X connect 5 1 8 0;
#X connect 6 0 4 0;
#X connect 6 1 12 0;
#X connect 7 0 3 0;
#X connect 8 0 3 0;
#X connect 9 0 10 0;
#X connect 10 0 18 0;
#X connect 10 1 18 0;
#X connect 11 0 15 0;
#X connect 12 0 2 0;
#X connect 13 0 9 1;
#X connect 14 0 13 0;
#X connect 14 0 15 0;
#X connect 14 0 16 0;
#X connect 15 0 10 1;
#X connect 16 0 10 1;
#X connect 17 0 5 0;
#X connect 19 0 1 0;
#X restore 521 389 pd pluck-noise;
#X obj 521 206 pluck 1000;
#X obj 602 301 s \$0-trigger-hammer;
#X msg 596 276 108;
#X obj 171 27 player-output \$0-103;
#X obj 129 556 line;
#X obj 129 534 pack f 1500;
#X obj 72 673 *~ 3;
#X obj 168 747 s~ \$0-drone-comp-sc;
#X floatatom 28 273 5 0 0 0 - - -, f 5;
#X connect 0 0 51 0;
#X connect 1 0 3 1;
#X connect 2 0 3 1;
#X connect 3 0 14 0;
#X connect 3 1 14 0;
#X connect 4 0 3 1;
#X connect 5 0 4 0;
#X connect 11 0 35 0;
#X connect 12 0 13 0;
#X connect 13 0 3 0;
#X connect 13 0 27 0;
#X connect 14 0 61 0;
#X connect 15 0 18 0;
#X connect 16 0 14 1;
#X connect 17 0 15 0;
#X connect 18 0 14 1;
#X connect 19 0 20 0;
#X connect 20 0 14 1;
#X connect 21 0 22 0;
#X connect 22 0 19 0;
#X connect 22 0 23 0;
#X connect 26 1 11 0;
#X connect 26 1 24 0;
#X connect 28 0 29 0;
#X connect 28 1 30 0;
#X connect 28 2 34 0;
#X connect 28 3 41 0;
#X connect 29 0 31 0;
#X connect 30 0 31 0;
#X connect 31 0 43 0;
#X connect 31 0 25 0;
#X connect 32 0 28 0;
#X connect 33 0 32 0;
#X connect 34 0 31 0;
#X connect 36 0 6 0;
#X connect 36 0 8 0;
#X connect 36 1 7 0;
#X connect 36 1 9 0;
#X connect 37 0 38 0;
#X connect 38 0 36 1;
#X connect 39 1 21 0;
#X connect 39 1 48 0;
#X connect 40 0 42 0;
#X connect 41 0 31 0;
#X connect 42 0 28 0;
#X connect 44 0 1 0;
#X connect 45 0 18 0;
#X connect 46 0 47 0;
#X connect 47 0 16 0;
#X connect 48 0 18 0;
#X connect 49 0 50 0;
#X connect 50 0 54 0;
#X connect 50 0 60 0;
#X connect 51 0 12 0;
#X connect 52 0 53 0;
#X connect 54 0 14 0;
#X connect 55 0 49 0;
#X connect 57 0 56 0;
#X connect 58 0 40 0;
#X connect 58 1 26 0;
#X connect 58 1 39 0;
#X connect 58 2 55 0;
#X connect 58 3 0 0;
#X connect 58 7 49 0;
#X connect 59 0 46 0;
#X connect 60 0 59 0;
#X connect 61 0 10 0;
#X connect 61 0 36 0;
#X connect 61 0 62 0;
#X connect 63 0 12 0;
#X restore 284 130 pd velocity;
#X obj 284 110 tgl 15 0 empty empty empty 17 7 0 10 -262144 -1 -1 1
1;
#N canvas 490 160 1193 661 drone 0;
#X obj 48 329 hh_drone;
#X obj 48 456 e_scompress;
#X msg 111 434 threshold 25;
#X obj 111 410 loadbang;
#X msg 191 434 ratio 4;
#X msg 255 262 interval \$1;
#X obj 93 283 loadbang;
#X msg 198 243 mix \$1;
#X msg 595 131 interval \$1;
#X obj 493 132 loadbang;
#X msg 705 133 mix \$1;
#X obj 448 150 + 4;
#X obj 48 580 throw~ \$0-LEFT;
#X obj 67 601 throw~ \$0-RIGHT;
#X obj 142 578 throw~ \$0-PLATEREVERB-L;
#X obj 168 601 throw~ \$0-PLATEREVERB-R;
#X obj 48 248 r \$0-detected-hit-note;
#X obj 448 102 r \$0-detected-hit-note;
#X obj 79 394 catch~ \$0-drone-comp-sc;
#X obj 80 351 catch~ \$0-drone-comp;
#X msg 493 154 distortion-amt 2.5 \, distortion-wet 0.5;
#X msg 93 305 distortion-amt 2.5 \, distortion-wet 0.5;
#X obj 595 17 r \$0-4-angle1;
#X obj 705 81 r \$0-4-rotations;
#X obj 255 160 m_speedlimit 10;
#X obj 595 81 min 13;
#X obj 595 103 max 8;
#X obj 595 39 abs;
#X obj 595 59 m_scale -180 180 -8 8;
#X obj 705 103 / 328;
#X obj 198 151 min 1;
#X obj 198 108 / 15000;
#X obj 255 212 min 8;
#X obj 255 234 max -9;
#X obj 198 130 max 0;
#X floatatom 56 272 5 0 0 0 - - -, f 5;
#X obj 253 439 min 1;
#X obj 315 439 max 0;
#X obj 253 417 / 15000;
#X msg 253 461 depth \$1;
#X obj 315 417 m_scale 0 30000 1.5 8.5;
#X msg 315 461 freq \$1;
#X obj 48 507 hh_tremolo;
#X obj 461 439 min 1;
#X msg 461 461 shape \$1;
#X obj 461 397 abs;
#X obj 255 190 m_scale -90 90 -9 8;
#X obj 356 227 nbx 5 40 -1e+37 1e+37 0 0 empty empty empty 0 -8 0 40
-262144 -1 -1 -0 256;
#X obj 356 277 nbx 5 40 -1e+37 1e+37 0 0 empty empty empty 0 -8 0 40
-262144 -1 -1 -0.5 256;
#X obj 198 173 pow 2;
#X obj 255 139 unpack f f;
#X obj 461 375 unpack f;
#X obj 461 418 m_scale 0 90 0.1 1;
#X obj 50 198 nbx 5 40 -1e+37 1e+37 0 0 empty empty empty 0 -8 0 40
-262144 -1 -1 1 256;
#X obj 643 380 sig~;
#X obj 643 307 mtof;
#X obj 643 446 *~;
#X obj 860 411 vline~;
#X obj 643 402 s_osc \$0-hit-drone tri;
#X obj 643 351 line;
#X floatatom 717 372 5 0 0 0 - - -, f 5;
#X obj 643 189 m_scale 0 30000 0 6;
#X obj 643 211 int;
#X obj 643 233 change;
#X obj 719 309 nbx 5 40 -1e+37 1e+37 0 0 empty empty empty 0 -8 0 40
-262144 -1 -1 4 256;
#X obj 643 329 pack f 250;
#X obj 860 330 max 0;
#X obj 860 352 min 1;
#X obj 280 88 nbx 5 40 -1e+37 1e+37 0 0 empty empty empty 0 -8 0 40
-262144 -1 -1 -0 256;
#X obj 911 341 nbx 5 40 -1e+37 1e+37 0 0 empty empty empty 0 -8 0 40
-262144 -1 -1 0 256;
#X obj 707 498 delwrite~ \$0-drone-melody 1000;
#X floatatom 671 467 5 0 0 0 - - -, f 5;
#X obj 643 281 notes 6 66 0 2 4 5 7 11;
#X obj 820 184 noise~;
#X obj 820 206 hip~ 1500;
#X obj 820 226 hip~ 1000;
#X obj 658 498 *~ 0.75;
#X obj 707 520 delread~ \$0-drone-melody 300;
#X obj 852 274 abs;
#X obj 860 374 pack f 500;
#X obj 860 308 m_scale 0 15000 0 1;
#X obj 820 248 *~ 0.0125;
#X obj 643 424 *~ 0.1;
#X obj 595 566 *~ 1.47;
#X obj 263 492 nbx 5 40 -1e+37 1e+37 0 0 empty empty empty 0 -8 0 40
-262144 -1 -1 0 256;
#X obj 282 366 nbx 5 40 -1e+37 1e+37 0 0 empty empty empty 0 -8 0 40
-262144 -1 -1 0 256;
#X obj 45 45 inlet;
#X obj 45 67 switch~;
#X floatatom 202 264 5 0 0 0 - - -, f 5;
#X floatatom 393 46 5 0 0 0 - - -, f 5;
#X obj 585 546 *~ 1;
#X obj 613 521 tgl 15 0 empty empty empty 17 7 0 10 -262144 -1 -1 0
1;
#X obj 448 177 hh_drone;
#X msg 372 455 0;
#X obj 253 341 player-output \$0-113;
#X obj 432 59 s \$0-trigger-hammer;
#X msg 432 37 108;
#X obj 198 36 player-output \$0-104;
#X obj 48 531 *~ 2;
#X connect 0 0 1 0;
#X connect 0 0 1 1;
#X connect 1 0 42 0;
#X connect 2 0 1 2;
#X connect 3 0 4 0;
#X connect 3 0 2 0;
#X connect 4 0 1 2;
#X connect 5 0 0 1;
#X connect 6 0 21 0;
#X connect 7 0 0 1;
#X connect 8 0 92 1;
#X connect 9 0 20 0;
#X connect 10 0 92 1;
#X connect 11 0 92 0;
#X connect 16 0 0 0;
#X connect 16 0 35 0;
#X connect 17 0 11 0;
#X connect 18 0 1 1;
#X connect 19 0 1 0;
#X connect 20 0 92 1;
#X connect 21 0 0 1;
#X connect 22 0 27 0;
#X connect 23 0 29 0;
#X connect 24 0 47 0;
#X connect 24 0 46 0;
#X connect 25 0 26 0;
#X connect 26 0 8 0;
#X connect 27 0 28 0;
#X connect 28 0 25 0;
#X connect 29 0 10 0;
#X connect 30 0 49 0;
#X connect 30 0 53 0;
#X connect 31 0 34 0;
#X connect 32 0 33 0;
#X connect 33 0 5 0;
#X connect 33 0 48 0;
#X connect 34 0 30 0;
#X connect 36 0 39 0;
#X connect 36 0 84 0;
#X connect 37 0 41 0;
#X connect 38 0 36 0;
#X connect 39 0 42 1;
#X connect 40 0 37 0;
#X connect 41 0 42 1;
#X connect 42 0 98 0;
#X connect 43 0 44 0;
#X connect 44 0 42 1;
#X connect 45 0 52 0;
#X connect 46 0 32 0;
#X connect 49 0 7 0;
#X connect 50 1 24 0;
#X connect 51 0 45 0;
#X connect 52 0 43 0;
#X connect 54 0 58 0;
#X connect 55 0 65 0;
#X connect 56 0 70 0;
#X connect 56 0 90 0;
#X connect 57 0 56 1;
#X connect 58 0 82 0;
#X connect 59 0 54 0;
#X connect 60 0 57 0;
#X connect 61 0 62 0;
#X connect 62 0 63 0;
#X connect 63 0 64 0;
#X connect 63 0 72 0;
#X connect 65 0 59 0;
#X connect 66 0 67 0;
#X connect 67 0 69 0;
#X connect 67 0 79 0;
#X connect 71 0 76 1;
#X connect 72 0 55 0;
#X connect 73 0 74 0;
#X connect 74 0 75 0;
#X connect 75 0 81 0;
#X connect 76 0 70 0;
#X connect 76 0 90 0;
#X connect 77 0 76 0;
#X connect 78 0 80 0;
#X connect 79 0 57 0;
#X connect 80 0 66 0;
#X connect 81 0 82 0;
#X connect 82 0 56 0;
#X connect 83 0 14 0;
#X connect 83 0 15 0;
#X connect 86 0 87 0;
#X connect 88 0 7 0;
#X connect 89 0 46 0;
#X connect 90 0 83 0;
#X connect 90 0 98 0;
#X connect 91 0 90 1;
#X connect 92 0 1 0;
#X connect 93 0 39 0;
#X connect 94 0 38 0;
#X connect 94 0 40 0;
#X connect 94 0 85 0;
#X connect 94 1 51 0;
#X connect 96 0 95 0;
#X connect 97 0 31 0;
#X connect 97 0 61 0;
#X connect 97 1 50 0;
#X connect 97 3 68 0;
#X connect 97 3 78 0;
#X connect 98 0 12 0;
#X connect 98 0 13 0;
#X connect 98 0 14 0;
#X connect 98 0 15 0;
#X restore 284 177 pd drone;
#X obj 284 156 tgl 15 0 empty empty empty 17 7 0 10 -262144 -1 -1 1
1;
#X text 327 84 2;
#X text 358 130 3;
#X text 340 177 4;
#N canvas 812 148 380 832 combined-axes 0;
#X obj 62 167 +;
#X obj 87 140 player-output \$0-102;
#X obj 62 217 +;
#X obj 62 267 +;
#X obj 62 317 +;
#X obj 62 367 +;
#X obj 62 417 +;
#X obj 87 190 player-output \$0-103;
#X obj 87 240 player-output \$0-104;
#X obj 87 290 player-output \$0-105;
#X obj 87 390 player-output \$0-107;
#X obj 87 340 player-output \$0-106;
#X obj 62 467 +;
#X obj 62 517 +;
#X obj 62 567 +;
#X obj 62 617 +;
#X obj 87 440 player-output \$0-108;
#X obj 87 490 player-output \$0-109;
#X obj 87 540 player-output \$0-110;
#X obj 87 590 player-output \$0-111;
#X obj 62 667 +;
#X obj 87 640 player-output \$0-112;
#X obj 62 117 +;
#X obj 62 40 r \$0-tick;
#X msg 62 62 bang;
#X obj 87 90 player-output \$0-101;
#X obj 62 770 s \$0-combined-distance;
#X obj 122 117 +;
#X obj 122 167 +;
#X obj 122 217 +;
#X obj 122 267 +;
#X obj 122 317 +;
#X obj 122 367 +;
#X obj 122 417 +;
#X obj 122 467 +;
#X obj 122 517 +;
#X obj 122 567 +;
#X obj 122 617 +;
#X obj 122 667 +;
#X msg 122 62 bang;
#X obj 122 749 s \$0-combined-velocity;
#X floatatom 70 730 7 0 0 0 - - -, f 7;
#X floatatom 130 730 7 0 0 0 - - -, f 7;
#X obj 172 117 +;
#X obj 172 167 +;
#X obj 172 217 +;
#X obj 172 267 +;
#X obj 172 317 +;
#X obj 172 367 +;
#X obj 172 417 +;
#X obj 172 467 +;
#X obj 172 517 +;
#X obj 172 567 +;
#X obj 172 617 +;
#X obj 172 667 +;
#X msg 172 62 bang;
#X floatatom 180 690 7 0 0 0 - - -, f 7;
#X obj 172 709 s \$0-combined-direction;
#X connect 0 0 2 0;
#X connect 1 0 0 1;
#X connect 1 3 28 1;
#X connect 1 4 44 1;
#X connect 2 0 3 0;
#X connect 3 0 4 0;
#X connect 4 0 5 0;
#X connect 5 0 6 0;
#X connect 6 0 12 0;
#X connect 7 0 2 1;
#X connect 7 3 29 1;
#X connect 7 4 45 1;
#X connect 8 0 3 1;
#X connect 8 3 30 1;
#X connect 8 4 46 1;
#X connect 9 0 4 1;
#X connect 9 3 31 1;
#X connect 9 4 47 1;
#X connect 10 0 6 1;
#X connect 10 3 33 1;
#X connect 10 4 49 1;
#X connect 11 0 5 1;
#X connect 11 3 32 1;
#X connect 11 4 48 1;
#X connect 12 0 13 0;
#X connect 13 0 14 0;
#X connect 14 0 15 0;
#X connect 15 0 20 0;
#X connect 16 0 12 1;
#X connect 16 3 34 1;
#X connect 16 4 50 1;
#X connect 17 0 13 1;
#X connect 17 3 35 1;
#X connect 17 4 51 1;
#X connect 18 0 14 1;
#X connect 18 3 36 1;
#X connect 18 4 52 1;
#X connect 19 0 15 1;
#X connect 19 3 37 1;
#X connect 19 4 53 1;
#X connect 20 0 26 0;
#X connect 20 0 41 0;
#X connect 21 0 20 1;
#X connect 21 3 38 1;
#X connect 21 4 54 1;
#X connect 22 0 0 0;
#X connect 23 0 24 0;
#X connect 23 0 39 0;
#X connect 23 0 55 0;
#X connect 24 0 22 0;
#X connect 25 0 22 1;
#X connect 25 3 27 1;
#X connect 25 4 43 1;
#X connect 27 0 28 0;
#X connect 28 0 29 0;
#X connect 29 0 30 0;
#X connect 30 0 31 0;
#X connect 31 0 32 0;
#X connect 32 0 33 0;
#X connect 33 0 34 0;
#X connect 34 0 35 0;
#X connect 35 0 36 0;
#X connect 36 0 37 0;
#X connect 37 0 38 0;
#X connect 38 0 40 0;
#X connect 38 0 42 0;
#X connect 39 0 27 0;
#X connect 43 0 44 0;
#X connect 44 0 45 0;
#X connect 45 0 46 0;
#X connect 46 0 47 0;
#X connect 47 0 48 0;
#X connect 48 0 49 0;
#X connect 49 0 50 0;
#X connect 50 0 51 0;
#X connect 51 0 52 0;
#X connect 52 0 53 0;
#X connect 53 0 54 0;
#X connect 54 0 56 0;
#X connect 54 0 57 0;
#X connect 55 0 43 0;
#X restore 18 179 pd combined-axes;
#N canvas 843 284 253 314 tonality 0;
#X obj 42 253 s \$0-detected-hit-note;
#X obj 138 206 loadbang;
#X msg 138 228 78;
#X msg 42 227 73;
#X msg 72 227 78;
#X msg 102 227 82;
#X obj 42 26 r \$0-combined-velocity;
#X obj 42 93 change;
#X obj 42 48 abs;
#X obj 42 71 > 36000;
#X obj 42 138 debounce 5000;
#X obj 42 160 f;
#X obj 68 160 + 1;
#X obj 42 182 mod 3;
#X obj 42 204 sel 0 1 2;
#X obj 42 115 sel 1;
#X connect 1 0 2 0;
#X connect 2 0 0 0;
#X connect 3 0 0 0;
#X connect 4 0 0 0;
#X connect 5 0 0 0;
#X connect 6 0 8 0;
#X connect 7 0 15 0;
#X connect 8 0 9 0;
#X connect 9 0 7 0;
#X connect 10 0 11 0;
#X connect 11 0 12 0;
#X connect 11 0 13 0;
#X connect 12 0 11 1;
#X connect 13 0 14 0;
#X connect 14 0 3 0;
#X connect 14 1 4 0;
#X connect 14 2 5 0;
#X connect 15 0 10 0;
#X restore 286 272 pd tonality;
#X connect 8 0 7 0;
#X connect 12 0 11 0;
#X connect 14 0 13 0;
#X connect 16 0 15 0;
#X connect 18 0 17 0;
