#N canvas 227 141 468 483 10;
#X declare -path abs;
#X declare -path audio;
#X declare -path libs/oscx;
#X declare -path rj;
#X declare -path abs/4T-Granulator;
#N canvas 0 22 710 646 io 0;
#X obj 58 36 catch~ \$0-LEFT;
#X obj 158 36 catch~ \$0-RIGHT;
#X obj 58 591 dac~;
#X obj 58 526 *~;
#X obj 158 526 *~;
#X obj 173 502 lop~ 10;
#X obj 173 482 tgl 15 0 empty empty empty 17 7 0 10 -262144 -1 -1 1
1;
#X obj 173 459 loadbang;
#X obj 158 316 e_repeater;
#X obj 58 316 e_repeater;
#X obj 215 246 loadbang;
#X msg 215 269 dry 1;
#X obj 215 291 t a;
#X obj 484 31 loadbang;
#X obj 484 53 metro 1000;
#X obj 484 75 t b b;
#X obj 514 141 * 100;
#X obj 514 121 + 1;
#X obj 514 99 random 9;
#X obj 484 161 random 3;
#X obj 367 221 + 1;
#X obj 367 243 * 100;
#X msg 190 220 dry \$1;
#X obj 190 176 max 0;
#X obj 190 198 min 1;
#X obj 367 134 int;
#X obj 367 156 change;
#X obj 367 178 / 2;
#X obj 367 200 int;
#X obj 190 154 m_scale 25000 30000 1 0.188;
#X obj 367 92 abs;
#X obj 367 112 m_scale 0 45 6 0;
#X obj 158 424 e_reslop;
#X obj 206 358 hsl 128 15 20 20000 0 0 empty empty empty -2 -8 0 10
-262144 -1 -1 12700 1;
#X obj 58 424 e_reslop;
#X floatatom 214 381 5 0 0 0 - - -, f 5;
#X obj 397 354 int;
#X obj 406 287 nbx 5 40 -1e+37 1e+37 0 0 empty empty empty 0 -8 0 40
-262144 -1 -1 0 256;
#X obj 397 376 min 20000;
#X obj 397 398 max 200;
#X obj 432 444 nbx 5 40 -1e+37 1e+37 0 0 empty empty empty 0 -8 0 40
-262144 -1 -1 0 256;
#X obj 397 420 pack f 100;
#X obj 397 442 line;
#X msg 203 399 freq \$1 \, q 5;
#X obj 397 332 m_scale -50 -19 20000 200;
#X msg 292 318 20000;
#X obj 292 288 loadbang;
#X obj 215 70 player-output \$0-109;
#X floatatom 215 92 5 0 0 0 - - -, f 5;
#X obj 313 31 unpack f;
#X obj 618 150 change;
#X floatatom 618 270 5 0 0 0 - - -, f 5;
#X obj 618 194 line;
#X obj 618 246 int;
#X floatatom 662 243 5 0 0 0 - - -, f 5;
#X obj 618 216 + 0.5;
#X obj 618 172 pack f 1500;
#X obj 618 128 > 135;
#X connect 0 0 9 0;
#X connect 1 0 8 0;
#X connect 3 0 2 0;
#X connect 4 0 2 1;
#X connect 5 0 4 1;
#X connect 5 0 3 1;
#X connect 6 0 5 0;
#X connect 7 0 6 0;
#X connect 8 0 32 0;
#X connect 9 0 34 0;
#X connect 10 0 11 0;
#X connect 11 0 12 0;
#X connect 12 0 8 1;
#X connect 12 0 9 1;
#X connect 13 0 14 0;
#X connect 14 0 15 0;
#X connect 15 0 19 0;
#X connect 15 1 18 0;
#X connect 16 0 14 1;
#X connect 17 0 16 0;
#X connect 18 0 17 0;
#X connect 20 0 21 0;
#X connect 21 0 12 0;
#X connect 22 0 12 0;
#X connect 23 0 24 0;
#X connect 24 0 22 0;
#X connect 25 0 26 0;
#X connect 26 0 27 0;
#X connect 27 0 28 0;
#X connect 28 0 20 0;
#X connect 29 0 23 0;
#X connect 30 0 31 0;
#X connect 31 0 25 0;
#X connect 32 0 4 0;
#X connect 33 0 43 0;
#X connect 33 0 35 0;
#X connect 34 0 3 0;
#X connect 36 0 38 0;
#X connect 38 0 39 0;
#X connect 39 0 40 0;
#X connect 39 0 41 0;
#X connect 41 0 42 0;
#X connect 42 0 33 0;
#X connect 43 0 32 1;
#X connect 43 0 34 1;
#X connect 45 0 33 0;
#X connect 46 0 45 0;
#X connect 47 0 29 0;
#X connect 47 0 48 0;
#X connect 47 1 49 0;
#X connect 47 3 57 0;
#X connect 49 0 30 0;
#X connect 49 0 37 0;
#X connect 49 0 44 0;
#X connect 50 0 56 0;
#X connect 52 0 54 0;
#X connect 52 0 55 0;
#X connect 53 0 51 0;
#X connect 55 0 53 0;
#X connect 56 0 52 0;
#X connect 57 0 50 0;
#X restore 18 49 pd io;
#N canvas 0 22 450 300 timebase 0;
#X obj 106 52 loadbang;
#X obj 106 75 tgl 15 0 empty empty empty 17 7 0 10 -262144 -1 -1 1
1;
#X obj 106 119 f;
#X obj 136 119 + 1;
#X obj 106 141 s \$0-tick;
#X obj 106 97 metro 50;
#X connect 0 0 1 0;
#X connect 1 0 5 0;
#X connect 2 0 3 0;
#X connect 2 0 4 0;
#X connect 3 0 2 1;
#X connect 5 0 2 0;
#X restore 18 69 pd timebase;
#N canvas 0 22 454 172 init 0;
#X obj 62 56 declare -path abs;
#X obj 62 96 declare -path audio;
#X obj 62 36 declare -path libs/oscx;
#X obj 62 116 declare -path rj;
#X obj 62 76 declare -path abs/4T-Granulator;
#X obj 317 53 loadbang;
#X msg 317 75 \; pd dsp 1 \;;
#X connect 5 0 6 0;
#X restore 18 29 pd init;
#N canvas 210 22 1014 856 Players 0;
#X floatatom 753 346 5 0 0 0 - - -, f 5;
#X obj 753 365 s rotations-multiplier;
#X text 747 15 Player parameters;
#X text 746 45 -rotations (0 - ~70);
#X text 747 65 -angle1 (3 - 15);
#X text 747 85 -angle2 (3 - 15);
#X text 747 105 -velocity-out (0 - 30);
#X text 747 125 -velocity-in (0 - -30);
#X text 747 145 -section (0 - 7);
#X text 747 165 -boundary (bang);
#X text 747 185 -dir (-1 \, 0 \, 1);
#X obj 743 525 loadbang;
#X obj 743 547 del 1000;
#X obj 736 425 r forwardPlayerData;
#X obj 736 621 sendOSC 9006;
#X msg 811 540 disconnect;
#X obj 736 497 spigot;
#X obj 769 457 tgl 35 0 empty empty To_visualisations 37 17 0 10 -262144
-1 -1 0 1;
#X msg 753 578 connect 255.255.255.255 9003;
#X obj 741 831 sendOSC;
#X msg 753 807 connect 255.255.255.255 9000;
#X msg 749 734 send /inputs/mode/serial/1;
#X msg 741 711 send /inputs/mode/analogue/1;
#X obj 753 763 loadbang;
#X obj 753 785 del 1000;
#X obj 741 681 bng 15 250 50 0 empty empty ALL_OFF 17 7 0 10 -261234
-1 -1;
#X obj 811 681 bng 15 250 50 0 empty empty ALL_ON 17 7 0 10 -204786
-1 -1;
#X obj 363 452 player-input \$0 110;
#X text 826 299 La Monte Young;
#X text 826 319 Overtone Analyser;
#X obj 364 306 player-input \$0 109;
#X obj 364 598 player-input \$0 111;
#X obj 364 160 player-input \$0 108;
#X obj 13 14 player-input \$0 101;
#X obj 364 14 player-input \$0 107;
#X obj 13 160 player-input \$0 102;
#X obj 13 306 player-input \$0 103;
#X obj 13 598 player-input \$0 105;
#X obj 13 744 player-input \$0 106;
#X obj 13 452 player-input \$0 104;
#X obj 364 744 player-input \$0 112;
#X msg 743 598 connect 192.168.1.117 9003;
#X obj 810 505 print;
#X connect 0 0 1 0;
#X connect 11 0 12 0;
#X connect 12 0 41 0;
#X connect 13 0 16 0;
#X connect 15 0 14 0;
#X connect 16 0 14 0;
#X connect 17 0 16 1;
#X connect 18 0 14 0;
#X connect 20 0 19 0;
#X connect 21 0 19 0;
#X connect 22 0 19 0;
#X connect 23 0 24 0;
#X connect 24 0 20 0;
#X connect 25 0 22 0;
#X connect 26 0 21 0;
#X connect 41 0 14 0;
#X restore 18 354 pd Players;
#N canvas 446 124 414 691 Fake-Players 0;
#X obj 92 576 r fakeHarpSend;
#X obj 99 596 loadbang;
#X obj 99 618 del 1000;
#X text 184 577 From FakePlayers sub-patch;
#X obj 92 662 sendOSC 9002;
#X msg 99 639 connect 127.0.0.1 9002;
#X obj 202 159 fakePlayer 5 \$0;
#X text 77 3 Drone 1;
#X text 77 144 Donger;
#X text 77 286 Velocity;
#X text 77 430 Arp;
#X text 267 286 Velocity;
#X text 267 430 Arp;
#X text 267 3 History;
#X text 267 144 Tremolo;
#X obj 22 18 fakePlayer 0 \$0;
#X obj 22 301 fakePlayer 2 \$0;
#X obj 22 159 fakePlayer 1 \$0;
#X obj 202 18 fakePlayer 4 \$0;
#X obj 23 445 fakePlayer 3 \$0;
#X obj 203 445 fakePlayer 7 \$0;
#X obj 202 301 fakePlayer 6 \$0;
#X connect 0 0 4 0;
#X connect 1 0 2 0;
#X connect 2 0 5 0;
#X connect 5 0 4 0;
#X restore 18 404 pd Fake-Players;
#N canvas 98 101 230 261 pitch-detect 0;
#X obj 41 128 + 0.499;
#X obj 41 149 int;
#X obj 41 90 line;
#X floatatom 41 111 5 0 0 0 - - -, f 5;
#X obj 41 69 pack 0 20;
#X obj 41 48 fiddle~ 2048 1 20 3;
#X obj 41 170 change;
#X floatatom 41 192 5 0 0 0 - - -, f 5;
#X connect 0 0 1 0;
#X connect 1 0 6 0;
#X connect 2 0 3 0;
#X connect 3 0 0 0;
#X connect 4 0 2 0;
#X connect 5 0 4 0;
#X connect 6 0 7 0;
#X restore 18 119 pd pitch-detect;
#X obj 18 140 overview;
#X text 87 355 Processing Player data;
#X text 115 404 For debug;
#X text 17 8 ADMIN;
#X text 17 99 TOOLS;
#X text 62 314 Receive Player data;
#X text 75 140 rjlib;
#N canvas 200 263 482 384 osc 0;
#X obj 43 269 s \$0-player-osc;
#X obj 43 46 OSCroute /1;
#X obj 43 68 s \$0-touchOSC;
#X obj 130 153 inlet;
#X msg 130 225 /\$1;
#X text 125 24 From TouchOSC iPad interface;
#X text 125 106 From debug_xosc Processing sketch;
#X obj 67 234 list prepend /0;
#X obj 52 129 dumpOSC 9002;
#X text 135 126 From FakePlayers sub-patch Processing sketch;
#X obj 245 272 s \$0-0-section;
#X msg 274 250 10;
#X obj 275 292 s \$0-0-rotations;
#X obj 245 226 sel 1;
#X msg 245 250 6;
#X obj 43 105 dumpOSC 9001;
#X obj 244 195 s real-player-on;
#X obj 43 24 dumpOSC 5000;
#X obj 9 183 dumpOSC 9000;
#X obj 40 242 print;
#X connect 1 0 2 0;
#X connect 3 0 4 0;
#X connect 3 0 13 0;
#X connect 3 0 16 0;
#X connect 4 0 7 1;
#X connect 11 0 12 0;
#X connect 13 0 14 0;
#X connect 13 0 11 0;
#X connect 14 0 10 0;
#X connect 15 0 7 0;
#X connect 17 0 1 0;
#X connect 18 0 0 0;
#X restore 18 313 pd osc;
#X obj 18 187 vradio 15 1 0 8 empty empty empty 0 -8 0 10 -262144 -1
-1 0;
#X obj 18 457 s fake-players-on;
#X obj 18 436 tgl 15 0 empty empty empty 17 7 0 10 -262144 -1 -1 0
1;
#N canvas 146 330 450 300 global-effects 0;
#X obj 88 125 e_platereverb;
#X obj 88 75 catch~ \$0-PLATEREVERB-L;
#X obj 125 100 catch~ \$0-PLATEREVERB-R;
#X obj 88 156 throw~ \$0-LEFT;
#X obj 125 180 throw~ \$0-RIGHT;
#X connect 0 0 3 0;
#X connect 0 1 4 0;
#X connect 1 0 0 0;
#X connect 2 0 0 1;
#X restore 108 30 pd global-effects;
#N canvas 719 31 514 835 history 0;
#X obj 82 43 loadbang;
#X obj 82 65 tgl 15 0 empty empty empty 17 7 0 10 -262144 -1 -1 0 1
;
#X obj 76 310 catch~ \$0-history-l;
#X obj 107 330 catch~ \$0-history-r;
#X obj 76 796 dac~;
#X obj 82 87 metro 5000;
#X msg 342 84 5000;
#X obj 342 108 s \$0-history-interval;
#X obj 369 154 s \$0-history-overlap;
#X obj 139 65 r \$0-history-interval;
#X obj 82 153 sel 0 1 2 3 4 5;
#X obj 342 37 loadbang;
#X obj 342 59 t b b;
#X floatatom 92 131 5 0 0 0 - - -, f 5;
#X msg 369 131 4000;
#X obj 125 246 history-voice \$0 0.021 0.014 woodkid 240;
#X obj 82 109 c_urn 6;
#X msg 133 109 clear \, bang;
#X obj 122 630 line;
#X obj 82 186 history-voice \$0 0.02 0.01 bonobo 240;
#X obj 96 206 history-voice \$0 0.03 0.007 portico-quartet 480;
#X obj 111 226 history-voice \$0 0.022 0.013 the-doors 720;
#X obj 140 266 history-voice \$0 0.027 0.01 shpongle 420;
#X obj 154 286 history-voice \$0 0.024 0.043 jessie-j 720;
#X obj 76 726 *~;
#X obj 107 726 *~;
#X obj 122 698 lop~ 10;
#X obj 76 756 e_reslop;
#X obj 107 776 e_reslop;
#X obj 279 783 t a;
#X msg 249 715 freq \$1;
#X obj 171 684 vsl 15 40 0 1 0 0 empty empty empty 0 -9 0 10 -262144
-1 -1 0 1;
#X obj 122 356 r \$0-4-velocity;
#X obj 149 471 change;
#X obj 149 493 sel 1;
#X msg 262 539 0;
#X msg 149 569 0 6000;
#X obj 295 528 change;
#X obj 295 550 sel 1;
#X msg 295 572 1;
#X obj 295 506 == 0;
#X obj 122 378 max 0;
#X obj 122 425 t f f;
#X msg 279 761 q 2;
#X obj 295 594 tgl 15 0 empty empty empty 17 7 0 10 -262144 -1 -1 0
1;
#X obj 122 403 m_scale 0 50000 0 1 1;
#X obj 122 652 pow 2;
#X obj 249 687 m_scale 0 1 15000 20000;
#X obj 149 515 t b b b;
#X obj 149 449 > 0.8;
#N canvas 199 405 452 362 velocity 0;
#X obj 48 48 t f f;
#X obj 48 235 *~;
#X obj 48 162 sig~;
#X obj 48 184 osc~;
#X obj 189 131 noise~;
#X obj 189 175 *~ 0.04;
#X obj 282 101 abs;
#X obj 48 206 *~ 1;
#X obj 48 26 r \$0-4-velocity;
#X obj 48 77 max 0;
#X obj 48 102 m_scale 0 50000 12 100;
#X obj 282 144 min 1;
#X obj 189 153 lop~ 3000;
#X obj 282 122 m_scale 0 30000 0 1 1;
#X obj 48 289 outlet~;
#X obj 48 267 *~ 1;
#X obj 282 166 pack f 10;
#X obj 282 185 line~;
#X floatatom 350 97 5 0 0 0 - - -, f 5;
#X connect 0 0 9 0;
#X connect 0 1 6 0;
#X connect 1 0 15 0;
#X connect 2 0 3 0;
#X connect 3 0 7 0;
#X connect 4 0 12 0;
#X connect 5 0 1 0;
#X connect 6 0 13 0;
#X connect 7 0 1 0;
#X connect 8 0 0 0;
#X connect 9 0 10 0;
#X connect 10 0 2 0;
#X connect 11 0 16 0;
#X connect 12 0 5 0;
#X connect 13 0 11 0;
#X connect 13 0 18 0;
#X connect 15 0 14 0;
#X connect 16 0 17 0;
#X connect 17 0 1 1;
#X restore 221 618 pd velocity;
#N canvas 850 361 333 181 delay 0;
#X obj 82 81 delwrite~ \$0-velocity 1000;
#X obj 22 56 inlet~;
#X obj 22 141 outlet~;
#X obj 82 103 delread~ \$0-velocity 350;
#X obj 38 89 *~ 0.4;
#X connect 1 0 0 0;
#X connect 1 0 2 0;
#X connect 3 0 4 0;
#X connect 4 0 0 0;
#X connect 4 0 2 0;
#X restore 221 645 pd delay;
#X obj 122 605 spigot 1;
#X obj 122 676 * 3;
#X obj 279 739 loadbang;
#X obj 26 16 inlet;
#X obj 26 38 switch~;
#X connect 0 0 1 0;
#X connect 1 0 5 0;
#X connect 2 0 24 0;
#X connect 3 0 25 0;
#X connect 5 0 16 0;
#X connect 6 0 7 0;
#X connect 9 0 5 1;
#X connect 10 0 19 0;
#X connect 10 1 20 0;
#X connect 10 2 21 0;
#X connect 10 3 15 0;
#X connect 10 4 22 0;
#X connect 10 5 23 0;
#X connect 11 0 12 0;
#X connect 12 0 6 0;
#X connect 12 1 14 0;
#X connect 14 0 8 0;
#X connect 16 0 10 0;
#X connect 16 0 13 0;
#X connect 16 1 17 0;
#X connect 17 0 16 0;
#X connect 18 0 40 0;
#X connect 18 0 46 0;
#X connect 24 0 27 0;
#X connect 25 0 28 0;
#X connect 26 0 25 1;
#X connect 26 0 24 1;
#X connect 27 0 4 0;
#X connect 28 0 4 1;
#X connect 29 0 28 1;
#X connect 29 0 27 1;
#X connect 30 0 29 0;
#X connect 32 0 41 0;
#X connect 33 0 34 0;
#X connect 34 0 48 0;
#X connect 35 0 44 0;
#X connect 35 0 52 1;
#X connect 36 0 18 0;
#X connect 37 0 38 0;
#X connect 38 0 39 0;
#X connect 39 0 44 0;
#X connect 39 0 52 1;
#X connect 40 0 37 0;
#X connect 41 0 45 0;
#X connect 42 0 52 0;
#X connect 42 1 49 0;
#X connect 43 0 29 0;
#X connect 45 0 42 0;
#X connect 46 0 31 0;
#X connect 46 0 47 0;
#X connect 46 0 53 0;
#X connect 47 0 30 0;
#X connect 48 0 36 0;
#X connect 48 2 35 0;
#X connect 49 0 33 0;
#X connect 51 0 27 0;
#X connect 51 0 28 0;
#X connect 52 0 18 0;
#X connect 53 0 26 0;
#X connect 54 0 43 0;
#X connect 55 0 56 0;
#X restore 254 323 pd history;
#X text 16 170 Real Player routing;
#X floatatom 37 293 5 0 0 0 - - -, f 5;
#X text 36 187 Drone 1;
#X text 36 203 Donger;
#X text 36 218 Velocity;
#X text 36 234 Arp;
#X text 37 263 Tremolo;
#X text 37 249 History;
#X text 37 278 Tonality;
#N canvas 0 22 972 706 donger 0;
#X obj 188 367 hh_donger \$0;
#X obj 564 183 f;
#X msg 741 160 4;
#X msg 711 160 6;
#X msg 681 160 8;
#X msg 651 160 12;
#X msg 624 160 16;
#X msg 594 160 24;
#X msg 564 160 32;
#X msg 564 209 repeat-hits-speed \$1;
#X msg 450 209 repeat-hits-on \$1;
#X obj 564 136 sel 1 2 3 4 5 6 7;
#X obj 357 613 s \$0-detected-hit-note;
#X floatatom 365 593 5 0 0 0 - - -, f 5;
#X obj 98 177 sel 0 1 2 3;
#X msg 98 199 -5;
#X msg 126 199 0;
#X obj 105 244 nbx 5 40 -1e+37 1e+37 0 0 empty empty empty 0 -8 0 40
-262144 -1 -1 0 256;
#X obj 98 221 f;
#X obj 188 340 f;
#X obj 225 140 nbx 5 40 -1e+37 1e+37 0 0 empty empty empty 0 -8 0 40
-262144 -1 -1 0 256;
#X obj 98 157 int;
#X obj 188 643 throw~ \$0-LEFT;
#X obj 207 664 throw~ \$0-RIGHT;
#X obj 280 643 throw~ \$0-PLATEREVERB-L;
#X obj 306 663 throw~ \$0-PLATEREVERB-R;
#X obj 98 92 unpack f f;
#X obj 432 57 bng 15 250 50 0 empty empty empty 17 7 0 10 -262144 -1
-1;
#X obj 98 136 hysteresis 0.5;
#X obj 98 291 pipe 1000;
#X msg 215 199 4;
#X obj 98 115 m_scale -20 20 0 2;
#X obj 450 169 tgl 35 0 empty empty empty 17 7 0 10 -262144 -1 -1 0
1;
#X msg 265 59 78;
#X floatatom 251 570 5 0 0 0 - - -, f 5;
#X obj 416 391 int;
#X msg 416 436 0;
#X msg 431 456 5;
#X msg 447 478 8;
#X msg 463 502 9;
#X obj 416 413 sel 0 1 2 3;
#X obj 436 365 m_scale -5000 5000 0 3;
#X obj 357 568 +;
#X obj 416 540 t b f;
#X obj 436 341 unpack f f;
#X msg 257 344 base-note \$1;
#X obj 214 311 bng 15 250 50 0 empty empty empty 17 7 0 10 -262144
-1 -1;
#X obj 596 366 noise~;
#X obj 596 410 *~;
#X obj 669 380 vline~;
#X obj 596 432 *~ 0.4;
#X obj 669 314 r \$0-noise-burst;
#X obj 669 336 sel 1;
#X obj 596 388 hip~ 12000;
#X msg 669 358 1 300 \, 0 300 300;
#X obj 496 294 nbx 5 40 -1e+37 1e+37 0 0 empty empty empty 0 -8 0 40
-262144 -1 -1 0 256;
#X obj 565 486 nbx 5 40 -1e+37 1e+37 0 0 empty empty empty 0 -8 0 40
-262144 -1 -1 0 256;
#X obj 104 453 delwrite~ \$0-donger-del 1000;
#X obj 104 497 *~ 0.3;
#X obj 359 311 m_scale 0 30000 0 3;
#X obj 104 475 delread~ \$0-donger-del 125;
#X obj 580 229 nbx 5 40 -1e+37 1e+37 0 0 empty empty empty 0 -8 0 40
-262144 -1 -1 0 256;
#X obj 297 442 * 0.3;
#X obj 297 464 pack f 1000;
#X obj 297 486 line;
#X floatatom 297 508 5 0 0 0 - - -, f 5;
#X obj 326 369 sel 6 7;
#X obj 337 414 pack f 1000;
#X obj 337 436 line;
#X obj 351 350 change;
#X obj 275 310 f;
#X floatatom 376 444 5 0 0 0 - - -, f 5;
#X obj 188 599 *~ 0.5;
#X obj 208 619 *~ 0.5;
#X obj 297 420 > 6;
#X obj 539 570 loadbang;
#X msg 539 592 78;
#X obj 83 39 player-output \$0-108;
#X msg 326 391 250;
#X msg 357 389 125;
#X msg 432 77 108;
#X obj 432 99 s \$0-trigger-hammer;
#X obj 575 50 r play-hit;
#X obj 575 72 bng 15 250 50 0 empty empty empty 17 7 0 10 -262144 -1
-1;
#X obj 28 18 inlet;
#X obj 28 40 switch~;
#X connect 0 0 57 0;
#X connect 0 0 72 0;
#X connect 0 1 57 0;
#X connect 0 1 73 0;
#X connect 0 2 72 0;
#X connect 0 2 73 0;
#X connect 0 3 42 0;
#X connect 1 0 9 0;
#X connect 1 0 61 0;
#X connect 2 0 1 0;
#X connect 3 0 1 0;
#X connect 4 0 1 0;
#X connect 5 0 1 0;
#X connect 6 0 1 0;
#X connect 7 0 1 0;
#X connect 8 0 1 0;
#X connect 9 0 0 1;
#X connect 10 0 0 1;
#X connect 11 0 8 0;
#X connect 11 1 7 0;
#X connect 11 2 6 0;
#X connect 11 3 5 0;
#X connect 11 4 4 0;
#X connect 11 5 3 0;
#X connect 11 6 2 0;
#X connect 14 0 15 0;
#X connect 14 1 16 0;
#X connect 14 2 30 0;
#X connect 15 0 18 0;
#X connect 16 0 18 0;
#X connect 18 0 17 0;
#X connect 18 0 29 0;
#X connect 19 0 0 0;
#X connect 21 0 14 0;
#X connect 26 1 20 0;
#X connect 26 1 31 0;
#X connect 27 0 80 0;
#X connect 28 0 21 0;
#X connect 29 0 19 1;
#X connect 30 0 18 0;
#X connect 31 0 28 0;
#X connect 32 0 10 0;
#X connect 34 0 72 1;
#X connect 34 0 73 1;
#X connect 35 0 40 0;
#X connect 35 0 56 0;
#X connect 36 0 43 0;
#X connect 37 0 43 0;
#X connect 38 0 43 0;
#X connect 39 0 43 0;
#X connect 40 0 36 0;
#X connect 40 1 37 0;
#X connect 40 2 38 0;
#X connect 40 3 39 0;
#X connect 42 0 12 0;
#X connect 42 0 13 0;
#X connect 43 0 42 0;
#X connect 43 1 42 1;
#X connect 43 1 45 0;
#X connect 44 1 41 0;
#X connect 44 1 55 0;
#X connect 45 0 0 1;
#X connect 46 0 19 0;
#X connect 47 0 53 0;
#X connect 48 0 50 0;
#X connect 49 0 48 1;
#X connect 50 0 24 0;
#X connect 50 0 25 0;
#X connect 50 0 72 0;
#X connect 50 0 73 0;
#X connect 51 0 52 0;
#X connect 52 0 54 0;
#X connect 53 0 48 0;
#X connect 54 0 49 0;
#X connect 58 0 72 0;
#X connect 58 0 73 0;
#X connect 60 0 58 0;
#X connect 62 0 63 0;
#X connect 63 0 64 0;
#X connect 64 0 58 1;
#X connect 64 0 65 0;
#X connect 66 0 78 0;
#X connect 66 1 79 0;
#X connect 67 0 68 0;
#X connect 68 0 60 0;
#X connect 68 0 71 0;
#X connect 69 0 66 0;
#X connect 70 0 69 0;
#X connect 70 0 74 0;
#X connect 72 0 22 0;
#X connect 73 0 23 0;
#X connect 74 0 62 0;
#X connect 75 0 76 0;
#X connect 76 0 12 0;
#X connect 77 0 59 0;
#X connect 77 1 26 0;
#X connect 77 5 11 0;
#X connect 77 5 70 0;
#X connect 77 6 44 0;
#X connect 77 7 27 0;
#X connect 77 7 19 0;
#X connect 77 7 32 0;
#X connect 78 0 67 0;
#X connect 79 0 67 0;
#X connect 80 0 81 0;
#X connect 82 0 83 0;
#X connect 82 0 80 0;
#X connect 84 0 85 0;
#X restore 254 136 pd donger;
#N canvas 270 23 751 812 arp 0;
#X obj 149 91 - 78;
#X obj 164 549 r play-hit;
#X obj 164 593 vline~;
#X msg 164 571 0.4 4 \, 1 3000 40;
#X obj 149 616 *~;
#X obj 149 638 *~ 0.5;
#X obj 199 638 *~ 0.4;
#X obj 149 69 r \$0-detected-hit-note;
#X obj 149 746 throw~ \$0-drone-comp;
#X obj 199 703 throw~ \$0-LEFT;
#X obj 218 724 throw~ \$0-RIGHT;
#X msg 149 113 bass-note \$1;
#X msg 180 232 arp-delay-time 200 \, arp-notes 0 4 7 11;
#X obj 180 209 loadbang;
#X msg 380 184 arp-range \$1;
#X msg 492 191 arp-direction \$1;
#X msg 37 181 arp-on \$1;
#X msg 268 181 arp-vol \$1;
#X msg 605 233 arp-delay-fb \$1;
#X obj 268 152 min 1;
#X floatatom 312 163 5 0 0 0 - - -, f 5;
#X obj 268 122 max 0;
#X obj 380 124 max 5;
#X obj 380 154 min 22;
#X obj 605 183 min 0.98;
#X obj 605 205 max 0;
#X obj 605 121 abs;
#X floatatom 330 132 5 0 0 0 - - -, f 5;
#X obj 37 160 > 1000;
#X obj 380 101 m_scale 0 30000 5 22;
#X obj 149 264 hh_arp \$0;
#X floatatom 110 167 5 0 0 0 - - -, f 5;
#X obj 268 100 m_scale 0 5000 0 1;
#X obj 492 161 sel 0;
#X floatatom 635 131 5 0 0 0 - - -, f 5;
#X obj 149 431 hh_tremolo;
#X obj 206 383 min 1;
#X obj 268 383 max 0;
#X obj 206 361 / 15000;
#X msg 206 405 depth \$1;
#X obj 268 361 m_scale 0 30000 1.5 8.5;
#X msg 268 405 freq \$1;
#X obj 422 383 min 1;
#X msg 422 405 shape \$1;
#X obj 422 341 abs;
#X obj 422 361 m_scale 0 90 0.1 1;
#X floatatom 490 420 5 0 0 0 - - -, f 5;
#X msg 467 386 0;
#X obj 223 285 list prepend arp-notes;
#N canvas 0 22 462 303 tonality 0;
#X obj 58 134 int;
#X obj 58 156 sel 0 1 2 3;
#X obj 58 250 outlet;
#X obj 58 83 r \$0-3-angle1;
#X obj 208 98 nbx 5 40 -1e+37 1e+37 0 0 empty empty empty 0 -8 0 40
-262144 -1 -1 0 256;
#X obj 208 140 nbx 5 40 -1e+37 1e+37 0 0 empty empty empty 0 -8 0 40
-262144 -1 -1 0 256;
#X msg 58 185 0 4 7 11;
#X msg 67 208 0 3 7 10;
#X msg 77 228 0 3 6 10;
#X obj 58 108 m_scale -45 -10 0 3;
#X connect 0 0 1 0;
#X connect 0 0 5 0;
#X connect 1 0 6 0;
#X connect 1 1 6 0;
#X connect 1 2 7 0;
#X connect 1 3 8 0;
#X connect 3 0 4 0;
#X connect 6 0 2 0;
#X connect 7 0 2 0;
#X connect 8 0 2 0;
#X connect 9 0 0 0;
#X restore 223 263 pd tonality;
#X obj 506 265 nbx 5 40 -1e+37 1e+37 0 0 empty empty empty 0 -8 0 40
-262144 -1 -1 0 256;
#X obj 605 161 m_scale 0 20 0 0.98;
#X obj 506 307 nbx 5 40 -1e+37 1e+37 0 0 empty empty empty 0 -8 0 40
-262144 -1 -1 0 256;
#X obj 456 35 hsl 200 30 -90 90 0 0 empty empty empty -2 -8 0 10 -262144
-1 -1 0 1;
#X floatatom 168 142 5 0 0 0 - - -, f 5;
#X msg 79 66 0;
#X obj 199 669 e_pan;
#X obj 255 610 loadbang;
#X msg 255 632 0.8;
#X obj 349 66 unpack f f;
#X obj 206 337 player-output \$0-5;
#X obj 422 319 unpack f;
#X obj 83 37 loadbang;
#X obj 178 524 loadbang;
#X obj 294 38 player-output \$0-104;
#X floatatom 241 159 5 0 0 0 - - -, f 5;
#X msg 96 215 1;
#X floatatom 437 146 5 0 0 0 - - -, f 5;
#X msg 439 162 15;
#X obj 28 18 inlet;
#X obj 28 40 switch~;
#X connect 0 0 11 0;
#X connect 0 0 54 0;
#X connect 1 0 3 0;
#X connect 2 0 4 1;
#X connect 3 0 2 0;
#X connect 4 0 5 0;
#X connect 4 0 6 0;
#X connect 5 0 8 0;
#X connect 6 0 56 0;
#X connect 7 0 0 0;
#X connect 11 0 30 0;
#X connect 12 0 30 0;
#X connect 13 0 12 0;
#X connect 14 0 30 0;
#X connect 15 0 30 0;
#X connect 16 0 30 0;
#X connect 17 0 30 0;
#X connect 18 0 30 0;
#X connect 19 0 20 0;
#X connect 19 0 17 0;
#X connect 21 0 19 0;
#X connect 22 0 23 0;
#X connect 23 0 14 0;
#X connect 24 0 25 0;
#X connect 25 0 18 0;
#X connect 25 0 52 0;
#X connect 26 0 50 0;
#X connect 26 0 51 0;
#X connect 28 0 16 0;
#X connect 29 0 22 0;
#X connect 30 0 35 0;
#X connect 32 0 21 0;
#X connect 33 1 15 0;
#X connect 35 0 4 0;
#X connect 36 0 39 0;
#X connect 37 0 41 0;
#X connect 38 0 36 0;
#X connect 39 0 35 1;
#X connect 40 0 37 0;
#X connect 41 0 35 1;
#X connect 42 0 46 0;
#X connect 43 0 35 1;
#X connect 44 0 45 0;
#X connect 45 0 42 0;
#X connect 47 0 43 0;
#X connect 48 0 30 0;
#X connect 49 0 48 0;
#X connect 51 0 24 0;
#X connect 55 0 11 0;
#X connect 56 0 9 0;
#X connect 56 1 10 0;
#X connect 57 0 58 0;
#X connect 58 0 56 1;
#X connect 59 1 26 0;
#X connect 60 0 38 0;
#X connect 60 0 40 0;
#X connect 60 1 61 0;
#X connect 61 0 44 0;
#X connect 62 0 55 0;
#X connect 63 0 3 0;
#X connect 64 0 32 0;
#X connect 64 0 29 0;
#X connect 64 0 28 0;
#X connect 64 1 59 0;
#X connect 64 4 33 0;
#X connect 65 0 17 0;
#X connect 66 0 16 0;
#X connect 68 0 14 0;
#X connect 69 0 70 0;
#X restore 254 183 pd arp;
#N canvas 0 22 889 734 velocity 0;
#X obj 91 239 abs;
#X msg 315 290 noise-burst 1;
#X msg 433 290 interval \$1;
#X obj 91 335 hh_velocity-synth;
#X msg 230 291 base-note \$1;
#X obj 230 247 r \$0-detected-hit-note;
#X obj 91 567 throw~ \$0-LEFT;
#X obj 118 587 throw~ \$0-RIGHT;
#X obj 184 567 throw~ \$0-PLATEREVERB-L;
#X obj 217 587 throw~ \$0-PLATEREVERB-R;
#X obj 187 535 throw~ \$0-drone-comp-sc;
#X obj 433 106 m_speedlimit 10;
#X obj 91 489 *~ 1.3;
#X obj 91 282 min 1;
#X obj 91 304 max 0;
#X obj 91 466 hh_tremolo;
#X obj 148 418 min 1;
#X obj 210 418 max 0;
#X obj 148 396 / 15000;
#X msg 148 440 depth \$1;
#X obj 210 396 m_scale 0 30000 1.5 8.5;
#X msg 210 440 freq \$1;
#X obj 364 418 min 1;
#X msg 364 440 shape \$1;
#X obj 364 376 abs;
#X obj 364 396 m_scale 0 90 0.1 1;
#X floatatom 420 424 5 0 0 0 - - -, f 5;
#X obj 455 60 nbx 5 40 -1e+37 1e+37 0 0 empty empty empty 0 -8 0 40
-262144 -1 -1 0 256;
#X obj 449 319 nbx 5 40 -1e+37 1e+37 0 0 empty empty empty 0 -8 0 40
-262144 -1 -1 0 256;
#X obj 376 84 unpack f f;
#X floatatom 152 220 5 0 0 0 - - -, f 5;
#X floatatom 145 317 5 0 0 0 - - -, f 5;
#X obj 523 148 int;
#X obj 523 170 change;
#X floatatom 533 214 5 0 0 0 - - -, f 5;
#X floatatom 567 168 5 0 0 0 - - -, f 5;
#X obj 523 192 notes 7 0 0 2 4 5 7 9 11;
#X obj 425 186 sel 0 1 2 3;
#X msg 405 218 -5;
#X msg 433 218 0;
#X obj 405 240 f;
#X obj 405 176 int;
#X obj 405 155 hysteresis 0.5;
#X msg 465 218 4;
#X obj 433 126 m_scale -20 20 0 2;
#X obj 91 511 e_pan;
#X obj 167 485 loadbang;
#X msg 167 507 0.3;
#X obj 364 354 unpack f f;
#X msg 244 209 78;
#X obj 262 36 m_scale 0 30000 0 3;
#X floatatom 296 62 5 0 0 0 - - -, f 5;
#X msg 495 218 7;
#X obj 288 95 int;
#X floatatom 288 117 5 0 0 0 - - -, f 5;
#X obj 433 268 - 12;
#X obj 315 268 yank-in \$0-103 30000;
#X obj 398 470 unpack f f;
#X obj 450 550 nbx 5 40 -1e+37 1e+37 0 0 empty empty empty 0 -8 0 40
-262144 -1 -1 0 256;
#X obj 215 342 player-osutput \$0-5;
#X obj 376 495 abs;
#X obj 376 517 m_scale 0 25 0 1;
#X obj 433 610 nbx 5 40 -1e+37 1e+37 0 0 empty empty empty 0 -8 0 40
-262144 -1 -1 0 256;
#X floatatom 271 429 5 0 0 0 - - -, f 5;
#X obj 475 468 nbx 5 40 -1e+37 1e+37 0 0 empty empty empty 0 -8 0 40
-262144 -1 -1 0 256;
#X obj 496 404 nbx 5 40 -1e+37 1e+37 0 0 empty empty empty 0 -8 0 40
-262144 -1 -1 0 256;
#X msg 296 511 1;
#X obj 369 549 max 0;
#X obj 369 571 min 0.8;
#X obj 497 374 m_scale -10 10 12 2;
#X obj 201 107 bng 45 250 50 0 empty empty empty 17 7 0 10 -262144
-1 -1;
#X obj 201 158 tgl 45 0 empty empty empty 17 7 0 10 -262144 -1 -1 0
1;
#X obj 312 474 * 0.8;
#X obj 690 219 osc~ 880;
#X obj 690 313 *~;
#X obj 756 235 vline~;
#X obj 91 260 m_scale 0 40000 0 1 1;
#X obj 690 145 mtof;
#X obj 690 197 sig~;
#X obj 690 98 sel 0 1;
#X obj 690 167 t f b;
#X msg 690 120 90;
#X msg 720 120 94;
#X obj 690 335 e_reverb;
#X obj 690 357 e_chorus;
#X floatatom 765 306 5 0 0 0 - - -, f 5;
#X obj 690 291 *~ 0.4;
#N canvas 861 95 450 300 pluck 0;
#X obj 111 115 change;
#X obj 111 137 sel 1;
#X obj 111 159 debounce 1000;
#X obj 111 71 inlet;
#X obj 111 181 outlet;
#X obj 111 93 > 1000;
#X connect 0 0 1 0;
#X connect 1 0 2 0;
#X connect 2 0 4 0;
#X connect 3 0 5 0;
#X connect 5 0 0 0;
#X restore 140 77 pd pluck;
#X msg 756 205 1 1000 \, 0 2000 1000;
#X msg 751 287 dry 0.8;
#X obj 768 256 loadbang;
#X msg 753 336 freq 17;
#X msg 776 360 mod 1;
#X obj 133 14 player-output \$0-109;
#X obj 28 18 inlet;
#X obj 28 40 switch~;
#X connect 0 0 30 0;
#X connect 0 0 76 0;
#X connect 1 0 3 1;
#X connect 2 0 3 1;
#X connect 3 0 15 0;
#X connect 3 1 15 0;
#X connect 4 0 3 1;
#X connect 5 0 4 0;
#X connect 11 0 44 0;
#X connect 12 0 10 0;
#X connect 12 0 45 0;
#X connect 13 0 14 0;
#X connect 14 0 3 0;
#X connect 14 0 31 0;
#X connect 15 0 12 0;
#X connect 16 0 19 0;
#X connect 17 0 21 0;
#X connect 18 0 16 0;
#X connect 19 0 15 1;
#X connect 20 0 17 0;
#X connect 21 0 15 1;
#X connect 22 0 23 0;
#X connect 23 0 15 1;
#X connect 24 0 25 0;
#X connect 25 0 22 0;
#X connect 25 0 26 0;
#X connect 29 1 11 0;
#X connect 29 1 27 0;
#X connect 32 0 33 0;
#X connect 33 0 35 0;
#X connect 33 0 36 0;
#X connect 36 0 34 0;
#X connect 37 0 38 0;
#X connect 37 1 39 0;
#X connect 37 2 43 0;
#X connect 37 3 52 0;
#X connect 38 0 40 0;
#X connect 39 0 40 0;
#X connect 40 0 55 0;
#X connect 40 0 28 0;
#X connect 41 0 37 0;
#X connect 42 0 41 0;
#X connect 43 0 40 0;
#X connect 45 0 6 0;
#X connect 45 0 8 0;
#X connect 45 1 7 0;
#X connect 45 1 9 0;
#X connect 46 0 47 0;
#X connect 47 0 45 1;
#X connect 48 1 24 0;
#X connect 49 0 4 0;
#X connect 50 0 51 0;
#X connect 50 0 53 0;
#X connect 52 0 40 0;
#X connect 53 0 54 0;
#X connect 53 0 37 0;
#X connect 55 0 2 0;
#X connect 56 0 1 0;
#X connect 57 0 64 0;
#X connect 57 0 69 0;
#X connect 57 1 58 0;
#X connect 57 1 60 0;
#X connect 59 0 18 0;
#X connect 59 0 20 0;
#X connect 59 1 48 0;
#X connect 60 0 61 0;
#X connect 63 0 21 0;
#X connect 66 0 67 0;
#X connect 67 0 68 0;
#X connect 68 0 62 0;
#X connect 68 0 19 0;
#X connect 69 0 65 0;
#X connect 69 0 21 0;
#X connect 70 0 71 0;
#X connect 71 0 67 0;
#X connect 71 0 79 0;
#X connect 73 0 86 0;
#X connect 74 0 83 0;
#X connect 75 0 74 1;
#X connect 76 0 13 0;
#X connect 77 0 80 0;
#X connect 78 0 73 0;
#X connect 79 0 81 0;
#X connect 79 1 82 0;
#X connect 80 0 78 0;
#X connect 80 1 88 0;
#X connect 81 0 77 0;
#X connect 82 0 77 0;
#X connect 83 0 84 0;
#X connect 84 0 15 0;
#X connect 84 1 15 0;
#X connect 85 0 91 0;
#X connect 86 0 74 0;
#X connect 87 0 70 0;
#X connect 88 0 75 0;
#X connect 89 0 83 1;
#X connect 90 0 89 0;
#X connect 90 0 91 0;
#X connect 90 0 92 0;
#X connect 91 0 84 1;
#X connect 92 0 84 1;
#X connect 93 0 50 0;
#X connect 93 1 29 0;
#X connect 93 1 57 0;
#X connect 93 2 87 0;
#X connect 93 3 0 0;
#X connect 94 0 95 0;
#X restore 254 230 pd velocity;
#X obj 254 116 tgl 15 0 empty empty empty 17 7 0 10 -262144 -1 -1 0
1;
#X obj 254 163 tgl 15 0 empty empty empty 17 7 0 10 -262144 -1 -1 0
1;
#X obj 254 210 tgl 15 0 empty empty empty 17 7 0 10 -262144 -1 -1 0
1;
#N canvas 27 162 1193 661 drone 0;
#X obj 48 329 hh_drone;
#X obj 48 456 e_scompress;
#X msg 111 434 threshold 25;
#X obj 111 410 loadbang;
#X msg 191 434 ratio 4;
#X msg 255 262 interval \$1;
#X obj 93 283 loadbang;
#X msg 198 243 mix \$1;
#X msg 595 131 interval \$1;
#X obj 493 132 loadbang;
#X msg 705 133 mix \$1;
#X obj 448 150 + 4;
#X obj 48 580 throw~ \$0-LEFT;
#X obj 67 601 throw~ \$0-RIGHT;
#X obj 142 578 throw~ \$0-PLATEREVERB-L;
#X obj 168 601 throw~ \$0-PLATEREVERB-R;
#X obj 48 248 r \$0-detected-hit-note;
#X obj 448 102 r \$0-detected-hit-note;
#X obj 79 394 catch~ \$0-drone-comp-sc;
#X obj 80 351 catch~ \$0-drone-comp;
#X msg 493 154 distortion-amt 2.5 \, distortion-wet 0.5;
#X msg 93 305 distortion-amt 2.5 \, distortion-wet 0.5;
#X obj 595 17 r \$0-4-angle1;
#X obj 705 81 r \$0-4-rotations;
#X obj 255 170 m_speedlimit 10;
#X obj 595 81 min 13;
#X obj 595 103 max 8;
#X obj 595 39 abs;
#X obj 595 59 m_scale -180 180 -8 8;
#X obj 705 103 / 328;
#X obj 198 151 min 1;
#X obj 198 108 / 15000;
#X obj 255 212 min 8;
#X obj 255 234 max -9;
#X obj 198 130 max 0;
#X floatatom 56 272 5 0 0 0 - - -, f 5;
#X obj 253 439 min 1;
#X obj 315 439 max 0;
#X obj 253 417 / 15000;
#X msg 253 461 depth \$1;
#X obj 315 417 m_scale 0 30000 1.5 8.5;
#X msg 315 461 freq \$1;
#X obj 48 507 hh_tremolo;
#X obj 461 439 min 1;
#X msg 461 461 shape \$1;
#X obj 461 397 abs;
#X obj 48 531 *~ 1;
#X obj 255 190 m_scale -90 90 -9 8;
#X obj 356 227 nbx 5 40 -1e+37 1e+37 0 0 empty empty empty 0 -8 0 40
-262144 -1 -1 0 256;
#X obj 356 277 nbx 5 40 -1e+37 1e+37 0 0 empty empty empty 0 -8 0 40
-262144 -1 -1 0 256;
#X obj 198 173 pow 2;
#X obj 255 149 unpack f f;
#X obj 461 375 unpack f;
#X obj 461 418 m_scale 0 90 0.1 1;
#X obj 50 198 nbx 5 40 -1e+37 1e+37 0 0 empty empty empty 0 -8 0 40
-262144 -1 -1 0 256;
#X obj 643 380 sig~;
#X obj 643 307 mtof;
#X obj 643 446 *~;
#X obj 860 411 vline~;
#X obj 643 402 s_osc \$0-hit-drone tri;
#X obj 643 351 line;
#X floatatom 717 372 5 0 0 0 - - -, f 5;
#X obj 643 189 m_scale 0 30000 0 6;
#X obj 643 211 int;
#X obj 643 233 change;
#X obj 897 225 nbx 5 40 -1e+37 1e+37 0 0 empty empty empty 0 -8 0 40
-262144 -1 -1 0 256;
#X obj 643 329 pack f 250;
#X obj 860 330 max 0;
#X obj 860 352 min 1;
#X obj 907 270 nbx 5 40 -1e+37 1e+37 0 0 empty empty empty 0 -8 0 40
-262144 -1 -1 0 256;
#X obj 911 341 nbx 5 40 -1e+37 1e+37 0 0 empty empty empty 0 -8 0 40
-262144 -1 -1 0 256;
#X obj 707 498 delwrite~ \$0-drone-melody 1000;
#X obj 585 546 *~ 1;
#X floatatom 671 467 5 0 0 0 - - -, f 5;
#X obj 643 281 notes 6 66 0 2 4 5 7 11;
#X obj 820 184 noise~;
#X obj 820 206 hip~ 1500;
#X obj 820 226 hip~ 1000;
#X obj 658 498 *~ 0.75;
#X obj 707 520 delread~ \$0-drone-melody 300;
#X obj 852 274 abs;
#X obj 860 374 pack f 500;
#X obj 860 308 m_scale 0 15000 0 1;
#X obj 820 248 *~ 0.0125;
#X obj 643 424 *~ 0.1;
#X obj 595 566 *~ 1.47;
#X obj 253 341 player-output \$0-109;
#X obj 263 492 nbx 5 40 -1e+37 1e+37 0 0 empty empty empty 0 -8 0 40
-262144 -1 -1 0 256;
#X obj 282 366 nbx 5 40 -1e+37 1e+37 0 0 empty empty empty 0 -8 0 40
-262144 -1 -1 0 256;
#X obj 198 86 player-output \$0-112;
#X obj 448 177 hh_drone;
#X obj 45 45 inlet;
#X obj 45 67 switch~;
#X connect 0 0 1 0;
#X connect 0 0 1 1;
#X connect 1 0 42 0;
#X connect 2 0 1 2;
#X connect 3 0 4 0;
#X connect 3 0 2 0;
#X connect 4 0 1 2;
#X connect 5 0 0 1;
#X connect 6 0 21 0;
#X connect 7 0 0 1;
#X connect 8 0 90 1;
#X connect 9 0 20 0;
#X connect 10 0 90 1;
#X connect 11 0 90 0;
#X connect 16 0 0 0;
#X connect 16 0 35 0;
#X connect 17 0 11 0;
#X connect 18 0 1 1;
#X connect 19 0 1 0;
#X connect 20 0 90 1;
#X connect 21 0 0 1;
#X connect 22 0 27 0;
#X connect 23 0 29 0;
#X connect 24 0 47 0;
#X connect 24 0 48 0;
#X connect 25 0 26 0;
#X connect 26 0 8 0;
#X connect 27 0 28 0;
#X connect 28 0 25 0;
#X connect 29 0 10 0;
#X connect 30 0 50 0;
#X connect 30 0 54 0;
#X connect 31 0 34 0;
#X connect 32 0 33 0;
#X connect 33 0 5 0;
#X connect 33 0 49 0;
#X connect 34 0 30 0;
#X connect 36 0 39 0;
#X connect 36 0 87 0;
#X connect 37 0 41 0;
#X connect 38 0 36 0;
#X connect 39 0 42 1;
#X connect 40 0 37 0;
#X connect 41 0 42 1;
#X connect 42 0 46 0;
#X connect 43 0 44 0;
#X connect 44 0 42 1;
#X connect 45 0 53 0;
#X connect 46 0 12 0;
#X connect 46 0 13 0;
#X connect 46 0 14 0;
#X connect 46 0 15 0;
#X connect 47 0 32 0;
#X connect 50 0 7 0;
#X connect 51 1 24 0;
#X connect 52 0 45 0;
#X connect 53 0 43 0;
#X connect 55 0 59 0;
#X connect 56 0 66 0;
#X connect 57 0 71 0;
#X connect 57 0 72 0;
#X connect 58 0 57 1;
#X connect 59 0 84 0;
#X connect 60 0 55 0;
#X connect 61 0 58 0;
#X connect 62 0 63 0;
#X connect 63 0 64 0;
#X connect 64 0 65 0;
#X connect 64 0 74 0;
#X connect 66 0 60 0;
#X connect 67 0 68 0;
#X connect 68 0 70 0;
#X connect 68 0 81 0;
#X connect 72 0 46 0;
#X connect 72 0 85 0;
#X connect 73 0 78 1;
#X connect 74 0 56 0;
#X connect 75 0 76 0;
#X connect 76 0 77 0;
#X connect 77 0 83 0;
#X connect 78 0 71 0;
#X connect 78 0 72 0;
#X connect 79 0 78 0;
#X connect 80 0 82 0;
#X connect 81 0 58 0;
#X connect 82 0 67 0;
#X connect 83 0 84 0;
#X connect 84 0 57 0;
#X connect 85 0 14 0;
#X connect 85 0 15 0;
#X connect 86 0 38 0;
#X connect 86 0 40 0;
#X connect 86 0 88 0;
#X connect 86 1 52 0;
#X connect 89 0 31 0;
#X connect 89 0 62 0;
#X connect 89 1 51 0;
#X connect 89 3 69 0;
#X connect 89 3 80 0;
#X connect 90 0 1 0;
#X connect 91 0 92 0;
#X restore 254 277 pd drone;
#X obj 254 256 tgl 15 0 empty empty empty 17 7 0 10 -262144 -1 -1 0
1;
#X obj 254 301 tgl 15 0 empty empty empty 17 7 0 10 -262144 -1 -1 0
1;
#X connect 14 0 13 0;
#X connect 14 0 20 0;
#X connect 16 0 15 0;
#X connect 31 0 28 0;
#X connect 32 0 29 0;
#X connect 33 0 30 0;
#X connect 35 0 34 0;
#X connect 36 0 18 0;
