#N canvas 78 22 466 529 10;
#X declare -path abs;
#X declare -path audio;
#X declare -path libs/oscx;
#X declare -path rj;
#X declare -path abs;
#N canvas 0 22 450 300 io 0;
#X obj 113 237 dac~;
#X obj 113 192 *~;
#X obj 213 192 *~;
#X obj 228 168 lop~ 10;
#X obj 228 148 tgl 15 0 empty empty empty 17 7 0 10 -262144 -1 -1 1
1;
#X obj 228 125 loadbang;
#X obj 113 82 catch~ \$0-LEFT;
#X obj 213 82 catch~ \$0-RIGHT;
#X connect 1 0 0 0;
#X connect 2 0 0 1;
#X connect 3 0 2 1;
#X connect 3 0 1 1;
#X connect 4 0 3 0;
#X connect 5 0 4 0;
#X connect 6 0 1 0;
#X connect 7 0 2 0;
#X restore 33 39 pd io;
#N canvas 0 22 450 300 timebase 1;
#X obj 106 52 loadbang;
#X obj 106 75 tgl 15 0 empty empty empty 17 7 0 10 -262144 -1 -1 1
1;
#X obj 106 97 metro 250;
#X obj 106 119 f;
#X obj 136 119 + 1;
#X obj 106 141 s \$0-tick;
#X connect 0 0 1 0;
#X connect 1 0 2 0;
#X connect 2 0 3 0;
#X connect 3 0 4 0;
#X connect 3 0 5 0;
#X connect 4 0 3 1;
#X restore 33 60 pd timebase;
#N canvas 0 22 450 300 init 0;
#X obj 62 56 declare -path abs;
#X obj 62 76 declare -path audio;
#X obj 62 36 declare -path libs/oscx;
#X obj 62 96 declare -path rj;
#X restore 33 18 pd init;
#N canvas 784 175 1033 596 synths 0;
#X obj 38 61 vsl 15 40 0 1 0 0 empty empty empty 0 -9 0 10 -262144
-1 -1 0 1;
#X obj 38 37 r \$1-super-saw-vol;
#N canvas 254 22 676 804 super-saw-vol 0;
#X obj 39 770 dac~;
#X obj 39 748 *~;
#X obj 54 724 line~;
#X obj 54 680 inlet;
#X obj 39 573 pack f 127;
#X obj 39 493 f;
#X obj 39 515 +;
#X obj 119 573 pack f 127;
#X obj 119 545 + 11.8;
#X obj 257 421 t b b;
#X msg 215 398 0;
#X msg 284 443 12;
#X obj 257 399 del 26.78;
#X obj 196 374 t b b b;
#X obj 39 29 r \$1-bass-note;
#X obj 196 340 spigot;
#X obj 39 600 super-saw;
#X obj 84 355 - 12;
#X msg 39 405 \$1;
#X obj 39 355 t a a;
#X msg 84 401 \$1 1000;
#X obj 84 331 spigot;
#X obj 39 262 t f f b;
#X obj 117 311 tgl 15 0 empty empty empty 17 7 0 10 -262144 -1 -1 0
1;
#X obj 84 288 spigot;
#X obj 117 230 random 2;
#X obj 229 315 r \$1-super-saw-arp;
#X obj 155 702 delwrite~ \$1-super-saw-del 1000;
#X obj 109 712 *~ 0.4;
#X obj 155 724 delread~ \$1-super-saw-del 428.571;
#X obj 197 517 r generate-track-\$1;
#X obj 197 539 random 4;
#X obj 197 561 sel 0 1 2 3;
#X msg 197 583 428.571;
#X msg 213 603 214.286;
#X obj 197 670 f;
#X msg 227 623 160.714;
#X msg 243 643 107.143;
#X obj 373 580 /;
#X msg 373 548 1;
#X msg 373 603 freq \$1;
#X msg 452 597 shape 0;
#X obj 452 574 loadbang;
#X msg 407 547 0.107143;
#X msg 527 596 depth \$1;
#X floatatom 530 569 5 0 0 0 - - -, f 5;
#X obj 258 74 mod 64;
#X obj 119 600 super-saw;
#X obj 39 631 clip~ -1 1;
#X obj 258 202 list prepend;
#X obj 258 224 list trim;
#X obj 258 246 route 0 1;
#X obj 258 54 spigot;
#X obj 39 101 spigot;
#X obj 72 79 == 0;
#X obj 72 56 r \$1-super-saw-note-source;
#X obj 334 19 r \$1-super-saw-note-source;
#X obj 334 42 == 1;
#X obj 413 223 r generate-track-\$1;
#X obj 413 245 random 2;
#X obj 413 268 s \$1-super-saw-note-source;
#X obj 339 158 r generate-track-\$1;
#X obj 339 180 random 2;
#X obj 258 96 sel 0 32;
#X obj 84 379 pipe 1000;
#X obj 39 457 line 64 20;
#X obj 139 256 tgl 15 0 empty empty empty 17 7 0 10 -262144 -1 -1 0
1;
#X obj 54 702 * 0.1;
#X obj 429 206 bng 15 250 50 0 empty empty empty 17 7 0 10 -262144
-1 -1;
#X obj 282 294 tgl 15 0 empty empty empty 17 7 0 10 -262144 -1 -1 0
1;
#X obj 39 131 + 12;
#X obj 374 100 r \$1-super-saw-octave;
#X obj 258 182 pack f 220;
#X obj 258 150 +;
#X obj 39 181 +;
#X obj 55 156 r \$1-super-saw-octave;
#X obj 145 287 tgl 15 0 empty empty empty 17 7 0 10 -262144 -1 -1 0
1;
#X obj 130 191 sel 0 1;
#X msg 112 210 1;
#X obj 316 625 e_tremolo2;
#X msg 258 118 72;
#X msg 292 118 60;
#X obj 258 32 r \$0-tick;
#X obj 196 287 r \$0-tick;
#X connect 1 0 0 0;
#X connect 1 0 0 1;
#X connect 2 0 1 1;
#X connect 3 0 67 0;
#X connect 4 0 16 0;
#X connect 5 0 6 0;
#X connect 6 0 4 0;
#X connect 6 0 8 0;
#X connect 7 0 47 0;
#X connect 8 0 7 0;
#X connect 9 0 5 0;
#X connect 9 1 11 0;
#X connect 10 0 6 1;
#X connect 11 0 6 1;
#X connect 12 0 9 0;
#X connect 13 0 5 0;
#X connect 13 1 10 0;
#X connect 13 2 12 0;
#X connect 14 0 53 0;
#X connect 15 0 13 0;
#X connect 16 0 48 0;
#X connect 17 0 64 0;
#X connect 18 0 65 0;
#X connect 19 0 18 0;
#X connect 20 0 65 0;
#X connect 21 0 17 0;
#X connect 22 0 19 0;
#X connect 22 1 24 0;
#X connect 22 2 23 0;
#X connect 23 0 21 1;
#X connect 24 0 21 0;
#X connect 25 0 66 0;
#X connect 25 0 24 1;
#X connect 26 0 15 1;
#X connect 28 0 27 0;
#X connect 28 0 1 0;
#X connect 29 0 28 0;
#X connect 30 0 31 0;
#X connect 31 0 32 0;
#X connect 32 0 33 0;
#X connect 32 1 34 0;
#X connect 32 2 36 0;
#X connect 32 3 37 0;
#X connect 33 0 35 0;
#X connect 34 0 35 0;
#X connect 35 0 29 0;
#X connect 36 0 35 0;
#X connect 37 0 35 0;
#X connect 38 0 40 0;
#X connect 39 0 38 0;
#X connect 40 0 79 1;
#X connect 41 0 79 1;
#X connect 42 0 41 0;
#X connect 43 0 38 1;
#X connect 44 0 79 1;
#X connect 45 0 44 0;
#X connect 46 0 63 0;
#X connect 47 0 48 0;
#X connect 48 0 1 0;
#X connect 48 0 27 0;
#X connect 49 0 50 0;
#X connect 50 0 51 0;
#X connect 51 0 22 0;
#X connect 51 1 65 0;
#X connect 52 0 46 0;
#X connect 53 0 70 0;
#X connect 54 0 53 1;
#X connect 54 0 24 1;
#X connect 55 0 54 0;
#X connect 55 0 77 0;
#X connect 56 0 57 0;
#X connect 57 0 52 1;
#X connect 58 0 59 0;
#X connect 59 0 60 0;
#X connect 61 0 62 0;
#X connect 62 0 49 1;
#X connect 63 0 80 0;
#X connect 63 1 81 0;
#X connect 64 0 20 0;
#X connect 65 0 5 0;
#X connect 67 0 2 0;
#X connect 68 0 59 0;
#X connect 69 0 15 1;
#X connect 70 0 74 0;
#X connect 71 0 73 1;
#X connect 72 0 49 0;
#X connect 73 0 72 0;
#X connect 74 0 22 0;
#X connect 75 0 74 1;
#X connect 76 0 24 1;
#X connect 77 0 78 0;
#X connect 77 1 25 0;
#X connect 78 0 24 1;
#X connect 78 0 66 0;
#X connect 80 0 73 0;
#X connect 81 0 73 0;
#X connect 82 0 52 0;
#X connect 83 0 15 0;
#X restore 38 109 pd super-saw-vol;
#X obj 37 160 vsl 15 40 0 1 0 0 empty empty empty 0 -9 0 10 -262144
-1 -1 0 1;
#X obj 37 136 r \$1-nuclear-lead-vol;
#N canvas 568 43 627 805 nuclear-lead 0;
#X obj 38 737 dac~;
#X obj 38 696 *~;
#X obj 53 672 line~;
#X obj 53 648 inlet;
#X obj 38 557 nuclear-sine;
#X obj 38 588 smad;
#X msg 124 640 amount \$1;
#X msg 191 640 wet \$1;
#X obj 130 494 loadbang;
#X msg 399 513 Pitch-Bend \$1;
#X obj 399 488 line;
#X msg 484 459 0;
#X msg 399 459 0 \, -1 400;
#N canvas 0 22 622 365 zomboy-melody 0;
#X obj 79 19 r \$1-tick;
#X obj 79 93 sel 16 24 28 36 40 44 48 52 56;
#X obj 271 93 sel 16 24 28 36 40 44 48 52 56;
#X obj 271 70 - 64;
#X obj 79 62 moses 64;
#X obj 79 41 mod 128;
#X obj 271 170 f;
#X msg 79 145 0;
#X msg 112 146 -1;
#X msg 152 146 2;
#X msg 271 145 0;
#X msg 341 145 -1;
#X msg 381 145 2;
#X msg 303 145 -3;
#X obj 39 266 f;
#X connect 0 0 5 0;
#X connect 1 0 7 0;
#X connect 1 1 7 0;
#X connect 1 2 7 0;
#X connect 1 3 7 0;
#X connect 1 4 7 0;
#X connect 1 5 7 0;
#X connect 1 6 8 0;
#X connect 1 7 7 0;
#X connect 1 8 9 0;
#X connect 2 0 10 0;
#X connect 2 1 10 0;
#X connect 2 2 10 0;
#X connect 2 3 10 0;
#X connect 2 4 13 0;
#X connect 2 5 11 0;
#X connect 2 6 12 0;
#X connect 2 7 11 0;
#X connect 2 8 10 0;
#X connect 3 0 2 0;
#X connect 4 0 1 0;
#X connect 4 1 3 0;
#X connect 5 0 4 0;
#X connect 6 0 14 0;
#X connect 7 0 14 0;
#X connect 8 0 14 0;
#X connect 9 0 14 0;
#X connect 10 0 6 0;
#X connect 11 0 6 0;
#X connect 12 0 6 0;
#X connect 13 0 6 0;
#X restore 447 44 pd zomboy-melody;
#X obj 38 497 line;
#X obj 38 475 pack f 0;
#N canvas 1086 177 416 451 new-sequence 0;
#X msg 37 18 1 0 0 0 0 0 1 0 1 0 1 0 0 0 1 0;
#X msg 64 214 set \, adddollar \$1;
#N canvas 0 22 450 300 new-list 0;
#X msg 51 79 16;
#X obj 51 101 until;
#X msg 51 167 add2 \$1;
#X msg 89 101 set;
#X obj 51 58 t b b;
#X obj 51 35 inlet;
#X obj 51 192 outlet;
#X obj 102 122 inlet var;
#X obj 94 37 bng 15 250 50 0 empty empty empty 17 7 0 10 -262144 -1
-1;
#X obj 51 144 u_wrandom;
#X connect 0 0 1 0;
#X connect 1 0 9 0;
#X connect 2 0 6 0;
#X connect 3 0 6 0;
#X connect 4 0 0 0;
#X connect 4 1 3 0;
#X connect 5 0 4 0;
#X connect 7 0 9 1;
#X connect 8 0 4 0;
#X connect 9 0 2 0;
#X restore 122 -7 pd new-list;
#X obj 37 -41 inlet;
#X obj 37 -18 t b f;
#X obj 37 262 outlet;
#X obj 122 -34 inlet;
#X obj 185 -34 inlet var;
#X obj 95 -32 bng 15 250 50 0 empty empty empty 17 7 0 10 -262144 -1
-1;
#X obj 64 49 mod 32;
#X msg 37 237 \$15;
#X obj 64 80 moses 16;
#X obj 64 103 mod 8;
#X obj 109 103 mod 8;
#X obj 64 191 + 1;
#X obj 109 126 + 8;
#X obj 197 262 outlet;
#X msg 197 238 \$16;
#X obj 197 190 + 1;
#X msg 197 213 set \, adddollar \$1 \,;
#X text 235 238 Lookahead;
#X connect 0 0 10 0;
#X connect 1 0 10 0;
#X connect 2 0 0 0;
#X connect 3 0 4 0;
#X connect 4 0 0 0;
#X connect 4 1 9 0;
#X connect 6 0 2 0;
#X connect 7 0 2 1;
#X connect 8 0 2 0;
#X connect 9 0 11 0;
#X connect 10 0 5 0;
#X connect 11 0 12 0;
#X connect 11 1 13 0;
#X connect 12 0 14 0;
#X connect 13 0 15 0;
#X connect 14 0 1 0;
#X connect 14 0 18 0;
#X connect 15 0 14 0;
#X connect 17 0 16 0;
#X connect 18 0 19 0;
#X connect 19 0 17 0;
#X restore 38 174 pd new-sequence;
#X msg 154 91 2;
#X obj 38 54 int;
#X obj 38 76 change;
#X obj 38 204 sel 0 1 2;
#X obj 146 234 spigot;
#X obj 179 212 mod 2;
#X obj 38 98 mod 32;
#X obj 38 400 f;
#X msg 38 319 bang;
#X obj 38 530 pack f 127;
#X msg 130 515 Attack 0 \, Release 20;
#X msg 184 91 3 1 1;
#X obj 38 120 moses 4;
#X obj 134 584 loadbang;
#X msg 190 605 1;
#X floatatom 168 559 5 0 0 0 - - -, f 5;
#X msg 134 606 0.95;
#X obj 146 40 loadbang;
#X obj 203 63 r generate-track-\$1;
#X msg 310 285 base \$1;
#X msg 373 313 mode \$1;
#X obj 373 291 r \$1-scale-mode;
#X obj 87 324 r \$1-bass-note-seq;
#X obj 151 257 del 285.334;
#X obj 158 280 del 285.334;
#X msg 312 513 Vib-Depth \$1;
#X floatatom 305 473 5 0 0 0 - - -, f 5;
#X obj 38 444 + 12;
#X obj 38 32 / 4;
#X obj 61 249 del 107;
#X obj 38 422 makenote 127 105;
#X obj 38 10 r \$1-tick;
#X obj 38 620 *~ 0.1;
#X obj 310 239 r \$1-key-centre;
#X obj 310 262 + 36;
#X obj 87 366 m_minorscale;
#X connect 1 0 0 0;
#X connect 1 0 0 1;
#X connect 2 0 1 1;
#X connect 3 0 2 0;
#X connect 4 0 5 0;
#X connect 5 0 49 0;
#X connect 6 0 5 1;
#X connect 7 0 5 1;
#X connect 8 0 27 0;
#X connect 9 0 4 1;
#X connect 10 0 9 0;
#X connect 11 0 10 0;
#X connect 12 0 10 0;
#X connect 14 0 26 0;
#X connect 15 0 14 0;
#X connect 16 0 20 0;
#X connect 17 0 16 1;
#X connect 18 0 19 0;
#X connect 19 0 23 0;
#X connect 20 0 25 0;
#X connect 20 1 25 0;
#X connect 20 1 46 0;
#X connect 20 2 46 0;
#X connect 21 0 25 0;
#X connect 21 0 40 0;
#X connect 22 0 21 1;
#X connect 23 0 22 0;
#X connect 23 0 29 0;
#X connect 24 0 47 0;
#X connect 25 0 24 0;
#X connect 26 0 4 0;
#X connect 27 0 4 1;
#X connect 28 0 16 2;
#X connect 29 1 16 0;
#X connect 30 0 33 0;
#X connect 30 0 31 0;
#X connect 31 0 7 0;
#X connect 32 0 6 0;
#X connect 33 0 6 0;
#X connect 34 0 28 0;
#X connect 34 0 16 1;
#X connect 35 0 28 0;
#X connect 35 0 16 1;
#X connect 36 0 52 1;
#X connect 37 0 52 1;
#X connect 38 0 37 0;
#X connect 39 0 52 0;
#X connect 40 0 25 0;
#X connect 40 0 41 0;
#X connect 41 0 25 0;
#X connect 42 0 4 1;
#X connect 43 0 42 0;
#X connect 44 0 15 0;
#X connect 45 0 18 0;
#X connect 46 0 25 0;
#X connect 47 0 44 0;
#X connect 47 1 26 1;
#X connect 48 0 45 0;
#X connect 49 0 1 0;
#X connect 50 0 51 0;
#X connect 51 0 36 0;
#X connect 52 0 24 1;
#X restore 37 208 pd nuclear-lead;
#X obj 175 160 vsl 15 40 0 1 0 0 empty empty empty 0 -9 0 10 -262144
-1 -1 0 1;
#X obj 175 136 r \$1-juno-vol;
#N canvas 255 28 338 531 juno-lead 0;
#X obj 48 439 *~;
#X obj 63 415 line~;
#X obj 63 371 inlet;
#X obj 48 253 pack f 127;
#X obj 48 229 + 12;
#X obj 48 280 s_ejun;
#N canvas 0 22 586 434 preset 0;
#X msg 93 99 mod3d 0.00787402 \, mod3c 0.015748 \, mod3b 0.141732 \,
mod3a 0.0708661 \, mod2d 0.291339 \, mod2c 0 \, mod2b 0.0708661 \,
mod2a 0.511811 \, mod1d 0.0944882 \, mod1c 0.19685 \, mod1b 0 \, mod1a
0.622047 \, osc3d 0.023622 \, osc3c 0.00787402 \, osc3b 0.015748 \,
osc3a 0.669291 \, osc2d 0.401575 \, osc2c 0.244094 \, osc2b 0.330709
\, osc2a 0.501102 \, osc1d 0.574803 \, osc1c 0.181102 \, osc1b 0.393701
\, osc1a 1 \, env3r 0.00787402 \, env3s 0.409449 \, env3d 0.110236
\, env3a 0.000629921 \, env2r 0 \, env2s 1 \, env2d 0 \, env2a 0 \,
env1r 0 \, env1s 1 \, env1d 0 \, env1a 0 \,;
#X obj 93 225 outlet;
#X obj 93 76 loadbang;
#X connect 0 0 1 0;
#X connect 2 0 0 0;
#X restore 120 252 pd preset;
#X obj 48 44 r \$1-tick;
#X obj 48 66 mod 64;
#X obj 48 162 sel 0;
#X obj 48 207 makenote 127 50;
#X msg 48 184 53;
#X obj 48 140 mod 2;
#X obj 48 108 moses 16;
#X obj 140 180 line;
#X obj 48 88 t f f;
#X obj 140 136 sel 16 24;
#X msg 170 158 13.4 2000;
#X msg 140 158 12;
#X obj 48 343 *~ 1;
#X obj 63 393 * 1.5;
#X obj 48 480 dac~;
#X connect 0 0 21 0;
#X connect 0 0 21 1;
#X connect 1 0 0 1;
#X connect 2 0 20 0;
#X connect 3 0 5 0;
#X connect 4 0 3 0;
#X connect 5 0 19 0;
#X connect 6 0 5 1;
#X connect 7 0 8 0;
#X connect 8 0 15 0;
#X connect 9 0 11 0;
#X connect 10 0 4 0;
#X connect 10 1 3 1;
#X connect 11 0 10 0;
#X connect 12 0 9 0;
#X connect 13 1 12 0;
#X connect 14 0 4 1;
#X connect 15 0 13 0;
#X connect 15 1 16 0;
#X connect 16 0 18 0;
#X connect 16 1 17 0;
#X connect 17 0 14 0;
#X connect 18 0 14 0;
#X connect 19 0 0 0;
#X connect 20 0 1 0;
#X restore 175 208 pd juno-lead;
#X obj 77 271 vsl 15 40 0 1 0 0 empty empty empty 0 -9 0 10 -262144
-1 -1 0 1;
#X obj 77 248 r \$1-air-raid-bass-vol;
#N canvas 1114 155 734 615 air-raid-bass 0;
#X obj 51 346 osc~;
#X obj 51 323 sig~;
#X obj 51 251 mtof;
#X msg 138 204 mode harmonic;
#X obj 109 400 clip~ -1 1;
#X obj 51 273 pack f 100;
#X obj 51 295 line;
#X obj 51 490 *~ 1;
#X obj 138 181 loadbang;
#X obj 51 229 m_minorscale 31;
#X obj 51 430 *~ 1;
#X obj 51 378 *~ 3;
#X obj 109 377 *~ 1.8;
#X obj 201 346 osc~;
#X obj 259 400 clip~ -1 1;
#X obj 201 430 *~ 1;
#X obj 201 378 *~ 3;
#X obj 259 377 *~ 1.8;
#X obj 201 326 *~ 1.00001;
#X obj 284 464 inlet;
#X obj 201 520 *~;
#X obj 51 520 *~;
#X obj 284 508 line~;
#X obj 284 486 pack f 10;
#X obj 51 549 throw~ \$0-LEFT;
#X obj 131 569 throw~ \$0-RIGHT;
#X obj 51 68 r \$0-rotations;
#X obj 72 127 notes 5 31 0 3 5 7 10;
#X connect 0 0 11 0;
#X connect 0 0 12 0;
#X connect 1 0 0 0;
#X connect 1 0 18 0;
#X connect 2 0 5 0;
#X connect 3 0 9 1;
#X connect 4 0 10 0;
#X connect 5 0 6 0;
#X connect 6 0 1 0;
#X connect 7 0 21 0;
#X connect 8 0 3 0;
#X connect 9 0 2 0;
#X connect 10 0 7 0;
#X connect 11 0 10 0;
#X connect 12 0 4 0;
#X connect 13 0 16 0;
#X connect 13 0 17 0;
#X connect 14 0 15 0;
#X connect 15 0 20 0;
#X connect 16 0 15 0;
#X connect 17 0 14 0;
#X connect 18 0 13 0;
#X connect 19 0 23 0;
#X connect 20 0 25 0;
#X connect 21 0 24 0;
#X connect 22 0 20 1;
#X connect 22 0 21 1;
#X connect 23 0 22 0;
#X connect 26 0 27 0;
#X connect 27 0 2 0;
#X restore 77 319 pd air-raid-bass;
#X connect 0 0 2 0;
#X connect 1 0 0 0;
#X connect 3 0 5 0;
#X connect 4 0 3 0;
#X connect 6 0 8 0;
#X connect 7 0 6 0;
#X connect 9 0 11 0;
#X connect 10 0 9 0;
#X restore 34 229 pd synths;
#N canvas 39 22 1151 645 harp-data 1;
#X obj 42 36 dumpOSC 9001;
#X obj 42 58 OSCroute /outputs;
#X obj 42 80 OSCroute /angle1 /angle2 /hall1 /hall2 /rotations /id
;
#X floatatom 168 147 5 0 0 0 - - -, f 5;
#X floatatom 214 167 5 0 0 0 - - -, f 5;
#X floatatom 266 187 5 0 0 0 - - -, f 5;
#X floatatom 343 207 5 0 0 0 - - -, f 5;
#X floatatom 354 227 5 0 0 0 - - -, f 5;
#X obj 42 125 s \$0-angle1;
#X obj 94 145 s \$0-angle2;
#X obj 147 165 s \$0-hall1;
#X obj 199 185 s \$0-hall2;
#X obj 252 205 s \$0-rotations;
#X obj 304 225 s \$0-id;
#X obj 201 222 t f f;
#X obj 201 266 -;
#X obj 201 310 s \$0-velocity;
#X obj 201 288 * -1;
#X obj 73 469 vsl 15 60 0 30 0 0 empty \$0-velocity empty 0 -9 0 10
-261682 -1 -1 0 1;
#X obj 73 529 vsl 15 60 -30 0 0 0 empty \$0-velocity empty 0 -9 0 10
-262130 -1 -1 5900 1;
#X text 92 461 30;
#X text 92 583 -30;
#X text 92 522 0;
#X text 58 442 Velocity;
#X obj 148 469 vsl 15 120 0 70 0 0 empty \$0-rotations empty 0 -9 0
10 -204786 -1 -1 2296 1;
#X text 129 442 Rotations;
#X obj 203 467 yank-out \$0 1 4;
#X obj 203 487 bng 15 250 50 0 empty empty empty 17 7 0 10 -262144
-1 -1;
#X obj 201 244 pipe 250;
#X text 203 442 Quick movements;
#X obj 203 537 bng 15 250 50 0 empty empty empty 17 7 0 10 -262144
-1 -1;
#X obj 203 517 yank-in \$0 1 4;
#X obj 313 467 nbx 3 30 -1e+37 1e+37 0 0 empty \$0-direction empty
0 -8 0 20 -262144 -1 -1 0 256;
#X obj 431 106 r \$0-velocity;
#X obj 431 128 < 0;
#X obj 431 150 change;
#X obj 431 172 sel 1;
#X msg 431 194 -1;
#X obj 431 216 f;
#X obj 531 150 change;
#X obj 531 172 sel 1;
#X obj 531 128 > 0;
#X msg 531 194 1;
#X obj 481 150 change;
#X obj 481 172 sel 1;
#X obj 481 128 == 0;
#X msg 481 194 0;
#X obj 431 238 s \$0-direction;
#X text 311 442 Direction;
#X obj 610 61 r \$0-rotations;
#X obj 610 227 int;
#X obj 610 249 s \$0-section;
#X obj 402 521 section-display \$0 0;
#X obj 610 205 / 10;
#X obj 631 139 t b f;
#X msg 631 161 70;
#X obj 631 183 /;
#X obj 631 103 hradio 30 1 0 10 empty empty empty 0 -8 0 10 -262144
-1 -1 0;
#X obj 610 289 r \$0-section;
#X obj 637 333 change;
#X obj 610 311 sel 0;
#X obj 637 355 s \$0-section-boundary;
#X obj 402 466 nbx 3 30 -1e+37 1e+37 0 0 empty \$0-section empty 0
-8 0 20 -232576 -1 -1 1 256;
#X text 401 446 Section;
#X obj 486 466 bng 45 250 50 0 empty \$0-section-boundary empty 17
7 0 10 -262144 -1 -1;
#X text 484 444 Section boundary;
#X text 630 83 Section divisions;
#X obj 448 521 section-display \$0 1;
#X obj 494 521 section-display \$0 2;
#X obj 540 521 section-display \$0 3;
#X obj 586 521 section-display \$0 4;
#X obj 632 521 section-display \$0 5;
#X obj 678 521 section-display \$0 6;
#X obj 724 521 section-display \$0 7;
#X obj 770 521 section-display \$0 8;
#X obj 816 521 section-display \$0 9;
#X obj 862 521 section-display \$0 10;
#N canvas 497 22 478 612 fakeHarp 0;
#X obj 29 71 vsl 15 400 0 70 0 0 empty empty empty 0 -9 0 10 -232576
-159808 -1 7700 1;
#X obj 29 502 nbx 5 14 -1e+37 1e+37 0 0 empty empty empty 0 -8 0 10
-262144 -1 -1 13.5088 256;
#N canvas 85 38 956 616 sendyStuff 0;
#X obj 28 145 list prepend send /outputs/rotations;
#X obj 28 168 list trim;
#X obj 266 442 sendOSC 9001;
#X msg 416 410 connect 127.0.0.1 9001;
#X obj 70 48 inlet;
#X obj 218 50 inlet;
#X obj 160 221 list trim;
#X obj 160 198 list prepend send /outputs/angle1;
#X obj 339 162 list trim;
#X obj 339 139 list prepend send /outputs/angle2;
#X obj 356 48 inlet;
#X obj 524 231 list trim;
#X obj 524 208 list prepend send /outputs/hall1;
#X obj 587 300 list trim;
#X obj 639 267 list prepend send /outputs/hall2;
#X obj 643 48 inlet;
#X obj 746 69 inlet;
#X connect 0 0 1 0;
#X connect 1 0 2 0;
#X connect 3 0 2 0;
#X connect 4 0 0 0;
#X connect 5 0 7 0;
#X connect 6 0 2 0;
#X connect 7 0 6 0;
#X connect 8 0 2 0;
#X connect 9 0 8 0;
#X connect 10 0 9 0;
#X connect 11 0 2 0;
#X connect 12 0 11 0;
#X connect 13 0 2 0;
#X connect 14 0 13 0;
#X connect 15 0 12 0;
#X connect 16 0 14 0;
#X restore 76 549 pd sendyStuff;
#X obj 113 166 vsl 15 128 3 15 0 0 empty empty empty 0 -9 0 10 -204800
-1 -1 12700 1;
#X obj 113 315 nbx 5 14 -1e+37 1e+37 0 0 empty empty empty 0 -8 0 10
-262144 -1 -1 15 256;
#X obj 203 166 vsl 15 128 3 15 0 0 empty empty empty 0 -9 0 10 -204800
-1 -1 12700 1;
#X obj 203 315 nbx 5 14 -1e+37 1e+37 0 0 empty empty empty 0 -8 0 10
-262144 -1 -1 15 256;
#X text 15 43 Rotations;
#X text 96 139 Angle 1;
#X text 188 137 Angle 2;
#X obj 280 342 tgl 50 0 empty empty empty 17 7 0 10 -204786 -1 -1 0
1;
#X obj 344 342 tgl 50 0 empty empty empty 17 7 0 10 -261682 -1 -1 0
1;
#X text 281 311 Hall 1;
#X text 345 311 Hall 2;
#X connect 0 0 1 0;
#X connect 1 0 2 0;
#X connect 3 0 4 0;
#X connect 4 0 2 1;
#X connect 5 0 6 0;
#X connect 6 0 2 2;
#X connect 10 0 2 3;
#X connect 11 0 2 4;
#X restore 987 103 pd fakeHarp;
#X connect 0 0 1 0;
#X connect 1 0 2 0;
#X connect 2 0 8 0;
#X connect 2 1 3 0;
#X connect 2 1 9 0;
#X connect 2 2 4 0;
#X connect 2 2 10 0;
#X connect 2 3 5 0;
#X connect 2 3 11 0;
#X connect 2 4 6 0;
#X connect 2 4 12 0;
#X connect 2 4 14 0;
#X connect 2 5 7 0;
#X connect 2 5 13 0;
#X connect 14 0 28 0;
#X connect 14 1 15 1;
#X connect 15 0 17 0;
#X connect 17 0 16 0;
#X connect 26 0 27 0;
#X connect 28 0 15 0;
#X connect 31 0 30 0;
#X connect 33 0 34 0;
#X connect 33 0 41 0;
#X connect 33 0 45 0;
#X connect 34 0 35 0;
#X connect 35 0 36 0;
#X connect 36 0 37 0;
#X connect 37 0 38 0;
#X connect 38 0 47 0;
#X connect 39 0 40 0;
#X connect 40 0 42 0;
#X connect 41 0 39 0;
#X connect 42 0 38 0;
#X connect 43 0 44 0;
#X connect 44 0 46 0;
#X connect 45 0 43 0;
#X connect 46 0 38 0;
#X connect 49 0 53 0;
#X connect 50 0 51 0;
#X connect 53 0 50 0;
#X connect 54 0 55 0;
#X connect 54 1 56 1;
#X connect 55 0 56 0;
#X connect 56 0 53 1;
#X connect 57 0 54 0;
#X connect 58 0 60 0;
#X connect 59 0 61 0;
#X connect 60 1 59 0;
#X restore 31 89 pd harp-data;
#X obj 129 190 apocalypse-now \$0;
