#N canvas 463 74 452 478 10;
#X declare -path abs;
#X declare -path audio;
#X declare -path libs/oscx;
#X declare -path rj;
#X declare -path abs/4T-Granulator;
#X declare -path libs/mrpeach;
#X declare -path libs/moocow;
#X declare -path libs/pdstring;
#N canvas 0 22 710 646 io 1;
#X obj 58 36 catch~ \$0-LEFT;
#X obj 158 36 catch~ \$0-RIGHT;
#X obj 58 591 dac~;
#X obj 58 526 *~;
#X obj 158 526 *~;
#X obj 173 502 lop~ 10;
#X obj 173 482 tgl 15 0 empty empty empty 17 7 0 10 -262144 -1 -1 0
1;
#X obj 173 459 loadbang;
#X obj 158 316 e_repeater;
#X obj 58 316 e_repeater;
#X obj 215 246 loadbang;
#X msg 215 269 dry 1;
#X obj 215 291 t a;
#X obj 367 221 + 1;
#X obj 367 243 * 100;
#X msg 190 220 dry \$1;
#X obj 190 176 max 0;
#X obj 190 198 min 1;
#X obj 367 134 int;
#X obj 367 156 change;
#X obj 367 178 / 2;
#X obj 367 200 int;
#X obj 190 154 m_scale 25000 30000 1 0.188;
#X obj 367 92 abs;
#X obj 367 112 m_scale 0 45 6 0;
#X obj 158 424 e_reslop;
#X obj 206 358 hsl 128 15 20 20000 0 0 empty empty empty -2 -8 0 10
-262144 -1 -1 12700 1;
#X obj 58 424 e_reslop;
#X floatatom 214 381 5 0 0 0 - - -, f 5;
#X obj 397 354 int;
#X obj 406 287 nbx 5 40 -1e+37 1e+37 0 0 empty empty empty 0 -8 0 40
-262144 -1 -1 0 256;
#X obj 397 376 min 20000;
#X obj 397 398 max 200;
#X obj 432 444 nbx 5 40 -1e+37 1e+37 0 0 empty empty empty 0 -8 0 40
-262144 -1 -1 0 256;
#X obj 397 420 pack f 100;
#X obj 397 442 line;
#X msg 203 399 freq \$1 \, q 5;
#X obj 397 332 m_scale -50 -19 20000 200;
#X msg 292 318 20000;
#X obj 292 288 loadbang;
#X floatatom 215 92 5 0 0 0 - - -, f 5;
#X obj 313 31 unpack f;
#X obj 215 70 player-output \$0-10;
#X connect 0 0 9 0;
#X connect 1 0 8 0;
#X connect 3 0 2 0;
#X connect 4 0 2 1;
#X connect 5 0 4 1;
#X connect 5 0 3 1;
#X connect 6 0 5 0;
#X connect 7 0 6 0;
#X connect 8 0 25 0;
#X connect 9 0 27 0;
#X connect 10 0 11 0;
#X connect 11 0 12 0;
#X connect 12 0 8 1;
#X connect 12 0 9 1;
#X connect 13 0 14 0;
#X connect 14 0 12 0;
#X connect 15 0 12 0;
#X connect 16 0 17 0;
#X connect 17 0 15 0;
#X connect 18 0 19 0;
#X connect 19 0 20 0;
#X connect 20 0 21 0;
#X connect 21 0 13 0;
#X connect 22 0 16 0;
#X connect 23 0 24 0;
#X connect 24 0 18 0;
#X connect 25 0 4 0;
#X connect 26 0 36 0;
#X connect 26 0 28 0;
#X connect 27 0 3 0;
#X connect 29 0 31 0;
#X connect 31 0 32 0;
#X connect 32 0 33 0;
#X connect 32 0 34 0;
#X connect 34 0 35 0;
#X connect 35 0 26 0;
#X connect 36 0 25 1;
#X connect 36 0 27 1;
#X connect 38 0 26 0;
#X connect 39 0 38 0;
#X connect 41 0 23 0;
#X connect 41 0 30 0;
#X connect 41 0 37 0;
#X connect 42 0 22 0;
#X connect 42 0 40 0;
#X connect 42 1 41 0;
#X restore 18 89 pd io;
#N canvas 0 22 450 300 timebase 0;
#X obj 106 52 loadbang;
#X obj 106 75 tgl 15 0 empty empty empty 17 7 0 10 -262144 -1 -1 1
1;
#X obj 106 119 f;
#X obj 136 119 + 1;
#X obj 106 141 s \$0-tick;
#X obj 106 97 metro 50;
#X connect 0 0 1 0;
#X connect 1 0 5 0;
#X connect 2 0 3 0;
#X connect 2 0 4 0;
#X connect 3 0 2 1;
#X connect 5 0 2 0;
#X restore 18 49 pd timebase;
#N canvas 0 22 454 172 init 0;
#X obj 62 86 declare -path abs;
#X obj 62 126 declare -path audio;
#X obj 62 66 declare -path libs/oscx;
#X obj 62 146 declare -path rj;
#X obj 62 106 declare -path abs/4T-Granulator;
#X obj 317 53 loadbang;
#X msg 317 75 \; pd dsp 1 \;;
#X obj 62 46 declare -path libs/mrpeach;
#X obj 62 26 declare -path libs/moocow;
#X obj 62 6 declare -path libs/pdstring;
#X connect 5 0 6 0;
#X restore 18 29 pd init;
#N canvas 86 181 612 821 Fake-Players 1;
#X obj 92 816 r fakeHarpSend;
#X obj 99 836 loadbang;
#X obj 99 858 del 1000;
#X text 184 817 From FakePlayers sub-patch;
#X obj 92 902 sendOSC 9002;
#X msg 99 879 connect 127.0.0.1 9002;
#X obj 22 18 fakePlayer 101 \$0;
#X obj 22 281 fakePlayer 103 \$0;
#X obj 213 680 fakePlayer 112 \$0;
#X obj 22 149 fakePlayer 102 \$0;
#X obj 23 415 fakePlayer 104 \$0;
#X obj 23 549 fakePlayer 105 \$0;
#X obj 23 680 fakePlayer 106 \$0;
#X obj 212 18 fakePlayer 107 \$0;
#X obj 212 149 fakePlayer 108 \$0;
#X obj 212 281 fakePlayer 109 \$0;
#X obj 213 415 fakePlayer 110 \$0;
#X obj 213 549 fakePlayer 111 \$0;
#X obj 409 79 hsl 160 15 0 40000 0 0 empty empty empty -2 -8 0 10 -232576
-1 -1 0 1;
#X msg 406 99 \; distance-hack-101 \$1 \; distance-hack-102 \$1 \;
distance-hack-103 \$1 \; distance-hack-104 \$1 \;;
#X connect 0 0 4 0;
#X connect 1 0 2 0;
#X connect 2 0 5 0;
#X connect 5 0 4 0;
#X connect 18 0 19 0;
#X restore 18 195 pd Fake-Players;
#X text 87 155 Processing Player data;
#X text 115 195 For debug;
#N canvas 146 330 450 300 global-effects 0;
#X obj 88 125 e_platereverb;
#X obj 88 75 catch~ \$0-PLATEREVERB-L;
#X obj 125 100 catch~ \$0-PLATEREVERB-R;
#X obj 88 156 throw~ \$0-LEFT;
#X obj 125 180 throw~ \$0-RIGHT;
#X connect 0 0 3 0;
#X connect 0 1 4 0;
#X connect 1 0 0 0;
#X connect 2 0 0 1;
#X restore 18 109 pd global-effects;
#N canvas 852 150 621 621 Players 0;
#X obj 387 130 loadbang;
#X obj 387 152 del 1000;
#X obj 380 30 r forwardPlayerData;
#X obj 380 226 sendOSC 9006;
#X msg 455 145 disconnect;
#X obj 380 102 spigot;
#X obj 413 62 tgl 35 0 empty empty To_visualisations 37 17 0 10 -262144
-1 -1 0 1;
#X msg 397 183 connect 255.255.255.255 9003;
#X obj 385 436 sendOSC;
#X msg 397 412 connect 255.255.255.255 9000;
#X msg 393 339 send /inputs/mode/serial/1;
#X msg 385 316 send /inputs/mode/analogue/1;
#X obj 397 368 loadbang;
#X obj 397 390 del 1000;
#X obj 385 286 bng 15 250 50 0 empty empty ALL_OFF 17 7 0 10 -261234
-1 -1;
#X obj 455 286 bng 15 250 50 0 empty empty ALL_ON 17 7 0 10 -204786
-1 -1;
#X text 399 500 La Monte Young;
#X text 399 520 Overtone Analyser;
#X msg 387 203 connect 192.168.1.117 9003;
#X obj 454 110 print;
#X obj 13 13 player-input \$0 102 8002;
#X obj 13 452 player-input \$0 111 8011;
#X obj 13 160 player-input \$0 101 8001;
#X obj 13 306 player-input \$0 106 8006;
#X connect 0 0 1 0;
#X connect 1 0 18 0;
#X connect 2 0 5 0;
#X connect 4 0 3 0;
#X connect 5 0 3 0;
#X connect 6 0 5 1;
#X connect 7 0 3 0;
#X connect 9 0 8 0;
#X connect 10 0 8 0;
#X connect 11 0 8 0;
#X connect 12 0 13 0;
#X connect 13 0 9 0;
#X connect 14 0 11 0;
#X connect 15 0 10 0;
#X connect 18 0 3 0;
#X restore 18 154 pd Players;
#N canvas 231 24 704 817 donger 0;
#X obj 140 420 hh_donger \$0;
#X obj 373 327 f;
#X msg 550 304 4;
#X msg 520 304 6;
#X msg 373 353 repeat-hits-speed \$1;
#X msg 419 254 repeat-hits-on \$1;
#X obj 373 280 sel 1 2 3 4 5 6 7;
#X obj 155 237 sel 0 1 2 3;
#X msg 155 259 -5;
#X msg 183 259 0;
#X obj 162 304 nbx 2 40 -1e+37 1e+37 0 0 empty empty empty 0 -8 0 40
-262144 -1 -1 0 256;
#X obj 155 281 f;
#X obj 140 393 f;
#X obj 168 125 nbx 5 40 -1e+37 1e+37 0 0 empty empty empty 0 -8 0 40
-262144 -1 -1 0 256;
#X obj 155 217 int;
#X obj 140 696 throw~ \$0-LEFT;
#X obj 205 717 throw~ \$0-RIGHT;
#X obj 159 745 throw~ \$0-PLATEREVERB-L;
#X obj 225 765 throw~ \$0-PLATEREVERB-R;
#X obj 98 102 unpack f f;
#X obj 155 196 hysteresis 0.5;
#X obj 155 351 pipe 1000;
#X msg 215 259 4;
#X obj 155 175 m_scale -20 20 0 2;
#X obj 419 214 tgl 35 0 empty empty empty 17 7 0 10 -262144 -1 -1 0
1;
#X msg 209 397 base-note \$1;
#X obj 386 375 nbx 5 40 -1e+37 1e+37 0 0 empty empty empty 0 -8 0 40
-262144 -1 -1 0 256;
#X obj 29 18 inlet;
#X obj 29 40 switch~;
#X floatatom 217 457 5 0 0 0 - - -, f 5;
#N canvas 376 325 331 357 delay 0;
#X obj 47 235 delwrite~ \$0-donger-del 1000;
#X obj 47 257 delread~ \$0-donger-del 125;
#X obj 190 143 pack f 1000;
#X obj 190 165 line;
#X obj 90 110 sel 6 7;
#X obj 90 156 pack f 1000;
#X obj 90 178 line;
#X obj 90 87 change;
#X obj 90 56 f;
#X msg 90 132 250;
#X msg 121 130 125;
#X obj 47 279 *~ 0;
#X obj 190 99 > 5;
#X obj 90 33 inlet;
#X obj 47 211 inlet~;
#X obj 47 301 outlet~;
#X obj 190 122 * 0.15;
#X msg 93 279 0;
#X connect 1 0 11 0;
#X connect 2 0 3 0;
#X connect 4 0 9 0;
#X connect 4 1 10 0;
#X connect 5 0 6 0;
#X connect 6 0 1 0;
#X connect 7 0 4 0;
#X connect 8 0 7 0;
#X connect 8 0 12 0;
#X connect 9 0 5 0;
#X connect 10 0 5 0;
#X connect 11 0 15 0;
#X connect 12 0 16 0;
#X connect 13 0 8 0;
#X connect 14 0 0 0;
#X connect 16 0 2 0;
#X connect 17 0 11 1;
#X restore 236 519 pd delay;
#X obj 419 170 > 300;
#X obj 419 103 abs;
#X msg 550 454 4;
#X msg 520 454 6;
#X msg 490 454 8;
#X msg 460 454 12;
#X msg 433 454 16;
#X msg 403 454 24;
#X msg 373 454 32;
#X msg 373 304 12;
#X msg 403 304 12;
#X msg 433 304 8;
#X msg 460 304 8;
#X msg 490 304 6;
#X obj 419 192 debounce 500;
#X obj 419 125 pack f 100;
#X obj 419 147 line;
#X obj 140 652 *~ 0.35;
#X obj 205 657 *~ 0.35;
#X obj 82 39 player-output \$0-108;
#X text 211 36 <--- Change this to the index of the Player you would
like to use;
#X text 21 394 Not currently used;
#X connect 0 0 30 0;
#X connect 0 0 48 0;
#X connect 0 1 30 0;
#X connect 0 1 49 0;
#X connect 0 2 30 0;
#X connect 0 2 48 0;
#X connect 0 2 49 0;
#X connect 0 3 29 0;
#X connect 1 0 4 0;
#X connect 1 0 26 0;
#X connect 2 0 1 0;
#X connect 3 0 1 0;
#X connect 4 0 0 1;
#X connect 5 0 0 1;
#X connect 6 0 40 0;
#X connect 6 1 41 0;
#X connect 6 2 42 0;
#X connect 6 3 43 0;
#X connect 6 4 44 0;
#X connect 6 5 3 0;
#X connect 6 6 2 0;
#X connect 7 0 8 0;
#X connect 7 1 9 0;
#X connect 7 2 22 0;
#X connect 8 0 11 0;
#X connect 9 0 11 0;
#X connect 11 0 10 0;
#X connect 11 0 21 0;
#X connect 12 0 0 0;
#X connect 14 0 7 0;
#X connect 19 1 13 0;
#X connect 19 1 23 0;
#X connect 20 0 14 0;
#X connect 21 0 12 1;
#X connect 22 0 11 0;
#X connect 23 0 20 0;
#X connect 24 0 5 0;
#X connect 25 0 0 1;
#X connect 27 0 28 0;
#X connect 30 0 48 0;
#X connect 30 0 49 0;
#X connect 31 0 45 0;
#X connect 32 0 46 0;
#X connect 40 0 1 0;
#X connect 41 0 1 0;
#X connect 42 0 1 0;
#X connect 43 0 1 0;
#X connect 44 0 1 0;
#X connect 45 0 24 0;
#X connect 46 0 47 0;
#X connect 47 0 31 0;
#X connect 48 0 15 0;
#X connect 48 0 17 0;
#X connect 49 0 16 0;
#X connect 49 0 18 0;
#X connect 50 1 19 0;
#X connect 50 3 32 0;
#X connect 50 5 6 0;
#X connect 50 5 30 1;
#X restore 278 71 pd donger;
#X obj 278 51 tgl 15 0 empty empty empty 17 7 0 10 -262144 -1 -1 1
1;
#N canvas 383 102 962 804 arp 0;
#X obj 149 181 - 78;
#X obj 164 689 r play-hit;
#X obj 164 733 vline~;
#X obj 149 756 *~;
#X obj 149 159 r \$0-detected-hit-note;
#X obj 149 886 throw~ \$0-drone-comp;
#X obj 199 843 throw~ \$0-LEFT;
#X obj 218 864 throw~ \$0-RIGHT;
#X msg 149 203 bass-note \$1;
#X msg 159 257 arp-delay-time 200 \, arp-notes 0 4 7 11;
#X obj 159 234 loadbang;
#X msg 440 134 arp-range \$1;
#X msg 579 134 arp-direction \$1;
#X msg 227 132 arp-on \$1;
#X msg 298 131 arp-vol \$1;
#X msg 705 323 arp-delay-fb \$1;
#X obj 298 102 min 1;
#X obj 298 72 max 0;
#X obj 440 74 max 5;
#X obj 440 104 min 22;
#X obj 705 233 min 0.98;
#X obj 705 255 max 0;
#X obj 705 81 abs;
#X obj 227 111 > 1000;
#X obj 440 51 m_scale 0 30000 5 22;
#X obj 149 334 hh_arp \$0;
#X obj 298 50 m_scale 0 5000 0 1;
#X obj 552 111 sel 0;
#X obj 149 541 hh_tremolo;
#X obj 206 493 min 1;
#X obj 268 493 max 0;
#X obj 206 471 / 15000;
#X msg 206 515 depth \$1;
#X obj 268 471 m_scale 0 30000 1.5 8.5;
#X msg 268 515 freq \$1;
#X obj 422 493 min 1;
#X msg 422 515 shape \$1;
#X obj 422 451 abs;
#X obj 422 471 m_scale 0 90 0.1 1;
#X floatatom 490 530 5 0 0 0 - - -, f 5;
#X msg 467 496 0;
#X obj 173 305 list prepend arp-notes;
#N canvas 0 22 462 303 tonality 0;
#X obj 58 134 int;
#X obj 58 156 sel 0 1 2 3;
#X obj 58 250 outlet;
#X obj 58 83 r \$0-3-angle1;
#X obj 208 98 nbx 5 40 -1e+37 1e+37 0 0 empty empty empty 0 -8 0 40
-262144 -1 -1 0 256;
#X obj 208 140 nbx 5 40 -1e+37 1e+37 0 0 empty empty empty 0 -8 0 40
-262144 -1 -1 0 256;
#X msg 58 185 0 4 7 11;
#X msg 67 208 0 3 7 10;
#X msg 77 228 0 3 6 10;
#X obj 58 108 m_scale -45 -10 0 3;
#X connect 0 0 1 0;
#X connect 0 0 5 0;
#X connect 1 0 6 0;
#X connect 1 1 6 0;
#X connect 1 2 7 0;
#X connect 1 3 8 0;
#X connect 3 0 4 0;
#X connect 6 0 2 0;
#X connect 7 0 2 0;
#X connect 8 0 2 0;
#X connect 9 0 0 0;
#X restore 173 283 pd tonality;
#X obj 712 105 nbx 5 40 -1e+37 1e+37 0 0 empty empty empty 0 -8 0 40
-262144 -1 -1 7.34694 256;
#X obj 713 277 nbx 5 40 -1e+37 1e+37 0 0 empty empty empty 0 -8 0 40
-262144 -1 -1 0.36 256;
#X obj 199 809 e_pan;
#X obj 255 750 loadbang;
#X obj 422 429 unpack f;
#X obj 231 689 loadbang;
#X obj 28 18 inlet;
#X obj 28 40 switch~;
#X msg 266 560 0;
#X obj 149 778 *~ 1;
#X msg 255 772 0.5;
#X obj 236 346 loadbang;
#X msg 236 368 0;
#X obj 149 390 e_master 10 500;
#X obj 330 672 c_lfo arp-pan 0.04 50 sine;
#X obj 333 794 hsl 128 15 0 1 0 0 empty empty empty -2 -8 0 10 -262144
-1 -1 4273 1;
#X obj 330 695 * 0;
#X obj 330 771 + 0.5;
#X obj 373 725 -;
#X obj 373 747 / 2;
#X obj 373 703 swap 1;
#X obj 345 573 f;
#X obj 149 655 e_scompress;
#X obj 212 609 loadbang;
#X obj 180 583 r~ \$0-drone-comp-sc;
#X msg 292 633 ratio 8;
#X msg 212 633 threshold \$1;
#X obj 180 604 *~ 2;
#X obj 705 151 m_scale 0 20 0 0.98;
#X obj 206 447 player-output \$0-10;
#X obj 705 58 unpack f;
#X obj 705 173 pack f 100;
#X obj 705 195 line;
#X msg 164 711 0.6 4 \, 1 3000 40;
#X obj 199 778 *~ 0.3;
#X obj 298 16 player-output \$0-106;
#X text 424 13 <--- Change this to the index of the Player you would
like to use;
#X text 248 391 <-- Harsh compressor/limiter;
#X obj 95 45 nbx 5 40 -1e+37 1e+37 0 0 empty empty empty 0 -8 0 40
-262144 -1 -1 0 256;
#X obj 207 133 tgl 15 0 empty empty empty 17 7 0 10 -262144 -1 -1 0
1;
#X connect 1 0 76 0;
#X connect 2 0 3 1;
#X connect 3 0 52 0;
#X connect 3 0 77 0;
#X connect 4 0 0 0;
#X connect 8 0 25 0;
#X connect 9 0 25 0;
#X connect 10 0 9 0;
#X connect 11 0 25 0;
#X connect 12 0 25 0;
#X connect 13 0 25 0;
#X connect 14 0 25 0;
#X connect 15 0 25 0;
#X connect 16 0 14 0;
#X connect 17 0 16 0;
#X connect 18 0 19 0;
#X connect 19 0 11 0;
#X connect 20 0 21 0;
#X connect 21 0 15 0;
#X connect 21 0 44 0;
#X connect 21 0 64 0;
#X connect 22 0 43 0;
#X connect 22 0 71 0;
#X connect 23 0 13 0;
#X connect 23 0 82 0;
#X connect 24 0 18 0;
#X connect 25 0 56 0;
#X connect 26 0 17 0;
#X connect 27 1 12 0;
#X connect 28 0 65 0;
#X connect 29 0 32 0;
#X connect 30 0 34 0;
#X connect 31 0 29 0;
#X connect 32 0 28 1;
#X connect 33 0 30 0;
#X connect 34 0 28 1;
#X connect 35 0 39 0;
#X connect 36 0 28 1;
#X connect 37 0 38 0;
#X connect 38 0 35 0;
#X connect 40 0 36 0;
#X connect 41 0 25 0;
#X connect 42 0 41 0;
#X connect 45 0 6 0;
#X connect 45 1 7 0;
#X connect 46 0 53 0;
#X connect 47 0 37 0;
#X connect 48 0 76 0;
#X connect 49 0 50 0;
#X connect 51 0 32 0;
#X connect 52 0 5 0;
#X connect 53 0 45 1;
#X connect 54 0 55 0;
#X connect 55 0 56 2;
#X connect 56 0 28 0;
#X connect 57 0 59 0;
#X connect 59 0 60 0;
#X connect 60 0 45 1;
#X connect 60 0 58 0;
#X connect 61 0 62 0;
#X connect 62 0 60 1;
#X connect 63 0 61 0;
#X connect 63 1 61 1;
#X connect 64 0 63 0;
#X connect 64 0 59 1;
#X connect 65 0 3 0;
#X connect 66 0 68 0;
#X connect 66 0 69 0;
#X connect 67 0 70 0;
#X connect 68 0 65 2;
#X connect 69 0 65 2;
#X connect 70 0 65 1;
#X connect 71 0 74 0;
#X connect 72 0 31 0;
#X connect 72 0 33 0;
#X connect 72 1 47 0;
#X connect 73 0 22 0;
#X connect 74 0 75 0;
#X connect 75 0 20 0;
#X connect 76 0 2 0;
#X connect 77 0 45 0;
#X connect 78 0 26 0;
#X connect 78 0 24 0;
#X connect 78 0 23 0;
#X connect 78 0 81 0;
#X connect 78 1 73 0;
#X connect 78 4 27 0;
#X restore 278 118 pd arp;
#X obj 278 98 tgl 15 0 empty empty empty 17 7 0 10 -262144 -1 -1 1
1;
#N canvas 292 69 988 856 velocity 0;
#X obj 72 283 abs;
#X msg 293 346 noise-burst 1;
#X msg 171 231 interval \$1;
#X obj 72 389 hh_velocity-synth;
#X msg 208 347 base-note \$1;
#X obj 208 303 r \$0-detected-hit-note;
#X obj 72 791 throw~ \$0-LEFT;
#X obj 99 811 throw~ \$0-RIGHT;
#X obj 165 791 throw~ \$0-PLATEREVERB-L;
#X obj 198 811 throw~ \$0-PLATEREVERB-R;
#X obj 168 767 throw~ \$0-drone-comp-sc;
#X obj 72 326 min 1;
#X obj 72 348 max 0;
#X obj 72 650 hh_tremolo;
#X obj 191 604 max 0;
#X msg 129 626 depth \$1;
#X obj 191 582 m_scale 0 30000 1.5 8.5;
#X msg 191 626 freq \$1;
#X obj 345 604 min 1;
#X msg 345 626 shape \$1;
#X obj 345 562 abs;
#X obj 345 582 m_scale 0 90 0.1 1;
#X floatatom 401 610 5 0 0 0 - - -, f 5;
#X obj 204 185 nbx 2 40 -1e+37 1e+37 0 0 empty empty empty 0 -8 0 40
-262144 -1 -1 0 256;
#X floatatom 79 371 5 0 0 0 - - -, f 5;
#X obj 171 136 sel 0 1 2 3;
#X msg 171 161 -5;
#X msg 199 161 0;
#X obj 171 183 f;
#X msg 231 161 4;
#X obj 72 743 e_pan;
#X obj 99 699 loadbang;
#X msg 99 721 0.3;
#X obj 199 517 unpack f f;
#X obj 171 88 m_scale 0 30000 0 3;
#X msg 261 161 7;
#X obj 171 113 int;
#X obj 171 209 - 12;
#X obj 293 324 yank-in \$0-103 30000;
#X floatatom 252 615 5 0 0 0 - - -, f 5;
#X obj 129 582 max 0;
#X obj 129 604 min 0.8;
#X obj 203 549 m_scale -10 10 12 2;
#X obj 521 231 bng 45 250 50 0 empty empty empty 17 7 0 10 -262144
-1 -1;
#X obj 521 283 tgl 45 0 empty empty empty 17 7 0 10 -262144 -1 -1 0
1;
#X obj 72 304 m_scale 0 40000 0 1 1;
#X obj 28 18 inlet;
#X obj 28 40 switch~;
#N canvas 0 22 443 453 pluck-noise 0;
#X obj 95 191 osc~ 880;
#X obj 95 285 *~;
#X obj 161 207 vline~;
#X obj 95 117 mtof;
#X obj 95 169 sig~;
#X obj 95 70 sel 0 1;
#X obj 95 139 t f b;
#X msg 95 92 90;
#X msg 125 92 94;
#X obj 95 307 e_reverb;
#X obj 95 329 e_chorus;
#X floatatom 170 278 5 0 0 0 - - -, f 5;
#X msg 161 177 1 1000 \, 0 2000 1000;
#X msg 156 259 dry 0.8;
#X obj 173 228 loadbang;
#X msg 158 308 freq 17;
#X msg 181 332 mod 1;
#X obj 95 44 inlet;
#X obj 95 351 outlet~;
#X obj 95 263 *~ 0.15;
#X connect 0 0 19 0;
#X connect 1 0 9 0;
#X connect 2 0 1 1;
#X connect 3 0 6 0;
#X connect 4 0 0 0;
#X connect 5 0 7 0;
#X connect 5 1 8 0;
#X connect 6 0 4 0;
#X connect 6 1 12 0;
#X connect 7 0 3 0;
#X connect 8 0 3 0;
#X connect 9 0 10 0;
#X connect 10 0 18 0;
#X connect 10 1 18 0;
#X connect 11 0 15 0;
#X connect 12 0 2 0;
#X connect 13 0 9 1;
#X connect 14 0 13 0;
#X connect 14 0 15 0;
#X connect 14 0 16 0;
#X connect 15 0 10 1;
#X connect 16 0 10 1;
#X connect 17 0 5 0;
#X connect 19 0 1 0;
#X restore 521 389 pd pluck-noise;
#X obj 129 556 line;
#X obj 129 534 pack f 1500;
#X obj 168 747 s~ \$0-drone-comp-sc;
#X obj 522 159 nbx 5 40 -1e+37 1e+37 0 0 empty empty empty 0 -8 0 40
-262144 -1 -1 0 256;
#X obj 521 206 pluck 1500;
#X floatatom 116 675 5 0 0 0 - - -, f 5;
#X obj 72 673 *~ 5;
#X obj 171 27 player-output \$0-109;
#X text 297 21 <--- Change this to the index of the Player you would
like to use;
#X text 587 208 <-- unreliable at the moment so can be triggered manually
with toggle box below;
#X text 575 299 Turns tremolo on/off;
#X connect 0 0 45 0;
#X connect 1 0 3 1;
#X connect 2 0 3 1;
#X connect 3 0 13 0;
#X connect 3 1 13 0;
#X connect 4 0 3 1;
#X connect 5 0 4 0;
#X connect 11 0 12 0;
#X connect 12 0 3 0;
#X connect 12 0 24 0;
#X connect 13 0 55 0;
#X connect 14 0 17 0;
#X connect 15 0 13 1;
#X connect 16 0 14 0;
#X connect 17 0 13 1;
#X connect 18 0 19 0;
#X connect 19 0 13 1;
#X connect 20 0 21 0;
#X connect 21 0 18 0;
#X connect 21 0 22 0;
#X connect 25 0 26 0;
#X connect 25 1 27 0;
#X connect 25 2 29 0;
#X connect 25 3 35 0;
#X connect 26 0 28 0;
#X connect 27 0 28 0;
#X connect 28 0 37 0;
#X connect 28 0 23 0;
#X connect 29 0 28 0;
#X connect 30 0 6 0;
#X connect 30 0 8 0;
#X connect 30 1 7 0;
#X connect 30 1 9 0;
#X connect 31 0 32 0;
#X connect 32 0 30 1;
#X connect 33 1 20 0;
#X connect 33 1 42 0;
#X connect 34 0 36 0;
#X connect 35 0 28 0;
#X connect 36 0 25 0;
#X connect 37 0 2 0;
#X connect 38 0 1 0;
#X connect 39 0 17 0;
#X connect 40 0 41 0;
#X connect 41 0 15 0;
#X connect 42 0 17 0;
#X connect 44 0 50 0;
#X connect 44 0 48 0;
#X connect 45 0 11 0;
#X connect 46 0 47 0;
#X connect 48 0 13 0;
#X connect 49 0 40 0;
#X connect 50 0 49 0;
#X connect 53 0 43 0;
#X connect 54 0 55 1;
#X connect 55 0 10 0;
#X connect 55 0 30 0;
#X connect 55 0 51 0;
#X connect 56 0 34 0;
#X connect 56 1 33 0;
#X connect 56 2 52 0;
#X connect 56 2 53 0;
#X connect 56 3 0 0;
#X restore 278 165 pd velocity;
#X obj 278 145 tgl 15 0 empty empty empty 17 7 0 10 -262144 -1 -1 1
1;
#N canvas 234 23 1189 652 drone 0;
#X obj 48 329 hh_drone;
#X obj 48 456 e_scompress;
#X msg 111 434 threshold 25;
#X obj 111 410 loadbang;
#X msg 191 434 ratio 4;
#X msg 255 262 interval \$1;
#X obj 93 283 loadbang;
#X msg 198 243 mix \$1;
#X obj 48 580 throw~ \$0-LEFT;
#X obj 67 601 throw~ \$0-RIGHT;
#X obj 142 578 throw~ \$0-PLATEREVERB-L;
#X obj 168 601 throw~ \$0-PLATEREVERB-R;
#X obj 48 248 r \$0-detected-hit-note;
#X obj 79 394 catch~ \$0-drone-comp-sc;
#X obj 80 351 catch~ \$0-drone-comp;
#X msg 93 305 distortion-amt 2.5 \, distortion-wet 0.5;
#X obj 255 160 m_speedlimit 10;
#X obj 198 151 min 1;
#X obj 198 108 / 15000;
#X obj 255 212 min 8;
#X obj 255 234 max -9;
#X obj 198 130 max 0;
#X floatatom 56 272 5 0 0 0 - - -, f 5;
#X obj 253 439 min 1;
#X obj 315 439 max 0;
#X obj 253 417 / 15000;
#X msg 253 461 depth \$1;
#X obj 315 417 m_scale 0 30000 1.5 8.5;
#X msg 315 461 freq \$1;
#X obj 48 507 hh_tremolo;
#X obj 461 439 min 1;
#X msg 461 461 shape \$1;
#X obj 461 397 abs;
#X obj 255 190 m_scale -90 90 -9 8;
#X obj 356 227 nbx 5 40 -1e+37 1e+37 0 0 empty empty empty 0 -8 0 40
-262144 -1 -1 0 256;
#X obj 356 277 nbx 5 40 -1e+37 1e+37 0 0 empty empty empty 0 -8 0 40
-262144 -1 -1 0 256;
#X obj 198 173 pow 2;
#X obj 255 139 unpack f f;
#X obj 461 375 unpack f;
#X obj 461 418 m_scale 0 90 0.1 1;
#X obj 50 198 nbx 5 40 -1e+37 1e+37 0 0 empty empty empty 0 -8 0 40
-262144 -1 -1 0 256;
#X obj 683 380 sig~;
#X obj 683 307 mtof;
#X obj 683 446 *~;
#X obj 900 411 vline~;
#X obj 683 402 s_osc \$0-hit-drone tri;
#X obj 683 351 line;
#X floatatom 757 372 5 0 0 0 - - -, f 5;
#X obj 683 189 m_scale 0 30000 0 6;
#X obj 683 211 int;
#X obj 683 233 change;
#X obj 759 309 nbx 5 40 -1e+37 1e+37 0 0 empty empty empty 0 -8 0 40
-262144 -1 -1 0 256;
#X obj 683 329 pack f 250;
#X obj 900 330 max 0;
#X obj 900 352 min 1;
#X obj 280 88 nbx 5 40 -1e+37 1e+37 0 0 empty empty empty 0 -8 0 40
-262144 -1 -1 0 256;
#X obj 951 341 nbx 5 40 -1e+37 1e+37 0 0 empty empty empty 0 -8 0 40
-262144 -1 -1 0 256;
#X obj 747 498 delwrite~ \$0-drone-melody 1000;
#X floatatom 711 467 5 0 0 0 - - -, f 5;
#X obj 683 281 notes 6 66 0 2 4 5 7 11;
#X obj 860 184 noise~;
#X obj 860 206 hip~ 1500;
#X obj 860 226 hip~ 1000;
#X obj 698 498 *~ 0.75;
#X obj 747 520 delread~ \$0-drone-melody 300;
#X obj 892 274 abs;
#X obj 900 374 pack f 500;
#X obj 900 308 m_scale 0 15000 0 1;
#X obj 860 248 *~ 0.0125;
#X obj 683 424 *~ 0.1;
#X obj 635 566 *~ 1.47;
#X obj 263 492 nbx 5 40 -1e+37 1e+37 0 0 empty empty empty 0 -8 0 40
-262144 -1 -1 0 256;
#X obj 262 366 nbx 5 40 -1e+37 1e+37 0 0 empty empty empty 0 -8 0 40
-262144 -1 -1 0 256;
#X obj 45 45 inlet;
#X obj 45 67 switch~;
#X floatatom 202 264 5 0 0 0 - - -, f 5;
#X obj 653 521 tgl 15 0 empty empty empty 17 7 0 10 -262144 -1 -1 0
1;
#X msg 372 455 0;
#X obj 48 531 *~ 2;
#X obj 253 341 player-output \$0-113;
#X obj 625 546 *~ 0.7;
#X obj 198 16 player-output \$0-108;
#X text 326 9 <--- Change this to the index of the Player you would
like to use;
#X text 732 130 Velocity synth;
#X text 109 74 Drone;
#X connect 0 0 1 0;
#X connect 0 0 1 1;
#X connect 1 0 29 0;
#X connect 2 0 1 2;
#X connect 3 0 4 0;
#X connect 3 0 2 0;
#X connect 4 0 1 2;
#X connect 5 0 0 1;
#X connect 6 0 15 0;
#X connect 7 0 0 1;
#X connect 12 0 0 0;
#X connect 12 0 22 0;
#X connect 13 0 1 1;
#X connect 14 0 1 0;
#X connect 15 0 0 1;
#X connect 16 0 34 0;
#X connect 16 0 33 0;
#X connect 17 0 36 0;
#X connect 17 0 40 0;
#X connect 18 0 21 0;
#X connect 19 0 20 0;
#X connect 20 0 5 0;
#X connect 20 0 35 0;
#X connect 21 0 17 0;
#X connect 23 0 26 0;
#X connect 23 0 71 0;
#X connect 24 0 28 0;
#X connect 25 0 23 0;
#X connect 26 0 29 1;
#X connect 27 0 24 0;
#X connect 28 0 29 1;
#X connect 29 0 78 0;
#X connect 30 0 31 0;
#X connect 31 0 29 1;
#X connect 32 0 39 0;
#X connect 33 0 19 0;
#X connect 36 0 7 0;
#X connect 37 1 16 0;
#X connect 38 0 32 0;
#X connect 39 0 30 0;
#X connect 41 0 45 0;
#X connect 42 0 52 0;
#X connect 43 0 57 0;
#X connect 43 0 80 0;
#X connect 44 0 43 1;
#X connect 45 0 69 0;
#X connect 46 0 41 0;
#X connect 47 0 44 0;
#X connect 48 0 49 0;
#X connect 49 0 50 0;
#X connect 50 0 51 0;
#X connect 50 0 59 0;
#X connect 52 0 46 0;
#X connect 53 0 54 0;
#X connect 54 0 56 0;
#X connect 54 0 66 0;
#X connect 58 0 63 1;
#X connect 59 0 42 0;
#X connect 60 0 61 0;
#X connect 61 0 62 0;
#X connect 62 0 68 0;
#X connect 63 0 57 0;
#X connect 63 0 80 0;
#X connect 64 0 63 0;
#X connect 65 0 67 0;
#X connect 66 0 44 0;
#X connect 67 0 53 0;
#X connect 68 0 69 0;
#X connect 69 0 43 0;
#X connect 70 0 10 0;
#X connect 70 0 11 0;
#X connect 73 0 74 0;
#X connect 75 0 7 0;
#X connect 76 0 80 1;
#X connect 77 0 26 0;
#X connect 78 0 8 0;
#X connect 78 0 9 0;
#X connect 78 0 10 0;
#X connect 78 0 11 0;
#X connect 79 0 25 0;
#X connect 79 0 27 0;
#X connect 79 0 72 0;
#X connect 79 1 38 0;
#X connect 80 0 70 0;
#X connect 80 0 78 0;
#X connect 81 0 18 0;
#X connect 81 0 48 0;
#X connect 81 1 37 0;
#X connect 81 3 55 0;
#X connect 81 3 65 0;
#X restore 279 212 pd drone;
#X obj 279 191 tgl 15 0 empty empty empty 17 7 0 10 -262144 -1 -1 1
1;
#N canvas 620 67 380 832 combined-axes 0;
#X obj 62 167 +;
#X obj 62 217 +;
#X obj 62 267 +;
#X obj 62 317 +;
#X obj 62 367 +;
#X obj 62 417 +;
#X obj 62 467 +;
#X obj 62 517 +;
#X obj 62 567 +;
#X obj 62 617 +;
#X obj 62 667 +;
#X obj 62 117 +;
#X obj 62 40 r \$0-tick;
#X msg 62 62 bang;
#X obj 62 770 s \$0-combined-distance;
#X obj 122 117 +;
#X obj 122 167 +;
#X obj 122 217 +;
#X obj 122 267 +;
#X obj 122 317 +;
#X obj 122 367 +;
#X obj 122 417 +;
#X obj 122 467 +;
#X obj 122 517 +;
#X obj 122 567 +;
#X obj 122 617 +;
#X obj 122 667 +;
#X msg 122 62 bang;
#X obj 122 749 s \$0-combined-velocity;
#X floatatom 70 730 7 0 0 0 - - -, f 7;
#X floatatom 130 730 7 0 0 0 - - -, f 7;
#X obj 172 117 +;
#X obj 172 167 +;
#X obj 172 217 +;
#X obj 172 267 +;
#X obj 172 317 +;
#X obj 172 367 +;
#X obj 172 417 +;
#X obj 172 467 +;
#X obj 172 517 +;
#X obj 172 567 +;
#X obj 172 617 +;
#X obj 172 667 +;
#X msg 172 62 bang;
#X floatatom 180 690 7 0 0 0 - - -, f 7;
#X obj 172 709 s \$0-combined-direction;
#X obj 87 140 player-output \$0-102;
#X obj 87 190 player-output \$0-103;
#X obj 87 240 player-output \$0-104;
#X obj 87 290 player-output \$0-105;
#X obj 87 390 player-output \$0-107;
#X obj 87 340 player-output \$0-106;
#X obj 87 440 player-output \$0-108;
#X obj 87 490 player-output \$0-109;
#X obj 87 540 player-output \$0-110;
#X obj 87 590 player-output \$0-111;
#X obj 87 640 player-output \$0-112;
#X obj 87 90 player-output \$0-101;
#X connect 0 0 1 0;
#X connect 1 0 2 0;
#X connect 2 0 3 0;
#X connect 3 0 4 0;
#X connect 4 0 5 0;
#X connect 5 0 6 0;
#X connect 6 0 7 0;
#X connect 7 0 8 0;
#X connect 8 0 9 0;
#X connect 9 0 10 0;
#X connect 10 0 14 0;
#X connect 10 0 29 0;
#X connect 11 0 0 0;
#X connect 12 0 13 0;
#X connect 12 0 27 0;
#X connect 12 0 43 0;
#X connect 13 0 11 0;
#X connect 15 0 16 0;
#X connect 16 0 17 0;
#X connect 17 0 18 0;
#X connect 18 0 19 0;
#X connect 19 0 20 0;
#X connect 20 0 21 0;
#X connect 21 0 22 0;
#X connect 22 0 23 0;
#X connect 23 0 24 0;
#X connect 24 0 25 0;
#X connect 25 0 26 0;
#X connect 26 0 28 0;
#X connect 26 0 30 0;
#X connect 27 0 15 0;
#X connect 31 0 32 0;
#X connect 32 0 33 0;
#X connect 33 0 34 0;
#X connect 34 0 35 0;
#X connect 35 0 36 0;
#X connect 36 0 37 0;
#X connect 37 0 38 0;
#X connect 38 0 39 0;
#X connect 39 0 40 0;
#X connect 40 0 41 0;
#X connect 41 0 42 0;
#X connect 42 0 44 0;
#X connect 42 0 45 0;
#X connect 43 0 31 0;
#X connect 46 0 0 1;
#X connect 46 3 16 1;
#X connect 46 4 32 1;
#X connect 47 0 1 1;
#X connect 47 3 17 1;
#X connect 47 4 33 1;
#X connect 48 0 2 1;
#X connect 48 3 18 1;
#X connect 48 4 34 1;
#X connect 49 0 3 1;
#X connect 49 3 19 1;
#X connect 49 4 35 1;
#X connect 50 0 5 1;
#X connect 50 3 21 1;
#X connect 50 4 37 1;
#X connect 51 0 4 1;
#X connect 51 3 20 1;
#X connect 51 4 36 1;
#X connect 52 0 6 1;
#X connect 52 3 22 1;
#X connect 52 4 38 1;
#X connect 53 0 7 1;
#X connect 53 3 23 1;
#X connect 53 4 39 1;
#X connect 54 0 8 1;
#X connect 54 3 24 1;
#X connect 54 4 40 1;
#X connect 55 0 9 1;
#X connect 55 3 25 1;
#X connect 55 4 41 1;
#X connect 56 0 10 1;
#X connect 56 3 26 1;
#X connect 56 4 42 1;
#X connect 57 0 11 1;
#X connect 57 3 15 1;
#X connect 57 4 31 1;
#X restore 18 216 pd combined-axes;
#N canvas 521 279 486 469 tonality 0;
#X obj 42 423 s \$0-detected-hit-note;
#X obj 138 376 loadbang;
#X msg 138 398 78;
#X msg 42 397 73;
#X msg 72 397 78;
#X msg 102 397 82;
#X obj 42 253 change;
#X obj 42 374 sel 0 1 2;
#X obj 42 39 r \$0-combined-distance;
#X obj 42 84 line;
#X obj 42 62 pack f 300;
#X obj 42 231 > 105000;
#X obj 61 167 hsl 200 45 0 150000 0 0 empty empty empty -2 -8 0 10
-262144 -1 -1 14593 1;
#X obj 61 147 hsl 200 45 0 150000 0 0 empty empty empty -2 -8 0 10
-262144 -1 -1 5841 1;
#X obj 113 61 loadbang;
#X obj 261 334 tgl 45 0 empty empty empty 17 7 0 10 -262144 -1 -1 0
1;
#X obj 42 275 sel 0 1;
#X obj 83 305 tgl 15 0 empty empty empty 17 7 0 10 -262144 -1 -1 0
1;
#X obj 83 327 + 1;
#X msg 42 297 0;
#X floatatom 83 349 5 0 0 0 - - -, f 5;
#X floatatom 102 217 9 0 0 0 - - -, f 9;
#X msg 113 85 110000;
#X floatatom 302 140 9 0 0 0 - - -, f 9;
#X obj 199 56 hsl 200 45 0 150000 0 0 empty empty empty -2 -8 0 10
-262144 -1 -1 0 1;
#X floatatom 302 154 9 0 0 0 - - -, f 9;
#X obj 302 118 hysteresis 1000;
#X connect 1 0 2 0;
#X connect 2 0 0 0;
#X connect 3 0 0 0;
#X connect 4 0 0 0;
#X connect 5 0 0 0;
#X connect 6 0 15 0;
#X connect 6 0 16 0;
#X connect 7 0 4 0;
#X connect 7 1 3 0;
#X connect 7 2 5 0;
#X connect 8 0 10 0;
#X connect 9 0 11 0;
#X connect 9 0 13 0;
#X connect 9 0 21 0;
#X connect 10 0 9 0;
#X connect 11 0 6 0;
#X connect 14 0 22 0;
#X connect 16 0 19 0;
#X connect 16 1 17 0;
#X connect 17 0 18 0;
#X connect 18 0 7 0;
#X connect 18 0 20 0;
#X connect 19 0 7 0;
#X connect 22 0 12 0;
#X connect 22 0 11 1;
#X connect 24 0 25 0;
#X connect 24 0 26 0;
#X connect 26 0 23 0;
#X restore 18 237 pd tonality;
#X text 23 290 To re-assign which Players this patch uses;
#X text 23 310 1 Open [pd Players] above;
#X text 23 330 2 Set the index and port numbers at the top of the [player-input]
patches to the Players you are using;
#X text 23 364 3 In each of the sound-generator sub-patches on the
right \, change the index number of the [player-output] sub-patches
to the Player you would like to use for that behaviour;
#X text 276 27 Sound-generators/behaviours;
#X text 23 408 4 Switch the sound-generator on with the toggle above
the sub-patch in this window;
#X connect 9 0 8 0;
#X connect 11 0 10 0;
#X connect 13 0 12 0;
#X connect 15 0 14 0;
