#N canvas 214 36 1119 579 10;
#X declare -path abs;
#X declare -path audio;
#X declare -path libs/oscx;
#X declare -path rj;
#N canvas 0 22 450 300 io 0;
#X obj 113 237 dac~;
#X obj 113 192 *~;
#X obj 213 192 *~;
#X obj 228 168 lop~ 10;
#X obj 228 148 tgl 15 0 empty empty empty 17 7 0 10 -262144 -1 -1 1
1;
#X obj 228 125 loadbang;
#X obj 113 82 catch~ \$0-LEFT;
#X obj 213 82 catch~ \$0-RIGHT;
#X connect 1 0 0 0;
#X connect 2 0 0 1;
#X connect 3 0 2 1;
#X connect 3 0 1 1;
#X connect 4 0 3 0;
#X connect 5 0 4 0;
#X connect 6 0 1 0;
#X connect 7 0 2 0;
#X restore 33 39 pd io;
#N canvas 0 22 450 300 timebase 0;
#X obj 106 52 loadbang;
#X obj 106 75 tgl 15 0 empty empty empty 17 7 0 10 -262144 -1 -1 1
1;
#X obj 106 97 metro 250;
#X obj 106 119 f;
#X obj 136 119 + 1;
#X obj 106 141 s \$0-tick;
#X connect 0 0 1 0;
#X connect 1 0 2 0;
#X connect 2 0 3 0;
#X connect 3 0 4 0;
#X connect 3 0 5 0;
#X connect 4 0 3 1;
#X restore 33 60 pd timebase;
#N canvas 0 22 450 300 init 0;
#X obj 62 56 declare -path abs;
#X obj 62 76 declare -path audio;
#X obj 62 36 declare -path libs/oscx;
#X obj 62 96 declare -path rj;
#X restore 33 18 pd init;
#N canvas 784 175 1033 596 synths 0;
#X obj 38 61 vsl 15 40 0 1 0 0 empty empty empty 0 -9 0 10 -262144
-1 -1 0 1;
#X obj 38 37 r \$1-super-saw-vol;
#N canvas 254 22 676 804 super-saw-vol 0;
#X obj 39 770 dac~;
#X obj 39 748 *~;
#X obj 54 724 line~;
#X obj 54 680 inlet;
#X obj 39 573 pack f 127;
#X obj 39 493 f;
#X obj 39 515 +;
#X obj 119 573 pack f 127;
#X obj 119 545 + 11.8;
#X obj 257 421 t b b;
#X msg 215 398 0;
#X msg 284 443 12;
#X obj 257 399 del 26.78;
#X obj 196 374 t b b b;
#X obj 39 29 r \$1-bass-note;
#X obj 196 340 spigot;
#X obj 39 600 super-saw;
#X obj 84 355 - 12;
#X msg 39 405 \$1;
#X obj 39 355 t a a;
#X msg 84 401 \$1 1000;
#X obj 84 331 spigot;
#X obj 39 262 t f f b;
#X obj 117 311 tgl 15 0 empty empty empty 17 7 0 10 -262144 -1 -1 0
1;
#X obj 84 288 spigot;
#X obj 117 230 random 2;
#X obj 229 315 r \$1-super-saw-arp;
#X obj 155 702 delwrite~ \$1-super-saw-del 1000;
#X obj 109 712 *~ 0.4;
#X obj 155 724 delread~ \$1-super-saw-del 428.571;
#X obj 197 517 r generate-track-\$1;
#X obj 197 539 random 4;
#X obj 197 561 sel 0 1 2 3;
#X msg 197 583 428.571;
#X msg 213 603 214.286;
#X obj 197 670 f;
#X msg 227 623 160.714;
#X msg 243 643 107.143;
#X obj 373 580 /;
#X msg 373 548 1;
#X msg 373 603 freq \$1;
#X msg 452 597 shape 0;
#X obj 452 574 loadbang;
#X msg 407 547 0.107143;
#X msg 527 596 depth \$1;
#X floatatom 530 569 5 0 0 0 - - -, f 5;
#X obj 258 74 mod 64;
#X obj 119 600 super-saw;
#X obj 39 631 clip~ -1 1;
#X obj 258 202 list prepend;
#X obj 258 224 list trim;
#X obj 258 246 route 0 1;
#X obj 258 54 spigot;
#X obj 39 101 spigot;
#X obj 72 79 == 0;
#X obj 72 56 r \$1-super-saw-note-source;
#X obj 334 19 r \$1-super-saw-note-source;
#X obj 334 42 == 1;
#X obj 413 223 r generate-track-\$1;
#X obj 413 245 random 2;
#X obj 413 268 s \$1-super-saw-note-source;
#X obj 339 158 r generate-track-\$1;
#X obj 339 180 random 2;
#X obj 258 96 sel 0 32;
#X obj 84 379 pipe 1000;
#X obj 39 457 line 64 20;
#X obj 139 256 tgl 15 0 empty empty empty 17 7 0 10 -262144 -1 -1 0
1;
#X obj 54 702 * 0.1;
#X obj 429 206 bng 15 250 50 0 empty empty empty 17 7 0 10 -262144
-1 -1;
#X obj 282 294 tgl 15 0 empty empty empty 17 7 0 10 -262144 -1 -1 0
1;
#X obj 39 131 + 12;
#X obj 374 100 r \$1-super-saw-octave;
#X obj 258 182 pack f 220;
#X obj 258 150 +;
#X obj 39 181 +;
#X obj 55 156 r \$1-super-saw-octave;
#X obj 145 287 tgl 15 0 empty empty empty 17 7 0 10 -262144 -1 -1 0
1;
#X obj 130 191 sel 0 1;
#X msg 112 210 1;
#X obj 316 625 e_tremolo2;
#X msg 258 118 72;
#X msg 292 118 60;
#X obj 258 32 r \$0-tick;
#X obj 196 287 r \$0-tick;
#X connect 1 0 0 0;
#X connect 1 0 0 1;
#X connect 2 0 1 1;
#X connect 3 0 67 0;
#X connect 4 0 16 0;
#X connect 5 0 6 0;
#X connect 6 0 4 0;
#X connect 6 0 8 0;
#X connect 7 0 47 0;
#X connect 8 0 7 0;
#X connect 9 0 5 0;
#X connect 9 1 11 0;
#X connect 10 0 6 1;
#X connect 11 0 6 1;
#X connect 12 0 9 0;
#X connect 13 0 5 0;
#X connect 13 1 10 0;
#X connect 13 2 12 0;
#X connect 14 0 53 0;
#X connect 15 0 13 0;
#X connect 16 0 48 0;
#X connect 17 0 64 0;
#X connect 18 0 65 0;
#X connect 19 0 18 0;
#X connect 20 0 65 0;
#X connect 21 0 17 0;
#X connect 22 0 19 0;
#X connect 22 1 24 0;
#X connect 22 2 23 0;
#X connect 23 0 21 1;
#X connect 24 0 21 0;
#X connect 25 0 66 0;
#X connect 25 0 24 1;
#X connect 26 0 15 1;
#X connect 28 0 27 0;
#X connect 28 0 1 0;
#X connect 29 0 28 0;
#X connect 30 0 31 0;
#X connect 31 0 32 0;
#X connect 32 0 33 0;
#X connect 32 1 34 0;
#X connect 32 2 36 0;
#X connect 32 3 37 0;
#X connect 33 0 35 0;
#X connect 34 0 35 0;
#X connect 35 0 29 0;
#X connect 36 0 35 0;
#X connect 37 0 35 0;
#X connect 38 0 40 0;
#X connect 39 0 38 0;
#X connect 40 0 79 1;
#X connect 41 0 79 1;
#X connect 42 0 41 0;
#X connect 43 0 38 1;
#X connect 44 0 79 1;
#X connect 45 0 44 0;
#X connect 46 0 63 0;
#X connect 47 0 48 0;
#X connect 48 0 1 0;
#X connect 48 0 27 0;
#X connect 49 0 50 0;
#X connect 50 0 51 0;
#X connect 51 0 22 0;
#X connect 51 1 65 0;
#X connect 52 0 46 0;
#X connect 53 0 70 0;
#X connect 54 0 53 1;
#X connect 54 0 24 1;
#X connect 55 0 54 0;
#X connect 55 0 77 0;
#X connect 56 0 57 0;
#X connect 57 0 52 1;
#X connect 58 0 59 0;
#X connect 59 0 60 0;
#X connect 61 0 62 0;
#X connect 62 0 49 1;
#X connect 63 0 80 0;
#X connect 63 1 81 0;
#X connect 64 0 20 0;
#X connect 65 0 5 0;
#X connect 67 0 2 0;
#X connect 68 0 59 0;
#X connect 69 0 15 1;
#X connect 70 0 74 0;
#X connect 71 0 73 1;
#X connect 72 0 49 0;
#X connect 73 0 72 0;
#X connect 74 0 22 0;
#X connect 75 0 74 1;
#X connect 76 0 24 1;
#X connect 77 0 78 0;
#X connect 77 1 25 0;
#X connect 78 0 24 1;
#X connect 78 0 66 0;
#X connect 80 0 73 0;
#X connect 81 0 73 0;
#X connect 82 0 52 0;
#X connect 83 0 15 0;
#X restore 38 109 pd super-saw-vol;
#X obj 37 160 vsl 15 40 0 1 0 0 empty empty empty 0 -9 0 10 -262144
-1 -1 0 1;
#X obj 37 136 r \$1-nuclear-lead-vol;
#N canvas 568 43 627 805 nuclear-lead 0;
#X obj 38 737 dac~;
#X obj 38 696 *~;
#X obj 53 672 line~;
#X obj 53 648 inlet;
#X obj 38 557 nuclear-sine;
#X obj 38 588 smad;
#X msg 124 640 amount \$1;
#X msg 191 640 wet \$1;
#X obj 130 494 loadbang;
#X msg 399 513 Pitch-Bend \$1;
#X obj 399 488 line;
#X msg 484 459 0;
#X msg 399 459 0 \, -1 400;
#N canvas 0 22 622 365 zomboy-melody 0;
#X obj 79 19 r \$1-tick;
#X obj 79 93 sel 16 24 28 36 40 44 48 52 56;
#X obj 271 93 sel 16 24 28 36 40 44 48 52 56;
#X obj 271 70 - 64;
#X obj 79 62 moses 64;
#X obj 79 41 mod 128;
#X obj 271 170 f;
#X msg 79 145 0;
#X msg 112 146 -1;
#X msg 152 146 2;
#X msg 271 145 0;
#X msg 341 145 -1;
#X msg 381 145 2;
#X msg 303 145 -3;
#X obj 39 266 f;
#X connect 0 0 5 0;
#X connect 1 0 7 0;
#X connect 1 1 7 0;
#X connect 1 2 7 0;
#X connect 1 3 7 0;
#X connect 1 4 7 0;
#X connect 1 5 7 0;
#X connect 1 6 8 0;
#X connect 1 7 7 0;
#X connect 1 8 9 0;
#X connect 2 0 10 0;
#X connect 2 1 10 0;
#X connect 2 2 10 0;
#X connect 2 3 10 0;
#X connect 2 4 13 0;
#X connect 2 5 11 0;
#X connect 2 6 12 0;
#X connect 2 7 11 0;
#X connect 2 8 10 0;
#X connect 3 0 2 0;
#X connect 4 0 1 0;
#X connect 4 1 3 0;
#X connect 5 0 4 0;
#X connect 6 0 14 0;
#X connect 7 0 14 0;
#X connect 8 0 14 0;
#X connect 9 0 14 0;
#X connect 10 0 6 0;
#X connect 11 0 6 0;
#X connect 12 0 6 0;
#X connect 13 0 6 0;
#X restore 447 44 pd zomboy-melody;
#X obj 38 497 line;
#X obj 38 475 pack f 0;
#N canvas 1086 177 416 451 new-sequence 0;
#X msg 37 18 1 0 0 1 0 0 0 1 0 2 1 0 2 0 0 0;
#X msg 64 214 set \, adddollar \$1;
#N canvas 0 22 450 300 new-list 0;
#X msg 51 79 16;
#X obj 51 101 until;
#X msg 51 167 add2 \$1;
#X msg 89 101 set;
#X obj 51 58 t b b;
#X obj 51 35 inlet;
#X obj 51 192 outlet;
#X obj 102 122 inlet var;
#X obj 94 37 bng 15 250 50 0 empty empty empty 17 7 0 10 -262144 -1
-1;
#X obj 51 144 u_wrandom;
#X connect 0 0 1 0;
#X connect 1 0 9 0;
#X connect 2 0 6 0;
#X connect 3 0 6 0;
#X connect 4 0 0 0;
#X connect 4 1 3 0;
#X connect 5 0 4 0;
#X connect 7 0 9 1;
#X connect 8 0 4 0;
#X connect 9 0 2 0;
#X restore 122 -7 pd new-list;
#X obj 37 -41 inlet;
#X obj 37 -18 t b f;
#X obj 37 262 outlet;
#X obj 122 -34 inlet;
#X obj 185 -34 inlet var;
#X obj 95 -32 bng 15 250 50 0 empty empty empty 17 7 0 10 -262144 -1
-1;
#X obj 64 49 mod 32;
#X msg 37 237 \$15;
#X obj 64 80 moses 16;
#X obj 64 103 mod 8;
#X obj 109 103 mod 8;
#X obj 64 191 + 1;
#X obj 109 126 + 8;
#X obj 197 262 outlet;
#X msg 197 238 \$16;
#X obj 197 190 + 1;
#X msg 197 213 set \, adddollar \$1 \,;
#X text 235 238 Lookahead;
#X connect 0 0 10 0;
#X connect 1 0 10 0;
#X connect 2 0 0 0;
#X connect 3 0 4 0;
#X connect 4 0 0 0;
#X connect 4 1 9 0;
#X connect 6 0 2 0;
#X connect 7 0 2 1;
#X connect 8 0 2 0;
#X connect 9 0 11 0;
#X connect 10 0 5 0;
#X connect 11 0 12 0;
#X connect 11 1 13 0;
#X connect 12 0 14 0;
#X connect 13 0 15 0;
#X connect 14 0 1 0;
#X connect 14 0 18 0;
#X connect 15 0 14 0;
#X connect 17 0 16 0;
#X connect 18 0 19 0;
#X connect 19 0 17 0;
#X restore 38 174 pd new-sequence;
#X msg 154 91 2;
#X obj 38 54 int;
#X obj 38 76 change;
#X obj 38 204 sel 0 1 2;
#X obj 146 234 spigot;
#X obj 179 212 mod 2;
#X obj 38 98 mod 32;
#X obj 38 400 f;
#X msg 38 319 bang;
#X obj 38 530 pack f 127;
#X msg 130 515 Attack 0 \, Release 20;
#X msg 184 91 3 1 1;
#X obj 38 120 moses 4;
#X obj 134 584 loadbang;
#X msg 190 605 1;
#X floatatom 168 559 5 0 0 0 - - -, f 5;
#X msg 134 606 0.95;
#X obj 146 40 loadbang;
#X obj 203 63 r generate-track-\$1;
#X msg 310 285 base \$1;
#X msg 373 313 mode \$1;
#X obj 373 291 r \$1-scale-mode;
#X obj 87 324 r \$1-bass-note-seq;
#X obj 151 257 del 285.334;
#X obj 158 280 del 285.334;
#X msg 312 513 Vib-Depth \$1;
#X floatatom 305 473 5 0 0 0 - - -, f 5;
#X obj 38 444 + 12;
#X obj 38 32 / 4;
#X obj 61 249 del 107;
#X obj 38 422 makenote 127 105;
#X obj 38 10 r \$1-tick;
#X obj 38 620 *~ 0.1;
#X obj 310 239 r \$1-key-centre;
#X obj 310 262 + 36;
#X obj 87 366 m_minorscale;
#X connect 1 0 0 0;
#X connect 1 0 0 1;
#X connect 2 0 1 1;
#X connect 3 0 2 0;
#X connect 4 0 5 0;
#X connect 5 0 49 0;
#X connect 6 0 5 1;
#X connect 7 0 5 1;
#X connect 8 0 27 0;
#X connect 9 0 4 1;
#X connect 10 0 9 0;
#X connect 11 0 10 0;
#X connect 12 0 10 0;
#X connect 14 0 26 0;
#X connect 15 0 14 0;
#X connect 16 0 20 0;
#X connect 17 0 16 1;
#X connect 18 0 19 0;
#X connect 19 0 23 0;
#X connect 20 0 25 0;
#X connect 20 1 25 0;
#X connect 20 1 46 0;
#X connect 20 2 46 0;
#X connect 21 0 25 0;
#X connect 21 0 40 0;
#X connect 22 0 21 1;
#X connect 23 0 22 0;
#X connect 23 0 29 0;
#X connect 24 0 47 0;
#X connect 25 0 24 0;
#X connect 26 0 4 0;
#X connect 27 0 4 1;
#X connect 28 0 16 2;
#X connect 29 1 16 0;
#X connect 30 0 33 0;
#X connect 30 0 31 0;
#X connect 31 0 7 0;
#X connect 32 0 6 0;
#X connect 33 0 6 0;
#X connect 34 0 28 0;
#X connect 34 0 16 1;
#X connect 35 0 28 0;
#X connect 35 0 16 1;
#X connect 36 0 52 1;
#X connect 37 0 52 1;
#X connect 38 0 37 0;
#X connect 39 0 52 0;
#X connect 40 0 25 0;
#X connect 40 0 41 0;
#X connect 41 0 25 0;
#X connect 42 0 4 1;
#X connect 43 0 42 0;
#X connect 44 0 15 0;
#X connect 45 0 18 0;
#X connect 46 0 25 0;
#X connect 47 0 44 0;
#X connect 47 1 26 1;
#X connect 48 0 45 0;
#X connect 49 0 1 0;
#X connect 50 0 51 0;
#X connect 51 0 36 0;
#X connect 52 0 24 1;
#X restore 37 208 pd nuclear-lead;
#X obj 175 160 vsl 15 40 0 1 0 0 empty empty empty 0 -9 0 10 -262144
-1 -1 0 1;
#X obj 175 136 r \$1-juno-vol;
#N canvas 255 28 338 531 juno-lead 0;
#X obj 48 439 *~;
#X obj 63 415 line~;
#X obj 63 371 inlet;
#X obj 48 253 pack f 127;
#X obj 48 229 + 12;
#X obj 48 280 s_ejun;
#N canvas 0 22 586 434 preset 0;
#X msg 93 99 mod3d 0.00787402 \, mod3c 0.015748 \, mod3b 0.141732 \,
mod3a 0.0708661 \, mod2d 0.291339 \, mod2c 0 \, mod2b 0.0708661 \,
mod2a 0.511811 \, mod1d 0.0944882 \, mod1c 0.19685 \, mod1b 0 \, mod1a
0.622047 \, osc3d 0.023622 \, osc3c 0.00787402 \, osc3b 0.015748 \,
osc3a 0.669291 \, osc2d 0.401575 \, osc2c 0.244094 \, osc2b 0.330709
\, osc2a 0.501102 \, osc1d 0.574803 \, osc1c 0.181102 \, osc1b 0.393701
\, osc1a 1 \, env3r 0.00787402 \, env3s 0.409449 \, env3d 0.110236
\, env3a 0.000629921 \, env2r 0 \, env2s 1 \, env2d 0 \, env2a 0 \,
env1r 0 \, env1s 1 \, env1d 0 \, env1a 0 \,;
#X obj 93 225 outlet;
#X obj 93 76 loadbang;
#X connect 0 0 1 0;
#X connect 2 0 0 0;
#X restore 120 252 pd preset;
#X obj 48 44 r \$1-tick;
#X obj 48 66 mod 64;
#X obj 48 162 sel 0;
#X obj 48 207 makenote 127 50;
#X msg 48 184 53;
#X obj 48 140 mod 2;
#X obj 48 108 moses 16;
#X obj 140 180 line;
#X obj 48 88 t f f;
#X obj 140 136 sel 16 24;
#X msg 170 158 13.4 2000;
#X msg 140 158 12;
#X obj 48 343 *~ 1;
#X obj 63 393 * 1.5;
#X obj 48 480 dac~;
#X connect 0 0 21 0;
#X connect 0 0 21 1;
#X connect 1 0 0 1;
#X connect 2 0 20 0;
#X connect 3 0 5 0;
#X connect 4 0 3 0;
#X connect 5 0 19 0;
#X connect 6 0 5 1;
#X connect 7 0 8 0;
#X connect 8 0 15 0;
#X connect 9 0 11 0;
#X connect 10 0 4 0;
#X connect 10 1 3 1;
#X connect 11 0 10 0;
#X connect 12 0 9 0;
#X connect 13 1 12 0;
#X connect 14 0 4 1;
#X connect 15 0 13 0;
#X connect 15 1 16 0;
#X connect 16 0 18 0;
#X connect 16 1 17 0;
#X connect 17 0 14 0;
#X connect 18 0 14 0;
#X connect 19 0 0 0;
#X connect 20 0 1 0;
#X restore 175 208 pd juno-lead;
#X obj 77 271 vsl 15 40 0 1 0 0 empty empty empty 0 -9 0 10 -262144
-1 -1 0 1;
#X obj 77 248 r \$1-air-raid-bass-vol;
#N canvas 1114 155 734 615 air-raid-bass 0;
#X obj 51 346 osc~;
#X obj 51 323 sig~;
#X obj 51 251 mtof;
#X msg 138 204 mode harmonic;
#X obj 109 400 clip~ -1 1;
#X obj 51 273 pack f 100;
#X obj 51 295 line;
#X obj 51 490 *~ 1;
#X obj 138 181 loadbang;
#X obj 51 229 m_minorscale 31;
#X obj 51 430 *~ 1;
#X obj 51 378 *~ 3;
#X obj 109 377 *~ 1.8;
#X obj 201 346 osc~;
#X obj 259 400 clip~ -1 1;
#X obj 201 430 *~ 1;
#X obj 201 378 *~ 3;
#X obj 259 377 *~ 1.8;
#X obj 201 326 *~ 1.00001;
#X obj 284 464 inlet;
#X obj 201 520 *~;
#X obj 51 520 *~;
#X obj 284 508 line~;
#X obj 284 486 pack f 10;
#X obj 51 549 throw~ \$0-LEFT;
#X obj 131 569 throw~ \$0-RIGHT;
#X obj 51 68 r \$0-rotations;
#X obj 72 127 notes 5 31 0 3 5 7 10;
#X connect 0 0 11 0;
#X connect 0 0 12 0;
#X connect 1 0 0 0;
#X connect 1 0 18 0;
#X connect 2 0 5 0;
#X connect 3 0 9 1;
#X connect 4 0 10 0;
#X connect 5 0 6 0;
#X connect 6 0 1 0;
#X connect 7 0 21 0;
#X connect 8 0 3 0;
#X connect 9 0 2 0;
#X connect 10 0 7 0;
#X connect 11 0 10 0;
#X connect 12 0 4 0;
#X connect 13 0 16 0;
#X connect 13 0 17 0;
#X connect 14 0 15 0;
#X connect 15 0 20 0;
#X connect 16 0 15 0;
#X connect 17 0 14 0;
#X connect 18 0 13 0;
#X connect 19 0 23 0;
#X connect 20 0 25 0;
#X connect 21 0 24 0;
#X connect 22 0 20 1;
#X connect 22 0 21 1;
#X connect 23 0 22 0;
#X connect 26 0 27 0;
#X connect 27 0 2 0;
#X restore 77 319 pd air-raid-bass;
#X connect 0 0 2 0;
#X connect 1 0 0 0;
#X connect 3 0 5 0;
#X connect 4 0 3 0;
#X connect 6 0 8 0;
#X connect 7 0 6 0;
#X connect 9 0 11 0;
#X connect 10 0 9 0;
#X restore 34 319 pd synths;
#X obj 256 336 4T-Granulator \$0;
#X obj 36 221 r fakeHarpSend;
#X obj 36 267 sendOSC 9001;
#X msg 45 243 connect 127.0.0.1 9001;
#X obj 139 273 print;
#X obj 128 292 player-input \$0 0;
#X obj 131 389 dumpOSC 9001;
#X obj 131 411 s \$0-player-osc;
#X obj 140 39 dumpOSC 5000;
#X obj 140 61 OSCroute /1;
#X obj 140 83 s \$0-touchOSC;
#X text 167 207 - turn granulator off when rotations = 0;
#X obj 34 113 fakeHarp 0 \$0;
#X obj 34 133 fakeHarp 1 \$0;
#X obj 34 153 fakeHarp 2 \$0;
#X obj 34 173 fakeHarp 3 \$0;
#X text 627 124 Mode (drone/note);
#X text 627 144 Source file;
#X text 627 164 Root note;
#X text 627 184 Octave;
#X text 627 204 Mode/scale;
#N canvas 0 22 757 776 effects 0;
#X obj 79 458 dac~;
#X obj 79 204 e_platereverb;
#X obj 154 111 - 3;
#X obj 154 133 / 12;
#N canvas 0 22 473 173 preset 0;
#X obj 58 18 loadbang;
#X obj 54 115 outlet;
#X msg 54 54 decay_diffusion2 0.84 \, decay_diffusion1 0.889 \, input_diffusion2
0.779 \, excursion 0.53761 \, input_diffusion1 0.685 \, decay 0.99
\, damping 4637 \, bandwidth 10000 \, predelay 10;
#X connect 0 0 2 0;
#X connect 2 0 1 0;
#X restore 140 174 pd preset;
#X msg 154 153 dry \$1;
#X obj 209 155 / 2;
#X obj 209 177 + 0.5;
#X obj 79 356 e_reslop \$1-4T-lop 20000;
#X obj 109 377 e_reslop \$1-4T-lop 20000;
#X msg 250 336 freq \$1;
#X obj 309 315 loadbang;
#X obj 250 130 - 3;
#X obj 250 152 / 12;
#X obj 250 257 * 19000;
#X obj 250 279 + 500;
#X obj 250 174 pow 3;
#X obj 79 426 *~;
#X obj 109 426 *~;
#X obj 124 402 line~;
#X obj 79 299 *~;
#X obj 109 299 *~;
#X obj 124 275 line~;
#X obj 305 216 * -1;
#X obj 305 260 * 2;
#X obj 305 238 + 1;
#X obj 305 282 + 1;
#X msg 309 336 q 3;
#X obj 124 228 loadbang;
#X msg 259 315 20000;
#X msg 124 252 1;
#X obj 86 33 catch~ 4T-grains-L-OUT;
#X obj 126 53 catch~ 4T-grains-R-OUT;
#X obj 154 89 r \$0-0-angle1;
#X obj 259 95 inlet;
#X obj 401 119 u_dispatch \$0 filter-freq;
#X obj 353 222 r \$0-filter-freq;
#X obj 353 244 max 0;
#X obj 353 266 min 20000;
#X connect 1 0 20 0;
#X connect 1 1 21 0;
#X connect 2 0 3 0;
#X connect 3 0 5 0;
#X connect 3 0 6 0;
#X connect 4 0 1 2;
#X connect 5 0 1 2;
#X connect 6 0 7 0;
#X connect 7 0 22 0;
#X connect 8 0 17 0;
#X connect 9 0 18 0;
#X connect 10 0 8 1;
#X connect 10 0 9 1;
#X connect 11 0 27 0;
#X connect 12 0 13 0;
#X connect 13 0 16 0;
#X connect 14 0 15 0;
#X connect 15 0 10 0;
#X connect 16 0 14 0;
#X connect 16 0 23 0;
#X connect 17 0 0 0;
#X connect 18 0 0 1;
#X connect 19 0 18 1;
#X connect 19 0 17 1;
#X connect 20 0 8 0;
#X connect 21 0 9 0;
#X connect 22 0 21 1;
#X connect 22 0 20 1;
#X connect 23 0 25 0;
#X connect 24 0 26 0;
#X connect 25 0 24 0;
#X connect 26 0 19 0;
#X connect 27 0 9 1;
#X connect 27 0 8 1;
#X connect 28 0 29 0;
#X connect 28 0 30 0;
#X connect 29 0 10 0;
#X connect 30 0 22 0;
#X connect 30 0 19 0;
#X connect 31 0 1 0;
#X connect 32 0 1 1;
#X connect 33 0 2 0;
#X connect 34 0 12 0;
#X connect 36 0 37 0;
#X connect 37 0 38 0;
#X connect 38 0 10 0;
#X restore 443 215 pd effects;
#X obj 811 113 change;
#X floatatom 811 135 5 0 0 0 - - -, f 5;
#X obj 811 91 r \$0-1-section;
#X msg 849 263 poke-0-interval \$1;
#X msg 859 283 poke-1-interval \$1;
#X msg 869 303 poke-2-interval \$1;
#X obj 859 147 change;
#X floatatom 859 169 5 0 0 0 - - -, f 5;
#X obj 859 125 r \$0-2-section;
#X obj 908 196 change;
#X floatatom 908 218 5 0 0 0 - - -, f 5;
#X obj 908 174 r \$0-3-section;
#N canvas 358 202 762 468 percussion 0;
#X obj 147 219 s_playtable;
#X obj 147 241 *~ 1;
#X obj 147 263 dac~;
#X obj 147 147 bng 15 250 50 0 empty empty empty 17 7 0 10 -262144
-1 -1;
#X obj 147 173 \$0;
#X msg 147 196 \$1-4T-Source 1 1 100 50;
#X obj 185 57 line;
#X msg 182 22 0 \, 1 2500;
#X obj 185 79 pow 2;
#X connect 0 0 1 0;
#X connect 1 0 2 0;
#X connect 1 0 2 1;
#X connect 3 0 4 0;
#X connect 4 0 5 0;
#X connect 5 0 0 0;
#X connect 6 0 8 0;
#X connect 7 0 6 0;
#X restore 326 111 pd percussion;
#N canvas 514 64 803 737 wind-up-down 0;
#X obj -68 680 *~;
#X obj -34 680 *~;
#X obj 22 514 line~;
#X obj 22 430 t b b;
#X msg 122 473 0 5;
#X obj -68 405 t a b;
#X obj 267 385 metro 764.331;
#X obj 342 142 line;
#X obj 301 330 sel 1;
#X msg 301 355 0;
#X msg 282 109 1;
#X obj 587 190 * 764.331;
#X obj 587 139 sel 0 1 2;
#X msg 587 165 0;
#X msg 620 166 7;
#X msg -23 237 0;
#X msg 7 237 1;
#X obj -68 263 spigot 1;
#X obj -68 285 * 764.331;
#X obj 122 450 del 759.331;
#X obj 587 115 random 2;
#X obj -68 710 dac~;
#X msg 22 453 0 10 \, 1 10 10;
#X obj 186 57 bng 15 250 50 0 empty empty empty 17 7 0 10 -262144 -1
-1;
#X msg 342 122 0 \, 1 1528.66;
#X obj 342 330 * 500;
#X obj 342 352 + 50;
#X obj 342 237 pow 2;
#N canvas 129 99 467 352 hip 0;
#X obj 50 80 inlet~;
#X obj 160 80 inlet~;
#X obj 50 290 outlet~;
#X obj 160 290 outlet~;
#X obj 119 148 f;
#X obj 229 148 f;
#X obj 171 121 line;
#X obj 50 183 hip~ 5;
#X obj 50 203 hip~ 5;
#X obj 50 223 hip~ 5;
#X obj 50 243 hip~ 5;
#X obj 50 266 hip~ 5;
#X obj 160 183 hip~ 5;
#X obj 160 203 hip~ 5;
#X obj 160 223 hip~ 5;
#X obj 160 244 hip~ 5;
#X obj 160 267 hip~ 5;
#X obj 155 49 unpack f f;
#X obj 212 73 abs;
#X obj 240 73 r turn-stutter-sensitivity;
#X obj 155 23 r I-rotRate;
#X obj 212 97 m_scale 0.1 1 0 150 1 1;
#X connect 0 0 7 0;
#X connect 1 0 12 0;
#X connect 4 0 7 1;
#X connect 4 0 8 1;
#X connect 4 0 9 1;
#X connect 4 0 10 1;
#X connect 4 0 11 1;
#X connect 5 0 12 1;
#X connect 5 0 13 1;
#X connect 5 0 14 1;
#X connect 5 0 15 1;
#X connect 5 0 16 1;
#X connect 6 0 4 0;
#X connect 6 0 5 0;
#X connect 7 0 8 0;
#X connect 8 0 9 0;
#X connect 9 0 10 0;
#X connect 10 0 11 0;
#X connect 11 0 2 0;
#X connect 12 0 13 0;
#X connect 13 0 14 0;
#X connect 14 0 15 0;
#X connect 15 0 16 0;
#X connect 16 0 3 0;
#X connect 17 1 18 0;
#X connect 18 0 21 0;
#X connect 19 0 21 1;
#X connect 20 0 17 0;
#X connect 21 0 6 0;
#X restore -68 470 pd hip;
#N canvas 295 68 764 526 freqshift 0;
#X obj 98 71 inlet~;
#X obj 208 71 inlet~;
#X obj 98 461 outlet~;
#X obj 208 461 outlet~;
#X obj 98 423 e_freqshift;
#X obj 208 423 e_freqshift;
#X obj 244 388 t a a;
#X msg 244 360 freq \$1;
#X obj 244 253 f;
#X obj 291 286 r gk-stutter-sect-bang;
#X msg 291 310 0;
#X obj 244 104 r gk-stutter-retrigger-bang;
#X obj 269 253 + 10;
#X obj 426 65 r gk-stutter-setting-change;
#X msg 426 124 0;
#X obj 259 133 r rotRate;
#X obj 259 156 unpack f f;
#X msg 316 225 -20;
#X msg 425 224 20;
#X obj 441 92 sel 0;
#X obj 316 179 moses -0.1;
#X obj 374 199 moses 0.1;
#X msg 374 224 0;
#X obj 244 334 min 3000;
#X obj 461 291 s drum-line-freq-disp;
#X obj 448 364 change;
#X obj 448 435 s APP-VISUALS;
#X obj 448 415 list prepend DRUM-LINE-FREQ-SHIFT;
#X obj 448 388 spigot;
#X obj 496 363 r switch-I;
#X floatatom 334 131 5 0 0 0 - - -, f 5;
#X obj 546 83 r \$1-wind-up-down-settings;
#X obj 546 105 random 100;
#X obj 546 127 / 50;
#X obj 546 149 - 1;
#X connect 0 0 4 0;
#X connect 1 0 5 0;
#X connect 4 0 2 0;
#X connect 5 0 3 0;
#X connect 6 0 4 1;
#X connect 6 1 5 1;
#X connect 7 0 6 0;
#X connect 8 0 12 0;
#X connect 8 0 23 0;
#X connect 8 0 24 0;
#X connect 8 0 25 0;
#X connect 9 0 10 0;
#X connect 10 0 23 0;
#X connect 11 0 8 0;
#X connect 12 0 8 1;
#X connect 13 0 14 0;
#X connect 14 0 8 1;
#X connect 15 0 16 0;
#X connect 16 1 20 0;
#X connect 17 0 12 1;
#X connect 18 0 12 1;
#X connect 19 0 14 0;
#X connect 20 0 17 0;
#X connect 20 1 21 0;
#X connect 21 0 22 0;
#X connect 21 1 18 0;
#X connect 22 0 12 1;
#X connect 22 0 23 0;
#X connect 23 0 7 0;
#X connect 25 0 28 0;
#X connect 27 0 26 0;
#X connect 28 0 27 0;
#X connect 29 0 28 1;
#X connect 30 0 20 0;
#X connect 31 0 32 0;
#X connect 32 0 33 0;
#X connect 33 0 34 0;
#X connect 34 0 20 0;
#X restore -68 506 pd freqshift;
#X obj 108 22 metro 2500;
#X obj 82 15 tgl 15 0 empty empty empty 17 7 0 10 -262144 -1 -1 0 1
;
#X obj 275 435 s gk-stutter-retrigger-bang;
#X obj 342 78 s gk-stutter-setting-change;
#X obj 119 620 e_platereverb;
#X obj 119 595 *~;
#X obj 134 573 line~;
#X obj 267 50 t b b b b b b b;
#X obj 388 51 s \$1-wind-up-down-settings;
#X obj 369 169 r \$1-wind-up-down-settings;
#X obj 369 191 random 3;
#X obj 369 213 + 1.5;
#X obj 439 280 r \$1-wind-up-down-settings;
#X obj 439 324 + 25;
#X obj 439 302 random 50;
#X obj 385 234 r \$1-wind-up-down-settings;
#X obj 385 278 + 250;
#X obj 385 256 random 250;
#X obj 75 143 r \$1-wind-up-down-settings;
#X obj 75 165 random 4;
#X obj 75 187 sel 0 1 2 3;
#X obj -50 360 pack f 50;
#X obj 75 321 line;
#X msg 75 209 50 \, 500 2500;
#X msg 90 233 500 \, 50 2500;
#X msg 106 259 50;
#X msg 122 283 500;
#X obj 244 484 r \$1-wind-up-down-settings;
#X obj 244 506 random 4;
#X obj 244 528 sel 0 1 2 3;
#X obj 244 662 line;
#X msg 244 550 50 \, 500 2500;
#X msg 259 574 500 \, 50 2500;
#X msg 275 600 50;
#X msg 291 624 500;
#X obj -68 443 s_playtable;
#X obj -68 338 \$0;
#X obj -20 311 bng 15 250 50 0 empty empty empty 17 7 0 10 -262144
-1 -1;
#X floatatom -23 335 5 0 0 0 - - -, f 5;
#X obj -68 307 bng 15 250 50 0 empty empty empty 17 7 0 10 -262144
-1 -1;
#X obj 577 59 inlet;
#X floatatom 561 26 5 0 0 0 - - -, f 5;
#X floatatom 323 171 5 0 0 0 - - -, f 5;
#X obj 493 352 vsl 15 128 0 1 0 0 empty empty empty 0 -9 0 10 -262144
-1 -1 0 1;
#X obj 513 352 vsl 15 128 0 1 0 0 empty empty empty 0 -9 0 10 -262144
-1 -1 0 1;
#X floatatom 144 528 5 0 0 0 - - -, f 5;
#X obj 143 348 r \$0-3-rotations;
#X obj 143 370 int;
#X obj 143 412 t b;
#X obj 143 392 change;
#X msg -68 385 \$1-4T-Source 0.6 1 0 50;
#X connect 0 0 21 0;
#X connect 1 0 21 1;
#X connect 2 0 1 1;
#X connect 2 0 0 1;
#X connect 3 0 22 0;
#X connect 3 1 19 0;
#X connect 4 0 2 0;
#X connect 5 0 65 0;
#X connect 5 1 3 0;
#X connect 6 0 32 0;
#X connect 6 0 67 0;
#X connect 7 0 27 0;
#X connect 7 0 72 0;
#X connect 7 0 73 0;
#X connect 8 0 9 0;
#X connect 8 0 16 0;
#X connect 9 0 6 0;
#X connect 10 0 6 0;
#X connect 12 0 13 0;
#X connect 12 1 14 0;
#X connect 13 0 11 0;
#X connect 14 0 11 0;
#X connect 15 0 17 1;
#X connect 16 0 17 1;
#X connect 17 0 18 0;
#X connect 18 0 69 0;
#X connect 19 0 4 0;
#X connect 20 0 12 0;
#X connect 22 0 2 0;
#X connect 23 0 37 0;
#X connect 24 0 7 0;
#X connect 25 0 26 0;
#X connect 26 0 6 1;
#X connect 27 0 8 0;
#X connect 27 0 25 0;
#X connect 27 0 74 0;
#X connect 28 0 29 0;
#X connect 28 1 29 1;
#X connect 29 0 35 0;
#X connect 29 0 0 0;
#X connect 29 1 35 0;
#X connect 29 1 1 0;
#X connect 30 0 23 0;
#X connect 31 0 30 0;
#X connect 34 0 0 0;
#X connect 34 1 1 0;
#X connect 35 0 34 0;
#X connect 35 0 34 1;
#X connect 36 0 35 1;
#X connect 37 0 6 0;
#X connect 37 1 10 0;
#X connect 37 2 24 0;
#X connect 37 3 20 0;
#X connect 37 4 15 0;
#X connect 37 5 33 0;
#X connect 37 6 38 0;
#X connect 39 0 40 0;
#X connect 40 0 41 0;
#X connect 41 0 27 1;
#X connect 42 0 44 0;
#X connect 43 0 26 1;
#X connect 44 0 43 0;
#X connect 45 0 47 0;
#X connect 46 0 25 1;
#X connect 47 0 46 0;
#X connect 48 0 49 0;
#X connect 49 0 50 0;
#X connect 50 0 53 0;
#X connect 50 1 54 0;
#X connect 50 2 55 0;
#X connect 50 3 56 0;
#X connect 52 0 51 1;
#X connect 53 0 52 0;
#X connect 54 0 52 0;
#X connect 55 0 52 0;
#X connect 56 0 52 0;
#X connect 57 0 58 0;
#X connect 58 0 59 0;
#X connect 59 0 61 0;
#X connect 59 1 62 0;
#X connect 59 2 63 0;
#X connect 59 3 64 0;
#X connect 61 0 60 0;
#X connect 62 0 60 0;
#X connect 63 0 60 0;
#X connect 64 0 60 0;
#X connect 65 0 28 0;
#X connect 66 0 80 0;
#X connect 67 0 66 0;
#X connect 69 0 66 0;
#X connect 70 0 27 0;
#X connect 71 0 27 0;
#X connect 75 0 36 0;
#X connect 76 0 77 0;
#X connect 77 0 79 0;
#X connect 78 0 66 0;
#X connect 79 0 78 0;
#X connect 80 0 5 0;
#X restore 631 268 pd wind-up-down;
#X obj 486 90 *~ 0.1;
#X obj 486 112 dac~;
#X floatatom 492 135 5 0 0 0 - - -, f 5;
#X obj 443 159 r \$0-1-angle1;
#X obj 128 312 player-input \$0 1;
#X obj 128 332 player-input \$0 2;
#X obj 128 352 player-input \$0 3;
#X connect 5 0 6 0;
#X connect 7 0 6 0;
#X connect 10 0 11 0;
#X connect 12 0 13 0;
#X connect 13 0 14 0;
#X connect 26 0 27 0;
#X connect 26 0 29 0;
#X connect 28 0 26 0;
#X connect 29 0 4 1;
#X connect 30 0 4 1;
#X connect 31 0 4 1;
#X connect 32 0 33 0;
#X connect 32 0 30 0;
#X connect 34 0 32 0;
#X connect 35 0 36 0;
#X connect 37 0 35 0;
#X connect 40 0 41 0;
#X connect 40 0 41 1;
#X connect 43 0 42 0;
