#N canvas 526 49 804 573 10;
#X declare -path abs;
#X declare -path audio;
#X declare -path libs/oscx;
#X declare -path rj;
#X declare -path abs/4T-Granulator;
#N canvas 0 22 297 242 io 0;
#X obj 58 191 dac~;
#X obj 58 146 *~;
#X obj 158 146 *~;
#X obj 173 122 lop~ 10;
#X obj 173 102 tgl 15 0 empty empty empty 17 7 0 10 -262144 -1 -1 1
1;
#X obj 173 79 loadbang;
#X obj 58 36 catch~ \$0-LEFT;
#X obj 158 36 catch~ \$0-RIGHT;
#X connect 1 0 0 0;
#X connect 2 0 0 1;
#X connect 3 0 2 1;
#X connect 3 0 1 1;
#X connect 4 0 3 0;
#X connect 5 0 4 0;
#X connect 6 0 1 0;
#X connect 7 0 2 0;
#X restore 18 49 pd io;
#N canvas 0 22 450 300 timebase 0;
#X obj 106 52 loadbang;
#X obj 106 75 tgl 15 0 empty empty empty 17 7 0 10 -262144 -1 -1 1
1;
#X obj 106 119 f;
#X obj 136 119 + 1;
#X obj 106 141 s \$0-tick;
#X obj 106 97 metro 50;
#X connect 0 0 1 0;
#X connect 1 0 5 0;
#X connect 2 0 3 0;
#X connect 2 0 4 0;
#X connect 3 0 2 1;
#X connect 5 0 2 0;
#X restore 18 69 pd timebase;
#N canvas 0 22 336 172 init 0;
#X obj 62 56 declare -path abs;
#X obj 62 96 declare -path audio;
#X obj 62 36 declare -path libs/oscx;
#X obj 62 116 declare -path rj;
#X obj 62 76 declare -path abs/4T-Granulator;
#X restore 18 29 pd init;
#X floatatom 294 142 5 0 0 0 - - -, f 5;
#X obj 388 141 bng 15 250 50 0 empty empty empty 17 7 0 10 -262144
-1 -1;
#X text 292 100 E.g.;
#X obj 294 119 r \$0-0-section;
#X obj 388 119 r \$0-1-bound;
#X floatatom 294 188 5 0 0 0 - - -, f 5;
#X obj 294 165 r \$0-2-dir;
#X obj 388 165 r \$0-3-velocity;
#X floatatom 388 188 5 0 0 0 - - -, f 5;
#X obj 294 78 r \$0-[player-number]-[parameter];
#N canvas 40 223 1029 606 presets 0;
#X obj 423 58 r RJ_SCENE;
#X obj 423 125 u_cocollect;
#X obj 423 147 list prepend;
#X obj 423 169 list trim;
#X msg 443 233;
#X msg 463 253;
#X msg 483 273;
#X msg 503 293;
#X msg 523 313;
#X msg 543 333;
#X msg 563 353;
#X msg 583 373;
#X msg 603 393;
#X obj 664 190 s RJ_SCENE_LOAD;
#X obj 500 124 r \$0-preset-index;
#X msg 486 103 clear;
#X obj 423 191 route 0 1 2 3 4 5 6 7 8 9;
#X obj 503 171 sel 0 1 2 3 4 5 6 7 8 9;
#X obj 58 280 s RJ_SCENE_SAVE;
#X msg 58 254 save;
#X obj 65 217 bng 32 250 50 0 empty empty empty 17 7 0 10 -4034 -1
-1;
#X obj 77 192 s \$0-preset-index;
#X obj 58 137 t b f f;
#X obj 97 167 s \$0-preset-saved;
#N canvas 0 22 450 278 (subpatch) 0;
#X array \$0-presets 9 float 3;
#A 0 1 0 0 0 0 0 0 0 0;
#X coords 0 1 9 0 100 70 1 0 0;
#X restore 59 331 graph;
#X obj 237 319 s \$0-preset-index;
#X obj 218 274 t b f f;
#X obj 257 297 s \$0-preset-cleared;
#X obj 503 149 r \$0-load-preset;
#X obj 58 114 r \$0-save-preset;
#X obj 218 251 r \$0-clear-preset;
#X floatatom 552 107 5 0 0 0 - - -, f 5;
#X obj 218 340 s \$0-clear;
#X obj 486 81 r \$0-clear;
#X obj 59 415 r \$0-preset-saved;
#X obj 109 435 r \$0-preset-cleared;
#X obj 59 511 tabwrite \$0-presets;
#X obj 59 467 t b f;
#X msg 59 489 1;
#X obj 109 467 t b f;
#X msg 109 489 0;
#X msg 423 220 e_reslop-drum-lop q 2 \, e_reslop-drum-lop freq 1800
\, notes-8 note-count 8 \, notes-8 intervals 1 4 6 7 8 8 11 11 \, 4T-poke-0
note-count 8 \, 4T-poke-0 intervals 0 2 3 6 8 9 11 12 \, 4T-poke-0
mono 1 \, 4T-poke-0 gain 0.57 \, 4T-poke-0 octave -4 \, 4T-poke-0 release
1500 \, 4T-poke-0 hold 50 \, 4T-poke-0 attack 700 \, notes-8 note-count
8 \, notes-8 intervals 1 4 6 7 8 8 11 11 \, 4T-poke-1 note-count 8
\, 4T-poke-1 intervals 1 4 6 7 8 8 11 11 \, 4T-poke-1 gain 0.5 \, 4T-poke-1
octave 2 \, 4T-poke-1 release 1000 \, 4T-poke-1 hold 0 \, 4T-poke-1
attack 100 \, notes-8 note-count 8 \, notes-8 intervals 1 4 6 7 8 8
11 11 \, 4T-poke-2 note-count 8 \, 4T-poke-2 intervals 1 4 6 7 8 8
11 11 \, 4T-poke-2 mono 1 \, 4T-poke-2 gain 0.64 \, 4T-poke-2 octave
-2 \, 4T-poke-2 release 500 \, 4T-poke-2 hold 100 \, 4T-poke-2 attack
250 \, notes-8 note-count 8 \, notes-8 intervals 1 4 6 7 8 8 11 11
\, 4T-Granulator poke-3-interval 0 \, 4T-Granulator poke-2-interval
0 \, 4T-Granulator poke-1-interval 4 \, 4T-Granulator gain 0.4 \, 4T-Granulator
sound-bed-interval 0 \, 4T-Granulator intervals 1 4 6 7 8 8 11 11 \,
e_tremolo-trem-right phase 0 \, e_tremolo-trem-right shape 0.5 \, e_tremolo-trem-right
depth 0 \, e_tremolo-trem-right freq 1.25 \, e_tremolo-trem-left phase
0 \, e_tremolo-trem-left shape 0.5 \, e_tremolo-trem-left depth 0 \,
e_tremolo-trem-left freq 1.25 \, e_platereverb-soundscape-reverb dry
0 \, e_platereverb-soundscape-reverb decay_diffusion2 0.84 \, e_platereverb-soundscape-reverb
decay_diffusion1 0.889 \, e_platereverb-soundscape-reverb input_diffusion2
0.779 \, e_platereverb-soundscape-reverb excursion 0.53761 \, e_platereverb-soundscape-reverb
input_diffusion1 0.685 \, e_platereverb-soundscape-reverb decay 0.99
\, e_platereverb-soundscape-reverb damping 4637 \, e_platereverb-soundscape-reverb
bandwidth 10000 \, e_platereverb-soundscape-reverb predelay 10 \,;
#X obj 665 54 loadbang;
#X obj 665 76 del 100;
#X connect 0 0 1 0;
#X connect 1 0 2 0;
#X connect 2 0 3 0;
#X connect 3 0 16 0;
#X connect 4 0 13 0;
#X connect 5 0 13 0;
#X connect 6 0 13 0;
#X connect 7 0 13 0;
#X connect 8 0 13 0;
#X connect 9 0 13 0;
#X connect 10 0 13 0;
#X connect 11 0 13 0;
#X connect 12 0 13 0;
#X connect 14 0 2 1;
#X connect 14 0 31 0;
#X connect 15 0 1 1;
#X connect 16 0 41 0;
#X connect 16 1 4 0;
#X connect 16 2 5 0;
#X connect 16 3 6 0;
#X connect 16 4 7 0;
#X connect 16 5 8 0;
#X connect 16 6 9 0;
#X connect 16 7 10 0;
#X connect 16 8 11 0;
#X connect 16 9 12 0;
#X connect 17 0 41 0;
#X connect 17 1 4 0;
#X connect 17 2 5 0;
#X connect 17 3 6 0;
#X connect 17 4 7 0;
#X connect 17 5 8 0;
#X connect 17 6 9 0;
#X connect 17 7 10 0;
#X connect 17 8 11 0;
#X connect 17 9 12 0;
#X connect 19 0 18 0;
#X connect 20 0 19 0;
#X connect 22 0 19 0;
#X connect 22 1 21 0;
#X connect 22 2 23 0;
#X connect 26 0 32 0;
#X connect 26 1 25 0;
#X connect 26 2 27 0;
#X connect 28 0 17 0;
#X connect 29 0 22 0;
#X connect 30 0 26 0;
#X connect 33 0 15 0;
#X connect 34 0 37 0;
#X connect 35 0 39 0;
#X connect 37 0 38 0;
#X connect 37 1 36 1;
#X connect 38 0 36 0;
#X connect 39 0 40 0;
#X connect 39 1 36 1;
#X connect 40 0 36 0;
#X connect 41 0 13 0;
#X connect 42 0 43 0;
#X connect 43 0 41 0;
#X restore 17 529 pd presets;
#X obj 17 472 preset-toggle \$0 0;
#X obj 62 472 preset-toggle \$0 3;
#X obj 32 472 preset-toggle \$0 1;
#X obj 47 472 preset-toggle \$0 2;
#X obj 77 472 preset-toggle \$0 4;
#X obj 92 472 preset-toggle \$0 5;
#X obj 107 472 preset-toggle \$0 6;
#X obj 122 472 preset-toggle \$0 7;
#X obj 137 472 preset-toggle \$0 8;
#X obj 152 472 preset-toggle \$0 9;
#N canvas 533 432 419 286 osc 0;
#X obj 43 105 dumpOSC 9001;
#X obj 43 219 s \$0-player-osc;
#X obj 43 24 dumpOSC 5000;
#X obj 43 46 OSCroute /1;
#X obj 43 68 s \$0-touchOSC;
#X obj 130 153 inlet;
#X msg 130 175 /\$1;
#X text 125 24 From TouchOSC iPad interface;
#X text 125 106 From debug_xosc Processing sketch;
#X obj 43 197 list prepend /0;
#X obj 52 129 dumpOSC 9002;
#X text 135 126 From FakePlayers sub-patch Processing sketch;
#X connect 0 0 9 0;
#X connect 2 0 3 0;
#X connect 3 0 4 0;
#X connect 5 0 6 0;
#X connect 6 0 9 1;
#X connect 9 0 1 0;
#X connect 10 0 1 0;
#X restore 18 333 pd osc;
#X text 174 470 Save;
#X text 174 495 Recall;
#X text 174 511 Clear;
#N canvas 1390 364 412 324 reverb 0;
#X msg 231 122 dry \$1;
#X obj 48 220 *~;
#X obj 139 220 *~;
#X obj 207 196 line~;
#X obj 231 38 r \$0-0-angle1;
#X obj 231 70 m_scale 3 15 0 1;
#X text 244 197 Gain compensation;
#N canvas 0 22 473 173 preset-info 0;
#X obj 54 31 loadbang;
#X obj 54 115 outlet;
#X msg 54 54 decay_diffusion2 0.84 \, decay_diffusion1 0.889 \, input_diffusion2
0.779 \, excursion 0.53761 \, input_diffusion1 0.685 \, decay 0.99
\, damping 4637 \, bandwidth 10000 \, predelay 10;
#X connect 0 0 2 0;
#X connect 2 0 1 0;
#X restore 241 150 pd preset-info;
#X obj 48 250 outlet~;
#X obj 139 270 outlet~;
#X obj 48 120 inlet~;
#X obj 139 140 inlet~;
#X obj 241 93 m_scale 0 1 0.35 1;
#X obj 48 173 e_platereverb soundscape-reverb;
#X obj 201 14 loadbang;
#X msg 201 36 15;
#X connect 0 0 13 2;
#X connect 1 0 8 0;
#X connect 2 0 9 0;
#X connect 3 0 2 1;
#X connect 3 0 1 1;
#X connect 5 0 0 0;
#X connect 5 0 12 0;
#X connect 7 0 13 2;
#X connect 10 0 13 0;
#X connect 11 0 13 1;
#X connect 12 0 3 0;
#X connect 13 0 1 0;
#X connect 13 1 2 0;
#X connect 14 0 15 0;
#X connect 15 0 5 0;
#X restore 565 127 pd reverb;
#N canvas 788 336 443 388 lowpass-filter 0;
#X obj 47 120 e_reslop \$1-4T-lop 20000;
#X obj 84 141 e_reslop \$1-4T-lop 20000;
#X msg 225 100 freq \$1;
#X obj 284 79 loadbang;
#X msg 284 100 q 3;
#X obj 47 273 outlet~;
#X obj 84 293 outlet~;
#X obj 47 33 inlet~;
#X obj 84 53 inlet~;
#X obj 225 34 r \$0-1-angle1;
#X obj 225 60 m_scale 15 3 500 19000 3;
#X obj 84 253 *~;
#X obj 47 233 *~;
#X obj 99 206 line~;
#X text 136 207 Gain compensation;
#X obj 99 183 m_scale 500 19000 3 1;
#X obj 338 12 loadbang;
#X msg 338 34 3;
#X connect 0 0 12 0;
#X connect 1 0 11 0;
#X connect 2 0 0 1;
#X connect 2 0 1 1;
#X connect 3 0 4 0;
#X connect 4 0 1 1;
#X connect 4 0 0 1;
#X connect 7 0 0 0;
#X connect 8 0 1 0;
#X connect 9 0 10 0;
#X connect 10 0 2 0;
#X connect 10 0 15 0;
#X connect 11 0 6 0;
#X connect 12 0 5 0;
#X connect 13 0 11 1;
#X connect 13 0 12 1;
#X connect 15 0 13 0;
#X connect 16 0 17 0;
#X connect 17 0 10 0;
#X restore 565 169 pd lowpass-filter;
#N canvas 675 263 579 426 tremolo 0;
#X msg 164 283 freq \$1;
#X obj 47 373 outlet~;
#X obj 84 393 outlet~;
#X obj 47 33 inlet~;
#X obj 84 53 inlet~;
#X msg 377 124 shape \$1;
#X obj 377 53 m_scale 15 3 0.1 1;
#X msg 254 309 depth \$1;
#X obj 141 77 sel 0;
#X obj 254 185 spigot;
#X obj 141 108 t b b;
#X msg 287 162 0;
#X obj 254 287 line;
#X msg 316 162 1;
#X msg 141 159 0;
#X obj 179 109 t f b b;
#X obj 141 53 m_scale 0 70 0 25;
#X msg 254 265 \$1 100;
#X obj 254 53 m_scale 15 3 1 0.3;
#X obj 47 310 e_tremolo2 trem-left;
#X obj 84 331 e_tremolo2 trem-right;
#X obj 141 27 r \$0-1-rotations;
#X obj 254 27 r \$0-1-angle1;
#X obj 377 27 r \$0-1-angle2;
#X obj 468 6 loadbang;
#X msg 468 28 3;
#X obj 254 237 f 0.3;
#X connect 0 0 19 1;
#X connect 0 0 20 1;
#X connect 3 0 19 0;
#X connect 4 0 20 0;
#X connect 5 0 19 1;
#X connect 5 0 20 1;
#X connect 6 0 5 0;
#X connect 7 0 19 1;
#X connect 7 0 20 1;
#X connect 8 0 10 0;
#X connect 8 1 15 0;
#X connect 9 0 26 0;
#X connect 10 0 14 0;
#X connect 10 1 11 0;
#X connect 11 0 9 1;
#X connect 12 0 7 0;
#X connect 13 0 9 1;
#X connect 14 0 17 0;
#X connect 15 0 0 0;
#X connect 15 1 13 0;
#X connect 15 2 26 0;
#X connect 16 0 8 0;
#X connect 17 0 12 0;
#X connect 18 0 9 0;
#X connect 19 0 1 0;
#X connect 20 0 2 0;
#X connect 21 0 16 0;
#X connect 24 0 25 0;
#X connect 25 0 6 0;
#X connect 25 0 18 0;
#X connect 26 0 17 0;
#X restore 565 209 pd tremolo;
#X obj 565 263 throw~ \$0-LEFT;
#X obj 665 263 throw~ \$0-RIGHT;
#N canvas 499 470 656 442 granular 0;
#X obj 31 94 4T-Granulator \$0;
#X obj 394 39 r \$0-3-section;
#X obj 31 53 scaleSelecta;
#X obj 111 39 r \$0-0-section;
#X floatatom 130 20 5 0 0 0 - - -, f 5;
#X msg 111 61 sound-bed-interval \$1;
#X obj 526 39 loadbang;
#X text 37 329 ^ Sound-bed OUT LEFT;
#X text 216 329 ^ Sound-bed OUT RIGHT;
#X text 396 329 ^ Pokes OUT MONO;
#X obj 31 359 outlet~;
#X obj 84 359 outlet~;
#X obj 390 361 outlet~;
#X msg 265 62 poke-2-interval \$1;
#X msg 394 61 poke-3-interval \$1;
#X obj 265 39 r \$0-2-section;
#X msg 408 195 sound-bed-interval \$1;
#X msg 408 235 poke-2-interval \$1;
#X msg 408 215 poke-1-interval \$1;
#X msg 408 255 poke-3-interval \$1;
#X msg 408 275 gain \$1;
#X text 406 175 Granulator parameters;
#X msg 526 61 gain 0.4;
#X connect 0 0 10 0;
#X connect 0 1 11 0;
#X connect 0 2 12 0;
#X connect 1 0 14 0;
#X connect 2 0 0 0;
#X connect 3 0 5 0;
#X connect 3 0 4 0;
#X connect 5 0 0 0;
#X connect 6 0 22 0;
#X connect 13 0 0 0;
#X connect 14 0 0 0;
#X connect 15 0 13 0;
#X connect 22 0 0 0;
#X restore 565 52 pd granular;
#N canvas 1390 364 412 324 reverb 0;
#X obj 48 173 e_platereverb;
#N canvas 0 22 473 173 preset-info 0;
#X obj 58 18 loadbang;
#X obj 54 115 outlet;
#X msg 54 54 decay_diffusion2 0.84 \, decay_diffusion1 0.889 \, input_diffusion2
0.779 \, excursion 0.53761 \, input_diffusion1 0.685 \, decay 0.99
\, damping 4637 \, bandwidth 10000 \, predelay 10 \, dry 0.72;
#X connect 0 0 2 0;
#X connect 2 0 1 0;
#X restore 153 150 pd preset-info;
#X obj 48 250 outlet~;
#X obj 85 270 outlet~;
#X obj 48 120 inlet~;
#X obj 85 140 inlet~;
#X obj 85 220 *~ 1;
#X obj 48 220 *~ 1;
#X connect 0 0 7 0;
#X connect 0 1 6 0;
#X connect 1 0 0 2;
#X connect 4 0 0 0;
#X connect 5 0 0 1;
#X connect 6 0 3 0;
#X connect 7 0 2 0;
#X restore 692 168 pd reverb;
#X obj 692 142 *~ 0.25;
#N canvas 0 22 867 605 Players 0;
#X floatatom 278 546 5 0 0 0 - - -, f 5;
#X obj 278 565 s rotations-multiplier;
#X obj 310 145 player-input \$0 5;
#X text 607 15 Player parameters;
#X text 606 45 -rotations (0 - ~70);
#X text 607 65 -angle1 (3 - 15);
#X text 607 85 -angle2 (3 - 15);
#X text 607 105 -velocity-out (0 - 30);
#X text 607 125 -velocity-in (0 - -30);
#X text 607 145 -section (0 - 7);
#X text 607 165 -boundary (bang);
#X text 607 185 -dir (-1 \, 0 \, 1);
#X text 607 205 -hall1 (bang);
#X text 607 225 -hall2 (bang);
#X obj 309 14 player-input \$0 4;
#X obj 311 278 player-input \$0 6;
#X obj 16 14 player-input \$0 0;
#X obj 16 278 player-input \$0 2;
#X obj 16 411 player-input \$0 3;
#X obj 16 145 player-input \$0 1;
#X obj 311 411 player-input \$0 7;
#X connect 0 0 1 0;
#X restore 18 354 pd Players;
#N canvas 1406 48 410 664 Fake-Players 0;
#X obj 22 18 fakePlayer 0 \$0;
#X obj 22 149 fakePlayer 1 \$0;
#X obj 22 281 fakePlayer 2 \$0;
#X obj 23 415 fakePlayer 3 \$0;
#X obj 203 415 fakePlayer 7 \$0;
#X obj 202 281 fakePlayer 6 \$0;
#X obj 202 149 fakePlayer 5 \$0;
#X obj 202 18 fakePlayer 4 \$0;
#X obj 92 546 r fakeHarpSend;
#X obj 99 566 loadbang;
#X obj 99 588 del 1000;
#X text 184 547 From FakePlayers sub-patch;
#X obj 92 632 sendOSC 9002;
#X msg 99 609 connect 127.0.0.1 9002;
#X connect 8 0 12 0;
#X connect 9 0 10 0;
#X connect 10 0 13 0;
#X connect 13 0 12 0;
#X restore 18 404 pd Fake-Players;
#N canvas 520 575 452 362 velocity 0;
#X obj 48 88 t f f;
#X obj 48 235 *~;
#X obj 48 162 sig~;
#X obj 48 184 osc~;
#X obj 48 110 abs;
#X obj 189 131 noise~;
#X obj 189 153 lop~ 1000;
#X obj 189 175 *~ 0.04;
#X obj 282 141 abs;
#X obj 282 185 lop~ 10;
#X obj 48 289 outlet~;
#X obj 48 140 m_scale -30 15 12 100;
#X obj 48 206 *~ 1;
#X obj 282 162 m_scale 0 15 0 1 1;
#X obj 48 267 *~ 2;
#X obj 48 26 r \$0-4-velocity-in;
#X floatatom 48 48 5 0 0 0 - - -, f 5;
#X connect 0 0 4 0;
#X connect 0 1 8 0;
#X connect 1 0 14 0;
#X connect 2 0 3 0;
#X connect 3 0 12 0;
#X connect 4 0 11 0;
#X connect 5 0 6 0;
#X connect 6 0 7 0;
#X connect 7 0 1 0;
#X connect 8 0 13 0;
#X connect 9 0 1 1;
#X connect 11 0 2 0;
#X connect 12 0 1 0;
#X connect 13 0 9 0;
#X connect 14 0 10 0;
#X connect 15 0 0 0;
#X connect 15 0 16 0;
#X restore 565 316 pd velocity;
#N canvas 0 22 333 181 delay 0;
#X obj 82 81 delwrite~ \$0-velocity 1000;
#X obj 82 103 delread~ \$0-velocity 350;
#X obj 22 56 inlet~;
#X obj 22 141 outlet~;
#X obj 143 25 r \$0-4-angle1;
#X obj 143 47 m_scale 3 15 100 1000;
#X obj 38 89 *~ 0.6;
#X connect 1 0 6 0;
#X connect 2 0 0 0;
#X connect 2 0 3 0;
#X connect 4 0 5 0;
#X connect 5 0 1 0;
#X connect 6 0 0 0;
#X connect 6 0 3 0;
#X restore 565 343 pd delay;
#X obj 565 375 throw~ \$0-LEFT;
#X obj 665 375 throw~ \$0-RIGHT;
#N canvas 0 22 230 261 pitch-detect 0;
#X obj 41 128 + 0.499;
#X obj 41 149 int;
#X obj 41 90 line;
#X floatatom 41 111 5 0 0 0 - - -, f 5;
#X obj 41 69 pack 0 20;
#X obj 41 48 fiddle~ 2048 1 20 3;
#X obj 41 170 change;
#X floatatom 41 192 5 0 0 0 - - -, f 5;
#X connect 0 0 1 0;
#X connect 1 0 6 0;
#X connect 2 0 3 0;
#X connect 3 0 0 0;
#X connect 4 0 2 0;
#X connect 5 0 4 0;
#X connect 6 0 7 0;
#X restore 18 119 pd pitch-detect;
#X obj 294 279 bng 15 250 50 0 empty empty empty 17 7 0 10 -262144
-1 -1;
#X text 294 239 Quick movements;
#X obj 294 329 bng 15 250 50 0 empty empty empty 17 7 0 10 -262144
-1 -1;
#N canvas 0 22 333 181 delay 0;
#X obj 38 89 *~ 0.4;
#X obj 22 56 inlet~;
#X obj 22 141 outlet~;
#X obj 82 81 delwrite~ \$0-drums 1000;
#X obj 82 103 delread~ \$0-drums 100;
#X connect 0 0 2 0;
#X connect 0 0 3 0;
#X connect 1 0 2 0;
#X connect 1 0 3 0;
#X connect 4 0 0 0;
#X restore 565 484 pd delay;
#X obj 565 511 throw~ \$0-LEFT;
#X obj 665 511 throw~ \$0-RIGHT;
#X obj 294 259 yank-out \$0-5 1;
#N canvas 592 265 412 324 volume 1;
#X obj 48 220 *~;
#X obj 139 220 *~;
#X obj 48 250 outlet~;
#X obj 139 270 outlet~;
#X obj 48 120 inlet~;
#X obj 139 140 inlet~;
#X obj 199 137 r \$0-0-rotations;
#X obj 199 159 > 2;
#X obj 199 181 lop~ 1;
#X connect 0 0 2 0;
#X connect 1 0 3 0;
#X connect 4 0 0 0;
#X connect 5 0 1 0;
#X connect 6 0 7 0;
#X connect 7 0 8 0;
#X connect 8 0 1 1;
#X connect 8 0 0 1;
#X restore 565 87 pd volume;
#X obj 18 208 vradio 15 1 0 8 empty empty empty 0 -8 0 10 -262144 -1
-1 0;
#X text 36 207 0 - Granular soundbed note;
#X text 36 238 2 - Granular poke note high;
#X text 36 254 3 - Granular poke note low;
#X text 36 269 4 - Velocity;
#X text 36 285 5 - Quick movements;
#X text 36 300 6 - ???;
#X text 36 316 7 - ???;
#X obj 294 309 yank-in \$0-5 2;
#X obj 18 140 overview;
#X text 87 355 Processing Player data;
#X text 115 404 For debug;
#X text 293 30 USING THE PLAYER DATA;
#X text 292 55 Syntax;
#X text 17 8 ADMIN;
#X text 17 99 TOOLS;
#X text 16 187 PLAYER DEMOS;
#X text 62 334 Receive Player data;
#X text 17 452 PRESET SAVING (experimental);
#X text 563 26 DEMOS;
#X text 36 223 1 - Granular soundbed tremolo;
#N canvas 332 135 451 351 quick-movements 0;
#X obj 96 201 s_drumelectro;
#X obj 96 223 e_reslop drum-lop;
#X msg 209 197 q 2;
#X msg 195 177 freq 1800;
#X msg 96 173 hh;
#X msg 126 173 cp;
#X obj 195 153 loadbang;
#X obj 96 245 outlet~;
#X obj 126 124 yank-in \$0-5 2;
#X obj 136 144 bng 15 250 50 0 empty empty empty 17 7 0 10 -262144
-1 -1;
#X obj 106 104 bng 15 250 50 0 empty empty empty 17 7 0 10 -262144
-1 -1;
#X obj 96 84 yank-out \$0-5 1;
#X connect 0 0 1 0;
#X connect 1 0 7 0;
#X connect 2 0 1 1;
#X connect 3 0 1 1;
#X connect 4 0 0 0;
#X connect 5 0 0 0;
#X connect 6 0 3 0;
#X connect 6 0 2 0;
#X connect 8 0 9 0;
#X connect 8 0 5 0;
#X connect 11 0 4 0;
#X connect 11 0 10 0;
#X restore 565 454 pd quick-movements;
#X connect 6 0 3 0;
#X connect 7 0 4 0;
#X connect 9 0 8 0;
#X connect 10 0 11 0;
#X connect 28 0 29 0;
#X connect 28 1 29 1;
#X connect 29 0 30 0;
#X connect 29 1 30 1;
#X connect 30 0 31 0;
#X connect 30 1 32 0;
#X connect 33 0 50 0;
#X connect 33 1 50 1;
#X connect 33 2 35 0;
#X connect 34 0 31 0;
#X connect 34 1 32 0;
#X connect 35 0 34 0;
#X connect 35 0 34 1;
#X connect 38 0 39 0;
#X connect 39 0 40 0;
#X connect 39 0 41 0;
#X connect 46 0 48 0;
#X connect 46 0 47 0;
#X connect 49 0 43 0;
#X connect 50 0 28 0;
#X connect 50 1 28 1;
#X connect 51 0 24 0;
#X connect 59 0 45 0;
#X connect 72 0 46 0;
