#N canvas 139 240 281 471 10;
#X declare -path abs;
#X declare -path audio;
#X declare -path libs/oscx;
#X declare -path rj;
#X declare -path abs/4T-Granulator;
#N canvas 0 22 710 646 io 0;
#X obj 58 36 catch~ \$0-LEFT;
#X obj 158 36 catch~ \$0-RIGHT;
#X obj 58 591 dac~;
#X obj 58 526 *~;
#X obj 158 526 *~;
#X obj 173 502 lop~ 10;
#X obj 173 482 tgl 15 0 empty empty empty 17 7 0 10 -262144 -1 -1 1
1;
#X obj 173 459 loadbang;
#X obj 158 316 e_repeater;
#X obj 58 316 e_repeater;
#X obj 215 246 loadbang;
#X msg 215 269 dry 1;
#X obj 215 291 t a;
#X obj 484 31 loadbang;
#X obj 484 53 metro 1000;
#X obj 484 75 t b b;
#X obj 514 141 * 100;
#X obj 514 121 + 1;
#X obj 514 99 random 9;
#X obj 484 161 random 3;
#X obj 367 221 + 1;
#X obj 367 243 * 100;
#X msg 190 220 dry \$1;
#X obj 190 176 max 0;
#X obj 190 198 min 1;
#X obj 367 70 r \$0-5-angle1;
#X obj 367 134 int;
#X obj 367 156 change;
#X obj 367 178 / 2;
#X obj 367 200 int;
#X obj 190 132 r \$0-5-distance;
#X obj 190 154 m_scale 25000 30000 1 0.188;
#X obj 367 92 abs;
#X obj 367 112 m_scale 0 45 6 0;
#X obj 158 424 e_reslop;
#X obj 206 358 hsl 128 15 20 20000 0 0 empty empty empty -2 -8 0 10
-262144 -1 -1 12700 1;
#X obj 58 424 e_reslop;
#X floatatom 214 381 5 0 0 0 - - -, f 5;
#X floatatom 397 92 5 0 0 0 - - -, f 5;
#X obj 397 265 r \$0-5-angle1;
#X obj 397 354 int;
#X obj 406 287 nbx 5 40 -1e+37 1e+37 0 0 empty empty empty 0 -8 0 40
-262144 -1 -1 -180 256;
#X obj 397 376 min 20000;
#X obj 397 398 max 200;
#X obj 432 444 nbx 5 40 -1e+37 1e+37 0 0 empty empty empty 0 -8 0 40
-262144 -1 -1 20000 256;
#X obj 397 420 pack f 100;
#X obj 397 442 line;
#X msg 203 399 freq \$1 \, q 5;
#X obj 397 332 m_scale -50 -19 20000 200;
#X connect 0 0 9 0;
#X connect 1 0 8 0;
#X connect 3 0 2 0;
#X connect 4 0 2 1;
#X connect 5 0 4 1;
#X connect 5 0 3 1;
#X connect 6 0 5 0;
#X connect 7 0 6 0;
#X connect 8 0 34 0;
#X connect 9 0 36 0;
#X connect 10 0 11 0;
#X connect 11 0 12 0;
#X connect 12 0 8 1;
#X connect 12 0 9 1;
#X connect 13 0 14 0;
#X connect 14 0 15 0;
#X connect 15 0 19 0;
#X connect 15 1 18 0;
#X connect 16 0 14 1;
#X connect 17 0 16 0;
#X connect 18 0 17 0;
#X connect 20 0 21 0;
#X connect 21 0 12 0;
#X connect 22 0 12 0;
#X connect 23 0 24 0;
#X connect 24 0 22 0;
#X connect 25 0 32 0;
#X connect 25 0 38 0;
#X connect 26 0 27 0;
#X connect 27 0 28 0;
#X connect 28 0 29 0;
#X connect 29 0 20 0;
#X connect 30 0 31 0;
#X connect 31 0 23 0;
#X connect 32 0 33 0;
#X connect 33 0 26 0;
#X connect 34 0 4 0;
#X connect 35 0 47 0;
#X connect 35 0 37 0;
#X connect 36 0 3 0;
#X connect 39 0 41 0;
#X connect 39 0 48 0;
#X connect 40 0 42 0;
#X connect 42 0 43 0;
#X connect 43 0 44 0;
#X connect 43 0 45 0;
#X connect 45 0 46 0;
#X connect 46 0 35 0;
#X connect 47 0 34 1;
#X connect 47 0 36 1;
#X connect 48 0 40 0;
#X restore 18 49 pd io;
#N canvas 0 22 450 300 timebase 0;
#X obj 106 52 loadbang;
#X obj 106 75 tgl 15 0 empty empty empty 17 7 0 10 -262144 -1 -1 1
1;
#X obj 106 119 f;
#X obj 136 119 + 1;
#X obj 106 141 s \$0-tick;
#X obj 106 97 metro 50;
#X connect 0 0 1 0;
#X connect 1 0 5 0;
#X connect 2 0 3 0;
#X connect 2 0 4 0;
#X connect 3 0 2 1;
#X connect 5 0 2 0;
#X restore 18 69 pd timebase;
#N canvas 0 22 454 172 init 0;
#X obj 62 56 declare -path abs;
#X obj 62 96 declare -path audio;
#X obj 62 36 declare -path libs/oscx;
#X obj 62 116 declare -path rj;
#X obj 62 76 declare -path abs/4T-Granulator;
#X obj 317 53 loadbang;
#X msg 317 75 \; pd dsp 1 \;;
#X connect 5 0 6 0;
#X restore 18 29 pd init;
#N canvas 526 89 989 856 Players 1;
#X floatatom 753 346 5 0 0 0 - - -, f 5;
#X obj 753 365 s rotations-multiplier;
#X text 747 15 Player parameters;
#X text 746 45 -rotations (0 - ~70);
#X text 747 65 -angle1 (3 - 15);
#X text 747 85 -angle2 (3 - 15);
#X text 747 105 -velocity-out (0 - 30);
#X text 747 125 -velocity-in (0 - -30);
#X text 747 145 -section (0 - 7);
#X text 747 165 -boundary (bang);
#X text 747 185 -dir (-1 \, 0 \, 1);
#X obj 743 525 loadbang;
#X obj 743 547 del 1000;
#X obj 736 425 r forwardPlayerData;
#X obj 736 621 sendOSC 9006;
#X msg 811 540 disconnect;
#X msg 743 598 connect 192.168.1.118 9003;
#X obj 736 497 spigot;
#X obj 769 457 tgl 35 0 empty empty To_visualisations 37 17 0 10 -262144
-1 -1 0 1;
#X msg 753 578 connect 255.255.255.255 9003;
#X obj 741 831 sendOSC;
#X msg 753 807 connect 255.255.255.255 9000;
#X msg 749 734 send /inputs/mode/serial/1;
#X msg 741 711 send /inputs/mode/analogue/1;
#X obj 753 763 loadbang;
#X obj 753 785 del 1000;
#X obj 741 681 bng 15 250 50 0 empty empty ALL_OFF 17 7 0 10 -261234
-1 -1;
#X obj 811 681 bng 15 250 50 0 empty empty ALL_ON 17 7 0 10 -204786
-1 -1;
#X obj 364 14 player-input \$0 6;
#X obj 364 452 player-input \$0 9;
#X obj 13 14 player-input \$0 0;
#X obj 13 160 player-input \$0 1;
#X obj 364 160 player-input \$0 7;
#X obj 364 598 player-input \$0 10;
#X obj 13 306 player-input \$0 2;
#X obj 13 598 player-input \$0 4;
#X obj 13 744 player-input \$0 5;
#X obj 13 452 player-input \$0 3;
#X obj 364 306 player-input \$0 8;
#X obj 364 744 player-input \$0 11;
#X connect 0 0 1 0;
#X connect 11 0 12 0;
#X connect 12 0 16 0;
#X connect 13 0 17 0;
#X connect 15 0 14 0;
#X connect 16 0 14 0;
#X connect 17 0 14 0;
#X connect 18 0 17 1;
#X connect 19 0 14 0;
#X connect 21 0 20 0;
#X connect 22 0 20 0;
#X connect 23 0 20 0;
#X connect 24 0 25 0;
#X connect 25 0 21 0;
#X connect 26 0 23 0;
#X connect 27 0 22 0;
#X restore 18 354 pd Players;
#N canvas 446 124 414 691 Fake-Players 0;
#X obj 92 576 r fakeHarpSend;
#X obj 99 596 loadbang;
#X obj 99 618 del 1000;
#X text 184 577 From FakePlayers sub-patch;
#X obj 92 662 sendOSC 9002;
#X msg 99 639 connect 127.0.0.1 9002;
#X obj 202 159 fakePlayer 5 \$0;
#X text 77 3 Drone 1;
#X text 77 144 Donger;
#X text 77 286 Velocity;
#X text 77 430 Arp;
#X text 267 286 Velocity;
#X text 267 430 Arp;
#X text 267 3 History;
#X text 267 144 Tremolo;
#X obj 22 18 fakePlayer 0 \$0;
#X obj 22 301 fakePlayer 2 \$0;
#X obj 22 159 fakePlayer 1 \$0;
#X obj 202 18 fakePlayer 4 \$0;
#X obj 23 445 fakePlayer 3 \$0;
#X obj 203 445 fakePlayer 7 \$0;
#X obj 202 301 fakePlayer 6 \$0;
#X connect 0 0 4 0;
#X connect 1 0 2 0;
#X connect 2 0 5 0;
#X connect 5 0 4 0;
#X restore 18 404 pd Fake-Players;
#N canvas 98 101 230 261 pitch-detect 0;
#X obj 41 128 + 0.499;
#X obj 41 149 int;
#X obj 41 90 line;
#X floatatom 41 111 5 0 0 0 - - -, f 5;
#X obj 41 69 pack 0 20;
#X obj 41 48 fiddle~ 2048 1 20 3;
#X obj 41 170 change;
#X floatatom 41 192 5 0 0 0 - - -, f 5;
#X connect 0 0 1 0;
#X connect 1 0 6 0;
#X connect 2 0 3 0;
#X connect 3 0 0 0;
#X connect 4 0 2 0;
#X connect 5 0 4 0;
#X connect 6 0 7 0;
#X restore 18 119 pd pitch-detect;
#X obj 18 140 overview;
#X text 87 355 Processing Player data;
#X text 115 404 For debug;
#X text 17 8 ADMIN;
#X text 17 99 TOOLS;
#X text 62 314 Receive Player data;
#X text 75 140 rjlib;
#N canvas 200 263 482 384 osc 0;
#X obj 43 269 s \$0-player-osc;
#X obj 43 46 OSCroute /1;
#X obj 43 68 s \$0-touchOSC;
#X obj 130 153 inlet;
#X msg 130 225 /\$1;
#X text 125 24 From TouchOSC iPad interface;
#X text 125 106 From debug_xosc Processing sketch;
#X obj 67 234 list prepend /0;
#X obj 52 129 dumpOSC 9002;
#X text 135 126 From FakePlayers sub-patch Processing sketch;
#X obj 245 272 s \$0-0-section;
#X msg 274 250 10;
#X obj 275 292 s \$0-0-rotations;
#X obj 245 226 sel 1;
#X msg 245 250 6;
#X obj 43 105 dumpOSC 9001;
#X obj 244 195 s real-player-on;
#X obj 43 24 dumpOSC 5000;
#X obj 9 183 dumpOSC 9000;
#X obj 40 242 print;
#X connect 1 0 2 0;
#X connect 3 0 4 0;
#X connect 3 0 13 0;
#X connect 3 0 16 0;
#X connect 4 0 7 1;
#X connect 11 0 12 0;
#X connect 13 0 14 0;
#X connect 13 0 11 0;
#X connect 14 0 10 0;
#X connect 15 0 7 0;
#X connect 17 0 1 0;
#X connect 18 0 0 0;
#X restore 18 313 pd osc;
#N canvas 17 58 1436 842 hit-play 1;
#X obj 1133 75 - 78;
#X obj 45 513 hh_drone;
#X obj 45 640 e_scompress;
#X msg 108 618 threshold 25;
#X obj 108 594 loadbang;
#X msg 188 618 ratio 4;
#X msg 252 446 interval \$1;
#X obj 90 467 loadbang;
#X msg 195 427 mix \$1;
#X obj 605 430 abs;
#X msg 829 481 noise-burst 1;
#X obj 947 459 int;
#X msg 947 481 interval \$1;
#X obj 605 526 hh_velocity-synth;
#X msg 744 482 base-note \$1;
#X obj 1148 533 r play-hit;
#X obj 1148 577 vline~;
#X msg 1148 555 0.4 4 \, 1 3000 40;
#X obj 1133 600 *~;
#X msg 592 315 interval \$1;
#X obj 490 316 loadbang;
#X msg 702 317 mix \$1;
#X obj 445 334 + 4;
#N canvas 0 22 633 309 noise-drums 0;
#X obj 67 130 noise~;
#X obj 67 204 *~;
#X obj 140 180 vline~;
#X msg 140 158 0 2 \, 1 5 10 \, 0 300 15;
#X obj 140 21 r \$0-tick;
#X obj 67 152 bp~ 200 1;
#X obj 287 128 noise~;
#X obj 287 202 *~;
#X obj 360 178 vline~;
#X msg 360 156 0 2 \, 1 5 10 \, 0 300 15;
#X obj 287 150 bp~ 500 2;
#X obj 140 63 mod 56;
#X obj 360 61 mod 56;
#X obj 140 85 sel 0 12 24 44 4;
#X obj 214 109 random 2;
#X obj 214 131 sel 0;
#X obj 439 109 random 2;
#X obj 439 131 sel 0;
#X obj 360 83 sel 8 16 32 52 36;
#X obj 516 32 inlet;
#X obj 516 56 * 8;
#X obj 67 226 throw~ \$0-LEFT;
#X obj 287 226 throw~ \$0-RIGHT;
#X obj 287 180 *~ 0;
#X obj 67 182 *~ 0;
#X connect 0 0 5 0;
#X connect 1 0 21 0;
#X connect 2 0 1 1;
#X connect 3 0 2 0;
#X connect 4 0 11 0;
#X connect 4 0 12 0;
#X connect 5 0 24 0;
#X connect 6 0 10 0;
#X connect 7 0 22 0;
#X connect 8 0 7 1;
#X connect 9 0 8 0;
#X connect 10 0 23 0;
#X connect 11 0 13 0;
#X connect 12 0 18 0;
#X connect 13 0 3 0;
#X connect 13 1 3 0;
#X connect 13 2 3 0;
#X connect 13 3 3 0;
#X connect 13 4 14 0;
#X connect 14 0 15 0;
#X connect 15 0 3 0;
#X connect 16 0 17 0;
#X connect 17 0 9 0;
#X connect 18 0 9 0;
#X connect 18 1 9 0;
#X connect 18 2 9 0;
#X connect 18 3 9 0;
#X connect 18 4 16 0;
#X connect 19 0 20 0;
#X connect 20 0 23 1;
#X connect 20 0 24 1;
#X connect 23 0 7 0;
#X connect 24 0 1 0;
#X restore 506 129 pd noise-drums;
#X obj 506 108 min 1;
#X obj 506 86 max 0;
#X obj 1133 622 *~ 0.5;
#X obj 1183 622 *~ 0.4;
#X obj 45 764 throw~ \$0-LEFT;
#X obj 64 785 throw~ \$0-RIGHT;
#X obj 139 762 throw~ \$0-PLATEREVERB-L;
#X obj 165 785 throw~ \$0-PLATEREVERB-R;
#X obj 45 302 r \$0-detected-hit-note;
#X obj 744 438 r \$0-detected-hit-note;
#X obj 445 286 r \$0-detected-hit-note;
#X obj 1133 53 r \$0-detected-hit-note;
#X obj 605 758 throw~ \$0-LEFT;
#X obj 625 778 throw~ \$0-RIGHT;
#X obj 698 758 throw~ \$0-PLATEREVERB-L;
#X obj 724 778 throw~ \$0-PLATEREVERB-R;
#X obj 76 578 catch~ \$0-drone-comp-sc;
#X obj 701 726 throw~ \$0-drone-comp-sc;
#X obj 77 535 catch~ \$0-drone-comp;
#X obj 1133 730 throw~ \$0-drone-comp;
#X obj 1183 687 throw~ \$0-LEFT;
#X obj 1202 708 throw~ \$0-RIGHT;
#X msg 490 338 distortion-amt 2.5 \, distortion-wet 0.5;
#X msg 90 489 distortion-amt 2.5 \, distortion-wet 0.5;
#X obj 64 160 hh_donger \$0;
#X obj 183 -3 r \$0-1-section;
#X obj 207 68 f;
#X msg 384 45 4;
#X msg 354 45 6;
#X msg 324 45 8;
#X msg 294 45 12;
#X msg 267 45 16;
#X msg 237 45 24;
#X msg 207 45 32;
#X msg 287 94 repeat-hits-speed \$1;
#X msg 173 94 repeat-hits-on \$1;
#X obj 173 73 != 0;
#X obj 592 201 r \$0-4-angle1;
#X obj 702 265 r \$0-4-rotations;
#X msg 1133 97 bass-note \$1;
#X msg 1164 216 arp-delay-time 200 \, arp-notes 0 4 7 11;
#X obj 1164 193 loadbang;
#X msg 1364 168 arp-range \$1;
#X msg 1476 175 arp-direction \$1;
#X msg 1021 165 arp-on \$1;
#X msg 1252 165 arp-vol \$1;
#X msg 1589 217 arp-delay-fb \$1;
#X text 694 51 To do:;
#X text 694 71 - initial choked/croaky sound for drone;
#X obj 252 354 m_speedlimit 10;
#X obj 947 297 m_speedlimit 10;
#X obj 1252 136 min 1;
#X floatatom 1296 147 5 0 0 0 - - -, f 5;
#X obj 1252 106 max 0;
#X obj 1364 108 max 5;
#X obj 1364 138 min 22;
#X obj 1589 167 min 0.98;
#X obj 1589 189 max 0;
#X obj 1589 105 abs;
#X obj 592 265 min 13;
#X obj 592 287 max 8;
#X obj 592 223 abs;
#X obj 605 680 *~ 1.3;
#X obj 506 64 m_scale 28000 30000 0 1;
#X obj 592 243 m_scale -180 180 -8 8;
#X obj 702 287 / 328;
#X floatatom 1314 116 5 0 0 0 - - -, f 5;
#X obj 1021 144 > 1000;
#X obj 1364 85 m_scale 0 30000 5 22;
#X obj 1133 248 hh_arp \$0;
#X obj 605 473 min 1;
#X obj 605 495 max 0;
#X msg 560 106 0;
#X obj 506 42 r \$0-1-distance;
#X obj 207 21 sel 1 2 3 4 5 6 7;
#X obj 195 375 min 1;
#X obj 195 332 / 15000;
#X obj 252 396 min 8;
#X obj 252 418 max -9;
#X obj 195 354 max 0;
#X obj 605 451 m_scale 0 30000 0 1 1;
#X floatatom 59 364 5 0 0 0 - - -, f 5;
#X floatatom 1094 151 5 0 0 0 - - -, f 5;
#X obj 1252 84 m_scale 0 5000 0 1;
#X obj 1476 145 sel 0;
#X floatatom 1619 115 5 0 0 0 - - -, f 5;
#X obj 250 623 min 1;
#X obj 312 623 max 0;
#X obj 250 601 / 15000;
#X msg 250 645 depth \$1;
#X obj 312 601 m_scale 0 30000 1.5 8.5;
#X msg 312 645 freq \$1;
#X obj 1133 415 hh_tremolo;
#X obj 1190 367 min 1;
#X obj 1252 367 max 0;
#X obj 1190 345 / 15000;
#X msg 1190 389 depth \$1;
#X obj 1252 345 m_scale 0 30000 1.5 8.5;
#X msg 1252 389 freq \$1;
#X obj 1406 367 min 1;
#X msg 1406 389 shape \$1;
#X obj 1406 325 abs;
#X obj 1406 345 m_scale 0 90 0.1 1;
#X obj 45 691 hh_tremolo;
#X obj 605 657 hh_tremolo;
#X obj 662 609 min 1;
#X obj 724 609 max 0;
#X obj 662 587 / 15000;
#X msg 662 631 depth \$1;
#X obj 724 587 m_scale 0 30000 1.5 8.5;
#X msg 724 631 freq \$1;
#X obj 878 609 min 1;
#X msg 878 631 shape \$1;
#X obj 878 567 abs;
#X obj 878 587 m_scale 0 90 0.1 1;
#X obj 458 623 min 1;
#X msg 458 645 shape \$1;
#X obj 458 581 abs;
#X obj 458 601 m_scale 0 90 0.1 1;
#X obj 445 361 hh_drone;
#X floatatom 934 615 5 0 0 0 - - -, f 5;
#X obj 956 278 hsl 128 15 -5000 5000 0 0 empty empty empty -2 -8 0
10 -262144 -1 -1 6349 1;
#X floatatom 1474 404 5 0 0 0 - - -, f 5;
#X msg 1451 370 0;
#X obj 45 715 *~ 1;
#X obj 1207 269 list prepend arp-notes;
#N canvas 0 22 462 303 tonality 0;
#X obj 58 134 int;
#X obj 58 156 sel 0 1 2 3;
#X obj 58 250 outlet;
#X obj 58 83 r \$0-3-angle1;
#X obj 208 98 nbx 5 40 -1e+37 1e+37 0 0 empty empty empty 0 -8 0 40
-262144 -1 -1 -0 256;
#X obj 208 140 nbx 5 40 -1e+37 1e+37 0 0 empty empty empty 0 -8 0 40
-262144 -1 -1 0 256;
#X msg 58 185 0 4 7 11;
#X msg 67 208 0 3 7 10;
#X msg 77 228 0 3 6 10;
#X obj 58 108 m_scale -45 -10 0 3;
#X connect 0 0 1 0;
#X connect 0 0 5 0;
#X connect 1 0 6 0;
#X connect 1 1 6 0;
#X connect 1 2 7 0;
#X connect 1 3 8 0;
#X connect 3 0 4 0;
#X connect 6 0 2 0;
#X connect 7 0 2 0;
#X connect 8 0 2 0;
#X connect 9 0 0 0;
#X restore 1207 247 pd tonality;
#X floatatom 141 182 5 0 0 0 - - -, f 5;
#X obj 133 231 s \$0-detected-hit-note;
#N canvas 336 109 278 319 change-base-note 1;
#X obj 99 63 int;
#X msg 99 108 0;
#X msg 114 128 5;
#X msg 130 150 8;
#X msg 146 174 9;
#X obj 99 85 sel 0 1 2 3;
#X obj 99 15 r \$1-4-displacement-angle1;
#X obj 99 37 m_scale -5000 5000 0 3;
#X obj 40 168 inlet;
#X obj 40 240 +;
#X obj 40 272 outlet;
#X obj 99 212 t b f;
#X connect 0 0 5 0;
#X connect 1 0 11 0;
#X connect 2 0 11 0;
#X connect 3 0 11 0;
#X connect 4 0 11 0;
#X connect 5 0 1 0;
#X connect 5 1 2 0;
#X connect 5 2 3 0;
#X connect 5 3 4 0;
#X connect 6 0 7 0;
#X connect 7 0 0 0;
#X connect 8 0 9 0;
#X connect 9 0 10 0;
#X connect 11 0 9 0;
#X connect 11 1 9 1;
#X restore 133 203 pd change-base-note;
#X floatatom 271 211 5 0 0 0 - - -, f 5;
#X obj 305 200 sel 0 1 2 3;
#X msg 305 222 -5;
#X msg 333 222 0;
#X obj 756 138 nbx 5 40 -1e+37 1e+37 0 0 empty empty empty 0 -8 0 40
-262144 -1 -1 0 256;
#X obj 305 244 f;
#X obj 64 133 f;
#X obj 441 170 nbx 5 40 -1e+37 1e+37 0 0 empty empty empty 0 -8 0 40
-262144 -1 -1 -1.66 256;
#X obj 305 180 int;
#X obj 64 256 throw~ \$0-LEFT;
#X obj 83 277 throw~ \$0-RIGHT;
#X obj 156 256 throw~ \$0-PLATEREVERB-L;
#X obj 182 276 throw~ \$0-PLATEREVERB-R;
#X obj 1490 249 nbx 5 40 -1e+37 1e+37 0 0 empty empty empty 0 -8 0
40 -262144 -1 -1 1.66 256;
#X obj 1589 145 m_scale 0 20 0 0.98;
#X obj 1490 291 nbx 5 40 -1e+37 1e+37 0 0 empty empty empty 0 -8 0
40 -262144 -1 -1 0.08134 256;
#X obj 1440 19 hsl 200 30 -90 90 0 0 empty empty empty -2 -8 0 10 -262144
-1 -1 9760 1;
#X obj 252 374 m_scale -90 90 -9 8;
#X obj 353 411 nbx 5 40 -1e+37 1e+37 0 0 empty empty empty 0 -8 0 40
-262144 -1 -1 -1.62 256;
#X obj 353 461 nbx 5 40 -1e+37 1e+37 0 0 empty empty empty 0 -8 0 40
-262144 -1 -1 -0.653 256;
#X obj 195 397 pow 2;
#X obj 872 220 nbx 5 40 -1e+37 1e+37 0 0 empty empty empty 0 -8 0 40
-262144 -1 -1 -0.99 256;
#X obj 750 333 nbx 5 40 -1e+37 1e+37 0 0 empty empty empty 0 -8 0 40
-262144 -1 -1 -5 256;
#X obj 252 333 unpack f f;
#X obj 458 559 unpack f;
#X obj 248 116 unpack f f;
#X obj 128 103 bng 15 250 50 0 empty empty empty 17 7 0 10 -262144
-1 -1;
#X floatatom 1152 126 5 0 0 0 - - -, f 5;
#X obj 305 159 hysteresis 0.5;
#X obj 325 266 pipe 1000;
#X msg 1063 50 0;
#X msg 365 222 4;
#X obj 305 138 m_scale -20 20 0 2;
#X obj 578 371 player-output \$0-9;
#X obj 23 79 player-output \$0-6;
#X obj 250 525 player-output \$0-5;
#X obj 195 310 player-output \$0-8;
#X obj 910 199 unpack f f;
#X floatatom 666 411 5 0 0 0 - - -, f 5;
#X obj 829 459 yank-in \$0-9 30000;
#X obj 802 541 dac~;
#X floatatom 659 508 5 0 0 0 - - -, f 5;
#X obj 997 339 int;
#X obj 997 361 change;
#X floatatom 1007 405 5 0 0 0 - - -, f 5;
#X floatatom 1041 359 5 0 0 0 - - -, f 5;
#X obj 997 383 notes 7 0 0 2 4 5 7 9 11;
#X obj 919 387 sel 0 1 2 3;
#X msg 919 409 -5;
#X msg 947 409 0;
#X obj 919 431 f;
#X obj 919 367 int;
#X obj 919 346 hysteresis 0.5;
#X msg 979 409 4;
#X obj 947 317 m_scale -20 20 0 2;
#X obj 605 702 e_pan;
#X obj 681 676 loadbang;
#X msg 681 698 0.3;
#X obj 1183 653 e_pan;
#X obj 1333 567 loadbang;
#X msg 1333 589 0.8;
#X obj 1278 22 player-output \$0-6;
#X obj 1333 50 unpack f f;
#X obj 1190 321 player-output \$0-5;
#X obj 1406 303 unpack f;
#X obj 662 564 player-output \$0-5;
#X obj 878 545 unpack f f;
#X connect 0 0 63 0;
#X connect 0 0 181 0;
#X connect 1 0 2 0;
#X connect 1 0 2 1;
#X connect 2 0 127 0;
#X connect 3 0 2 2;
#X connect 4 0 5 0;
#X connect 4 0 3 0;
#X connect 5 0 2 2;
#X connect 6 0 1 1;
#X connect 7 0 47 0;
#X connect 8 0 1 1;
#X connect 9 0 104 0;
#X connect 9 0 192 0;
#X connect 10 0 13 1;
#X connect 11 0 12 0;
#X connect 11 0 176 0;
#X connect 12 0 13 1;
#X connect 13 0 128 0;
#X connect 13 0 194 1;
#X connect 13 1 128 0;
#X connect 14 0 13 1;
#X connect 15 0 17 0;
#X connect 16 0 18 1;
#X connect 17 0 16 0;
#X connect 18 0 26 0;
#X connect 18 0 27 0;
#X connect 19 0 143 1;
#X connect 20 0 46 0;
#X connect 21 0 143 1;
#X connect 22 0 143 0;
#X connect 24 0 23 0;
#X connect 25 0 24 0;
#X connect 26 0 43 0;
#X connect 27 0 212 0;
#X connect 32 0 1 0;
#X connect 32 0 105 0;
#X connect 33 0 14 0;
#X connect 34 0 22 0;
#X connect 40 0 2 1;
#X connect 42 0 2 0;
#X connect 46 0 143 1;
#X connect 47 0 1 1;
#X connect 48 0 163 0;
#X connect 48 1 164 0;
#X connect 48 2 163 0;
#X connect 48 2 164 0;
#X connect 48 3 151 0;
#X connect 48 3 153 0;
#X connect 49 0 98 0;
#X connect 50 0 58 0;
#X connect 51 0 50 0;
#X connect 52 0 50 0;
#X connect 53 0 50 0;
#X connect 54 0 50 0;
#X connect 55 0 50 0;
#X connect 56 0 50 0;
#X connect 57 0 50 0;
#X connect 58 0 48 1;
#X connect 59 0 48 1;
#X connect 60 0 59 0;
#X connect 61 0 85 0;
#X connect 62 0 89 0;
#X connect 63 0 93 0;
#X connect 64 0 93 0;
#X connect 65 0 64 0;
#X connect 66 0 93 0;
#X connect 67 0 93 0;
#X connect 68 0 93 0;
#X connect 69 0 93 0;
#X connect 70 0 93 0;
#X connect 73 0 171 0;
#X connect 73 0 172 0;
#X connect 74 0 208 0;
#X connect 75 0 76 0;
#X connect 75 0 69 0;
#X connect 77 0 75 0;
#X connect 78 0 79 0;
#X connect 79 0 66 0;
#X connect 80 0 81 0;
#X connect 81 0 70 0;
#X connect 81 0 169 0;
#X connect 82 0 167 0;
#X connect 82 0 168 0;
#X connect 83 0 84 0;
#X connect 84 0 19 0;
#X connect 85 0 88 0;
#X connect 86 0 41 0;
#X connect 86 0 209 0;
#X connect 87 0 25 0;
#X connect 88 0 83 0;
#X connect 89 0 21 0;
#X connect 91 0 68 0;
#X connect 92 0 78 0;
#X connect 93 0 116 0;
#X connect 94 0 95 0;
#X connect 95 0 13 0;
#X connect 95 0 195 0;
#X connect 96 0 23 0;
#X connect 98 0 57 0;
#X connect 98 1 56 0;
#X connect 98 2 55 0;
#X connect 98 3 54 0;
#X connect 98 4 53 0;
#X connect 98 5 52 0;
#X connect 98 6 51 0;
#X connect 99 0 174 0;
#X connect 100 0 103 0;
#X connect 101 0 102 0;
#X connect 102 0 6 0;
#X connect 102 0 173 0;
#X connect 103 0 99 0;
#X connect 104 0 94 0;
#X connect 107 0 77 0;
#X connect 108 1 67 0;
#X connect 110 0 113 0;
#X connect 111 0 115 0;
#X connect 112 0 110 0;
#X connect 113 0 127 1;
#X connect 114 0 111 0;
#X connect 115 0 127 1;
#X connect 116 0 18 0;
#X connect 117 0 120 0;
#X connect 118 0 122 0;
#X connect 119 0 117 0;
#X connect 120 0 116 1;
#X connect 121 0 118 0;
#X connect 122 0 116 1;
#X connect 123 0 146 0;
#X connect 124 0 116 1;
#X connect 125 0 126 0;
#X connect 126 0 123 0;
#X connect 127 0 148 0;
#X connect 128 0 86 0;
#X connect 129 0 132 0;
#X connect 130 0 134 0;
#X connect 131 0 129 0;
#X connect 132 0 128 1;
#X connect 133 0 130 0;
#X connect 134 0 128 1;
#X connect 135 0 136 0;
#X connect 136 0 128 1;
#X connect 137 0 138 0;
#X connect 138 0 135 0;
#X connect 138 0 144 0;
#X connect 139 0 140 0;
#X connect 140 0 127 1;
#X connect 141 0 142 0;
#X connect 142 0 139 0;
#X connect 143 0 2 0;
#X connect 147 0 124 0;
#X connect 148 0 28 0;
#X connect 148 0 29 0;
#X connect 148 0 30 0;
#X connect 148 0 31 0;
#X connect 149 0 93 0;
#X connect 150 0 149 0;
#X connect 153 0 152 0;
#X connect 153 0 154 0;
#X connect 155 0 156 0;
#X connect 155 1 157 0;
#X connect 155 2 185 0;
#X connect 156 0 159 0;
#X connect 157 0 159 0;
#X connect 159 0 158 0;
#X connect 159 0 183 0;
#X connect 160 0 48 0;
#X connect 162 0 155 0;
#X connect 168 0 80 0;
#X connect 171 0 101 0;
#X connect 174 0 8 0;
#X connect 177 1 73 0;
#X connect 178 0 141 0;
#X connect 179 1 161 0;
#X connect 179 1 186 0;
#X connect 182 0 162 0;
#X connect 183 0 160 1;
#X connect 184 0 63 0;
#X connect 185 0 159 0;
#X connect 186 0 182 0;
#X connect 187 1 191 0;
#X connect 187 3 9 0;
#X connect 188 1 179 0;
#X connect 188 7 160 0;
#X connect 188 7 180 0;
#X connect 189 0 112 0;
#X connect 189 0 114 0;
#X connect 189 1 178 0;
#X connect 190 0 100 0;
#X connect 190 1 177 0;
#X connect 191 1 145 0;
#X connect 191 1 74 0;
#X connect 191 1 175 0;
#X connect 193 0 10 0;
#X connect 196 0 197 0;
#X connect 197 0 199 0;
#X connect 197 0 200 0;
#X connect 200 0 198 0;
#X connect 201 0 202 0;
#X connect 201 1 203 0;
#X connect 201 2 207 0;
#X connect 202 0 204 0;
#X connect 203 0 204 0;
#X connect 204 0 11 0;
#X connect 205 0 201 0;
#X connect 206 0 205 0;
#X connect 207 0 204 0;
#X connect 208 0 206 0;
#X connect 209 0 36 0;
#X connect 209 0 38 0;
#X connect 209 1 37 0;
#X connect 209 1 39 0;
#X connect 210 0 211 0;
#X connect 211 0 209 1;
#X connect 212 0 44 0;
#X connect 212 1 45 0;
#X connect 213 0 214 0;
#X connect 214 0 212 1;
#X connect 215 0 107 0;
#X connect 215 0 92 0;
#X connect 215 0 91 0;
#X connect 215 1 216 0;
#X connect 215 4 108 0;
#X connect 216 1 82 0;
#X connect 217 0 119 0;
#X connect 217 0 121 0;
#X connect 217 1 218 0;
#X connect 218 0 125 0;
#X connect 219 0 131 0;
#X connect 219 0 133 0;
#X connect 219 1 220 0;
#X connect 220 1 137 0;
#X restore 139 209 pd hit-play;
#X obj 18 187 vradio 15 1 0 8 empty empty empty 0 -8 0 10 -262144 -1
-1 0;
#X obj 120 274 s fake-players-on;
#X obj 120 253 tgl 15 0 empty empty empty 17 7 0 10 -262144 -1 -1 0
1;
#N canvas 146 330 450 300 global-effects 0;
#X obj 88 125 e_platereverb;
#X obj 88 75 catch~ \$0-PLATEREVERB-L;
#X obj 125 100 catch~ \$0-PLATEREVERB-R;
#X obj 88 156 throw~ \$0-LEFT;
#X obj 125 180 throw~ \$0-RIGHT;
#X connect 0 0 3 0;
#X connect 0 1 4 0;
#X connect 1 0 0 0;
#X connect 2 0 0 1;
#X restore 108 30 pd global-effects;
#N canvas 719 31 470 826 history 0;
#X obj 49 34 loadbang;
#X obj 49 56 tgl 15 0 empty empty empty 17 7 0 10 -262144 -1 -1 1 1
;
#X obj 43 301 catch~ \$0-history-l;
#X obj 74 321 catch~ \$0-history-r;
#X obj 43 787 dac~;
#X obj 49 78 metro 5000;
#X msg 309 75 5000;
#X obj 309 99 s \$0-history-interval;
#X obj 336 145 s \$0-history-overlap;
#X obj 106 56 r \$0-history-interval;
#X obj 49 144 sel 0 1 2 3 4 5;
#X obj 309 28 loadbang;
#X obj 309 50 t b b;
#X floatatom 59 122 5 0 0 0 - - -, f 5;
#X msg 336 122 4000;
#X obj 92 237 history-voice \$0 0.021 0.014 woodkid 240;
#X obj 49 100 c_urn 6;
#X msg 100 100 clear \, bang;
#X obj 89 621 line;
#X obj 49 177 history-voice \$0 0.02 0.01 bonobo 240;
#X obj 63 197 history-voice \$0 0.03 0.007 portico-quartet 480;
#X obj 78 217 history-voice \$0 0.022 0.013 the-doors 720;
#X obj 107 257 history-voice \$0 0.027 0.01 shpongle 420;
#X obj 121 277 history-voice \$0 0.024 0.043 jessie-j 720;
#X obj 43 717 *~;
#X obj 74 717 *~;
#X obj 89 689 lop~ 10;
#X obj 43 747 e_reslop;
#X obj 74 767 e_reslop;
#X obj 246 774 t a;
#X msg 216 706 freq \$1;
#X obj 138 675 vsl 15 40 0 1 0 0 empty empty empty 0 -9 0 10 -262144
-1 -1 0 1;
#X obj 89 347 r \$0-4-velocity;
#X obj 116 462 change;
#X obj 116 484 sel 1;
#X msg 229 530 0;
#X msg 116 560 0 6000;
#X obj 262 519 change;
#X obj 262 541 sel 1;
#X msg 262 563 1;
#X obj 262 497 == 0;
#X obj 89 369 max 0;
#X obj 89 416 t f f;
#X msg 246 752 q 2;
#X obj 262 585 tgl 15 0 empty empty empty 17 7 0 10 -262144 -1 -1 1
1;
#X obj 89 394 m_scale 0 50000 0 1 1;
#X obj 89 643 pow 2;
#X obj 216 678 m_scale 0 1 15000 20000;
#X obj 116 506 t b b b;
#X obj 116 440 > 0.8;
#N canvas 199 405 452 362 velocity 0;
#X obj 48 48 t f f;
#X obj 48 235 *~;
#X obj 48 162 sig~;
#X obj 48 184 osc~;
#X obj 189 131 noise~;
#X obj 189 175 *~ 0.04;
#X obj 282 101 abs;
#X obj 48 206 *~ 1;
#X obj 48 26 r \$0-4-velocity;
#X obj 48 77 max 0;
#X obj 48 102 m_scale 0 50000 12 100;
#X obj 282 144 min 1;
#X obj 189 153 lop~ 3000;
#X obj 282 122 m_scale 0 30000 0 1 1;
#X obj 48 289 outlet~;
#X obj 48 267 *~ 1;
#X obj 282 166 pack f 10;
#X obj 282 185 line~;
#X floatatom 350 97 5 0 0 0 - - -, f 5;
#X connect 0 0 9 0;
#X connect 0 1 6 0;
#X connect 1 0 15 0;
#X connect 2 0 3 0;
#X connect 3 0 7 0;
#X connect 4 0 12 0;
#X connect 5 0 1 0;
#X connect 6 0 13 0;
#X connect 7 0 1 0;
#X connect 8 0 0 0;
#X connect 9 0 10 0;
#X connect 10 0 2 0;
#X connect 11 0 16 0;
#X connect 12 0 5 0;
#X connect 13 0 11 0;
#X connect 13 0 18 0;
#X connect 15 0 14 0;
#X connect 16 0 17 0;
#X connect 17 0 1 1;
#X restore 188 609 pd velocity;
#N canvas 850 361 333 181 delay 0;
#X obj 82 81 delwrite~ \$0-velocity 1000;
#X obj 22 56 inlet~;
#X obj 22 141 outlet~;
#X obj 82 103 delread~ \$0-velocity 350;
#X obj 38 89 *~ 0.4;
#X connect 1 0 0 0;
#X connect 1 0 2 0;
#X connect 3 0 4 0;
#X connect 4 0 0 0;
#X connect 4 0 2 0;
#X restore 188 636 pd delay;
#X obj 89 596 spigot 1;
#X obj 89 667 * 3;
#X obj 246 730 loadbang;
#X connect 1 0 5 0;
#X connect 2 0 24 0;
#X connect 3 0 25 0;
#X connect 5 0 16 0;
#X connect 6 0 7 0;
#X connect 9 0 5 1;
#X connect 10 0 19 0;
#X connect 10 1 20 0;
#X connect 10 2 21 0;
#X connect 10 3 15 0;
#X connect 10 4 22 0;
#X connect 10 5 23 0;
#X connect 11 0 12 0;
#X connect 12 0 6 0;
#X connect 12 1 14 0;
#X connect 14 0 8 0;
#X connect 16 0 10 0;
#X connect 16 0 13 0;
#X connect 16 1 17 0;
#X connect 17 0 16 0;
#X connect 18 0 40 0;
#X connect 18 0 46 0;
#X connect 24 0 27 0;
#X connect 25 0 28 0;
#X connect 26 0 25 1;
#X connect 26 0 24 1;
#X connect 27 0 4 0;
#X connect 28 0 4 1;
#X connect 29 0 28 1;
#X connect 29 0 27 1;
#X connect 30 0 29 0;
#X connect 32 0 41 0;
#X connect 33 0 34 0;
#X connect 34 0 48 0;
#X connect 35 0 44 0;
#X connect 35 0 52 1;
#X connect 36 0 18 0;
#X connect 37 0 38 0;
#X connect 38 0 39 0;
#X connect 39 0 44 0;
#X connect 39 0 52 1;
#X connect 40 0 37 0;
#X connect 41 0 45 0;
#X connect 42 0 52 0;
#X connect 42 1 49 0;
#X connect 43 0 29 0;
#X connect 45 0 42 0;
#X connect 46 0 31 0;
#X connect 46 0 47 0;
#X connect 46 0 53 0;
#X connect 47 0 30 0;
#X connect 48 0 36 0;
#X connect 48 2 35 0;
#X connect 49 0 33 0;
#X connect 51 0 27 0;
#X connect 51 0 28 0;
#X connect 52 0 18 0;
#X connect 53 0 26 0;
#X connect 54 0 43 0;
#X restore 138 237 pd history;
#X text 16 170 Real Player routing;
#X floatatom 37 293 5 0 0 0 - - -, f 5;
#X text 36 187 Drone 1;
#X text 36 203 Donger;
#X text 36 218 Velocity;
#X text 36 234 Arp;
#X text 37 263 Tremolo;
#X text 37 249 History;
#X text 37 278 Tonality;
#X connect 15 0 13 0;
#X connect 15 0 21 0;
#X connect 17 0 16 0;
