#N canvas 78 148 281 471 10;
#X declare -path abs;
#X declare -path audio;
#X declare -path libs/oscx;
#X declare -path rj;
#X declare -path abs/4T-Granulator;
#N canvas 0 22 710 646 io 0;
#X obj 58 36 catch~ \$0-LEFT;
#X obj 158 36 catch~ \$0-RIGHT;
#X obj 58 541 dac~;
#X obj 58 426 *~;
#X obj 158 426 *~;
#X obj 173 402 lop~ 10;
#X obj 173 382 tgl 15 0 empty empty empty 17 7 0 10 -262144 -1 -1 1
1;
#X obj 173 359 loadbang;
#X obj 158 316 e_repeater;
#X obj 58 316 e_repeater;
#X obj 215 246 loadbang;
#X msg 215 269 dry 1;
#X obj 215 291 t a;
#X obj 484 31 loadbang;
#X obj 484 53 metro 1000;
#X obj 484 75 t b b;
#X obj 514 141 * 100;
#X obj 514 121 + 1;
#X obj 514 99 random 9;
#X obj 484 161 random 3;
#X obj 367 221 + 1;
#X obj 367 243 * 100;
#X msg 190 220 dry \$1;
#X obj 190 176 max 0;
#X obj 190 198 min 1;
#X obj 367 70 r \$0-5-angle1;
#X obj 367 134 int;
#X obj 367 156 change;
#X obj 367 178 / 2;
#X obj 367 200 int;
#X obj 190 132 r \$0-5-distance;
#X obj 190 154 m_scale 25000 30000 1 0.188;
#X obj 367 92 abs;
#X obj 367 112 m_scale 0 45 6 0;
#X connect 0 0 9 0;
#X connect 1 0 8 0;
#X connect 3 0 2 0;
#X connect 4 0 2 1;
#X connect 5 0 4 1;
#X connect 5 0 3 1;
#X connect 6 0 5 0;
#X connect 7 0 6 0;
#X connect 8 0 4 0;
#X connect 9 0 3 0;
#X connect 10 0 11 0;
#X connect 11 0 12 0;
#X connect 12 0 8 1;
#X connect 12 0 9 1;
#X connect 13 0 14 0;
#X connect 14 0 15 0;
#X connect 15 0 19 0;
#X connect 15 1 18 0;
#X connect 16 0 14 1;
#X connect 17 0 16 0;
#X connect 18 0 17 0;
#X connect 20 0 21 0;
#X connect 21 0 12 0;
#X connect 22 0 12 0;
#X connect 23 0 24 0;
#X connect 24 0 22 0;
#X connect 25 0 32 0;
#X connect 26 0 27 0;
#X connect 27 0 28 0;
#X connect 28 0 29 0;
#X connect 29 0 20 0;
#X connect 30 0 31 0;
#X connect 31 0 23 0;
#X connect 32 0 33 0;
#X connect 33 0 26 0;
#X restore 18 49 pd io;
#N canvas 0 22 450 300 timebase 0;
#X obj 106 52 loadbang;
#X obj 106 75 tgl 15 0 empty empty empty 17 7 0 10 -262144 -1 -1 1
1;
#X obj 106 119 f;
#X obj 136 119 + 1;
#X obj 106 141 s \$0-tick;
#X obj 106 97 metro 50;
#X connect 0 0 1 0;
#X connect 1 0 5 0;
#X connect 2 0 3 0;
#X connect 2 0 4 0;
#X connect 3 0 2 1;
#X connect 5 0 2 0;
#X restore 18 69 pd timebase;
#N canvas 0 22 454 172 init 0;
#X obj 62 56 declare -path abs;
#X obj 62 96 declare -path audio;
#X obj 62 36 declare -path libs/oscx;
#X obj 62 116 declare -path rj;
#X obj 62 76 declare -path abs/4T-Granulator;
#X obj 317 53 loadbang;
#X msg 317 75 \; pd dsp 1 \;;
#X connect 5 0 6 0;
#X restore 18 29 pd init;
#N canvas 415 113 916 681 Players 1;
#X floatatom 278 626 5 0 0 0 - - -, f 5;
#X obj 278 645 s rotations-multiplier;
#X text 747 15 Player parameters;
#X text 746 45 -rotations (0 - ~70);
#X text 747 65 -angle1 (3 - 15);
#X text 747 85 -angle2 (3 - 15);
#X text 747 105 -velocity-out (0 - 30);
#X text 747 125 -velocity-in (0 - -30);
#X text 747 145 -section (0 - 7);
#X text 747 165 -boundary (bang);
#X text 747 185 -dir (-1 \, 0 \, 1);
#X text 747 205 -hall1 (bang);
#X text 747 225 -hall2 (bang);
#X obj 16 14 player-input \$0 0;
#X obj 16 318 player-input \$0 2;
#X obj 16 165 player-input \$0 1;
#X obj 369 14 player-input \$0 4;
#X obj 370 165 player-input \$0 5;
#X obj 371 318 player-input \$0 6;
#X obj 16 471 player-input \$0 3;
#X obj 371 471 player-input \$0 7;
#X obj 759 374 r forwardPlayerData;
#X obj 759 462 sendOSC 9003;
#X obj 770 394 loadbang;
#X obj 770 416 del 1000;
#X msg 770 438 connect 127.0.0.1 9003;
#X connect 0 0 1 0;
#X connect 21 0 22 0;
#X connect 23 0 24 0;
#X connect 24 0 25 0;
#X connect 25 0 22 0;
#X restore 18 354 pd Players;
#N canvas 351 99 411 676 Fake-Players 1;
#X obj 92 546 r fakeHarpSend;
#X obj 99 566 loadbang;
#X obj 99 588 del 1000;
#X text 184 547 From FakePlayers sub-patch;
#X obj 92 632 sendOSC 9002;
#X msg 99 609 connect 127.0.0.1 9002;
#X obj 22 18 fakePlayer 0 \$0;
#X obj 22 281 fakePlayer 2 \$0;
#X obj 22 149 fakePlayer 1 \$0;
#X obj 202 18 fakePlayer 4 \$0;
#X obj 23 415 fakePlayer 3 \$0;
#X obj 203 415 fakePlayer 7 \$0;
#X obj 202 281 fakePlayer 6 \$0;
#X obj 202 149 fakePlayer 5 \$0;
#X connect 0 0 4 0;
#X connect 1 0 2 0;
#X connect 2 0 5 0;
#X connect 5 0 4 0;
#X restore 18 404 pd Fake-Players;
#N canvas 98 101 230 261 pitch-detect 0;
#X obj 41 128 + 0.499;
#X obj 41 149 int;
#X obj 41 90 line;
#X floatatom 41 111 5 0 0 0 - - -, f 5;
#X obj 41 69 pack 0 20;
#X obj 41 48 fiddle~ 2048 1 20 3;
#X obj 41 170 change;
#X floatatom 41 192 5 0 0 0 - - -, f 5;
#X connect 0 0 1 0;
#X connect 1 0 6 0;
#X connect 2 0 3 0;
#X connect 3 0 0 0;
#X connect 4 0 2 0;
#X connect 5 0 4 0;
#X connect 6 0 7 0;
#X restore 18 119 pd pitch-detect;
#X obj 18 140 overview;
#X text 87 355 Processing Player data;
#X text 115 404 For debug;
#X text 17 8 ADMIN;
#X text 17 99 TOOLS;
#X text 62 314 Receive Player data;
#X text 75 140 rjlib;
#N canvas 208 552 482 384 osc 0;
#X obj 43 269 s \$0-player-osc;
#X obj 43 24 dumpOSC 5000;
#X obj 43 46 OSCroute /1;
#X obj 43 68 s \$0-touchOSC;
#X obj 130 153 inlet;
#X msg 130 225 /\$1;
#X text 125 24 From TouchOSC iPad interface;
#X text 125 106 From debug_xosc Processing sketch;
#X obj 43 247 list prepend /0;
#X obj 52 129 dumpOSC 9002;
#X text 135 126 From FakePlayers sub-patch Processing sketch;
#X obj 205 272 s \$0-0-section;
#X msg 234 250 10;
#X obj 235 292 s \$0-0-rotations;
#X obj 205 226 sel 1;
#X msg 205 250 6;
#X obj 43 105 dumpOSC 9001;
#X obj 204 195 s real-player-on;
#X connect 1 0 2 0;
#X connect 2 0 3 0;
#X connect 4 0 5 0;
#X connect 4 0 14 0;
#X connect 4 0 17 0;
#X connect 5 0 8 1;
#X connect 8 0 0 0;
#X connect 9 0 0 0;
#X connect 12 0 13 0;
#X connect 14 0 15 0;
#X connect 14 0 12 0;
#X connect 15 0 11 0;
#X connect 16 0 8 0;
#X restore 18 313 pd osc;
#N canvas 0 23 1436 856 hit-play 0;
#X obj 1133 75 - 78;
#X obj 45 453 hh_drone;
#X obj 45 580 e_scompress;
#X msg 108 558 threshold 25;
#X obj 108 534 loadbang;
#X msg 188 558 ratio 4;
#X msg 152 406 interval \$1;
#X obj 90 407 loadbang;
#X msg 305 397 mix \$1;
#X obj 605 430 abs;
#X msg 829 481 noise-burst 1;
#X obj 947 459 int;
#X msg 947 481 interval \$1;
#X obj 605 570 hh_velocity-synth;
#X msg 744 482 base-note \$1;
#X obj 1148 473 r play-hit;
#X obj 1148 517 vline~;
#X msg 1148 495 0.4 4 \, 1 3000 40;
#X obj 1133 540 *~;
#X msg 592 315 interval \$1;
#X obj 490 316 loadbang;
#X msg 702 317 mix \$1;
#X obj 445 334 + 4;
#N canvas 0 22 633 309 noise-drums 0;
#X obj 67 130 noise~;
#X obj 67 204 *~;
#X obj 140 180 vline~;
#X msg 140 158 0 2 \, 1 5 10 \, 0 300 15;
#X obj 140 21 r \$0-tick;
#X obj 67 152 bp~ 200 1;
#X obj 287 128 noise~;
#X obj 287 202 *~;
#X obj 360 178 vline~;
#X msg 360 156 0 2 \, 1 5 10 \, 0 300 15;
#X obj 287 150 bp~ 500 2;
#X obj 140 63 mod 56;
#X obj 360 61 mod 56;
#X obj 140 85 sel 0 12 24 44 4;
#X obj 214 109 random 2;
#X obj 214 131 sel 0;
#X obj 439 109 random 2;
#X obj 439 131 sel 0;
#X obj 360 83 sel 8 16 32 52 36;
#X obj 516 32 inlet;
#X obj 516 56 * 8;
#X obj 67 226 throw~ \$0-LEFT;
#X obj 287 226 throw~ \$0-RIGHT;
#X obj 287 180 *~ 0;
#X obj 67 182 *~ 0;
#X connect 0 0 5 0;
#X connect 1 0 21 0;
#X connect 2 0 1 1;
#X connect 3 0 2 0;
#X connect 4 0 11 0;
#X connect 4 0 12 0;
#X connect 5 0 24 0;
#X connect 6 0 10 0;
#X connect 7 0 22 0;
#X connect 8 0 7 1;
#X connect 9 0 8 0;
#X connect 10 0 23 0;
#X connect 11 0 13 0;
#X connect 12 0 18 0;
#X connect 13 0 3 0;
#X connect 13 1 3 0;
#X connect 13 2 3 0;
#X connect 13 3 3 0;
#X connect 13 4 14 0;
#X connect 14 0 15 0;
#X connect 15 0 3 0;
#X connect 16 0 17 0;
#X connect 17 0 9 0;
#X connect 18 0 9 0;
#X connect 18 1 9 0;
#X connect 18 2 9 0;
#X connect 18 3 9 0;
#X connect 18 4 16 0;
#X connect 19 0 20 0;
#X connect 20 0 23 1;
#X connect 20 0 24 1;
#X connect 23 0 7 0;
#X connect 24 0 1 0;
#X restore 506 129 pd noise-drums;
#X obj 506 108 min 1;
#X obj 506 86 max 0;
#X obj 1133 562 *~ 0.5;
#X obj 45 665 *~ 1;
#X obj 1183 562 *~ 0.4;
#X obj 45 704 throw~ \$0-LEFT;
#X obj 64 725 throw~ \$0-RIGHT;
#X obj 139 702 throw~ \$0-PLATEREVERB-L;
#X obj 165 725 throw~ \$0-PLATEREVERB-R;
#X obj 45 272 r \$0-detected-hit-note;
#X obj 744 438 r \$0-detected-hit-note;
#X obj 445 286 r \$0-detected-hit-note;
#X obj 1133 53 r \$0-detected-hit-note;
#X obj 605 768 throw~ \$0-LEFT;
#X obj 625 788 throw~ \$0-RIGHT;
#X obj 698 768 throw~ \$0-PLATEREVERB-L;
#X obj 724 788 throw~ \$0-PLATEREVERB-R;
#X obj 76 518 catch~ \$0-drone-comp-sc;
#X obj 622 742 throw~ \$0-drone-comp-sc;
#X obj 77 475 catch~ \$0-drone-comp;
#X obj 1133 640 throw~ \$0-drone-comp;
#X obj 1183 597 throw~ \$0-LEFT;
#X obj 1202 618 throw~ \$0-RIGHT;
#X msg 490 338 distortion-amt 2.5 \, distortion-wet 0.5;
#X msg 90 429 distortion-amt 2.5 \, distortion-wet 0.5;
#X obj 104 190 hh_donger \$0;
#X obj 174 67 r \$0-1-section;
#X obj 208 138 f;
#X msg 385 115 4;
#X msg 355 115 6;
#X msg 325 115 8;
#X msg 295 115 12;
#X msg 268 115 16;
#X msg 238 115 24;
#X msg 208 115 32;
#X msg 288 164 repeat-hits-speed \$1;
#X msg 174 164 repeat-hits-on \$1;
#X obj 174 143 != 0;
#X obj 592 201 r \$0-4-angle1;
#X obj 702 265 r \$0-4-rotations;
#X msg 1133 97 bass-note \$1;
#X msg 1164 216 arp-delay-time 200 \, arp-notes 0 4 7 11;
#X obj 1164 193 loadbang;
#X msg 1364 168 arp-range \$1;
#X obj 1476 123 r \$0-3-dir;
#X msg 1476 175 arp-direction \$1;
#X msg 1021 165 arp-on \$1;
#X obj 1589 83 r \$0-3-angle1;
#X msg 1252 165 arp-vol \$1;
#X msg 1589 217 arp-delay-fb \$1;
#X text 694 51 To do:;
#X text 694 71 - initial choked/croaky sound for drone;
#X obj 152 314 m_speedlimit 10;
#X obj 947 357 m_speedlimit 10;
#X obj 1252 136 min 1;
#X floatatom 1296 147 5 0 0 0 - - -, f 5;
#X obj 1252 106 max 0;
#X obj 1364 108 max 5;
#X obj 1364 138 min 22;
#X obj 1589 167 min 0.98;
#X obj 1589 189 max 0;
#X obj 1405 465 r \$0-3-rotations;
#X obj 1405 509 int;
#X obj 1405 531 change;
#X obj 1589 105 abs;
#X obj 592 265 min 13;
#X obj 592 287 max 8;
#X obj 592 223 abs;
#X obj 605 710 *~ 1.3;
#X obj 506 64 m_scale 28000 30000 0 1;
#X obj 592 243 m_scale -180 180 -8 8;
#X obj 702 287 / 328;
#X obj 1405 487 m_scale 0 30000 0 21;
#X floatatom 1314 116 5 0 0 0 - - -, f 5;
#X obj 1021 144 > 1000;
#X obj 1364 85 m_scale 0 30000 5 22;
#X obj 1133 248 hh_arp \$0;
#X obj 605 473 min 1;
#X obj 605 495 max 0;
#X msg 560 106 0;
#X obj 506 42 r \$0-1-distance;
#X obj 208 91 sel 1 2 3 4 5 6 7;
#X obj 305 275 r \$0-0-distance;
#X obj 305 349 min 1;
#X obj 305 297 / 15000;
#X obj 152 356 min 8;
#X obj 152 378 max -9;
#X obj 152 334 m_scale -180 180 -9 8;
#X obj 152 292 r \$0-0-angle1;
#X obj 305 319 max 0;
#X obj 104 39 r \$0-1-pluck;
#X obj 605 406 r \$0-2-velocity;
#X obj 605 451 m_scale 0 30000 0 1 1;
#X obj 947 399 min 2;
#X obj 947 421 max -4;
#X obj 947 335 r \$0-2-displacement-angle1;
#X obj 947 377 m_scale -5000 5000 2 -4;
#X obj 1021 123 r \$0-3-distance;
#X floatatom 1094 151 5 0 0 0 - - -, f 5;
#X obj 1252 84 m_scale 0 5000 0 1;
#X obj 1278 22 r \$0-3-distance;
#X obj 1476 145 sel 0;
#X floatatom 1619 115 5 0 0 0 - - -, f 5;
#X obj 1589 145 m_scale 0 20 0 0.98;
#X obj 250 563 min 1;
#X obj 351 735 min 1;
#X obj 351 691 r \$0-5-angle1;
#X obj 351 713 m_scale 3 15 1 0.1;
#X obj 312 563 max 0;
#X obj 250 518 r \$0-5-distance;
#X obj 250 541 / 15000;
#X msg 250 585 depth \$1;
#X obj 312 541 m_scale 0 30000 1.5 8.5;
#X msg 312 585 freq \$1;
#X obj 1133 415 hh_tremolo;
#X obj 1190 367 min 1;
#X obj 1252 367 max 0;
#X obj 1190 322 r \$0-5-distance;
#X obj 1190 345 / 15000;
#X msg 1190 389 depth \$1;
#X obj 1252 345 m_scale 0 30000 1.5 8.5;
#X msg 1252 389 freq \$1;
#X obj 1406 367 min 1;
#X obj 1406 303 r \$0-5-angle1;
#X msg 1406 389 shape \$1;
#X obj 1406 325 abs;
#X obj 1406 345 m_scale 0 90 0.1 1;
#X obj 45 631 hh_tremolo;
#X obj 605 687 hh_tremolo;
#X obj 662 639 min 1;
#X obj 724 639 max 0;
#X obj 662 594 r \$0-5-distance;
#X obj 662 617 / 15000;
#X msg 662 661 depth \$1;
#X obj 724 617 m_scale 0 30000 1.5 8.5;
#X msg 724 661 freq \$1;
#X obj 878 639 min 1;
#X obj 878 575 r \$0-5-angle1;
#X msg 878 661 shape \$1;
#X obj 878 597 abs;
#X obj 878 617 m_scale 0 90 0.1 1;
#X obj 458 563 min 1;
#X obj 458 499 r \$0-5-angle1;
#X msg 458 585 shape \$1;
#X obj 458 521 abs;
#X obj 458 541 m_scale 0 90 0.1 1;
#X obj 829 459 yank-in \$0-2 15000;
#X obj 445 361 hh_drone;
#X obj 619 519 vsl 15 40 0 1 0 0 empty empty empty 0 -9 0 10 -262144
-1 -1 0 1;
#X connect 0 0 64 0;
#X connect 1 0 2 0;
#X connect 1 0 2 1;
#X connect 2 0 151 0;
#X connect 3 0 2 2;
#X connect 4 0 5 0;
#X connect 4 0 3 0;
#X connect 5 0 2 2;
#X connect 6 0 1 1;
#X connect 7 0 48 0;
#X connect 8 0 1 1;
#X connect 9 0 116 0;
#X connect 10 0 13 1;
#X connect 11 0 12 0;
#X connect 12 0 13 1;
#X connect 13 0 152 0;
#X connect 14 0 13 1;
#X connect 15 0 17 0;
#X connect 16 0 18 1;
#X connect 17 0 16 0;
#X connect 18 0 26 0;
#X connect 18 0 28 0;
#X connect 19 0 171 1;
#X connect 20 0 47 0;
#X connect 21 0 171 1;
#X connect 22 0 171 0;
#X connect 24 0 23 0;
#X connect 25 0 24 0;
#X connect 26 0 44 0;
#X connect 27 0 29 0;
#X connect 27 0 30 0;
#X connect 27 0 31 0;
#X connect 27 0 32 0;
#X connect 28 0 45 0;
#X connect 28 0 46 0;
#X connect 33 0 1 0;
#X connect 34 0 14 0;
#X connect 35 0 22 0;
#X connect 36 0 0 0;
#X connect 41 0 2 1;
#X connect 43 0 2 0;
#X connect 47 0 171 1;
#X connect 48 0 1 1;
#X connect 50 0 61 0;
#X connect 50 0 105 0;
#X connect 51 0 59 0;
#X connect 52 0 51 0;
#X connect 53 0 51 0;
#X connect 54 0 51 0;
#X connect 55 0 51 0;
#X connect 56 0 51 0;
#X connect 57 0 51 0;
#X connect 58 0 51 0;
#X connect 59 0 49 1;
#X connect 60 0 49 1;
#X connect 61 0 60 0;
#X connect 62 0 91 0;
#X connect 63 0 95 0;
#X connect 64 0 100 0;
#X connect 65 0 100 0;
#X connect 66 0 65 0;
#X connect 67 0 100 0;
#X connect 68 0 125 0;
#X connect 69 0 100 0;
#X connect 70 0 100 0;
#X connect 71 0 88 0;
#X connect 71 0 126 0;
#X connect 72 0 100 0;
#X connect 73 0 100 0;
#X connect 76 0 111 0;
#X connect 77 0 120 0;
#X connect 78 0 79 0;
#X connect 78 0 72 0;
#X connect 80 0 78 0;
#X connect 81 0 82 0;
#X connect 82 0 67 0;
#X connect 83 0 84 0;
#X connect 84 0 73 0;
#X connect 85 0 96 0;
#X connect 86 0 87 0;
#X connect 88 0 127 0;
#X connect 89 0 90 0;
#X connect 90 0 19 0;
#X connect 91 0 94 0;
#X connect 92 0 37 0;
#X connect 92 0 38 0;
#X connect 92 0 39 0;
#X connect 92 0 40 0;
#X connect 92 0 42 0;
#X connect 93 0 25 0;
#X connect 94 0 89 0;
#X connect 95 0 21 0;
#X connect 96 0 86 0;
#X connect 98 0 70 0;
#X connect 99 0 81 0;
#X connect 100 0 138 0;
#X connect 101 0 102 0;
#X connect 102 0 13 0;
#X connect 102 0 172 0;
#X connect 103 0 23 0;
#X connect 105 0 58 0;
#X connect 105 1 57 0;
#X connect 105 2 56 0;
#X connect 105 3 55 0;
#X connect 105 4 54 0;
#X connect 105 5 53 0;
#X connect 105 6 52 0;
#X connect 106 0 108 0;
#X connect 107 0 8 0;
#X connect 108 0 113 0;
#X connect 109 0 110 0;
#X connect 110 0 6 0;
#X connect 111 0 109 0;
#X connect 112 0 76 0;
#X connect 113 0 107 0;
#X connect 114 0 49 0;
#X connect 115 0 9 0;
#X connect 116 0 101 0;
#X connect 117 0 118 0;
#X connect 118 0 11 0;
#X connect 119 0 77 0;
#X connect 120 0 117 0;
#X connect 121 0 98 0;
#X connect 121 0 122 0;
#X connect 123 0 80 0;
#X connect 124 0 123 0;
#X connect 124 0 99 0;
#X connect 125 1 69 0;
#X connect 127 0 83 0;
#X connect 128 0 135 0;
#X connect 130 0 131 0;
#X connect 131 0 129 0;
#X connect 132 0 137 0;
#X connect 133 0 134 0;
#X connect 133 0 136 0;
#X connect 134 0 128 0;
#X connect 135 0 151 1;
#X connect 136 0 132 0;
#X connect 137 0 151 1;
#X connect 138 0 18 0;
#X connect 139 0 143 0;
#X connect 140 0 145 0;
#X connect 141 0 142 0;
#X connect 141 0 144 0;
#X connect 142 0 139 0;
#X connect 143 0 138 1;
#X connect 144 0 140 0;
#X connect 145 0 138 1;
#X connect 146 0 148 0;
#X connect 147 0 149 0;
#X connect 148 0 138 1;
#X connect 149 0 150 0;
#X connect 150 0 146 0;
#X connect 151 0 27 0;
#X connect 152 0 92 0;
#X connect 153 0 157 0;
#X connect 154 0 159 0;
#X connect 155 0 156 0;
#X connect 155 0 158 0;
#X connect 156 0 153 0;
#X connect 157 0 152 1;
#X connect 158 0 154 0;
#X connect 159 0 152 1;
#X connect 160 0 162 0;
#X connect 161 0 163 0;
#X connect 162 0 152 1;
#X connect 163 0 164 0;
#X connect 164 0 160 0;
#X connect 165 0 167 0;
#X connect 166 0 168 0;
#X connect 167 0 151 1;
#X connect 168 0 169 0;
#X connect 169 0 165 0;
#X connect 170 0 10 0;
#X connect 171 0 2 0;
#X restore 139 209 pd hit-play;
#X obj 18 187 vradio 15 1 0 8 empty empty empty 0 -8 0 10 -262144 -1
-1 2;
#X obj 75 274 s fake-players-on;
#X obj 75 253 tgl 15 0 empty empty empty 17 7 0 10 -262144 -1 -1 1
1;
#N canvas 146 330 450 300 global-effects 0;
#X obj 88 125 e_platereverb;
#X obj 88 75 catch~ \$0-PLATEREVERB-L;
#X obj 125 100 catch~ \$0-PLATEREVERB-R;
#X obj 88 156 throw~ \$0-LEFT;
#X obj 125 180 throw~ \$0-RIGHT;
#X connect 0 0 3 0;
#X connect 0 1 4 0;
#X connect 1 0 0 0;
#X connect 2 0 0 1;
#X restore 108 30 pd global-effects;
#N canvas 617 22 470 826 history 0;
#X obj 49 34 loadbang;
#X obj 49 56 tgl 15 0 empty empty empty 17 7 0 10 -262144 -1 -1 1 1
;
#X obj 43 301 catch~ \$0-history-l;
#X obj 74 321 catch~ \$0-history-r;
#X obj 43 787 dac~;
#X obj 49 78 metro 5000;
#X msg 309 75 5000;
#X obj 309 99 s \$0-history-interval;
#X obj 336 145 s \$0-history-overlap;
#X obj 106 56 r \$0-history-interval;
#X obj 49 144 sel 0 1 2 3 4 5;
#X obj 309 28 loadbang;
#X obj 309 50 t b b;
#X floatatom 59 122 5 0 0 0 - - -, f 5;
#X msg 336 122 4000;
#X obj 92 237 history-voice \$0 0.021 0.014 woodkid 240;
#X obj 49 100 c_urn 6;
#X msg 100 100 clear \, bang;
#X obj 89 370 abs;
#X obj 159 486 -;
#X obj 159 608 pack f f;
#X obj 159 630 line;
#X obj 159 553 change;
#X obj 186 464 pipe 5;
#X obj 49 177 history-voice \$0 0.02 0.01 bonobo 240;
#X obj 63 197 history-voice \$0 0.03 0.007 portico-quartet 480;
#X obj 78 217 history-voice \$0 0.022 0.013 the-doors 720;
#X obj 107 257 history-voice \$0 0.027 0.01 shpongle 420;
#X obj 121 277 history-voice \$0 0.024 0.043 jessie-j 720;
#X obj 89 394 m_scale 0 15 0 1 1;
#X obj 89 516 min 1;
#X obj 159 508 > 0;
#X obj 159 440 t f f;
#X obj 89 416 t f f;
#X obj 89 578 spigot;
#X obj 159 531 t f f f;
#X obj 159 652 pow 1;
#X obj 204 553 sel 0;
#X msg 221 646 1;
#X msg 204 577 5000;
#X msg 225 727 q 1.4;
#X obj 43 717 *~;
#X obj 74 717 *~;
#X obj 159 698 lop~ 10;
#X obj 43 747 e_reslop;
#X obj 74 767 e_reslop;
#X obj 225 749 t a;
#X msg 216 706 freq \$1;
#X obj 216 678 m_scale 0 1 200 20000;
#X obj 336 606 vsl 15 40 0 1 0 0 empty empty empty 0 -9 0 10 -262144
-1 -1 0 1;
#X obj 276 576 vsl 15 40 0 1 0 0 empty empty empty 0 -9 0 10 -262144
-1 -1 700 1;
#X obj 159 676 * 2;
#X floatatom 123 368 5 0 0 0 - - -, f 5;
#X floatatom 168 374 5 0 0 0 - - -, f 5;
#X obj 89 347 r \$0-4-velocity;
#X connect 0 0 1 0;
#X connect 1 0 5 0;
#X connect 2 0 41 0;
#X connect 3 0 42 0;
#X connect 5 0 16 0;
#X connect 6 0 7 0;
#X connect 9 0 5 1;
#X connect 10 0 24 0;
#X connect 10 1 25 0;
#X connect 10 2 26 0;
#X connect 10 3 15 0;
#X connect 10 4 27 0;
#X connect 10 5 28 0;
#X connect 11 0 12 0;
#X connect 12 0 6 0;
#X connect 12 1 14 0;
#X connect 14 0 8 0;
#X connect 16 0 10 0;
#X connect 16 0 13 0;
#X connect 16 1 17 0;
#X connect 17 0 16 0;
#X connect 18 0 29 0;
#X connect 18 0 52 0;
#X connect 19 0 31 0;
#X connect 20 0 21 0;
#X connect 21 0 36 0;
#X connect 22 0 20 0;
#X connect 23 0 19 1;
#X connect 29 0 33 0;
#X connect 30 0 34 0;
#X connect 31 0 35 0;
#X connect 32 0 19 0;
#X connect 32 1 23 0;
#X connect 33 0 30 0;
#X connect 33 1 32 0;
#X connect 34 0 21 0;
#X connect 35 0 22 0;
#X connect 35 1 37 0;
#X connect 35 2 34 1;
#X connect 36 0 48 0;
#X connect 36 0 49 0;
#X connect 36 0 51 0;
#X connect 37 0 39 0;
#X connect 38 0 51 0;
#X connect 39 0 20 1;
#X connect 40 0 46 0;
#X connect 41 0 44 0;
#X connect 42 0 45 0;
#X connect 43 0 42 1;
#X connect 43 0 41 1;
#X connect 44 0 4 0;
#X connect 45 0 4 1;
#X connect 46 0 45 1;
#X connect 46 0 44 1;
#X connect 47 0 46 0;
#X connect 48 0 47 0;
#X connect 50 0 36 0;
#X connect 51 0 43 0;
#X connect 54 0 18 0;
#X restore 138 237 pd history;
#X text 36 186 Real Player routing;
#X floatatom 37 293 5 0 0 0 - - -, f 5;
#X connect 15 0 13 0;
#X connect 15 0 21 0;
#X connect 17 0 16 0;
