#N canvas 574 43 420 212 10;
#X floatatom 56 53 5 0 0 0 - - -, f 5;
#X floatatom 168 51 5 0 0 0 - - -, f 5;
#N canvas 0 22 492 424 calcDisplacement 0;
#X obj 61 102 / 180;
#X obj 63 131 * 3.14159;
#X floatatom 71 195 5 0 0 0 - - -, f 5;
#X obj 71 225 sin;
#X obj 110 279 *;
#X obj 131 245 t b f;
#X obj 58 51 inlet;
#X obj 245 73 inlet;
#X obj 112 360 outlet;
#X floatatom 111 320 5 0 0 0 - - -, f 5;
#X text 64 30 Angle In Degrees;
#X text 45 174 Angle in Radians;
#X text 227 47 Length of String (unit of your choice);
#X text 136 339 Displacement (same unit as length of string);
#X connect 0 0 1 0;
#X connect 1 0 2 0;
#X connect 2 0 3 0;
#X connect 3 0 4 0;
#X connect 4 0 9 0;
#X connect 5 0 4 0;
#X connect 5 1 4 1;
#X connect 6 0 0 0;
#X connect 7 0 5 0;
#X connect 9 0 8 0;
#X restore 57 82 pd calcDisplacement;
#X floatatom 57 147 5 0 0 0 - - -, f 5;
#X text 21 23 Angle In Degrees;
#X text 162 19 Length of String (unit of your choice);
#X text 99 148 Displacement (same unit as length of string);
#X connect 0 0 2 0;
#X connect 1 0 2 1;
#X connect 2 0 3 0;
