#N canvas 0 24 1436 856 10;
#X obj 54 615 catch~ 4T-grains-L;
#X obj 91 637 catch~ 4T-grains-R;
#X obj 669 321 s \$1-master-grain-length;
#X floatatom 669 303 5 0 0 0 - - -, f 5;
#X floatatom 669 341 5 0 0 0 - - -, f 5;
#X obj 669 359 s \$1-master-grain-start;
#X obj 521 798 pack f \$1 f;
#X obj 521 662 t b b b;
#X obj 521 706 until;
#X obj 521 728 f;
#X obj 548 728 + 1;
#X obj 521 750 t f b;
#X obj 548 774 random 1000;
#X msg 521 820 \; \$2-\$1-grain-start \$3;
#X msg 562 682 0;
#X obj 533 638 bng 15 250 50 0 empty empty empty 17 7 0 10 -262144
-1 -1;
#X obj 681 798 pack f \$1 f;
#X obj 681 662 t b b b;
#X obj 681 706 until;
#X obj 681 728 f;
#X obj 708 728 + 1;
#X obj 681 750 t f b;
#X obj 708 774 random 1000;
#X msg 722 682 0;
#X msg 681 820 \; \$2-\$1-grain-length \$3;
#X floatatom 670 382 5 0 0 0 - - -, f 5;
#X obj 670 400 s \$1-master-grain-speed;
#X obj 897 804 pack f \$1 f;
#X obj 897 669 t b b b;
#X obj 897 713 until;
#X obj 897 735 f;
#X obj 924 735 + 1;
#X msg 936 692 0;
#X obj 897 645 bng 15 250 50 0 empty empty empty 17 7 0 10 -262144
-1 -1;
#X msg 897 826 \; \$2-\$1-grain-interval \$3;
#X obj 897 757 t f f;
#X msg 897 691 1;
#X floatatom 970 154 5 0 0 0 - - -, f 5;
#X obj 970 172 s \$1-master-grain-interval;
#X msg 521 684 12;
#X msg 681 684 12;
#X floatatom 681 601 5 0 0 0 - - -, f 5;
#X obj 681 620 t b f;
#X obj 970 132 notes 6 0 0 3 5 6 7 10;
#X obj 970 88 * 2;
#X obj 680 501 r \$1-angle2;
#X obj 681 514 - 3;
#X obj 681 536 / 12;
#X obj 681 558 * 4370;
#X obj 681 580 + 130;
#X obj 688 642 bng 15 250 50 0 empty empty empty 17 7 0 10 -262144
-1 -1;
#X obj 970 110 - 0;
#X obj 800 518 catch~ \$1-grain-master-poke;
#X obj 970 66 r \$1-0-section;
#X obj 800 670 dac~;
#X obj 521 614 loadbang;
#X floatatom 670 422 5 0 0 0 - - -, f 5;
#X obj 670 440 s \$1-master-grain-vol;
#X obj 800 580 *~ 1;
#X obj 54 743 *~;
#X obj 91 743 *~;
#X obj 114 657 r \$1-0-rotations;
#X obj 114 679 > 1;
#X obj 114 721 lop~ 0.3;
#X obj 114 701 * 0.15;
#X obj 800 635 e_platereverb;
#N canvas 0 22 473 173 preset 0;
#X obj 54 31 loadbang;
#X obj 54 115 outlet;
#X msg 54 54 decay_diffusion2 0.84 \, decay_diffusion1 0.889 \, input_diffusion2
0.779 \, excursion 0.53761 \, input_diffusion1 0.685 \, decay 0.99
\, damping 4637 \, bandwidth 10000 \, predelay 10 \, dry 0.8;
#X connect 0 0 2 0;
#X connect 2 0 1 0;
#X restore 875 612 pd preset;
#X obj 800 611 *~ 0.5;
#X obj 658 95 u_samplebank \$1-4T-Source Bridge-Drone.wav;
#X floatatom 157 681 5 0 0 0 - - -, f 5;
#X obj 1002 364 r \$1-2-angle1;
#X obj 1002 386 - 3;
#X obj 1002 408 / 12;
#X obj 338 680 vradio 15 1 0 5 empty empty empty 0 -8 0 10 -262144
-1 -1 0;
#X text 328 710 0;
#X text 322 695 +1;
#X text 322 681 +2;
#X text 322 725 -1;
#X text 322 739 -2;
#X obj 54 765 throw~ 4T-grains-L-OUT;
#X obj 94 785 throw~ 4T-grains-R-OUT;
#X obj 56 69 bng 15 250 50 0 \$0-load-audio-file empty empty 17 7 0
10 -204786 -1 -1;
#X text 74 69 Load audio file;
#X obj 658 50 r \$0-load-audio-file;
#X msg 658 72 open;
#N canvas 148 95 407 261 info 0;
#X floatatom 96 105 8 0 0 1 duration_in_samples - -, f 8;
#X floatatom 69 125 8 0 0 1 duration_in_ms - -, f 8;
#X symbolatom 42 145 12 0 0 1 table_name - -, f 12;
#X obj 42 62 unpack s f f f;
#X floatatom 123 85 6 0 0 1 samplerate - -, f 6;
#X obj 42 39 inlet;
#X obj 69 170 print Granulator - Loaded audio file. Duration;
#X connect 3 0 2 0;
#X connect 3 1 1 0;
#X connect 3 1 6 0;
#X connect 3 2 0 0;
#X connect 3 3 4 0;
#X connect 5 0 3 0;
#X restore 658 117 pd info;
#X obj 56 103 nbx 3 20 -1e+37 1e+37 0 0 \$0-root-note empty empty 0
-8 0 20 -228856 -1 -1 0 256;
#X text 124 105 Root note;
#X obj 924 781 notes 1 0 0 3 5 6 7 10;
#X obj 1099 13 r \$0-root-note;
#X msg 1099 35 base-note \$1;
#X obj 882 305 u_loader 4T-Granulator \$0;
#X msg 881 269 save;
#X obj 882 327 print preset;
#X obj 878 490 s RJ_SCENE_SAVE;
#X obj 1008 536 r RJ_SCENE;
#X msg 878 464 save;
#X msg 1042 494 clear;
#X obj 878 421 bng 32 250 50 0 empty empty empty 17 7 0 10 -4034 -1
-1;
#X obj 1008 566 u_cocollect;
#X floatatom 838 583 5 0 0 0 - - -, f 5;
#X obj 228 140 4T-poke \$1 0;
#X obj 41 305 4T-grain-transport \$1 0;
#X obj 343 507 4T-grain-transport \$1 10;
#X obj 343 406 4T-grain-transport \$1 6;
#X obj 494 305 4T-grain-transport \$1 3;
#X obj 343 305 4T-grain-transport \$1 2;
#X obj 41 507 4T-grain-transport \$1 8;
#X obj 494 406 4T-grain-transport \$1 7;
#X obj 192 507 4T-grain-transport \$1 9;
#X obj 494 507 4T-grain-transport \$1 11;
#X obj 41 406 4T-grain-transport \$1 4;
#X obj 192 305 4T-grain-transport \$1 1;
#X obj 192 406 4T-grain-transport \$1 5;
#X obj 510 140 4T-poke \$1 2;
#X obj 369 140 4T-poke \$1 1;
#N canvas 0 22 685 734 presets 0;
#X obj 80 23 inlet;
#X obj 80 45 sel 0 1 2 3 4 5 6 7;
#X obj 120 22 s RJ_SCENE_LOAD;
#X msg 219 77 4T-poke-1 gain 0.2 \, 4T-poke-1 octave 2 \, 4T-poke-1
release 1000 \, 4T-poke-1 hold 0 \, 4T-poke-1 attack 100 \, 4T-poke-2
mono 1 \, 4T-poke-2 gain 0.3 \, 4T-poke-2 octave -3 \, 4T-poke-2 release
500 \, 4T-poke-2 hold 100 \, 4T-poke-2 attack 250 \, 4T-poke-0 mono
1 \, 4T-poke-0 gain 0.57 \, 4T-poke-0 octave -4 \, 4T-poke-0 release
1500 \, 4T-poke-0 hold 50 \, 4T-poke-0 attack 700;
#X connect 0 0 1 0;
#X connect 1 0 3 0;
#X connect 3 0 2 0;
#X restore 1084 321 pd presets;
#X obj 1084 301 hradio 15 1 0 8 empty empty empty 0 -8 0 10 -262144
-1 -1 0;
#X obj 1209 71 inlet;
#X obj 1122 68 inlet;
#X obj 1209 93 u_dispatch \$0 poke-0-interval;
#X obj 1209 113 u_dispatch \$0 poke-1-interval;
#X obj 1209 133 u_dispatch \$0 poke-2-interval;
#X obj 369 118 r \$0-poke-1-interval;
#X obj 228 118 r \$0-poke-0-interval;
#X obj 510 118 r \$0-poke-2-interval;
#X obj 1084 257 loadbang;
#X msg 1084 279 0;
#X connect 0 0 59 0;
#X connect 1 0 60 0;
#X connect 3 0 2 0;
#X connect 4 0 5 0;
#X connect 6 0 13 0;
#X connect 7 0 39 0;
#X connect 7 2 14 0;
#X connect 8 0 9 0;
#X connect 9 0 10 0;
#X connect 9 0 11 0;
#X connect 10 0 9 1;
#X connect 11 0 6 0;
#X connect 11 1 12 0;
#X connect 12 0 6 2;
#X connect 14 0 9 1;
#X connect 15 0 7 0;
#X connect 15 0 17 0;
#X connect 16 0 24 0;
#X connect 17 0 40 0;
#X connect 17 2 23 0;
#X connect 18 0 19 0;
#X connect 19 0 20 0;
#X connect 19 0 21 0;
#X connect 20 0 19 1;
#X connect 21 0 16 0;
#X connect 21 1 22 0;
#X connect 22 0 16 2;
#X connect 23 0 19 1;
#X connect 25 0 26 0;
#X connect 27 0 34 0;
#X connect 28 0 36 0;
#X connect 28 2 32 0;
#X connect 29 0 30 0;
#X connect 30 0 31 0;
#X connect 30 0 35 0;
#X connect 31 0 30 1;
#X connect 32 0 30 1;
#X connect 33 0 28 0;
#X connect 35 0 27 0;
#X connect 35 1 88 0;
#X connect 36 0 29 0;
#X connect 37 0 38 0;
#X connect 39 0 8 0;
#X connect 40 0 18 0;
#X connect 41 0 42 0;
#X connect 42 0 17 0;
#X connect 42 1 22 1;
#X connect 43 0 37 0;
#X connect 44 0 51 0;
#X connect 46 0 47 0;
#X connect 47 0 48 0;
#X connect 48 0 49 0;
#X connect 49 0 41 0;
#X connect 50 0 17 0;
#X connect 51 0 43 0;
#X connect 52 0 58 0;
#X connect 53 0 44 0;
#X connect 55 0 7 0;
#X connect 55 0 17 0;
#X connect 56 0 57 0;
#X connect 58 0 67 0;
#X connect 59 0 79 0;
#X connect 60 0 80 0;
#X connect 61 0 62 0;
#X connect 62 0 64 0;
#X connect 63 0 60 1;
#X connect 63 0 59 1;
#X connect 64 0 63 0;
#X connect 65 0 54 0;
#X connect 65 1 54 1;
#X connect 66 0 65 2;
#X connect 67 0 65 0;
#X connect 67 0 65 1;
#X connect 68 0 85 0;
#X connect 69 0 64 1;
#X connect 70 0 71 0;
#X connect 71 0 72 0;
#X connect 83 0 84 0;
#X connect 84 0 68 0;
#X connect 88 0 27 2;
#X connect 89 0 90 0;
#X connect 90 0 43 1;
#X connect 91 0 93 0;
#X connect 92 0 91 0;
#X connect 95 0 99 0;
#X connect 96 0 94 0;
#X connect 97 0 99 1;
#X connect 98 0 96 0;
#X connect 100 0 58 1;
#X connect 117 0 116 0;
#X connect 118 0 120 0;
#X connect 120 0 121 0;
#X connect 121 0 122 0;
#X connect 123 0 115 0;
#X connect 124 0 101 0;
#X connect 125 0 114 0;
#X connect 126 0 127 0;
#X connect 127 0 117 0;
#X coords 0 -1 1 1 600 191 1 50 50;
