#N canvas 215 23 1203 1010 10;
#X obj 54 685 catch~ 4T-grains-L;
#X obj 91 707 catch~ 4T-grains-R;
#X obj 669 391 s \$1-master-grain-length;
#X floatatom 729 373 5 0 0 0 - - -, f 5;
#X floatatom 669 411 5 0 0 0 - - -, f 5;
#X obj 669 429 s \$1-master-grain-start;
#X obj 521 868 pack f \$1 f;
#X obj 521 732 t b b b;
#X obj 521 776 until;
#X obj 521 798 f;
#X obj 548 798 + 1;
#X obj 521 820 t f b;
#X obj 548 844 random 1000;
#X msg 521 890 \; \$2-\$1-grain-start \$3;
#X msg 562 752 0;
#X obj 533 708 bng 15 250 50 0 empty empty empty 17 7 0 10 -262144
-1 -1;
#X obj 681 868 pack f \$1 f;
#X obj 681 732 t b b b;
#X obj 681 776 until;
#X obj 681 798 f;
#X obj 708 798 + 1;
#X obj 681 820 t f b;
#X obj 708 844 random 1000;
#X msg 722 752 0;
#X msg 681 890 \; \$2-\$1-grain-length \$3;
#X floatatom 670 452 5 0 0 0 - - -, f 5;
#X obj 670 470 s \$1-master-grain-speed;
#X floatatom 320 289 5 0 0 0 - - -, f 5;
#X obj 320 307 s \$1-master-grain-interval;
#X msg 521 754 12;
#X msg 681 754 12;
#X floatatom 681 671 5 0 0 0 - - -, f 5;
#X obj 681 690 t b f;
#X obj 681 561 r \$1-angle2;
#X obj 681 584 - 3;
#X obj 681 606 / 12;
#X obj 681 628 * 4370;
#X obj 681 650 + 130;
#X obj 688 712 bng 15 250 50 0 empty empty empty 17 7 0 10 -262144
-1 -1;
#X obj 260 685 catch~ \$1-grain-master-poke;
#X obj 521 684 loadbang;
#X floatatom 670 492 5 0 0 0 - - -, f 5;
#X obj 670 510 s \$1-master-grain-vol;
#X obj 54 773 *~;
#X obj 91 773 *~;
#X obj 674 151 u_samplebank \$1-4T-Source Bridge-Drone.wav;
#X obj 56 69 bng 15 250 50 0 \$0-load-audio-file empty empty 17 7 0
10 -204786 -1 -1;
#X text 74 69 Load audio file;
#X obj 674 106 r \$0-load-audio-file;
#X msg 674 128 open;
#N canvas 87 375 802 301 info 0;
#X floatatom 96 105 8 0 0 1 duration_in_samples - -, f 8;
#X floatatom 69 125 8 0 0 1 duration_in_ms - -, f 8;
#X symbolatom 42 145 12 0 0 1 table_name - -, f 12;
#X floatatom 123 85 6 0 0 1 samplerate - -, f 6;
#X obj 42 39 inlet;
#X obj 42 62 unpack s f f f s;
#X symbolatom 191 61 80 0 0 1 table_name - -, f 80;
#X obj 249 171 print Granulator - Loaded audio file:;
#X obj 247 195 print Duration;
#X connect 4 0 5 0;
#X connect 5 0 2 0;
#X connect 5 1 1 0;
#X connect 5 1 8 0;
#X connect 5 2 0 0;
#X connect 5 3 3 0;
#X connect 5 4 6 0;
#X connect 5 4 7 0;
#X restore 674 173 pd info;
#X obj 463 -30 r \$0-root-note;
#X msg 463 -8 base-note \$1;
#X obj 764 308 u_loader 4T-Granulator \$0;
#X msg 764 287 save;
#X obj 764 330 print preset;
#X obj 41 375 4T-grain-transport \$1 0;
#X obj 343 577 4T-grain-transport \$1 10;
#X obj 343 476 4T-grain-transport \$1 6;
#X obj 494 375 4T-grain-transport \$1 3;
#X obj 343 375 4T-grain-transport \$1 2;
#X obj 41 577 4T-grain-transport \$1 8;
#X obj 494 476 4T-grain-transport \$1 7;
#X obj 192 577 4T-grain-transport \$1 9;
#X obj 494 577 4T-grain-transport \$1 11;
#X obj 41 476 4T-grain-transport \$1 4;
#X obj 192 375 4T-grain-transport \$1 1;
#X obj 192 476 4T-grain-transport \$1 5;
#X obj 974 24 inlet;
#X obj 974 106 u_dispatch \$0 intervals;
#X obj 475 17 r \$0-intervals;
#X msg 475 40 intervals \$1 \$2 \$3 \$4 \$5 \$6 \$7 \$8;
#X obj 490 77 print;
#X floatatom 10 120 5 0 0 0 - - -, f 5;
#X obj 611 -13 loadbang;
#X msg 611 9 note-count 8;
#X obj 320 124 notes 8 0;
#X obj 974 126 u_dispatch \$0 sound-bed-interval;
#X obj 319 60 r \$0-sound-bed-interval;
#X text 318 103 Scale;
#X obj 114 751 line~;
#X obj 114 730 r \$0-gain;
#X obj 974 146 u_dispatch \$0 gain;
#X obj 54 795 outlet~ 4T-grains-L-OUT;
#X obj 91 815 outlet~ 4T-grains-R-OUT;
#X obj 260 707 outlet~;
#X obj 50 -22 r \$0-poke-1-interval;
#X obj 141 -2 r \$0-poke-2-interval;
#X obj 232 18 r \$0-poke-3-interval;
#X obj 974 46 u_dispatch \$0 poke-1-interval;
#X obj 974 66 u_dispatch \$0 poke-2-interval;
#X obj 974 86 u_dispatch \$0 poke-3-interval;
#X obj 233 90 4T-poke \$1 2;
#X obj 142 90 4T-poke \$1 1;
#X obj 51 89 4T-poke \$1 0;
#X text 66 90 Poke 1;
#X text 157 90 Poke 2;
#X text 248 90 Poke 3;
#X connect 0 0 43 0;
#X connect 1 0 44 0;
#X connect 3 0 2 0;
#X connect 4 0 5 0;
#X connect 6 0 13 0;
#X connect 7 0 29 0;
#X connect 7 2 14 0;
#X connect 8 0 9 0;
#X connect 9 0 10 0;
#X connect 9 0 11 0;
#X connect 10 0 9 1;
#X connect 11 0 6 0;
#X connect 11 1 12 0;
#X connect 12 0 6 2;
#X connect 14 0 9 1;
#X connect 15 0 7 0;
#X connect 15 0 17 0;
#X connect 16 0 24 0;
#X connect 17 0 30 0;
#X connect 17 2 23 0;
#X connect 18 0 19 0;
#X connect 19 0 20 0;
#X connect 19 0 21 0;
#X connect 20 0 19 1;
#X connect 21 0 16 0;
#X connect 21 1 22 0;
#X connect 22 0 16 2;
#X connect 23 0 19 1;
#X connect 25 0 26 0;
#X connect 27 0 28 0;
#X connect 29 0 8 0;
#X connect 30 0 18 0;
#X connect 31 0 32 0;
#X connect 32 0 17 0;
#X connect 32 1 22 1;
#X connect 34 0 35 0;
#X connect 35 0 36 0;
#X connect 36 0 37 0;
#X connect 37 0 31 0;
#X connect 38 0 17 0;
#X connect 39 0 85 0;
#X connect 40 0 7 0;
#X connect 40 0 17 0;
#X connect 41 0 42 0;
#X connect 43 0 83 0;
#X connect 44 0 84 0;
#X connect 45 0 50 0;
#X connect 48 0 49 0;
#X connect 49 0 45 0;
#X connect 51 0 52 0;
#X connect 52 0 76 1;
#X connect 54 0 53 0;
#X connect 68 0 89 0;
#X connect 69 0 77 0;
#X connect 70 0 71 0;
#X connect 71 0 72 0;
#X connect 71 0 76 1;
#X connect 74 0 75 0;
#X connect 75 0 76 1;
#X connect 76 0 27 0;
#X connect 77 0 82 0;
#X connect 78 0 76 0;
#X connect 80 0 44 1;
#X connect 80 0 43 1;
#X connect 81 0 80 0;
#X connect 86 0 73 0;
#X connect 86 0 94 0;
#X connect 87 0 93 0;
#X connect 88 0 92 0;
#X connect 89 0 90 0;
#X connect 90 0 91 0;
#X connect 91 0 69 0;
#X coords 0 -1 1 1 366 231 1 50 50;
