#N canvas 201 64 918 709 10;
#X obj 40 31 u_samplebank \$1-4T-Source 4T-Granulator-Audio.aif;
#X obj 154 251 catch~ 4T-grains-L;
#X obj 175 273 catch~ 4T-grains-R;
#X obj 154 297 dac~;
#X obj 159 372 s \$1-master-grain-length;
#X floatatom 159 354 5 0 0 0 - - -, f 5;
#X floatatom 159 414 5 0 0 0 - - -, f 5;
#X obj 159 432 s \$1-master-grain-start;
#X obj 460 411 pack f \$1 f;
#X obj 460 275 t b b b;
#X msg 460 297 5;
#X obj 460 319 until;
#X obj 460 341 f;
#X obj 487 341 + 1;
#X obj 460 363 t f b;
#X obj 487 387 random 1000;
#X msg 460 433 \; \$2-\$1-grain-start \$3;
#X msg 501 295 0;
#X obj 460 251 bng 15 250 50 0 empty empty empty 17 7 0 10 -262144
-1 -1;
#X obj 620 411 pack f \$1 f;
#X obj 620 275 t b b b;
#X msg 620 297 5;
#X obj 620 319 until;
#X obj 620 341 f;
#X obj 647 341 + 1;
#X obj 620 363 t f b;
#X obj 647 387 random 1000;
#X msg 661 295 0;
#X obj 620 251 bng 15 250 50 0 empty empty empty 17 7 0 10 -262144
-1 -1;
#X msg 620 433 \; \$2-\$1-grain-length \$3;
#X floatatom 169 474 5 0 0 0 - - -, f 5;
#X obj 169 492 s \$1-master-grain-speed;
#X obj 341 99 4T-grain-transport \$1 2;
#X obj 39 99 4T-grain-transport \$1 0;
#X obj 190 99 4T-grain-transport \$1 1;
#X obj 492 99 4T-grain-transport \$1 3;
#X obj 643 99 4T-grain-transport \$1 4;
#X connect 1 0 3 0;
#X connect 2 0 3 1;
#X connect 5 0 4 0;
#X connect 6 0 7 0;
#X connect 8 0 16 0;
#X connect 9 0 10 0;
#X connect 9 2 17 0;
#X connect 10 0 11 0;
#X connect 11 0 12 0;
#X connect 12 0 13 0;
#X connect 12 0 14 0;
#X connect 13 0 12 1;
#X connect 14 0 8 0;
#X connect 14 1 15 0;
#X connect 15 0 8 2;
#X connect 17 0 12 1;
#X connect 18 0 9 0;
#X connect 19 0 29 0;
#X connect 20 0 21 0;
#X connect 20 2 27 0;
#X connect 21 0 22 0;
#X connect 22 0 23 0;
#X connect 23 0 24 0;
#X connect 23 0 25 0;
#X connect 24 0 23 1;
#X connect 25 0 19 0;
#X connect 25 1 26 0;
#X connect 26 0 19 2;
#X connect 27 0 23 1;
#X connect 28 0 20 0;
#X connect 30 0 31 0;
