#N canvas 565 22 1146 855 10;
#X obj 40 31 u_samplebank \$1-4T-Source 4T-Granulator-Audio.aif;
#X obj 86 333 catch~ 4T-grains-L;
#X obj 123 355 catch~ 4T-grains-R;
#X obj 86 719 dac~;
#X obj 436 534 s \$1-master-grain-length;
#X floatatom 436 516 5 0 0 0 - - -, f 5;
#X floatatom 436 554 5 0 0 0 - - -, f 5;
#X obj 436 572 s \$1-master-grain-start;
#X obj 608 593 pack f \$1 f;
#X obj 608 457 t b b b;
#X obj 608 501 until;
#X obj 608 523 f;
#X obj 635 523 + 1;
#X obj 608 545 t f b;
#X obj 635 569 random 1000;
#X msg 608 615 \; \$2-\$1-grain-start \$3;
#X msg 649 477 0;
#X obj 608 433 bng 15 250 50 0 empty empty empty 17 7 0 10 -262144
-1 -1;
#X obj 768 593 pack f \$1 f;
#X obj 768 457 t b b b;
#X obj 768 501 until;
#X obj 768 523 f;
#X obj 795 523 + 1;
#X obj 768 545 t f b;
#X obj 795 569 random 1000;
#X msg 809 477 0;
#X msg 768 615 \; \$2-\$1-grain-length \$3;
#X floatatom 437 595 5 0 0 0 - - -, f 5;
#X obj 437 613 s \$1-master-grain-speed;
#X obj 910 647 pack f \$1 f;
#X obj 910 512 t b b b;
#X obj 910 556 until;
#X obj 910 578 f;
#X obj 937 578 + 1;
#X msg 949 535 0;
#X obj 910 488 bng 15 250 50 0 empty empty empty 17 7 0 10 -262144
-1 -1;
#X msg 910 669 \; \$2-\$1-grain-interval \$3;
#X obj 910 600 t f f;
#X obj 966 382 pack f \$1;
#X floatatom 966 319 5 0 0 0 - - -, f 5;
#X msg 966 404 \; \$2-master-grain-vol 0 \; \$2-\$1-grain-vol 1 \;
;
#X obj 966 338 min 12;
#X obj 966 360 max 0;
#X obj 983 502 \$1;
#X msg 983 523 \; \$1-master-grain-vol 1 \;;
#X obj 983 483 bng 15 250 50 0 empty empty empty 17 7 0 10 -262144
-1 -1;
#X obj 937 624 notes 1 0 0 3 5 6 7 10;
#X msg 910 534 1;
#X floatatom 436 476 5 0 0 0 - - -, f 5;
#X obj 436 494 s \$1-master-grain-interval;
#X obj 493 162 4T-grain-transport \$1 9;
#X msg 608 479 12;
#X msg 768 479 12;
#X obj 86 515 e_platereverb;
#X floatatom 634 380 5 0 0 0 - - -, f 5;
#X obj 634 399 t b f;
#X floatatom 768 396 5 0 0 0 - - -, f 5;
#X obj 768 415 t b f;
#X floatatom 867 423 5 0 0 0 - - -, f 5;
#X obj 443 449 notes 6 0 0 3 5 6 7 10;
#X obj 443 405 * 2;
#X obj 161 412 - 3;
#X obj 161 434 / 12;
#N canvas 0 22 473 173 preset 0;
#X obj 58 18 loadbang;
#X obj 54 115 outlet;
#X msg 54 54 decay_diffusion2 0.84 \, decay_diffusion1 0.889 \, input_diffusion2
0.779 \, excursion 0.53761 \, input_diffusion1 0.685 \, decay 0.99
\, damping 4637 \, bandwidth 10000 \, predelay 10;
#X connect 0 0 2 0;
#X connect 2 0 1 0;
#X restore 175 486 pd preset;
#X msg 161 454 dry \$1;
#X obj 224 424 / 2;
#X floatatom 242 474 5 0 0 0 - - -, f 5;
#X obj 224 446 + 0.5;
#X obj 768 287 r \$1-angle2;
#X obj 768 309 - 3;
#X obj 768 331 / 12;
#X obj 768 353 * 4370;
#X obj 768 375 + 130;
#X obj 775 437 bng 15 250 50 0 empty empty empty 17 7 0 10 -262144
-1 -1;
#X obj 86 597 e_reslop \$1-4T-lop 20000;
#X obj 116 618 e_reslop \$1-4T-lop 20000;
#X msg 257 537 freq \$1;
#X obj 314 515 loadbang;
#X obj 294 371 - 3;
#X obj 294 393 / 12;
#X obj 294 437 * 19000;
#X obj 294 459 + 500;
#X obj 294 415 pow 3;
#X obj 86 677 *~;
#X obj 116 677 *~;
#X obj 131 653 line~;
#X obj 86 560 *~;
#X obj 116 560 *~;
#X obj 131 536 line~;
#X obj 354 416 * -1;
#X floatatom 368 528 5 0 0 0 - - -, f 5;
#X floatatom 37 37 5 0 0 0 - - -, f 5;
#X floatatom 390 486 5 0 0 0 - - -, f 5;
#X obj 354 467 * 2;
#X obj 354 438 + 1;
#X obj 354 489 + 1;
#X msg 314 536 q 3;
#X floatatom 489 425 5 0 0 0 - - -, f 5;
#X obj 443 427 - 0;
#X obj 282 607 catch~ \$1-grain-master-poke;
#X obj 191 162 4T-grain-transport \$1 7;
#X obj 40 162 4T-grain-transport \$1 6;
#X obj 644 162 4T-grain-transport \$1 10;
#X obj 795 162 4T-grain-transport \$1 11;
#X obj 342 162 4T-grain-transport \$1 8;
#X obj 40 61 4T-grain-transport \$1 0;
#X obj 644 61 4T-grain-transport \$1 4;
#X obj 342 61 4T-grain-transport \$1 2;
#X obj 191 61 4T-grain-transport \$1 1;
#X obj 493 61 4T-grain-transport \$1 3;
#X obj 795 61 4T-grain-transport \$1 5;
#X msg 605 667 0 50 100 8;
#X obj 728 725 pow 2;
#X obj 755 702 / 12;
#X msg 728 702 2;
#X obj 728 680 t b f;
#X floatatom 728 747 5 0 0 0 - - -, f 5;
#X msg 732 649 \$1;
#X floatatom 784 671 5 0 0 0 - - -, f 5;
#X obj 270 755 unpack f f f f;
#X obj 233 777 pack \$1 f f f f f;
#X obj 233 713 t b b;
#X obj 260 734 random 12;
#X obj 233 690 t b a;
#X msg 233 798 \; \$1-\$2-poke \$3 \$4 \$5 \$6 \;;
#X floatatom 522 313 5 0 0 0 - - -, f 5;
#X floatatom 546 370 5 0 0 0 - - -, f 5;
#X obj 516 348 notes 7 0 0 2 3 5 7 9 10;
#X obj 161 390 r \$1-0-angle1;
#X obj 294 349 r \$1-0-angle2;
#X obj 443 383 r \$1-0-section;
#X obj 593 268 r \$1-1-section;
#X obj 43 390 dac~;
#X obj 376 322 loadbang;
#X msg 376 344 20000;
#X msg 426 342 1;
#X obj 282 659 dac~;
#X obj 593 320 - 14;
#X msg 540 737 100 50 100 \$1;
#X obj 187 688 *~ 0.2;
#X obj 282 629 *~ 2;
#X obj 593 290 change;
#X msg 494 651 1000 50 100 \$1;
#X msg 418 792 \; \$1-\$2-poke \$3 \$4 \$5 \$6 \;;
#X obj 417 767 \$1;
#X connect 1 0 53 0;
#X connect 2 0 53 1;
#X connect 5 0 4 0;
#X connect 6 0 7 0;
#X connect 8 0 15 0;
#X connect 9 0 51 0;
#X connect 9 2 16 0;
#X connect 10 0 11 0;
#X connect 11 0 12 0;
#X connect 11 0 13 0;
#X connect 12 0 11 1;
#X connect 13 0 8 0;
#X connect 13 1 14 0;
#X connect 14 0 8 2;
#X connect 16 0 11 1;
#X connect 17 0 9 0;
#X connect 18 0 26 0;
#X connect 19 0 52 0;
#X connect 19 2 25 0;
#X connect 20 0 21 0;
#X connect 21 0 22 0;
#X connect 21 0 23 0;
#X connect 22 0 21 1;
#X connect 23 0 18 0;
#X connect 23 1 24 0;
#X connect 24 0 18 2;
#X connect 25 0 21 1;
#X connect 27 0 28 0;
#X connect 29 0 36 0;
#X connect 30 0 47 0;
#X connect 30 2 34 0;
#X connect 31 0 32 0;
#X connect 32 0 33 0;
#X connect 32 0 37 0;
#X connect 33 0 32 1;
#X connect 34 0 32 1;
#X connect 35 0 30 0;
#X connect 37 0 29 0;
#X connect 37 1 46 0;
#X connect 38 0 40 0;
#X connect 39 0 41 0;
#X connect 41 0 42 0;
#X connect 42 0 38 0;
#X connect 43 0 44 0;
#X connect 45 0 43 0;
#X connect 46 0 29 2;
#X connect 47 0 31 0;
#X connect 48 0 49 0;
#X connect 51 0 10 0;
#X connect 52 0 20 0;
#X connect 53 0 86 0;
#X connect 53 1 87 0;
#X connect 54 0 55 0;
#X connect 55 0 9 0;
#X connect 55 1 14 1;
#X connect 56 0 57 0;
#X connect 57 0 19 0;
#X connect 57 1 24 1;
#X connect 59 0 48 0;
#X connect 60 0 98 0;
#X connect 61 0 62 0;
#X connect 62 0 64 0;
#X connect 62 0 65 0;
#X connect 63 0 53 2;
#X connect 64 0 53 2;
#X connect 65 0 67 0;
#X connect 67 0 66 0;
#X connect 67 0 88 0;
#X connect 69 0 70 0;
#X connect 70 0 71 0;
#X connect 71 0 72 0;
#X connect 72 0 56 0;
#X connect 73 0 19 0;
#X connect 74 0 83 0;
#X connect 75 0 84 0;
#X connect 76 0 74 1;
#X connect 76 0 75 1;
#X connect 77 0 96 0;
#X connect 78 0 79 0;
#X connect 79 0 82 0;
#X connect 80 0 81 0;
#X connect 81 0 76 0;
#X connect 82 0 80 0;
#X connect 82 0 89 0;
#X connect 83 0 3 0;
#X connect 84 0 3 1;
#X connect 85 0 84 1;
#X connect 85 0 83 1;
#X connect 86 0 74 0;
#X connect 87 0 75 0;
#X connect 88 0 87 1;
#X connect 88 0 86 1;
#X connect 89 0 94 0;
#X connect 93 0 95 0;
#X connect 94 0 92 0;
#X connect 94 0 93 0;
#X connect 95 0 85 0;
#X connect 95 0 90 0;
#X connect 96 0 75 1;
#X connect 96 0 74 1;
#X connect 98 0 59 0;
#X connect 99 0 140 0;
#X connect 112 0 116 0;
#X connect 112 0 142 0;
#X connect 113 0 112 1;
#X connect 114 0 112 0;
#X connect 115 0 114 0;
#X connect 115 1 113 0;
#X connect 117 0 115 0;
#X connect 118 0 117 0;
#X connect 119 0 120 2;
#X connect 119 1 120 3;
#X connect 119 2 120 4;
#X connect 119 3 120 5;
#X connect 120 0 124 0;
#X connect 121 0 120 0;
#X connect 121 1 122 0;
#X connect 122 0 120 1;
#X connect 123 0 121 0;
#X connect 123 1 119 0;
#X connect 125 0 127 0;
#X connect 127 0 117 0;
#X connect 127 0 126 0;
#X connect 128 0 61 0;
#X connect 129 0 78 0;
#X connect 130 0 60 0;
#X connect 131 0 141 0;
#X connect 133 0 134 0;
#X connect 133 0 135 0;
#X connect 134 0 76 0;
#X connect 135 0 88 0;
#X connect 135 0 85 0;
#X connect 137 0 127 0;
#X connect 138 0 123 0;
#X connect 139 0 53 1;
#X connect 139 0 53 0;
#X connect 140 0 136 0;
#X connect 140 0 136 1;
#X connect 140 0 139 0;
#X connect 141 0 137 0;
#X connect 142 0 123 0;
