#N canvas 133 61 500 507 10;
#X obj 39 297 s_playtable;
#X msg 39 274 \$1-4T-Source 1 \$2 \$3 \$4;
#X obj 247 205 v \$1-4T-Source-tableSize-v;
#X obj 247 227 m_sm2ms;
#X obj 247 183 loadbang;
#X obj 56 181 metro;
#X obj 83 156 f;
#X obj 39 73 t b b f;
#X msg 57 156 1;
#X obj 106 116 t b b f;
#X msg 108 156 0;
#X obj 39 319 *~ 1;
#X obj 39 391 e_pan;
#X obj 432 40 loadbang;
#X msg 432 62 0.5;
#X obj 39 419 throw~ 4T-grains-L;
#X obj 66 440 throw~ 4T-grains-R;
#X obj 245 31 r \$1-\$2-grain-start;
#X obj 125 86 r \$1-\$2-grain-length;
#X floatatom 306 79 5 0 0 0 - - -, f 5;
#X floatatom 306 96 5 0 0 0 - - -, f 5;
#X text 340 96 Length;
#X text 340 79 Start-point;
#X floatatom 306 113 5 0 0 0 - - -, f 5;
#X text 340 113 Speed;
#X floatatom 305 234 5 0 0 0 - - -, f 5;
#X obj 133 66 r \$1-master-grain-length;
#X obj 50 29 r \$1-master-grain-start;
#X obj 309 131 hsl 80 10 0 1 0 0 empty empty empty -2 -8 0 10 -262144
-1 -1 0 1;
#X text 393 128 Pan;
#X text 394 144 Vol;
#X msg 460 61 1;
#X obj 419 131 tgl 10 0 empty empty empty 17 7 0 10 -262144 -1 -1 0
1;
#X obj 421 185 random 100;
#X obj 421 207 / 100;
#X obj 421 163 spigot;
#X obj 64 227 r \$1-\$2-grain-speed;
#X obj 74 206 r \$1-master-grain-speed;
#X obj 309 146 hsl 80 10 0 1 0 0 empty empty empty -2 -8 0 10 -262144
-1 -1 0 1;
#X obj 39 251 pack \$1 1 0 100;
#X connect 0 0 11 0;
#X connect 1 0 0 0;
#X connect 2 0 3 0;
#X connect 2 0 25 0;
#X connect 3 0 39 3;
#X connect 4 0 2 0;
#X connect 5 0 35 0;
#X connect 5 0 39 0;
#X connect 6 0 5 1;
#X connect 7 0 39 0;
#X connect 7 1 8 0;
#X connect 7 2 39 2;
#X connect 8 0 5 0;
#X connect 9 0 39 0;
#X connect 9 1 8 0;
#X connect 9 2 6 0;
#X connect 9 2 39 3;
#X connect 10 0 5 0;
#X connect 11 0 12 0;
#X connect 12 0 15 0;
#X connect 12 1 16 0;
#X connect 13 0 14 0;
#X connect 13 0 31 0;
#X connect 14 0 28 0;
#X connect 17 0 19 0;
#X connect 18 0 20 0;
#X connect 19 0 7 0;
#X connect 20 0 9 0;
#X connect 23 0 39 1;
#X connect 26 0 20 0;
#X connect 27 0 19 0;
#X connect 28 0 12 1;
#X connect 31 0 23 0;
#X connect 31 0 38 0;
#X connect 32 0 35 1;
#X connect 33 0 34 0;
#X connect 34 0 28 0;
#X connect 35 0 33 0;
#X connect 36 0 23 0;
#X connect 37 0 23 0;
#X connect 38 0 11 1;
#X connect 39 0 1 0;
#X coords 0 -1 1 1 150 100 1 300 60;
