#N canvas -12 22 1436 856 10;
#X obj 54 615 catch~ 4T-grains-L;
#X obj 91 637 catch~ 4T-grains-R;
#X obj 669 321 s \$1-master-grain-length;
#X floatatom 669 303 5 0 0 0 - - -, f 5;
#X floatatom 669 341 5 0 0 0 - - -, f 5;
#X obj 669 359 s \$1-master-grain-start;
#X obj 521 798 pack f \$1 f;
#X obj 521 662 t b b b;
#X obj 521 706 until;
#X obj 521 728 f;
#X obj 548 728 + 1;
#X obj 521 750 t f b;
#X obj 548 774 random 1000;
#X msg 521 820 \; \$2-\$1-grain-start \$3;
#X msg 562 682 0;
#X obj 533 638 bng 15 250 50 0 empty empty empty 17 7 0 10 -262144
-1 -1;
#X obj 681 798 pack f \$1 f;
#X obj 681 662 t b b b;
#X obj 681 706 until;
#X obj 681 728 f;
#X obj 708 728 + 1;
#X obj 681 750 t f b;
#X obj 708 774 random 1000;
#X msg 722 682 0;
#X msg 681 820 \; \$2-\$1-grain-length \$3;
#X floatatom 670 382 5 0 0 0 - - -, f 5;
#X obj 670 400 s \$1-master-grain-speed;
#X obj 897 804 pack f \$1 f;
#X obj 897 669 t b b b;
#X obj 897 713 until;
#X obj 897 735 f;
#X obj 924 735 + 1;
#X msg 936 692 0;
#X obj 897 645 bng 15 250 50 0 empty empty empty 17 7 0 10 -262144
-1 -1;
#X msg 897 826 \; \$2-\$1-grain-interval \$3;
#X obj 897 757 t f f;
#X msg 897 691 1;
#X floatatom 970 154 5 0 0 0 - - -, f 5;
#X obj 970 172 s \$1-master-grain-interval;
#X msg 521 684 12;
#X msg 681 684 12;
#X floatatom 681 601 5 0 0 0 - - -, f 5;
#X obj 681 620 t b f;
#X obj 970 132 notes 6 0 0 3 5 6 7 10;
#X obj 970 88 * 2;
#X obj 680 501 r \$1-angle2;
#X obj 681 514 - 3;
#X obj 681 536 / 12;
#X obj 681 558 * 4370;
#X obj 681 580 + 130;
#X obj 688 642 bng 15 250 50 0 empty empty empty 17 7 0 10 -262144
-1 -1;
#X obj 970 110 - 0;
#X obj 800 558 catch~ \$1-grain-master-poke;
#X obj 1179 217 pow 2;
#X obj 1206 194 / 12;
#X msg 1179 194 2;
#X obj 1179 172 t b f;
#X msg 1179 151 \$1;
#X obj 1179 283 t b b;
#X obj 1206 304 random 12;
#X obj 1179 260 t b a;
#X obj 970 66 r \$1-0-section;
#X obj 1179 66 r \$1-1-section;
#X obj 800 670 dac~;
#X obj 1179 88 change;
#X obj 521 614 loadbang;
#X obj 41 477 4T-grain-transport \$1 8;
#X msg 1179 368 \; \$1-\$2-poke \$3 \$4 \$5 \$6 \$7 \;;
#X obj 1179 347 pack \$1 f f f f f f;
#X obj 1216 325 unpack f f f f f;
#X floatatom 670 422 5 0 0 0 - - -, f 5;
#X obj 670 440 s \$1-master-grain-vol;
#X obj 1179 587 pow 2;
#X obj 1206 564 / 12;
#X msg 1179 564 2;
#X obj 1179 542 t b f;
#X msg 1179 521 \$1;
#X obj 1179 653 t b b;
#X obj 1206 674 random 12;
#X obj 1179 630 t b a;
#X obj 1179 458 change;
#X msg 1179 738 \; \$1-\$2-poke \$3 \$4 \$5 \$6 \$7 \;;
#X obj 1179 717 pack \$1 f f f f f f;
#X obj 1216 695 unpack f f f f f;
#X obj 1179 479 + 14;
#X obj 1179 436 r \$1-2-section;
#X obj 800 580 *~ 1;
#X obj 1179 109 - 21;
#X msg 1179 237 50 250 400 \$1 0.35;
#X msg 1179 607 700 50 1500 \$1 0.2;
#X obj 54 743 *~;
#X obj 91 743 *~;
#X obj 114 657 r \$1-0-rotations;
#X obj 114 679 > 1;
#X obj 114 721 lop~ 0.3;
#X obj 114 701 * 0.15;
#X obj 800 635 e_platereverb;
#N canvas 0 22 473 173 preset 0;
#X obj 54 31 loadbang;
#X obj 54 115 outlet;
#X msg 54 54 decay_diffusion2 0.84 \, decay_diffusion1 0.889 \, input_diffusion2
0.779 \, excursion 0.53761 \, input_diffusion1 0.685 \, decay 0.99
\, damping 4637 \, bandwidth 10000 \, predelay 10 \, dry 0.9;
#X connect 0 0 2 0;
#X connect 2 0 1 0;
#X restore 875 612 pd preset;
#X obj 800 611 *~ 0.5;
#X obj 658 95 u_samplebank \$1-4T-Source Bridge-Drone.wav;
#X floatatom 157 681 5 0 0 0 - - -, f 5;
#X obj 1002 364 r \$1-2-angle1;
#X obj 1002 386 - 3;
#X obj 1002 408 / 12;
#X obj 338 680 vradio 15 1 0 5 empty empty empty 0 -8 0 10 -262144
-1 -1 0;
#X text 328 710 0;
#X text 322 695 +1;
#X text 322 681 +2;
#X text 322 725 -1;
#X text 322 739 -2;
#X obj 494 376 4T-grain-transport \$1 7;
#X obj 192 477 4T-grain-transport \$1 9;
#X obj 343 376 4T-grain-transport \$1 6;
#X obj 343 477 4T-grain-transport \$1 10;
#X obj 494 477 4T-grain-transport \$1 11;
#X obj 41 275 4T-grain-transport \$1 0;
#X obj 41 376 4T-grain-transport \$1 4;
#X obj 343 275 4T-grain-transport \$1 2;
#X obj 192 275 4T-grain-transport \$1 1;
#X obj 494 275 4T-grain-transport \$1 3;
#X obj 192 376 4T-grain-transport \$1 5;
#X obj 54 765 throw~ 4T-grains-L-OUT;
#X obj 94 785 throw~ 4T-grains-R-OUT;
#X obj 56 69 bng 15 250 50 0 \$0-load-audio-file empty empty 17 7 0
10 -204786 -1 -1;
#X text 74 69 Load audio file;
#X obj 658 50 r \$0-load-audio-file;
#X msg 658 72 open;
#N canvas 148 95 407 261 info 0;
#X floatatom 96 105 8 0 0 1 duration_in_samples - -, f 8;
#X floatatom 69 125 8 0 0 1 duration_in_ms - -, f 8;
#X symbolatom 42 145 12 0 0 1 table_name - -, f 12;
#X obj 42 62 unpack s f f f;
#X floatatom 123 85 6 0 0 1 samplerate - -, f 6;
#X obj 42 39 inlet;
#X obj 69 170 print Granulator - Loaded audio file. Duration;
#X connect 3 0 2 0;
#X connect 3 1 1 0;
#X connect 3 1 6 0;
#X connect 3 2 0 0;
#X connect 3 3 4 0;
#X connect 5 0 3 0;
#X restore 658 117 pd info;
#X obj 56 103 nbx 3 20 -1e+37 1e+37 0 0 \$0-root-note empty empty 0
-8 0 20 -228856 -1 -1 23 256;
#X text 124 105 Root note;
#X obj 924 781 notes 1 0 0 3 5 6 7 10;
#X obj 1179 130 notes 7 0 0 2 3 5 7 9 10;
#X obj 1179 500 notes 7 0 0 2 3 5 7 9 10;
#X obj 1099 13 r \$0-root-note;
#X msg 1099 35 base-note \$1;
#X obj 861 285 c_adsr;
#X obj 887 239 overview;
#X obj 695 170 4T-poke \$0 0;
#X connect 0 0 90 0;
#X connect 1 0 91 0;
#X connect 3 0 2 0;
#X connect 4 0 5 0;
#X connect 6 0 13 0;
#X connect 7 0 39 0;
#X connect 7 2 14 0;
#X connect 8 0 9 0;
#X connect 9 0 10 0;
#X connect 9 0 11 0;
#X connect 10 0 9 1;
#X connect 11 0 6 0;
#X connect 11 1 12 0;
#X connect 12 0 6 2;
#X connect 14 0 9 1;
#X connect 15 0 7 0;
#X connect 16 0 24 0;
#X connect 17 0 40 0;
#X connect 17 2 23 0;
#X connect 18 0 19 0;
#X connect 19 0 20 0;
#X connect 19 0 21 0;
#X connect 20 0 19 1;
#X connect 21 0 16 0;
#X connect 21 1 22 0;
#X connect 22 0 16 2;
#X connect 23 0 19 1;
#X connect 25 0 26 0;
#X connect 27 0 34 0;
#X connect 28 0 36 0;
#X connect 28 2 32 0;
#X connect 29 0 30 0;
#X connect 30 0 31 0;
#X connect 30 0 35 0;
#X connect 31 0 30 1;
#X connect 32 0 30 1;
#X connect 33 0 28 0;
#X connect 35 0 27 0;
#X connect 35 1 130 0;
#X connect 36 0 29 0;
#X connect 37 0 38 0;
#X connect 39 0 8 0;
#X connect 40 0 18 0;
#X connect 41 0 42 0;
#X connect 42 0 17 0;
#X connect 42 1 22 1;
#X connect 43 0 37 0;
#X connect 44 0 51 0;
#X connect 46 0 47 0;
#X connect 47 0 48 0;
#X connect 48 0 49 0;
#X connect 49 0 41 0;
#X connect 50 0 17 0;
#X connect 51 0 43 0;
#X connect 52 0 86 0;
#X connect 53 0 88 0;
#X connect 54 0 53 1;
#X connect 55 0 53 0;
#X connect 56 0 55 0;
#X connect 56 1 54 0;
#X connect 57 0 56 0;
#X connect 58 0 68 0;
#X connect 58 1 59 0;
#X connect 59 0 68 1;
#X connect 60 0 58 0;
#X connect 60 1 69 0;
#X connect 61 0 44 0;
#X connect 62 0 64 0;
#X connect 64 0 87 0;
#X connect 65 0 7 0;
#X connect 65 0 17 0;
#X connect 68 0 67 0;
#X connect 69 0 68 2;
#X connect 69 1 68 3;
#X connect 69 2 68 4;
#X connect 69 3 68 5;
#X connect 69 4 68 6;
#X connect 70 0 71 0;
#X connect 72 0 89 0;
#X connect 73 0 72 1;
#X connect 74 0 72 0;
#X connect 75 0 74 0;
#X connect 75 1 73 0;
#X connect 76 0 75 0;
#X connect 77 0 82 0;
#X connect 77 1 78 0;
#X connect 78 0 82 1;
#X connect 79 0 77 0;
#X connect 79 1 83 0;
#X connect 80 0 84 0;
#X connect 82 0 81 0;
#X connect 83 0 82 2;
#X connect 83 1 82 3;
#X connect 83 2 82 4;
#X connect 83 3 82 5;
#X connect 83 4 82 6;
#X connect 84 0 132 0;
#X connect 85 0 80 0;
#X connect 86 0 98 0;
#X connect 87 0 131 0;
#X connect 88 0 60 0;
#X connect 89 0 79 0;
#X connect 90 0 121 0;
#X connect 91 0 122 0;
#X connect 92 0 93 0;
#X connect 93 0 95 0;
#X connect 94 0 91 1;
#X connect 94 0 90 1;
#X connect 95 0 94 0;
#X connect 96 0 63 0;
#X connect 96 1 63 1;
#X connect 97 0 96 2;
#X connect 98 0 96 0;
#X connect 98 0 96 1;
#X connect 99 0 127 0;
#X connect 100 0 95 1;
#X connect 101 0 102 0;
#X connect 102 0 103 0;
#X connect 125 0 126 0;
#X connect 126 0 99 0;
#X connect 130 0 27 2;
#X connect 131 0 57 0;
#X connect 132 0 76 0;
#X connect 133 0 134 0;
#X connect 134 0 43 1;
#X connect 134 0 131 1;
#X coords 0 -1 1 1 600 195 1 50 50;
