#N canvas 11 77 760 672 10;
#X obj 39 417 s_playtable;
#X msg 39 344 \$1-4T-Source 1 \$2 \$3 \$4;
#X obj 247 205 v \$1-4T-Source-tableSize-v;
#X obj 247 257 m_sm2ms;
#X obj 247 183 loadbang;
#X obj 56 181 metro;
#X obj 83 156 f;
#X obj 39 73 t b b f;
#X msg 57 156 1;
#X obj 106 116 t b b f;
#X msg 108 156 0;
#X obj 39 499 *~ 1;
#X obj 39 521 e_pan;
#X obj 432 40 loadbang;
#X msg 432 62 0.5;
#X obj 39 549 throw~ 4T-grains-L;
#X obj 66 570 throw~ 4T-grains-R;
#X obj 245 31 r \$1-\$2-grain-start;
#X obj 125 86 r \$1-\$2-grain-length;
#X floatatom 306 79 5 0 0 0 - - -, f 5;
#X floatatom 306 96 5 0 0 0 - - -, f 5;
#X text 340 96 Length;
#X text 340 79 Start-point;
#X floatatom 306 113 5 0 0 0 - - -, f 5;
#X obj 133 66 r \$1-master-grain-length;
#X obj 50 29 r \$1-master-grain-start;
#X obj 309 131 hsl 80 10 0 1 0 0 empty empty empty -2 -8 0 10 -262144
-1 -1 3950 1;
#X text 393 128 Pan;
#X text 394 144 Vol;
#X msg 461 62 1;
#X obj 419 131 tgl 10 0 empty empty empty 17 7 0 10 -262144 -1 -1 0
1;
#X obj 421 185 random 100;
#X obj 421 207 / 100;
#X obj 421 163 spigot;
#X obj 64 227 r \$1-\$2-grain-speed;
#X obj 74 206 r \$1-master-grain-speed;
#X obj 309 146 hsl 80 10 0 1 0 0 empty empty empty -2 -8 0 10 -262144
-1 -1 7900 1;
#X obj 39 321 pack \$1 1 0 100;
#X obj 536 224 pow 2;
#X obj 563 201 / 12;
#X msg 536 201 2;
#X obj 536 179 t b f;
#X floatatom 379 113 5 0 0 0 - - -, f 5;
#X text 413 113 Speed;
#X obj 539 32 r \$1-\$2-grain-interval;
#X text 340 113 Inter;
#X msg 491 62 0;
#X obj 484 115 r \$1-master-grain-vol;
#X obj 494 134 r \$1-\$2-grain-vol;
#X obj 559 11 r \$1-master-grain-interval;
#X obj 539 79 spigot;
#X obj 432 94 tgl 15 0 empty empty empty 17 7 0 10 -262144 -1 -1 1
1;
#X obj 539 55 t b f;
#X obj 346 289 r \$1-\$2-poke;
#X obj 347 546 *~;
#X obj 347 596 throw~ \$1-grain-master-poke;
#X obj 425 524 vline~;
#X obj 467 453 +;
#X obj 346 412 s_playtable;
#X msg 485 384 1000 50 100;
#X msg 346 341 bang;
#X obj 346 311 t b a;
#X obj 346 364 pack \$1 f;
#X msg 346 386 \$1-4T-Source 4 \$2;
#X obj 425 481 pack f f f f f;
#X msg 425 503 0 2 \, \$5 \$2 2 \, 0 \$4 \$3;
#X obj 448 421 unpack f f f f f;
#X obj 262 232 r \$1-4T-Source-tableSize;
#X connect 0 0 11 0;
#X connect 1 0 0 0;
#X connect 2 0 3 0;
#X connect 3 0 37 3;
#X connect 4 0 2 0;
#X connect 5 0 33 0;
#X connect 5 0 37 0;
#X connect 6 0 5 1;
#X connect 7 0 37 0;
#X connect 7 1 8 0;
#X connect 7 2 37 2;
#X connect 8 0 5 0;
#X connect 9 0 37 0;
#X connect 9 1 8 0;
#X connect 9 2 6 0;
#X connect 9 2 37 3;
#X connect 10 0 5 0;
#X connect 11 0 12 0;
#X connect 12 0 15 0;
#X connect 12 1 16 0;
#X connect 13 0 14 0;
#X connect 13 0 29 0;
#X connect 13 0 46 0;
#X connect 14 0 26 0;
#X connect 17 0 19 0;
#X connect 18 0 20 0;
#X connect 19 0 7 0;
#X connect 20 0 9 0;
#X connect 23 0 41 0;
#X connect 24 0 20 0;
#X connect 25 0 19 0;
#X connect 26 0 12 1;
#X connect 29 0 36 0;
#X connect 29 0 51 0;
#X connect 30 0 33 1;
#X connect 31 0 32 0;
#X connect 32 0 26 0;
#X connect 33 0 31 0;
#X connect 34 0 23 0;
#X connect 35 0 23 0;
#X connect 36 0 11 1;
#X connect 37 0 1 0;
#X connect 38 0 42 0;
#X connect 39 0 38 1;
#X connect 40 0 38 0;
#X connect 41 0 40 0;
#X connect 41 1 39 0;
#X connect 42 0 37 1;
#X connect 44 0 52 0;
#X connect 46 0 23 0;
#X connect 47 0 36 0;
#X connect 48 0 36 0;
#X connect 49 0 52 0;
#X connect 50 0 8 0;
#X connect 51 0 50 1;
#X connect 52 0 50 0;
#X connect 52 1 23 0;
#X connect 53 0 61 0;
#X connect 54 0 55 0;
#X connect 56 0 54 1;
#X connect 57 0 64 2;
#X connect 58 0 54 0;
#X connect 59 0 66 0;
#X connect 60 0 62 0;
#X connect 60 0 64 0;
#X connect 61 0 60 0;
#X connect 61 1 66 0;
#X connect 62 0 63 0;
#X connect 63 0 58 0;
#X connect 64 0 65 0;
#X connect 65 0 56 0;
#X connect 66 0 57 0;
#X connect 66 0 64 1;
#X connect 66 1 57 1;
#X connect 66 2 64 3;
#X connect 66 3 62 1;
#X connect 66 4 64 4;
#X connect 67 0 3 0;
#X coords 0 -1 1 1 150 100 1 300 60;
