#N canvas 410 169 619 920 10;
#X obj 72 363 pow 2;
#X obj 99 340 / 12;
#X msg 72 340 2;
#X obj 72 318 t b f;
#X msg 72 297 \$1;
#X obj 72 589 t b b;
#X obj 99 683 random 12;
#X obj 72 566 t b a;
#X msg 72 793 \; \$1-\$2-poke \$3 \$4 \$5 \$6 \$7 \;;
#X msg 213 38 base-note \$1;
#X msg 233 138 note-count \$1;
#X obj 72 268 +;
#X obj 87 246 * 12;
#X obj 87 223 r \$0-octave;
#X obj 102 384 r \$0-attack;
#X obj 133 404 r \$0-hold;
#X obj 164 424 r \$0-release;
#X obj 195 444 r \$0-gain;
#X floatatom 207 469 5 0 0 0 - - -, f 5;
#X floatatom 126 252 5 0 0 0 - - -, f 5;
#X floatatom 157 360 5 0 0 0 - - -, f 5;
#X floatatom 185 383 5 0 0 0 - - -, f 5;
#X floatatom 208 401 5 0 0 0 - - -, f 5;
#X msg 72 543 \$2 \$3 \$4 \$1 \$5 \$6;
#X obj 109 751 unpack f f f f f f;
#X obj 72 773 pack \$1 f f f f f f f;
#X obj 72 515 pack f 100 50 200 0.2 0;
#X obj 206 484 r \$0-start-pos;
#X floatatom 217 506 5 0 0 0 - - -, f 5;
#X obj 180 592 r \$0-mono;
#X obj 99 638 list trim;
#X obj 99 660 route 0 1;
#X obj 124 706 \$2;
#X obj 99 616 list prepend 0;
#X obj 372 10 u_loader 4T-poke-\$2 \$0;
#X obj 72 20 inlet note;
#X obj 72 52 notes 8 0;
#X obj 213 16 r \$0-root-note;
#X obj 233 116 r \$0-note-count;
#X obj 220 89 list prepend intervals;
#X obj 220 67 r \$0-intervals;
#X obj 371 101 cnv 15 76 189 empty empty empty 20 12 0 14 -196152 -66577
0;
#X obj 370 68 r \$0-gui;
#X obj 432 46 r RJ_SCENE_LOAD;
#X obj 370 146 g_nbx hold;
#X obj 358 461 u_dispatch \$0 attack;
#X obj 358 481 u_dispatch \$0 hold;
#X obj 358 501 u_dispatch \$0 release;
#X obj 358 441 u_dispatch \$0 octave;
#X obj 358 521 u_dispatch \$0 gain;
#X obj 358 543 u_dispatch \$0 start-pos;
#X obj 370 269 tgl 15 0 empty empty empty 17 7 0 10 -262144 -1 -1 0
1;
#X msg 370 418 mono \$1;
#X obj 358 565 u_dispatch \$0 mono;
#X text 388 269 Mono;
#X obj 436 382 route mono;
#X obj 436 361 list trim;
#X obj 432 68 route 4T-poke-\$2;
#X obj 358 587 u_dispatch \$0 intervals;
#X obj 426 417 inlet;
#X obj 358 607 u_dispatch \$0 base-note;
#X obj 358 627 u_dispatch \$0 note-count;
#X obj 370 116 g_nbx attack;
#X obj 370 176 g_nbx release;
#X obj 370 206 g_nbx gain;
#X obj 370 236 g_nbx octave;
#X connect 0 0 26 0;
#X connect 1 0 0 1;
#X connect 2 0 0 0;
#X connect 3 0 2 0;
#X connect 3 1 1 0;
#X connect 4 0 3 0;
#X connect 5 0 25 0;
#X connect 5 1 33 0;
#X connect 6 0 25 1;
#X connect 7 0 5 0;
#X connect 7 1 24 0;
#X connect 9 0 36 1;
#X connect 10 0 36 1;
#X connect 11 0 4 0;
#X connect 12 0 11 1;
#X connect 13 0 12 0;
#X connect 13 0 19 0;
#X connect 14 0 20 0;
#X connect 14 0 26 1;
#X connect 15 0 21 0;
#X connect 15 0 26 2;
#X connect 16 0 22 0;
#X connect 16 0 26 3;
#X connect 17 0 18 0;
#X connect 17 0 26 4;
#X connect 23 0 7 0;
#X connect 24 0 25 2;
#X connect 24 1 25 3;
#X connect 24 2 25 4;
#X connect 24 3 25 5;
#X connect 24 4 25 6;
#X connect 24 5 25 7;
#X connect 25 0 8 0;
#X connect 26 0 23 0;
#X connect 27 0 26 5;
#X connect 27 0 28 0;
#X connect 29 0 33 1;
#X connect 30 0 31 0;
#X connect 31 0 6 0;
#X connect 31 1 32 0;
#X connect 32 0 25 1;
#X connect 33 0 30 0;
#X connect 35 0 36 0;
#X connect 36 0 11 0;
#X connect 37 0 9 0;
#X connect 38 0 10 0;
#X connect 39 0 36 1;
#X connect 40 0 39 0;
#X connect 42 0 62 0;
#X connect 43 0 57 0;
#X connect 44 0 63 0;
#X connect 45 0 46 0;
#X connect 46 0 47 0;
#X connect 47 0 49 0;
#X connect 48 0 45 0;
#X connect 49 0 50 0;
#X connect 50 0 53 0;
#X connect 51 0 52 0;
#X connect 52 0 48 0;
#X connect 53 0 58 0;
#X connect 55 0 51 0;
#X connect 56 0 55 0;
#X connect 57 0 62 0;
#X connect 58 0 60 0;
#X connect 59 0 48 0;
#X connect 60 0 61 0;
#X connect 62 0 44 0;
#X connect 63 0 64 0;
#X connect 64 0 65 0;
#X connect 65 0 48 0;
#X connect 65 0 56 0;
#X coords 0 -1 1 1 78 190 1 370 100;
