#N canvas 194 22 385 533 10;
#X obj 95 -17 vradio 25 1 0 13 empty empty empty -1 -8 0 10 -262144
-1 -1 1;
#X obj 122 -17 vradio 25 1 0 13 empty empty empty -1 -8 0 10 -262144
-1 -1 8;
#X obj 149 -17 vradio 25 1 0 13 empty empty empty -1 -8 0 10 -262144
-1 -1 2;
#X obj 176 -17 vradio 25 1 0 13 empty empty empty -1 -8 0 10 -262144
-1 -1 6;
#X obj 203 -17 vradio 25 1 0 13 empty empty empty -1 -8 0 10 -262144
-1 -1 5;
#X obj 230 -17 vradio 25 1 0 13 empty empty empty -1 -8 0 10 -262144
-1 -1 12;
#X obj 257 -17 vradio 25 1 0 13 empty empty empty -1 -8 0 10 -262144
-1 -1 1;
#X obj 284 -17 vradio 25 1 0 13 empty empty empty -1 -8 0 10 -262144
-1 -1 12;
#N canvas 0 22 549 566 makeScaleList 0;
#X obj 92 54 inlet;
#X obj 158 455 pack 0 0 0 0 0 0 0 0;
#X obj 43 309 bng 15 250 50 0 empty empty empty 17 7 0 10 -262144 -1
-1;
#X obj 128 54 inlet;
#X obj 164 54 inlet;
#X obj 201 54 inlet;
#X obj 239 54 inlet;
#X obj 275 53 inlet;
#X obj 312 53 inlet;
#X obj 349 53 inlet;
#X obj 160 537 outlet;
#X obj 159 496 list prepend 8 0;
#X connect 0 0 1 0;
#X connect 1 0 11 0;
#X connect 2 0 1 0;
#X connect 3 0 1 1;
#X connect 3 0 2 0;
#X connect 4 0 1 2;
#X connect 4 0 2 0;
#X connect 5 0 1 3;
#X connect 5 0 2 0;
#X connect 6 0 1 4;
#X connect 6 0 2 0;
#X connect 7 0 1 5;
#X connect 7 0 2 0;
#X connect 8 0 1 6;
#X connect 8 0 2 0;
#X connect 9 0 1 7;
#X connect 9 0 2 0;
#X connect 11 0 10 0;
#X restore 95 341 pd makeScaleList;
#X obj 95 371 print;
#X text 75 -13 C;
#X text 74 14 C#;
#X text 74 38 D;
#X text 75 87 E;
#X text 75 112 F;
#X text 70 137 F#;
#X text 71 62 D#;
#X text 75 163 G;
#X text 70 189 G#;
#X text 78 213 A;
#X text 71 238 A#;
#X text 76 261 B;
#X text 75 287 C;
#X connect 0 0 8 0;
#X connect 1 0 8 1;
#X connect 2 0 8 2;
#X connect 3 0 8 3;
#X connect 4 0 8 4;
#X connect 5 0 8 5;
#X connect 6 0 8 6;
#X connect 7 0 8 7;
#X connect 8 0 9 0;
